<svg xmlns="http://www.w3.org/2000/svg" viewBox="0 0 16 16">
  <title>3d-glass</title>
  <path d="M13.5,1h-1a.5.5,0,0,0,0,1h1A1.5,1.5,0,0,1,15,3.5V8H1V3.5A1.5,1.5,0,0,1,2.5,2h1a.5.5,0,0,0,0-1h-1A2.5,2.5,0,0,0,0,3.5v11a.5.5,0,0,0,.5.5H6a.5.5,0,0,0,.485-.379L7.391,11H8.609l.905,3.621A.5.5,0,0,0,10,15h5.5a.5.5,0,0,0,.5-.5V3.5A2.5,2.5,0,0,0,13.5,1ZM15,14H10.391l-.905-3.621A.5.5,0,0,0,9,10H7a.5.5,0,0,0-.485.379L5.609,14H1V9H15Z"/>
  <path d="M2.5,13h2a.5.5,0,0,0,.485-.379l.5-2A.5.5,0,0,0,5,10H2.5a.5.5,0,0,0-.5.5v2A.5.5,0,0,0,2.5,13ZM3,11H4.359l-.25,1H3Z"/>
  <path d="M11.015,12.621A.5.5,0,0,0,11.5,13h2a.5.5,0,0,0,.5-.5v-2a.5.5,0,0,0-.5-.5H11a.5.5,0,0,0-.485.621ZM13,11v1H11.891l-.25-1Z"/>
</svg>
