<svg xmlns="http://www.w3.org/2000/svg" viewBox="0 0 16 16">
  <title>android</title>
  <path d="M1.5,5a.5.5,0,0,0-.5.5v5a.5.5,0,0,0,1,0v-5A.5.5,0,0,0,1.5,5Z"/>
  <path d="M13.5,5a.5.5,0,0,0-.5.5v5a.5.5,0,0,0,1,0v-5A.5.5,0,0,0,13.5,5Z"/>
  <path d="M11.931.753a.5.5,0,1,0-.861-.506l-.947,1.612a4.446,4.446,0,0,0-5.181-.053L3.92.229a.5.5,0,1,0-.84.543L4.186,2.481A4.467,4.467,0,0,0,3,5.5v7a.5.5,0,0,0,.5.5H4v1.5a1.5,1.5,0,0,0,3,0V13H8v1.5a1.5,1.5,0,0,0,3,0V13h.5a.5.5,0,0,0,.5-.5v-7a4.492,4.492,0,0,0-1.126-2.949ZM9.974,3.021A3.52,3.52,0,0,1,10.951,5h-6.9A3.491,3.491,0,0,1,9.974,3.021ZM10.5,12a.5.5,0,0,0-.5.5v2a.5.5,0,0,1-1,0v-2a.5.5,0,0,0-.5-.5h-2a.5.5,0,0,0-.5.5v2a.5.5,0,0,1-1,0v-2a.5.5,0,0,0-.5-.5H4V6h7v6Z"/>
  <path d="M8.52,4a.5.5,0,0,0,0-1H8.51a.5.5,0,0,0-.5.5A.5.5,0,0,0,8.52,4Z"/>
  <path d="M6.52,4a.5.5,0,0,0,0-1H6.51a.5.5,0,0,0-.5.5A.5.5,0,0,0,6.52,4Z"/>
</svg>
