<svg xmlns="http://www.w3.org/2000/svg" viewBox="0 0 16 16">
  <title>apple</title>
  <g>
    <path d="M10.225,2.6A3.523,3.523,0,0,0,11,0,3.758,3.758,0,0,0,8.568,1.316a3.258,3.258,0,0,0-.8,2.534A3.169,3.169,0,0,0,10.225,2.6Z" fill="#455a64"/>
    <path d="M14.37,5.368a4.05,4.05,0,0,0-3.057-1.623c-1.435,0-2.042.687-3.039.687-1.028,0-1.809-.685-3.05-.685a4.15,4.15,0,0,0-3.34,2.019C.728,7.56.925,10.933,2.8,13.806,3.471,14.834,4.367,15.99,5.539,16c1.043.01,1.337-.669,2.75-.676s1.681.685,2.722.674c1.173-.009,2.118-1.29,2.789-2.318a11.561,11.561,0,0,0,1.033-1.94A3.526,3.526,0,0,1,14.37,5.368Z" fill="#455a64"/>
  </g>
</svg>
