<svg xmlns="http://www.w3.org/2000/svg" viewBox="0 0 16 16">
  <title>artificial-intelligent</title>
  <g>
    <path d="M14.447,9.776,13,6.882V6A6,6,0,1,0,2.371,9.817,2.558,2.558,0,0,1,3,11.419V14.5a.5.5,0,0,0,.418.493l6,1A.465.465,0,0,0,9.5,16a.5.5,0,0,0,.5-.5V13.59l1.839.3A1,1,0,0,0,13,12.908V10.5h1a.5.5,0,0,0,.447-.724Z" fill="#455a64"/>
    <g>
      <path d="M5.5,4A.5.5,0,0,1,5,3.5v-1a.5.5,0,1,1,1,0v1A.5.5,0,0,1,5.5,4Z" fill="#0097a7"/>
      <path d="M7.5,4A.5.5,0,0,1,7,3.5v-1a.5.5,0,1,1,1,0v1A.5.5,0,0,1,7.5,4Z" fill="#0097a7"/>
      <path d="M5.5,9A.5.5,0,0,1,5,8.5v-1a.5.5,0,1,1,1,0v1A.5.5,0,0,1,5.5,9Z" fill="#0097a7"/>
      <path d="M7.5,9A.5.5,0,0,1,7,8.5v-1a.5.5,0,1,1,1,0v1A.5.5,0,0,1,7.5,9Z" fill="#0097a7"/>
      <path d="M4.5,7h-1a.5.5,0,1,1,0-1h1a.5.5,0,0,1,0,1Z" fill="#0097a7"/>
      <path d="M4.5,5h-1a.5.5,0,1,1,0-1h1a.5.5,0,0,1,0,1Z" fill="#0097a7"/>
      <path d="M9.5,7h-1a.5.5,0,0,1,0-1h1a.5.5,0,0,1,0,1Z" fill="#0097a7"/>
      <path d="M9.5,5h-1a.5.5,0,0,1,0-1h1a.5.5,0,0,1,0,1Z" fill="#0097a7"/>
      <rect x="4" y="3" width="5" height="5" rx="0.5" ry="0.5" fill="#00bcd4"/>
    </g>
  </g>
</svg>
