<svg xmlns="http://www.w3.org/2000/svg" viewBox="0 0 16 16">
  <title>artificial-intelligent</title>
  <path d="M13,6.882V6A6,6,0,1,0,2.371,9.817,2.558,2.558,0,0,1,3,11.419V14.5a.5.5,0,0,0,.418.493l6,1A.465.465,0,0,0,9.5,16a.5.5,0,0,0,.5-.5V13.59l1.839.3A1,1,0,0,0,13,12.908V10.5h1a.5.5,0,0,0,.447-.724ZM12.5,9.5a.5.5,0,0,0-.5.5v2.907l-2.42-.4A.5.5,0,0,0,9,13v1.91l-5-.834V11.419a3.506,3.506,0,0,0-.859-2.238A5,5,0,1,1,12,6V7a.5.5,0,0,0,.053.224L13.191,9.5Z"/>
  <path d="M9.5,5a.5.5,0,0,0,0-1H9V3.5A.5.5,0,0,0,8.5,3H8V2.5a.5.5,0,0,0-1,0V3H6V2.5a.5.5,0,0,0-1,0V3H4.5a.5.5,0,0,0-.5.5V4H3.5a.5.5,0,0,0,0,1H4V6H3.5a.5.5,0,0,0,0,1H4v.5a.5.5,0,0,0,.5.5H5v.5a.5.5,0,0,0,1,0V8H7v.5a.5.5,0,0,0,1,0V8h.5A.5.5,0,0,0,9,7.5V7h.5a.5.5,0,0,0,0-1H9V5ZM8,7H5V4H8Z"/>
</svg>
