<svg xmlns="http://www.w3.org/2000/svg" viewBox="0 0 16 16">
  <title>bags</title>
  <g>
    <path d="M5.5,15.5H2A1.5,1.5,0,0,1,.5,14V4.5h9v1" fill="none" stroke="#000" stroke-linecap="round" stroke-linejoin="round"/>
    <path d="M7.5,8.5h8a0,0,0,0,1,0,0V14A1.5,1.5,0,0,1,14,15.5H9A1.5,1.5,0,0,1,7.5,14V8.5A0,0,0,0,1,7.5,8.5Z" fill="none" stroke="#000" stroke-linejoin="round"/>
    <path d="M2.5,5.5V3A2.5,2.5,0,0,1,5,.5H5A2.5,2.5,0,0,1,7.5,3V5.5" fill="none" stroke="#000" stroke-linecap="round" stroke-linejoin="round"/>
    <path d="M9.5,9.5v-1a2,2,0,0,1,2-2h0a2,2,0,0,1,2,2v1" fill="none" stroke="#000" stroke-linecap="round" stroke-linejoin="round"/>
  </g>
</svg>
