<svg xmlns="http://www.w3.org/2000/svg" viewBox="0 0 16 16">
  <title>basket-ball</title>
  <g>
    <circle cx="8" cy="8" r="8" fill="#90caf9"/>
    <path d="M2.343,13.657c.119.119.247.226.372.336l2.619-2.619a9.343,9.343,0,0,1,2.28,4.608c.129.006.258.018.387.018.211,0,.422-.014.633-.03L8.622,15.9a10.349,10.349,0,0,0-2.567-5.25L8,8.707l5.285,5.285c.125-.11.252-.216.371-.336s.225-.247.336-.371L8.707,8l1.946-1.946A10.349,10.349,0,0,0,15.9,8.622l.066.011a8.051,8.051,0,0,0,.012-1.02,9.343,9.343,0,0,1-4.608-2.28l2.619-2.619c-.11-.125-.216-.252-.336-.372s-.246-.225-.371-.335L10.667,4.627A9.342,9.342,0,0,1,8.387.018C8.258.012,8.129,0,8,0c-.211,0-.422.014-.633.03L7.378.1a10.344,10.344,0,0,0,2.568,5.25L8,7.293,2.714,2.007c-.125.11-.252.216-.371.336s-.225.247-.336.371L7.293,8,5.347,9.946A10.344,10.344,0,0,0,.1,7.378L.03,7.367a8.051,8.051,0,0,0-.012,1.02,9.343,9.343,0,0,1,4.608,2.28L2.008,13.286C2.118,13.41,2.224,13.538,2.343,13.657Z" fill="#2196f3"/>
  </g>
</svg>
