<svg xmlns="http://www.w3.org/2000/svg" viewBox="0 0 16 16">
  <title>basket-ball</title>
  <g>
    <path d="M9.794,5.5A11.784,11.784,0,0,1,7.385.065L7.376.011A7.975,7.975,0,0,0,2.7,1.993L8,7.292Z"/>
    <path d="M13.3,1.994A7.974,7.974,0,0,0,8.395,0,10.723,10.723,0,0,0,10.5,4.789Z"/>
    <path d="M16,7.605a7.974,7.974,0,0,0-1.993-4.9l-2.8,2.8A10.724,10.724,0,0,0,16,7.605Z"/>
    <polygon points="2.33 2.33 2.328 2.332 2.332 2.327 2.33 2.33"/>
    <path d="M5.5,9.794,7.292,8l-5.3-5.3A7.975,7.975,0,0,0,.011,7.376l.054.009A11.784,11.784,0,0,1,5.5,9.794Z"/>
    <path d="M0,8.395a7.975,7.975,0,0,0,1.994,4.9l2.8-2.8A10.723,10.723,0,0,0,0,8.395Z"/>
    <path d="M2.7,14.007A7.975,7.975,0,0,0,7.605,16,10.724,10.724,0,0,0,5.5,11.211Z"/>
    <path d="M6.207,10.5a11.79,11.79,0,0,1,2.408,5.432l.009.054A7.975,7.975,0,0,0,13.3,14.007L8,8.709Z"/>
    <path d="M10.5,6.207,8.709,8l5.3,5.3a7.975,7.975,0,0,0,1.982-4.674l-.054-.009A11.789,11.789,0,0,1,10.5,6.207Z"/>
  </g>
</svg>
