<svg xmlns="http://www.w3.org/2000/svg" viewBox="0 0 16 16">
  <title>basket</title>
  <g>
    <path d="M15.5,5H12.809L10.947,1.276a.5.5,0,1,0-.895.447L11.691,5H4.309L5.947,1.724a.5.5,0,0,0-.895-.447L3.191,5H.5a.5.5,0,0,0-.5.5v2A.5.5,0,0,0,.5,8h15a.5.5,0,0,0,.5-.5v-2A.5.5,0,0,0,15.5,5Z"/>
    <path d="M3.015,15.621A.5.5,0,0,0,3.5,16h9a.5.5,0,0,0,.485-.379L14.641,9H1.36ZM10,10.5a.5.5,0,0,1,1,0v3a.5.5,0,0,1-1,0Zm-2.5,0a.5.5,0,0,1,1,0v3a.5.5,0,0,1-1,0ZM5,10.5a.5.5,0,0,1,1,0v3a.5.5,0,0,1-1,0Z"/>
  </g>
</svg>
