<svg xmlns="http://www.w3.org/2000/svg" viewBox="0 0 16 16">
  <title>bookmark</title>
  <g>
    <path d="M15,0H1A1,1,0,0,0,0,1V15a1,1,0,0,0,1,1H15a1,1,0,0,0,1-1V1A1,1,0,0,0,15,0Zm-.5,1a.5.5,0,1,1-.5.5A.5.5,0,0,1,14.5,1Zm-2,0a.5.5,0,1,1-.5.5A.5.5,0,0,1,12.5,1ZM15,15.5V15H1V3H15V15h0Z"/>
    <path d="M10.575,7.916,9.111,7.692l-.659-1.4a.521.521,0,0,0-.905,0l-.659,1.4-1.464.224a.5.5,0,0,0-.282.843l1.074,1.1-.254,1.56a.5.5,0,0,0,.736.518L8,11.217l1.3.721a.5.5,0,0,0,.735-.518L9.784,9.86l1.074-1.1a.5.5,0,0,0-.283-.843Z"/>
  </g>
</svg>
