<svg xmlns="http://www.w3.org/2000/svg" viewBox="0 0 16 16">
  <title>bookmark</title>
  <g>
    <g>
      <rect width="16" height="16" rx="1" ry="1" fill="#455a64"/>
      <polygon points="15 15.5 15 15 1 15 1 3 15 3 15 15 15.001 15 15 15.5" fill="#fafafa"/>
      <circle cx="14.5" cy="1.5" r="0.5" fill="#2196f3"/>
      <circle cx="12.5" cy="1.5" r="0.5" fill="#ffc107"/>
    </g>
    <path d="M10.974,8.251a.5.5,0,0,0-.4-.335L9.111,7.692l-.659-1.4a.521.521,0,0,0-.905,0l-.659,1.4-1.464.224a.5.5,0,0,0-.282.843l1.074,1.1-.254,1.56a.5.5,0,0,0,.736.518L8,11.217l1.3.721a.5.5,0,0,0,.735-.518L9.784,9.86l1.074-1.1A.5.5,0,0,0,10.974,8.251Z" fill="#ffc107"/>
  </g>
</svg>
