<svg xmlns="http://www.w3.org/2000/svg" viewBox="0 0 16 16">
  <title>calculator</title>
  <path d="M15,0H2A1,1,0,0,0,1,1V15a1,1,0,0,0,1,1H15a1,1,0,0,0,1-1V1A1,1,0,0,0,15,0Zm0,15.5V15H2V1H15V15h0Z"/>
  <path d="M5.5,7h-2a.5.5,0,0,0-.5.5v2a.5.5,0,0,0,.5.5h2A.5.5,0,0,0,6,9.5v-2A.5.5,0,0,0,5.5,7ZM5,9H4V8H5Z"/>
  <path d="M9.5,7h-2a.5.5,0,0,0-.5.5v2a.5.5,0,0,0,.5.5h2a.5.5,0,0,0,.5-.5v-2A.5.5,0,0,0,9.5,7ZM9,9H8V8H9Z"/>
  <path d="M13.5,2H3.5a.5.5,0,0,0-.5.5v3a.5.5,0,0,0,.5.5h10a.5.5,0,0,0,.5-.5v-3A.5.5,0,0,0,13.5,2ZM13,5H4V3h9Z"/>
  <path d="M5.5,11h-2a.5.5,0,0,0-.5.5v2a.5.5,0,0,0,.5.5h2a.5.5,0,0,0,.5-.5v-2A.5.5,0,0,0,5.5,11ZM5,13H4V12H5Z"/>
  <path d="M9.5,11h-2a.5.5,0,0,0-.5.5v2a.5.5,0,0,0,.5.5h2a.5.5,0,0,0,.5-.5v-2A.5.5,0,0,0,9.5,11ZM9,13H8V12H9Z"/>
  <path d="M13.5,7h-2a.5.5,0,0,0-.5.5v6a.5.5,0,0,0,.5.5h2a.5.5,0,0,0,.5-.5v-6A.5.5,0,0,0,13.5,7ZM13,13H12V8h1Z"/>
</svg>
