<svg xmlns="http://www.w3.org/2000/svg" viewBox="0 0 16 16">
  <title>camera-shutter</title>
  <g>
    <path d="M13.79,13.52a8.033,8.033,0,0,1-7.35,2.33L9.38,10.5,10.75,8Z" fill="#42a5f5"/>
    <path d="M9.38,10.5,6.44,15.85A8.023,8.023,0,0,1,.4,10.5Z" fill="#64b5f6"/>
    <path d="M6.62,10.5H.4A8,8,0,0,1,2.21,2.48L5.25,8Z" fill="#90caf9"/>
    <path d="M9.57.15,6.63,5.5H6.62L5.25,8,2.21,2.48A7.97,7.97,0,0,1,8,0,8.118,8.118,0,0,1,9.57.15Z" fill="#64b5f6"/>
    <path d="M15.6,5.5H6.63L9.57.15A8.025,8.025,0,0,1,15.6,5.5Z" fill="#1e88e5"/>
    <path d="M16,8a7.977,7.977,0,0,1-2.21,5.52L10.75,8,9.38,10.5H6.62L5.25,8,6.62,5.5H15.6A7.981,7.981,0,0,1,16,8Z" fill="#2196f3"/>
    <polygon points="10.75 8 9.38 10.5 6.62 10.5 5.25 8 6.62 5.5 9.38 5.5 10.75 8" fill="#fafafa"/>
    <path d="M8,2A6,6,0,1,1,2,8,6.007,6.007,0,0,1,8,2M8,0a8,8,0,1,0,8,8A8.009,8.009,0,0,0,8,0Z" fill="#455a64"/>
  </g>
</svg>
