<svg xmlns="http://www.w3.org/2000/svg" viewBox="0 0 16 16">
  <title>car-key</title>
  <path d="M15.639,12.839a.5.5,0,0,0-.448-.279H14.27V11.65a.5.5,0,0,0-.5-.5H12.86v-.91a.5.5,0,0,0-.146-.354l-3.2-3.2.708-.708a1.5,1.5,0,0,0,0-2.121L7.389,1.025a3.585,3.585,0,0,0-4.949,0L1.025,2.439a3.5,3.5,0,0,0,0,4.949l2.828,2.829a1.5,1.5,0,0,0,2.121,0l.708-.708,3.2,3.2a.5.5,0,0,0,.354.146h.91v.909a.5.5,0,0,0,.5.5h.909v.921a.5.5,0,0,0,.279.448A3.684,3.684,0,0,0,14.318,16a1.691,1.691,0,0,0,1.229-.462C16.469,14.605,15.727,13.017,15.639,12.839ZM5.268,9.511a.5.5,0,0,1-.707,0L1.732,6.682a2.5,2.5,0,0,1,0-3.535L3.146,1.732a2.5,2.5,0,0,1,3.535,0L9.511,4.561a.5.5,0,0,1,0,.707L8.464,6.315c-.005,0-.012.006-.017.012s-.007.012-.012.017L6.344,8.435c-.005,0-.012.006-.017.012s-.007.012-.012.017Zm9.572,5.323c-.286.279-.887.156-1.28.021V13.77a.5.5,0,0,0-.5-.5H12.15V12.36a.5.5,0,0,0-.5-.5h-1.2L7.39,8.8,8.8,7.39l3.058,3.058v1.2a.5.5,0,0,0,.5.5h.909v.909a.5.5,0,0,0,.5.5h1.085C14.985,13.941,15.118,14.552,14.84,14.834Z"/>
  <path d="M6.975,4.146,5.914,3.086A2,2,0,0,0,3.086,5.914L4.146,6.975a.5.5,0,0,0,.707,0L6.975,4.854A.5.5,0,0,0,6.975,4.146ZM4.5,5.914l-.707-.707A1,1,0,0,1,5.207,3.793l.707.707Z"/>
</svg>
