<svg xmlns="http://www.w3.org/2000/svg" viewBox="0 0 16 16">
  <title>car-key</title>
  <g>
    <path d="M3.914.914h2a3,3,0,0,1,3,3v4a1,1,0,0,1-1,1h-6a1,1,0,0,1-1-1v-4a3,3,0,0,1,3-3Z" transform="translate(-2.036 4.914) rotate(-45)" fill="none" stroke="#000" stroke-linecap="round" stroke-linejoin="round"/>
    <path d="M8.8,6.68l3.56,3.56v1.41h1.41v1.41h1.42s.7,1.42,0,2.13-2.13,0-2.13,0V13.77H11.65V12.36H10.24L6.68,8.8" fill="none" stroke="#000" stroke-linecap="round" stroke-linejoin="round"/>
    <path d="M4.5,3h0A1.5,1.5,0,0,1,6,4.5V6A0,0,0,0,1,6,6H3A0,0,0,0,1,3,6V4.5A1.5,1.5,0,0,1,4.5,3Z" transform="translate(-1.864 4.5) rotate(-45)" fill="none" stroke="#000" stroke-linecap="round" stroke-linejoin="round"/>
  </g>
</svg>
