<svg xmlns="http://www.w3.org/2000/svg" viewBox="0 0 16 16">
  <title>car-key</title>
  <g>
    <path d="M15.633,12.841a.5.5,0,0,0-.447-.276h-.914V11.65a.5.5,0,0,0-.5-.5h-.914v-.914a.5.5,0,0,0-.146-.354L8.883,6.054a.515.515,0,0,0-.707,0L6.054,8.176a.5.5,0,0,0,0,.707l3.829,3.828a.5.5,0,0,0,.354.146h.914v.914a.5.5,0,0,0,.5.5h.914v.914a.5.5,0,0,0,.276.447,3.648,3.648,0,0,0,1.48.37,1.664,1.664,0,0,0,1.218-.464C16.474,14.6,15.722,13.019,15.633,12.841Z" fill="#eceff1"/>
    <path d="M15.539,15.539c.935-.935.183-2.521.094-2.7a.5.5,0,0,0-.447-.276h-.914V11.65a.5.5,0,0,0-.5-.5h-.914v-.914a.5.5,0,0,0-.146-.354L8.883,6.054a.515.515,0,0,0-.707,0L7.115,7.115Z" fill="#cfd8dc"/>
    <path d="M10.218,3.854,7.389,1.025a3.584,3.584,0,0,0-4.95,0L1.025,2.439a3.5,3.5,0,0,0,0,4.95l2.828,2.829a1.5,1.5,0,0,0,2.121,0l4.243-4.243a1.5,1.5,0,0,0,0-2.121Z" fill="#455a64"/>
    <path d="M6.475,3.646,5.414,2.586a2.047,2.047,0,0,0-2.828,0,2,2,0,0,0,0,2.828L3.646,6.475a.5.5,0,0,0,.707,0L6.475,4.354A.5.5,0,0,0,6.475,3.646Z" fill="#4caf50"/>
  </g>
</svg>
