<svg xmlns="http://www.w3.org/2000/svg" viewBox="0 0 16 16">
  <title>christmas-tree</title>
  <path d="M7,16H9a.5.5,0,0,0,.5-.5V13.908a21.566,21.566,0,0,0,4.15-.931.5.5,0,0,0,.288-.717L11.786,8.326c.312-.113.623-.231.926-.372a.5.5,0,0,0,.209-.724l-4.5-7a.52.52,0,0,0-.842,0l-4.5,7a.5.5,0,0,0,.209.724c.3.142.614.259.926.372L2.062,12.26a.5.5,0,0,0,.288.717,21.566,21.566,0,0,0,4.15.931V15.5A.5.5,0,0,0,7,16Zm1.5-1h-1V13.974c.166.006.334.024.5.024s.334-.018.5-.024ZM8,1.425l3.762,5.851a10.092,10.092,0,0,1-7.523,0Zm-2.81,7.2A11.081,11.081,0,0,0,8,9a11.081,11.081,0,0,0,2.81-.378L12.767,12.2a14.591,14.591,0,0,1-9.533,0Z"/>
  <path d="M11.52,12a.5.5,0,0,0,0-1h-.01a.5.5,0,0,0-.5.5A.5.5,0,0,0,11.52,12Z"/>
  <path d="M9.52,11a.5.5,0,0,0,0-1H9.51a.5.5,0,0,0-.5.5A.5.5,0,0,0,9.52,11Z"/>
  <path d="M7.52,11H7.51a.5.5,0,0,0-.5.5.5.5,0,1,0,.5-.5Z"/>
  <path d="M5.52,10H5.51a.5.5,0,0,0-.5.5.5.5,0,1,0,.5-.5Z"/>
  <path d="M9.52,6a.5.5,0,0,0,0-1H9.51a.5.5,0,0,0-.5.5A.5.5,0,0,0,9.52,6Z"/>
  <path d="M7.52,6H7.51a.5.5,0,0,0-.5.5.5.5,0,1,0,.5-.5Z"/>
  <path d="M7.52,5a.5.5,0,0,0,0-1H7.51a.5.5,0,0,0-.5.5A.5.5,0,0,0,7.52,5Z"/>
</svg>
