<svg xmlns="http://www.w3.org/2000/svg" viewBox="0 0 16 16">
  <title>coffee-latte</title>
  <g>
    <g>
      <path d="M1.5,6.5h10a0,0,0,0,1,0,0v4a4,4,0,0,1-4,4h-2a4,4,0,0,1-4-4v-4A0,0,0,0,1,1.5,6.5Z" fill="none" stroke="#000" stroke-linecap="round" stroke-linejoin="round"/>
      <path d="M11.5,7.5h2a2.006,2.006,0,0,1,2,2,2.015,2.015,0,0,1-2,2H11.37" fill="none" stroke="#000" stroke-linecap="round" stroke-linejoin="round"/>
    </g>
    <path d="M4.5,4.5H4A1.5,1.5,0,0,0,2.5,6v.5h8V6A1.5,1.5,0,0,0,9,4.5H8.5V4A1.5,1.5,0,0,0,7,2.5H6.66a5.2,5.2,0,0,0-1.16-1,3.4,3.4,0,0,1,.21,1.03A1.493,1.493,0,0,0,4.5,4Z" fill="none" stroke="#000" stroke-linecap="round" stroke-linejoin="round"/>
  </g>
</svg>
