<svg xmlns="http://www.w3.org/2000/svg" viewBox="0 0 16 16">
  <title>coffee-latte</title>
  <path d="M13.5,7H12V6.5a.5.5,0,0,0-.5-.5H11A2,2,0,0,0,9,4,2,2,0,0,0,7,2H6.885a5.739,5.739,0,0,0-1.128-.929.5.5,0,0,0-.721.614,2.948,2.948,0,0,1,.133.494A2,2,0,0,0,4,4,2,2,0,0,0,2,6H1.5a.5.5,0,0,0-.5.5v4A4.5,4.5,0,0,0,5.5,15h2a4.493,4.493,0,0,0,4.224-3H13.5A2.513,2.513,0,0,0,16,9.5,2.5,2.5,0,0,0,13.5,7ZM4,5h.5A.5.5,0,0,0,5,4.5V4a.992.992,0,0,1,.8-.979.5.5,0,0,0,.375-.314c.033.037.066.075.1.113A.5.5,0,0,0,6.66,3H7A1,1,0,0,1,8,4v.5a.5.5,0,0,0,.5.5H9a1,1,0,0,1,1,1H3A1,1,0,0,1,4,5Zm3.5,9h-2A3.5,3.5,0,0,1,2,10.5V7h9v3.5A3.5,3.5,0,0,1,7.5,14Zm7.052-3.438A1.456,1.456,0,0,1,13.5,11H11.949A4.4,4.4,0,0,0,12,10.5V8h1.5A1.5,1.5,0,0,1,15,9.5,1.464,1.464,0,0,1,14.552,10.562Z"/>
</svg>
