<svg xmlns="http://www.w3.org/2000/svg" viewBox="0 0 16 16">
  <title>coffee-plunger</title>
  <g>
    <path d="M12.5,13h-2a.5.5,0,0,1-.5-.5v-6a.5.5,0,0,1,.5-.5h2A2.5,2.5,0,0,1,15,8.5v2A2.5,2.5,0,0,1,12.5,13ZM11,12h1.5A1.5,1.5,0,0,0,14,10.5v-2A1.5,1.5,0,0,0,12.5,7H11Z" fill="#cfd8dc"/>
    <path d="M10.5,6H.5a.5.5,0,0,0-.3.9L2,8.25V15a1,1,0,0,0,1,1h7a1,1,0,0,0,1-1V6.5A.5.5,0,0,0,10.5,6Z" fill="#eceff1"/>
    <path d="M6.5,12a.5.5,0,0,1-.5-.5v-7a.5.5,0,0,1,1,0v7A.5.5,0,0,1,6.5,12Z" fill="#455a64"/>
    <path d="M9.5,12h-6a.5.5,0,0,1,0-1h6a.5.5,0,0,1,0,1Z" fill="#455a64"/>
    <g>
      <rect x="3" y="12" width="7" height="3" fill="#8d6e63"/>
      <polygon points="10 15.5 10.001 15 10 15 10 15.5" fill="#8d6e63"/>
    </g>
    <circle cx="6.5" cy="1.5" r="1.5" fill="#607d8b"/>
    <path d="M4,3H9a2,2,0,0,1,2,2V5a0,0,0,0,1,0,0H2A0,0,0,0,1,2,5V5A2,2,0,0,1,4,3Z" fill="#607d8b"/>
  </g>
</svg>
