<svg xmlns="http://www.w3.org/2000/svg" viewBox="0 0 16 16">
  <title>coffee-cup</title>
  <path d="M11,0H5A1,1,0,0,0,4,1V2H3A1,1,0,0,0,2,3V4A1,1,0,0,0,3,5h.063L4.5,15.567A.5.5,0,0,0,5,16h6a.5.5,0,0,0,.5-.433L12.937,5H13a1,1,0,0,0,1-1V3a1,1,0,0,0-1-1H12V1A1,1,0,0,0,11,0ZM5,1h6V2H5Zm5.973,11H5.027L4.482,8h7.036ZM5.437,15l-.273-2h5.672l-.273,2Zm6.218-8H4.346L4.073,5h7.854ZM13,4H3V3H13Z"/>
  <path d="M8,11.5A1.5,1.5,0,1,0,6.5,10,1.5,1.5,0,0,0,8,11.5Zm0-2a.5.5,0,1,1-.5.5A.5.5,0,0,1,8,9.5Z"/>
</svg>
