<svg xmlns="http://www.w3.org/2000/svg" viewBox="0 0 16 16">
  <title>coffee-plunger</title>
  <path d="M.5,6a.5.5,0,0,0-.3.9L2,8.25V15a1,1,0,0,0,1,1h7a1,1,0,0,0,1-1V13h1.5A2.5,2.5,0,0,0,15,10.5v-2A2.5,2.5,0,0,0,12.5,6H7V5h3.5a.5.5,0,0,0,.5-.5A2.5,2.5,0,0,0,8.5,2H7.908A1.483,1.483,0,0,0,8,1.5a1.5,1.5,0,0,0-3,0,1.483,1.483,0,0,0,.092.5H4.5A2.5,2.5,0,0,0,2,4.5a.5.5,0,0,0,.5.5H6V6ZM6,1.5a.5.5,0,1,1,.5.5A.5.5,0,0,1,6,1.5ZM4.5,3h4A1.5,1.5,0,0,1,9.915,4H3.085A1.5,1.5,0,0,1,4.5,3ZM14,8.5v2A1.5,1.5,0,0,1,12.5,12H11V7h1.5A1.5,1.5,0,0,1,14,8.5ZM10,7v8h0v0H3V8a.5.5,0,0,0-.2-.4L2,7H6v5H4.5a.5.5,0,0,0,0,1h4a.5.5,0,0,0,0-1H7V7Z"/>
</svg>
