<svg xmlns="http://www.w3.org/2000/svg" viewBox="0 0 16 16">
  <title>compact-disk</title>
  <g>
    <path d="M9,1H1A1,1,0,0,0,0,2V14a1,1,0,0,0,1,1H9a1,1,0,0,0,1-1V2A1,1,0,0,0,9,1ZM7.5,6.938a.5.5,0,0,1-.5-.5A1.445,1.445,0,0,0,6,5.186V10.5c0,.841-.878,1.5-2,1.5s-2-.659-2-1.5S2.878,9,4,9a2.538,2.538,0,0,1,1,.2V4.5a.5.5,0,0,1,.181-.385.5.5,0,0,1,.412-.106C6.425,4.165,8,4.874,8,6.438A.5.5,0,0,1,7.5,6.938Z"/>
    <path d="M11,2.09v4.5a1.492,1.492,0,0,1,0,2.816v4.5A5.993,5.993,0,0,0,11,2.09Z"/>
  </g>
</svg>
