<svg xmlns="http://www.w3.org/2000/svg" viewBox="0 0 16 16">
  <title>croissant</title>
  <path d="M14.983,5.4a.432.432,0,0,0-.074-.177.473.473,0,0,0-.028-.051,9.042,9.042,0,0,0-13.762,0,.466.466,0,0,0-.029.051.506.506,0,0,0-.084.27.486.486,0,0,0,.01.095.433.433,0,0,0,.073.178.471.471,0,0,0,.027.05l.369.442L.444,8.095a1.506,1.506,0,0,0,.242,1.8L.9,10.1a4.865,4.865,0,0,0-.11,3.555A.5.5,0,0,0,1.26,14a.51.51,0,0,0,.178-.032,4.769,4.769,0,0,0,1.906-1.533,1.49,1.49,0,0,0,.721.214,1.5,1.5,0,0,0,.956-.345l.884-.738.212.254a.466.466,0,0,0,.051.039.492.492,0,0,0,.106.081.474.474,0,0,0,.076.027.487.487,0,0,0,.118.026c.011,0,.021.007.032.007a.508.508,0,0,0,.07-.012.475.475,0,0,0,.071-.012.492.492,0,0,0,.116-.056A.46.46,0,0,0,6.8,11.9a2.013,2.013,0,0,1,2.4,0s.011,0,.016.006a.476.476,0,0,0,.5.045.519.519,0,0,0,.056-.043.482.482,0,0,0,.114-.087l.212-.254.886.74a1.416,1.416,0,0,0,1.675.129,4.768,4.768,0,0,0,1.906,1.533A.51.51,0,0,0,14.74,14a.5.5,0,0,0,.475-.343A4.865,4.865,0,0,0,15.1,10.1l.209-.209a1.507,1.507,0,0,0,.241-1.8l-1.04-1.83.369-.442a.462.462,0,0,0,.027-.05.472.472,0,0,0,.072-.366Zm-13.4,7.361a3.754,3.754,0,0,1,.092-1.885l.913.913A4.82,4.82,0,0,1,1.581,12.766Zm2.8-1.231A.5.5,0,0,1,3.7,11.5l-2.31-2.31a.5.5,0,0,1-.079-.6l.854-1.5,3.1,3.715Zm2.223-.689-.247-.3-.005-.009-.008-.007L2.169,5.522a8,8,0,0,1,11.663,0L9.655,10.533l-.008.007-.005.009-.247.3A3.017,3.017,0,0,0,6.605,10.845Zm7.814,1.92a4.82,4.82,0,0,1-1.005-.972l.913-.913A3.754,3.754,0,0,1,14.419,12.766Zm.266-4.181a.5.5,0,0,1-.078.6L12.3,11.5a.5.5,0,0,1-.677.04l-.884-.738,3.1-3.715Z"/>
</svg>
