<svg xmlns="http://www.w3.org/2000/svg" viewBox="0 0 16 16">
  <title>croissant</title>
  <g>
    <path d="M15.806,8.093l-.877-1.545-4.346,5.215.65.543a1.466,1.466,0,0,0,.7.3l4.049-3.753A1.491,1.491,0,0,0,15.806,8.093Z"/>
    <path d="M1.072,6.549.193,8.094a1.486,1.486,0,0,0-.175.759l4.048,3.752a1.468,1.468,0,0,0,.7-.3l.648-.54Z"/>
    <path d="M.659,10.811a4.933,4.933,0,0,0,.126,2.846.5.5,0,0,0,.652.311,4.213,4.213,0,0,0,1.485-1.059Z"/>
    <path d="M13.078,12.908a4.21,4.21,0,0,0,1.485,1.059A.51.51,0,0,0,14.74,14a.5.5,0,0,0,.475-.343,4.933,4.933,0,0,0,.126-2.847Z"/>
    <path d="M14.822,5.114a9.029,9.029,0,0,0-13.644,0l5.645,6.773a2.008,2.008,0,0,1,2.354,0Z"/>
  </g>
</svg>
