<svg xmlns="http://www.w3.org/2000/svg" viewBox="0 0 16 16">
  <title>discount</title>
  <path d="M15,0H6A1,1,0,0,0,5,1V2.5a.5.5,0,0,0,1,0V1h9V13H12.5a.5.5,0,0,0,0,1H15a1,1,0,0,0,1-1V1A1,1,0,0,0,15,0Z"/>
  <rect x="13" y="7" width="1" height="1"/>
  <rect x="13" y="10" width="1" height="1"/>
  <path d="M5,9A1.5,1.5,0,1,0,3.5,7.5,1.5,1.5,0,0,0,5,9ZM5,7a.5.5,0,1,1-.5.5A.5.5,0,0,1,5,7Z"/>
  <path d="M7,11a1.5,1.5,0,1,0,1.5,1.5A1.5,1.5,0,0,0,7,11Zm0,2a.5.5,0,1,1,.5-.5A.5.5,0,0,1,7,13Z"/>
  <path d="M3.688,12.891a.5.5,0,0,0,.7-.078l4-5a.5.5,0,0,0-.781-.625l-4,5A.5.5,0,0,0,3.688,12.891Z"/>
  <path d="M0,10A6,6,0,1,0,9.31,5H13.5a.5.5,0,0,0,.5-.5v-2a.5.5,0,0,0-.5-.5h-6a.5.5,0,0,0-.5.5V4.09A5.965,5.965,0,0,0,0,10ZM8,3h5V4H8ZM6,5a5,5,0,1,1-5,5A5.006,5.006,0,0,1,6,5Z"/>
</svg>
