<svg xmlns="http://www.w3.org/2000/svg" viewBox="0 0 16 16">
  <title>discount</title>
  <g>
    <circle cx="5" cy="7.5" r="0.5"/>
    <circle cx="7" cy="12.5" r="0.5"/>
    <path d="M6,4a6,6,0,1,0,6,6A6,6,0,0,0,6,4ZM5,6A1.5,1.5,0,1,1,3.5,7.5,1.5,1.5,0,0,1,5,6ZM4,13a.5.5,0,0,1-.39-.812l4-5a.5.5,0,0,1,.781.625l-4,5A.5.5,0,0,1,4,13Zm3,1a1.5,1.5,0,1,1,1.5-1.5A1.5,1.5,0,0,1,7,14Z"/>
    <path d="M15,0H6A1,1,0,0,0,5,1V3.08A6.989,6.989,0,0,1,6,3a6.989,6.989,0,0,1,1,.08V2.5A.5.5,0,0,1,7.5,2h6a.5.5,0,0,1,.5.5v2a.5.5,0,0,1-.5.5H10.889A6.976,6.976,0,0,1,13,10h1v1H13V10a6.955,6.955,0,0,1-1.264,4H15a1,1,0,0,0,1-1V1A1,1,0,0,0,15,0ZM14,8H13V7h1Z"/>
  </g>
</svg>
