<svg xmlns="http://www.w3.org/2000/svg" viewBox="0 0 16 16">
  <title>document</title>
  <g>
    <g>
      <path d="M10,0H3A1,1,0,0,0,2,1V15a1,1,0,0,0,1,1H13a1,1,0,0,0,1-1V4Z" fill="#eceff1"/>
      <path d="M10,0V3a1,1,0,0,0,1,1h3Z" fill="#cfd8dc"/>
    </g>
    <path d="M11.5,10h-7a.5.5,0,0,1,0-1h7a.5.5,0,0,1,0,1Z" fill="#90a4ae"/>
    <path d="M8.5,12h-4a.5.5,0,0,1,0-1h4a.5.5,0,0,1,0,1Z" fill="#90a4ae"/>
    <path d="M7.5,7a.5.5,0,0,1-.354-.146L6,5.707,4.854,6.854A.5.5,0,0,1,4,6.5v-5A1.5,1.5,0,0,1,5.5,0H9A1,1,0,0,0,8,1V6.5a.5.5,0,0,1-.5.5Z" fill="#2196f3"/>
  </g>
</svg>
