<svg xmlns="http://www.w3.org/2000/svg" viewBox="0 0 16 16">
  <title>document</title>
  <path d="M13.853,4.146l-4-4A.5.5,0,0,0,9.5,0H3A1,1,0,0,0,2,1V15a1,1,0,0,0,1,1H13a1,1,0,0,0,1-1V4.5a.5.5,0,0,0-.147-.354ZM10,1.707,12.293,4H10ZM7.085,1A1.5,1.5,0,0,0,7,1.5V5.293l-.646-.646a.5.5,0,0,0-.707,0L5,5.293V1.5A.5.5,0,0,1,5.5,1ZM3,15V1H4.092A1.483,1.483,0,0,0,4,1.5v5a.5.5,0,0,0,.854.354L6,5.707,7.146,6.854A.5.5,0,0,0,7.5,7a.5.5,0,0,0,.191-.038A.5.5,0,0,0,8,6.5v-5A.5.5,0,0,1,8.5,1H9V4a1,1,0,0,0,1,1h3V15Z"/>
  <path d="M11.5,9h-7a.5.5,0,0,0,0,1h7a.5.5,0,0,0,0-1Z"/>
  <path d="M8.5,11h-4a.5.5,0,0,0,0,1h4a.5.5,0,0,0,0-1Z"/>
</svg>
