<svg xmlns="http://www.w3.org/2000/svg" viewBox="0 0 16 16">
  <title>drone</title>
  <path d="M15.5,0h-4a.5.5,0,0,0,0,1H13V2h-.5a.5.5,0,0,0-.5.5v1a1.483,1.483,0,0,0,.092.5H3.908A1.483,1.483,0,0,0,4,3.5v-1A.5.5,0,0,0,3.5,2H3V1H4.5a.5.5,0,0,0,0-1H.5a.5.5,0,0,0,0,1H2V2H1.5a.5.5,0,0,0-.5.5v1A1.5,1.5,0,0,0,2.5,5H4.109l.508,2.03A3.5,3.5,0,0,0,1.529,9.812L1.01,12.4a.5.5,0,0,0,.392.589.492.492,0,0,0,.1.01.5.5,0,0,0,.489-.4l.52-2.591a2.5,2.5,0,0,1,2.378-2A1.488,1.488,0,0,0,6.281,9H6.5v1.417a3,3,0,1,0,3,0V9h.219a1.488,1.488,0,0,0,1.393-.994,2.5,2.5,0,0,1,2.378,2l.52,2.59a.5.5,0,0,0,.489.4.492.492,0,0,0,.1-.01.5.5,0,0,0,.392-.589l-.52-2.589A3.5,3.5,0,0,0,11.383,7.03L11.891,5H13.5A1.5,1.5,0,0,0,15,3.5v-1a.5.5,0,0,0-.5-.5H14V1h1.5a.5.5,0,0,0,0-1ZM2,3H3v.5a.5.5,0,0,1-1,0ZM7.5,13.5A.5.5,0,1,1,8,14,.5.5,0,0,1,7.5,13.5Zm.8,1.469a1.5,1.5,0,1,0-.6,0,2,2,0,1,1,.6,0Zm.2-4.919A2.975,2.975,0,0,0,8,10a2.975,2.975,0,0,0-.5.051V9h1Zm1.7-2.429A.5.5,0,0,1,9.719,8H6.281A.5.5,0,0,1,5.8,7.621L5.141,5h5.719ZM14,3.5a.5.5,0,0,1-1,0V3h1Z"/>
</svg>
