<svg xmlns="http://www.w3.org/2000/svg" viewBox="0 0 16 16">
  <title>egg</title>
  <path d="M16,8a8,8,0,1,0-8,8,2.7,2.7,0,0,0,2.7-2.44l.121-1.211a1.716,1.716,0,0,1,1.531-1.531L13.56,10.7A2.7,2.7,0,0,0,16,8ZM12.249,9.823a2.715,2.715,0,0,0-2.426,2.426L9.7,13.46A1.706,1.706,0,0,1,8,15a6.982,6.982,0,0,1-5.4-2.55A7.054,7.054,0,0,1,1.138,6.591,6.952,6.952,0,0,1,6.591,1.138,7.24,7.24,0,0,1,7.982,1,6.995,6.995,0,0,1,15,8a1.706,1.706,0,0,1-1.54,1.7Z"/>
  <path d="M4.5,6A2.5,2.5,0,1,0,7,8.5,2.5,2.5,0,0,0,4.5,6Zm0,4A1.5,1.5,0,1,1,6,8.5,1.5,1.5,0,0,1,4.5,10Z"/>
  <path d="M10.5,3A2.5,2.5,0,1,0,13,5.5,2.5,2.5,0,0,0,10.5,3Zm0,4A1.5,1.5,0,1,1,12,5.5,1.5,1.5,0,0,1,10.5,7Z"/>
  <path d="M4.5,7.5a1,1,0,0,0-1,1,.5.5,0,0,0,1,0,.5.5,0,0,0,0-1Z"/>
  <path d="M10.5,4.5a1,1,0,0,0-1,1,.5.5,0,0,0,1,0,.5.5,0,0,0,0-1Z"/>
</svg>
