<svg xmlns="http://www.w3.org/2000/svg" viewBox="0 0 16 16">
  <title>email-stack</title>
  <g>
    <g>
      <rect x="3" y="1" width="13" height="10" rx="1" ry="1" fill="#b0bec5"/>
      <path d="M15,11H4a.99.99,0,0,1-1-1,.5.5,0,0,1,.2-.4l6-4.5a.5.5,0,0,1,.592,0l6,4.5a.5.5,0,0,1,.2.4A.99.99,0,0,1,15,11Z" fill="#cfd8dc"/>
      <path d="M15,1H4A.99.99,0,0,0,3,2a.5.5,0,0,0,.2.4l6,4.5a.5.5,0,0,0,.592,0l6-4.5A.5.5,0,0,0,16,2,.99.99,0,0,0,15,1Z" fill="#eceff1"/>
    </g>
    <g>
      <rect y="5" width="13" height="10" rx="1" ry="1" fill="#1e88e5"/>
      <path d="M12,15H1a.99.99,0,0,1-1-1,.5.5,0,0,1,.2-.4l6-4.5a.5.5,0,0,1,.592,0l6,4.5a.5.5,0,0,1,.2.4A.99.99,0,0,1,12,15Z" fill="#2196f3"/>
      <path d="M12,5H1A.99.99,0,0,0,0,6a.5.5,0,0,0,.2.4l6,4.5a.5.5,0,0,0,.592,0l6-4.5A.5.5,0,0,0,13,6,.99.99,0,0,0,12,5Z" fill="#64b5f6"/>
    </g>
  </g>
</svg>
