<svg xmlns="http://www.w3.org/2000/svg" viewBox="0 0 16 16">
  <title>email-stack</title>
  <path d="M15.968,1.843A.988.988,0,0,0,15,1H4a.988.988,0,0,0-.968.843.483.483,0,0,0-.02.1C3.01,1.963,3,1.98,3,2V4.5a.5.5,0,0,0,1,0V3L6.53,4.9a.5.5,0,0,0,.6-.8L4.333,2H14.668L11.86,4.11a.5.5,0,0,0,.6.8L15,3V9h-.5a.5.5,0,0,0,0,1H15a1,1,0,0,0,1-1V2c0-.02-.01-.037-.012-.057A.483.483,0,0,0,15.968,1.843Z"/>
  <path d="M.032,14.158A.988.988,0,0,0,1,15H12a.988.988,0,0,0,.968-.842.479.479,0,0,0,.02-.1c0-.02.011-.036.011-.057V7c0-.02-.01-.036-.011-.056a.481.481,0,0,0-.02-.1A.989.989,0,0,0,12,6H1a.989.989,0,0,0-.968.844.481.481,0,0,0-.02.1C.01,6.964,0,6.98,0,7v7c0,.02.01.037.011.057A.479.479,0,0,0,.032,14.158ZM6.2,11.9a.5.5,0,0,0,.6,0l1.046-.784L11.669,14H1.331l3.824-2.884ZM12,13,8.679,10.491,12,8ZM6.5,10.875,1.333,7H11.667Zm-2.179-.384L1,13V8ZM12,14.25h0v0Z"/>
</svg>
