<svg xmlns="http://www.w3.org/2000/svg" viewBox="0 0 16 16">
  <title>email-document</title>
  <path d="M14,3.9V1a1,1,0,0,0-1-1H3A1,1,0,0,0,2,1V3.9L.223,5.083A.5.5,0,0,0,0,5.5V15c0,.019.01.035.011.054a.482.482,0,0,0,.02.1A.988.988,0,0,0,1,16H15a.988.988,0,0,0,.969-.846.482.482,0,0,0,.02-.1c0-.019.011-.035.011-.054V5.5a.5.5,0,0,0-.223-.417ZM1,6.986,5.792,10.5,1,14.013ZM8,10.12,14.654,15H1.346Zm2.208.378L15,6.986v7.027Zm4.777-4.741L14,6.479V5.1ZM13,1V7.212L9.362,9.879,8.3,9.1a.5.5,0,0,0-.592,0l-1.066.782L3,7.212V1ZM2,6.479l-.985-.722L2,5.1Z"/>
  <path d="M4.5,3h7a.5.5,0,0,0,0-1h-7a.5.5,0,0,0,0,1Z"/>
  <path d="M4.5,5h7a.5.5,0,0,0,0-1h-7a.5.5,0,0,0,0,1Z"/>
  <path d="M4.5,7h4a.5.5,0,0,0,0-1h-4a.5.5,0,0,0,0,1Z"/>
</svg>
