<svg xmlns="http://www.w3.org/2000/svg" viewBox="0 0 16 16">
  <title>email-document</title>
  <g>
    <path d="M0,6l7.7,4.9a.5.5,0,0,0,.592,0L16,6,8.3.1a.5.5,0,0,0-.6,0Z" fill="#64b5f6"/>
    <path d="M13,0H3A1,1,0,0,0,2,1V12a.5.5,0,0,0,.5.5h11A.5.5,0,0,0,14,12V1A1,1,0,0,0,13,0Z" fill="#eceff1"/>
    <path d="M4.5,3h7a.5.5,0,0,0,0-1h-7a.5.5,0,0,0,0,1Z" fill="#90a4ae"/>
    <path d="M11.5,4h-7a.5.5,0,0,0,0,1h7a.5.5,0,0,0,0-1Z" fill="#90a4ae"/>
    <path d="M8.5,6h-4a.5.5,0,0,0,0,1h4a.5.5,0,0,0,0-1Z" fill="#90a4ae"/>
    <path d="M8.3,10.9a.5.5,0,0,1-.592,0L0,6v9a1,1,0,0,0,1,1H15a1,1,0,0,0,1-1V6Z" fill="#1e88e5"/>
    <path d="M15,16H1a.99.99,0,0,1-1-1,.5.5,0,0,1,.2-.4l7.5-5a.5.5,0,0,1,.592,0l7.5,5a.5.5,0,0,1,.2.4A.99.99,0,0,1,15,16Z" fill="#2196f3"/>
  </g>
</svg>
