<svg xmlns="http://www.w3.org/2000/svg" viewBox="0 0 16 16">
  <title>fast-food</title>
  <g>
    <path d="M12,5a.476.476,0,0,1-.083-.007.5.5,0,0,1-.411-.575l.5-3A.5.5,0,0,1,12.5,1h3a.5.5,0,0,1,0,1H12.924l-.431,2.582A.5.5,0,0,1,12,5Z" fill="#ffc107"/>
    <path d="M15.869,4.163A.5.5,0,0,0,15.5,4h-7a.5.5,0,0,0-.5.545l1,11A.5.5,0,0,0,9.5,16h5a.5.5,0,0,0,.5-.455l1-11A.5.5,0,0,0,15.869,4.163Z" fill="#eceff1"/>
    <path d="M10.5,13h-9a.5.5,0,0,0-.5.5A2.5,2.5,0,0,0,3.5,16h5A2.5,2.5,0,0,0,11,13.5.5.5,0,0,0,10.5,13Z" fill="#ffc107"/>
    <path d="M10.5,11h-9a.5.5,0,0,1-.5-.5A2.5,2.5,0,0,1,3.5,8h5A2.5,2.5,0,0,1,11,10.5.5.5,0,0,1,10.5,11Z" fill="#ffc107"/>
    <rect y="11" width="12" height="2" rx="1" ry="1" fill="#d32f2f"/>
  </g>
</svg>
