<svg xmlns="http://www.w3.org/2000/svg" viewBox="0 0 16 16">
  <title>fast-food</title>
  <path d="M1.043,13.921A2.5,2.5,0,0,0,3.5,16h5a2.5,2.5,0,0,0,2.457-2.079,1.49,1.49,0,0,0,0-2.842A2.5,2.5,0,0,0,8.5,9h-5a2.5,2.5,0,0,0-2.457,2.079,1.49,1.49,0,0,0,0,2.842ZM8.5,15h-5a1.5,1.5,0,0,1-1.408-1H9.908A1.5,1.5,0,0,1,8.5,15Zm-5-5h5a1.5,1.5,0,0,1,1.408,1H2.092A1.5,1.5,0,0,1,3.5,10Zm-2,2h9a.5.5,0,0,1,0,1h-9a.5.5,0,0,1,0-1Z"/>
  <path d="M15.5,1h-3a.5.5,0,0,0-.493.418L11.576,4H8.5a.5.5,0,0,0-.5.545L8.28,7.608a.519.519,0,0,0,.543.453.5.5,0,0,0,.453-.543L9.048,5h5.9l-.909,10H12a.5.5,0,0,0,0,1h2.5a.5.5,0,0,0,.5-.455l1-11A.5.5,0,0,0,15.5,4H12.59l.334-2H15.5a.5.5,0,0,0,0-1Z"/>
</svg>
