<svg xmlns="http://www.w3.org/2000/svg" viewBox="0 0 16 16">
  <title>fast-food</title>
  <g>
    <path d="M12,12a1,1,0,0,0-1-1H1a1,1,0,0,0,0,2H11A1,1,0,0,0,12,12Z"/>
    <path d="M15.5,4H12.59l.334-2H15.5a.5.5,0,0,0,0-1h-3a.5.5,0,0,0-.493.418L11.576,4H8.5a.5.5,0,0,0-.5.545L8.225,7H8.5a3.5,3.5,0,0,1,3.492,3.264,2,2,0,0,1,0,3.473A3.486,3.486,0,0,1,10.939,16H14.5a.5.5,0,0,0,.5-.455l1-11A.5.5,0,0,0,15.5,4Z"/>
    <path d="M8.5,8h-5a2.5,2.5,0,0,0-2.449,2h9.9A2.5,2.5,0,0,0,8.5,8Z"/>
    <path d="M1.051,14A2.5,2.5,0,0,0,3.5,16h5a2.5,2.5,0,0,0,2.449-2Z"/>
  </g>
</svg>
