<svg xmlns="http://www.w3.org/2000/svg" viewBox="0 0 16 16">
  <title>fidget-spinner</title>
  <path d="M8,10.5a2,2,0,1,0-2-2A2,2,0,0,0,8,10.5Zm0-3a1,1,0,1,1-1,1A1,1,0,0,1,8,7.5Z"/>
  <path d="M8,4.5A1.5,1.5,0,1,0,6.5,3,1.5,1.5,0,0,0,8,4.5Zm0-2a.5.5,0,1,1-.5.5A.5.5,0,0,1,8,2.5Z"/>
  <path d="M2.486,9.951A1.5,1.5,0,0,0,2.849,12.7a1.528,1.528,0,0,0,.391.052,1.487,1.487,0,0,0,.748-.2,1.5,1.5,0,1,0-1.5-2.6Zm.5.865A.5.5,0,1,1,2.8,11.5.5.5,0,0,1,2.987,10.816Z"/>
  <path d="M2.524,8.334c-.024,0-.048.009-.071.015a3.082,3.082,0,0,0-.715.3,3.02,3.02,0,0,0-1.1,4.1,2.973,2.973,0,0,0,4.687.654.366.366,0,0,0,.036-.032,3.537,3.537,0,0,1,5.283,0,.361.361,0,0,0,.035.032,3,3,0,1,0,3.584-4.756,3.1,3.1,0,0,0-.714-.3.6.6,0,0,0-.066-.013A3.532,3.532,0,0,1,10.9,3.777a.578.578,0,0,0,.012-.061A2.872,2.872,0,0,0,11,3,3,3,0,0,0,5,3a2.427,2.427,0,0,0,.085.664.513.513,0,0,0,.017.113A3.531,3.531,0,0,1,2.524,8.334Zm3.568-4.72c-.008-.041-.016-.081-.022-.1A1.857,1.857,0,0,1,6,3a2,2,0,0,1,4,0,1.859,1.859,0,0,1-.062.485,1.13,1.13,0,0,0-.03.123v0l0,.012a4.524,4.524,0,0,0,3.375,5.7l.054.011a2.071,2.071,0,0,1,.423.183,2,2,0,1,1-2,3.476,2.021,2.021,0,0,1-.407-.32l-.015-.015a.469.469,0,0,0-.04-.037,4.525,4.525,0,0,0-6.618.019c-.012.011-.024.021-.036.033a1.953,1.953,0,0,1-1.928.52,2.005,2.005,0,0,1-.477-3.674,2.051,2.051,0,0,1,.424-.184.532.532,0,0,0,.054-.011A4.525,4.525,0,0,0,6.093,3.614Z"/>
  <path d="M12.013,12.549a1.487,1.487,0,0,0,.748.2,1.528,1.528,0,0,0,.391-.052,1.5,1.5,0,1,0-1.138-.15ZM12.33,11a.5.5,0,1,1,.563.733.49.49,0,0,1-.379-.05h0A.5.5,0,0,1,12.33,11Z"/>
  <path d="M15.2,6.44a.524.524,0,0,0,.133-.018.5.5,0,0,0,.349-.615A7.767,7.767,0,0,0,13.748,2.45a.5.5,0,0,0-.715.7,6.768,6.768,0,0,1,1.686,2.924A.5.5,0,0,0,15.2,6.44Z"/>
  <path d="M2.252,2.45A7.767,7.767,0,0,0,.318,5.808a.5.5,0,0,0,.349.615A.524.524,0,0,0,.8,6.44a.5.5,0,0,0,.481-.367A6.768,6.768,0,0,1,2.967,3.149a.5.5,0,1,0-.715-.7Z"/>
  <path d="M5.7,15.144a.5.5,0,0,0,.358.61,7.812,7.812,0,0,0,3.891,0,.5.5,0,0,0-.251-.969,6.819,6.819,0,0,1-3.389,0A.5.5,0,0,0,5.7,15.144Z"/>
  <path d="M11.6,3.82a.5.5,0,0,0-.012.707A4.872,4.872,0,0,1,12.8,6.622a.5.5,0,0,0,.482.368.513.513,0,0,0,.132-.018.5.5,0,0,0,.351-.614A5.883,5.883,0,0,0,12.31,3.832.5.5,0,0,0,11.6,3.82Z"/>
  <path d="M3.69,3.832A5.883,5.883,0,0,0,2.238,6.358a.5.5,0,0,0,.351.614.51.51,0,0,0,.132.018A.5.5,0,0,0,3.2,6.622,4.872,4.872,0,0,1,4.409,4.527a.5.5,0,0,0-.719-.7Z"/>
  <path d="M6.546,13.814a5.791,5.791,0,0,0,2.908,0,.5.5,0,0,0-.248-.969,4.762,4.762,0,0,1-2.412,0,.5.5,0,0,0-.248.969Z"/>
</svg>
