<svg xmlns="http://www.w3.org/2000/svg" viewBox="0 0 16 16">
  <title>fidget-spinner</title>
  <g>
    <path d="M14.261,8.647a3.122,3.122,0,0,0-.713-.3.546.546,0,0,0-.068-.014A3.531,3.531,0,0,1,10.9,3.778v0c0-.021.009-.041.012-.061A2.887,2.887,0,0,0,11,3,3,3,0,0,0,5,3a2.423,2.423,0,0,0,.085.664.5.5,0,0,0,.017.113A3.532,3.532,0,0,1,2.524,8.334a.526.526,0,0,0-.072.015,3.109,3.109,0,0,0-.714.3,3.02,3.02,0,0,0-1.1,4.1,2.973,2.973,0,0,0,4.687.654.366.366,0,0,0,.036-.032,3.537,3.537,0,0,1,5.283,0,.371.371,0,0,0,.036.032,3,3,0,1,0,3.583-4.756Z" fill="#607d8b"/>
    <circle cx="8" cy="8.5" r="2" fill="#455a64"/>
    <circle cx="8" cy="3" r="1.5" fill="#eceff1"/>
    <path d="M4.536,10.5a1.5,1.5,0,0,0-2.049-.549h0A1.5,1.5,0,0,0,2.849,12.7a1.528,1.528,0,0,0,.391.052,1.487,1.487,0,0,0,.748-.2A1.5,1.5,0,0,0,4.536,10.5Z" fill="#eceff1"/>
    <path d="M13.513,9.951A1.5,1.5,0,1,0,14.062,12,1.49,1.49,0,0,0,13.513,9.951Z" fill="#eceff1"/>
    <g>
      <path d="M15.2,6.44a.5.5,0,0,1-.482-.367,6.759,6.759,0,0,0-1.686-2.923.5.5,0,0,1,.715-.7,7.774,7.774,0,0,1,1.936,3.357.5.5,0,0,1-.482.633Z" fill="#607d8b"/>
      <path d="M.8,6.44a.5.5,0,0,1-.482-.633A7.765,7.765,0,0,1,2.252,2.45a.5.5,0,1,1,.715.7A6.769,6.769,0,0,0,1.282,6.073.5.5,0,0,1,.8,6.44Z" fill="#607d8b"/>
      <path d="M8,16a7.77,7.77,0,0,1-1.945-.246.5.5,0,0,1,.251-.969,6.822,6.822,0,0,0,3.39,0,.5.5,0,1,1,.25.969A7.77,7.77,0,0,1,8,16Z" fill="#607d8b"/>
      <path d="M13.28,6.99a.5.5,0,0,1-.482-.368,4.859,4.859,0,0,0-1.207-2.094.5.5,0,0,1,.719-.7,5.868,5.868,0,0,1,1.453,2.526.5.5,0,0,1-.351.614A.5.5,0,0,1,13.28,6.99Z" fill="#607d8b"/>
      <path d="M2.721,6.99a.492.492,0,0,1-.132-.018.5.5,0,0,1-.351-.614A5.859,5.859,0,0,1,3.691,3.833a.5.5,0,0,1,.718.7A4.865,4.865,0,0,0,3.2,6.622.5.5,0,0,1,2.721,6.99Z" fill="#607d8b"/>
      <path d="M8,14a5.771,5.771,0,0,1-1.454-.186.5.5,0,0,1,.248-.969,4.762,4.762,0,0,0,2.412,0,.5.5,0,0,1,.248.969A5.771,5.771,0,0,1,8,14Z" fill="#607d8b"/>
    </g>
  </g>
</svg>
