<svg xmlns="http://www.w3.org/2000/svg" viewBox="0 0 16 16">
  <title>gift-box</title>
  <path d="M15,5H11.836a3.952,3.952,0,0,0,.558-.447,2.092,2.092,0,0,0,0-2.942,2.115,2.115,0,0,0-2.933,0C9.028,2.046,7.877,3.817,8.036,5H7.964c.158-1.183-.992-2.954-1.425-3.389a2.115,2.115,0,0,0-2.933,0,2.093,2.093,0,0,0,0,2.942A3.956,3.956,0,0,0,4.164,5H1A1,1,0,0,0,0,6V8.5A.5.5,0,0,0,.5,9H1v6a1,1,0,0,0,1,1H14a1,1,0,0,0,1-1V9h.5a.5.5,0,0,0,.5-.5V6A1,1,0,0,0,15,5ZM9.058,4.967c-.232-.242.438-1.974,1.112-2.651a1.077,1.077,0,1,1,1.515,1.532A4.915,4.915,0,0,1,9.244,5,.334.334,0,0,1,9.058,4.967ZM4.315,3.848a1.09,1.09,0,0,1,0-1.532,1.066,1.066,0,0,1,1.515,0c.674.678,1.344,2.41,1.111,2.651A.328.328,0,0,1,6.756,5,4.919,4.919,0,0,1,4.315,3.848ZM1,6H7.5V8H1ZM2,9H7.5v6H2Zm12,6H8.5V9H14Zm1-7H8.5V6H15Z"/>
</svg>
