<svg xmlns="http://www.w3.org/2000/svg" viewBox="0 0 16 16">
  <title>gift-box</title>
  <g>
    <path d="M1,5.5H15a.5.5,0,0,1,.5.5V8.5a0,0,0,0,1,0,0H.5a0,0,0,0,1,0,0V6A.5.5,0,0,1,1,5.5Z" fill="none" stroke="#000" stroke-linecap="round" stroke-linejoin="round"/>
    <path d="M14.5,8.5V15a.5.5,0,0,1-.5.5H2a.5.5,0,0,1-.5-.5V8.5" fill="none" stroke="#000" stroke-miterlimit="10"/>
    <line x1="8" y1="5.5" x2="8" y2="15.5" fill="none" stroke="#000" stroke-miterlimit="10"/>
    <path d="M9.244,5.5a.737.737,0,0,1-.54-.18c-.614-.618.5-2.738,1.112-3.356a1.566,1.566,0,0,1,2.224,0,1.589,1.589,0,0,1,0,2.238,5.314,5.314,0,0,1-2.8,1.3H6.756a5.314,5.314,0,0,1-2.8-1.3,1.589,1.589,0,0,1,0-2.238,1.566,1.566,0,0,1,2.224,0C6.8,2.581,7.911,4.7,7.3,5.32a.737.737,0,0,1-.54.18" fill="none" stroke="#000" stroke-miterlimit="10"/>
  </g>
</svg>
