<svg xmlns="http://www.w3.org/2000/svg" viewBox="0 0 16 16">
  <title>gift-card</title>
  <g>
    <path d="M15,14H1a1,1,0,0,1-1-1V4A1,1,0,0,1,1,3H15a1,1,0,0,1,1,1v9A1,1,0,0,1,15,14Zm0-1v0Z" fill="#eceff1"/>
    <rect y="8" width="16" height="1" fill="#f44336"/>
    <rect x="9" y="3" width="1" height="11" fill="#f44336"/>
    <path d="M9.5,9a.5.5,0,0,1-.131-.018,15.827,15.827,0,0,1-3.93-1.422A1.5,1.5,0,0,1,7.561,5.439c.4.4,2.13,2.5,2.326,2.743A.5.5,0,0,1,9.5,9Zm-3-3a.5.5,0,0,0-.354.853,10.991,10.991,0,0,0,1.93.712c-.522-.625-1.05-1.247-1.223-1.419A.5.5,0,0,0,6.5,6Z" fill="#f44336"/>
    <path d="M9.5,9a.5.5,0,0,1-.387-.817c.2-.239,1.93-2.347,2.326-2.743a1.5,1.5,0,0,1,2.121,2.121,15.834,15.834,0,0,1-3.93,1.422A.5.5,0,0,1,9.5,9Zm3-3a.5.5,0,0,0-.354.146c-.172.172-.7.794-1.222,1.418a10.649,10.649,0,0,0,1.94-.722A.5.5,0,0,0,12.5,6Z" fill="#f44336"/>
    <path d="M7,11.5a.5.5,0,0,1-.354-.854l2.5-2.5a.5.5,0,0,1,.707.707l-2.5,2.5A.5.5,0,0,1,7,11.5Z" fill="#f44336"/>
    <path d="M12,11.5a.5.5,0,0,1-.354-.146l-2.5-2.5a.5.5,0,0,1,.707-.707l2.5,2.5A.5.5,0,0,1,12,11.5Z" fill="#f44336"/>
    <path d="M5.5,12h-3a.5.5,0,0,1,0-1h3a.5.5,0,0,1,0,1Z" fill="#90a4ae"/>
  </g>
</svg>
