<svg xmlns="http://www.w3.org/2000/svg" viewBox="0 0 16 16">
  <title>gift-card</title>
  <g>
    <rect x="0.5" y="3.5" width="15" height="10" rx="0.5" ry="0.5" fill="none" stroke="#000" stroke-linecap="round" stroke-linejoin="round"/>
    <line x1="1" y1="8.5" x2="15" y2="8.5" fill="none" stroke="#000" stroke-linecap="round" stroke-linejoin="round"/>
    <line x1="9.5" y1="4" x2="9.5" y2="13" fill="none" stroke="#000" stroke-linecap="round" stroke-linejoin="round"/>
    <path d="M7.207,5.793C7.6,6.183,9.5,8.5,9.5,8.5A21.249,21.249,0,0,1,5.793,7.207,1,1,0,0,1,7.207,5.793Z" fill="none" stroke="#000" stroke-linecap="round" stroke-linejoin="round"/>
    <path d="M11.793,5.793C11.4,6.183,9.5,8.5,9.5,8.5a21.249,21.249,0,0,0,3.707-1.293,1,1,0,0,0-1.414-1.414Z" fill="none" stroke="#000" stroke-linecap="round" stroke-linejoin="round"/>
    <line x1="9.5" y1="8.5" x2="7" y2="11" fill="none" stroke="#000" stroke-linecap="round" stroke-linejoin="round"/>
    <line x1="12" y1="11" x2="9.5" y2="8.5" fill="none" stroke="#000" stroke-linecap="round" stroke-linejoin="round"/>
    <line x1="2.5" y1="11.5" x2="5.5" y2="11.5" fill="none" stroke="#000" stroke-linecap="round" stroke-linejoin="round"/>
  </g>
</svg>
