<svg xmlns="http://www.w3.org/2000/svg" viewBox="0 0 16 16">
  <title>groceries</title>
  <g>
    <path d="M14.895,7.192A.5.5,0,0,0,14.5,7H1.5a.5.5,0,0,0-.485.621l2,8A.5.5,0,0,0,3.5,16h9a.5.5,0,0,0,.485-.379l2-8A.5.5,0,0,0,14.895,7.192Z" fill="#ffc107"/>
    <rect y="5" width="16" height="3" rx="0.5" ry="0.5" fill="#ffd54f"/>
    <path d="M8,14a.5.5,0,0,1-.5-.5v-3a.5.5,0,0,1,1,0v3A.5.5,0,0,1,8,14Z" fill="#fafafa"/>
    <path d="M5.5,14a.5.5,0,0,1-.5-.5v-3a.5.5,0,0,1,1,0v3A.5.5,0,0,1,5.5,14Z" fill="#fafafa"/>
    <path d="M10.5,14a.5.5,0,0,1-.5-.5v-3a.5.5,0,0,1,1,0v3A.5.5,0,0,1,10.5,14Z" fill="#fafafa"/>
    <path d="M2.5,2h3a.5.5,0,0,1,.5.5V5A0,0,0,0,1,6,5H2A0,0,0,0,1,2,5V2.5A.5.5,0,0,1,2.5,2Z" fill="#90caf9"/>
    <path d="M6.5,0h3a.5.5,0,0,1,.5.5V5a0,0,0,0,1,0,0H6A0,0,0,0,1,6,5V.5A.5.5,0,0,1,6.5,0Z" fill="#64b5f6"/>
    <path d="M10.5,1h3a.5.5,0,0,1,.5.5V5a0,0,0,0,1,0,0H10a0,0,0,0,1,0,0V1.5A.5.5,0,0,1,10.5,1Z" fill="#2196f3"/>
  </g>
</svg>
