<svg xmlns="http://www.w3.org/2000/svg" viewBox="0 0 16 16">
  <title>groceries</title>
  <g>
    <rect y="5" width="16" height="3" rx="0.5" ry="0.5"/>
    <path d="M3.015,15.621A.5.5,0,0,0,3.5,16h9a.5.5,0,0,0,.485-.379L14.641,9H1.36ZM10,10.5a.5.5,0,0,1,1,0v3a.5.5,0,0,1-1,0Zm-2.5,0a.5.5,0,0,1,1,0v3a.5.5,0,0,1-1,0ZM5,10.5a.5.5,0,0,1,1,0v3a.5.5,0,0,1-1,0Z"/>
    <path d="M6,2.5A.5.5,0,0,0,5.5,2h-2a.5.5,0,0,0-.5.5V4H6Z"/>
    <path d="M10,.5A.5.5,0,0,0,9.5,0h-2A.5.5,0,0,0,7,.5V4h3Z"/>
    <path d="M14,1.5a.5.5,0,0,0-.5-.5h-2a.5.5,0,0,0-.5.5V4h3Z"/>
  </g>
</svg>
