<svg xmlns="http://www.w3.org/2000/svg" viewBox="0 0 16 16">
  <title>group</title>
  <path d="M10.386,5.959a.5.5,0,0,0,.094.991.522.522,0,0,0,.095-.009A3,3,0,1,0,7.983,1.78a.5.5,0,1,0,.673.74,2,2,0,1,1,1.729,3.439Z"/>
  <path d="M15.975,10.376a.592.592,0,0,0-.14-.242c-.005-.005-.008-.012-.014-.017A8.963,8.963,0,0,0,9.69,8.01a.5.5,0,1,0,.039,1A7.964,7.964,0,0,1,15,10.747V12H13.5a.5.5,0,0,0,0,1H15a1,1,0,0,0,1-1V10.5c0-.008,0-.014,0-.021A.49.49,0,0,0,15.975,10.376Z"/>
  <path d="M3,6A3,3,0,1,0,6,3,3,3,0,0,0,3,6ZM8,6A2,2,0,1,1,6,4,2,2,0,0,1,8,6Z"/>
  <path d="M1,15H11a1,1,0,0,0,1-1V12.5c0-.008,0-.014,0-.021a1.206,1.206,0,0,0-.045-.189.5.5,0,0,0-.05-.074.488.488,0,0,0-.066-.082c-.006-.005-.008-.012-.014-.017a9.051,9.051,0,0,0-11.643,0c-.006,0-.008.012-.014.017a.494.494,0,0,0-.066.083.5.5,0,0,0-.049.073.494.494,0,0,0-.025.086.491.491,0,0,0-.021.1c0,.008,0,.014,0,.021V14A1,1,0,0,0,1,15Zm10-2.253V14H1V12.747A8.041,8.041,0,0,1,11,12.747Z"/>
</svg>
