<svg xmlns="http://www.w3.org/2000/svg" viewBox="0 0 16 16">
  <title>hamburger</title>
  <g>
    <path d="M5.5,13.969,4.27,13H.14l.2.606A3.5,3.5,0,0,0,3.662,16h8.676a3.5,3.5,0,0,0,3.32-2.394l.2-.606H6.73Z"/>
    <path d="M16,8a.5.5,0,0,0-.084-.277L15.434,7H15.5a.5.5,0,0,0,.462-.692,8.626,8.626,0,0,0-15.923,0A.5.5,0,0,0,.5,7H.566l-.482.723A.5.5,0,0,0,0,8,1.977,1.977,0,0,0,.279,9,1.966,1.966,0,0,0,0,10a2,2,0,0,0,2,2H14a2,2,0,0,0,2-2,1.966,1.966,0,0,0-.279-1A1.977,1.977,0,0,0,16,8ZM14.232,7l.758,1.137a1,1,0,0,1-1.741.522,1,1,0,0,0-1.5,0,1,1,0,0,1-1.5,0,1,1,0,0,0-1.5,0,1,1,0,0,1-1.5,0,1,1,0,0,0-1.5,0,1,1,0,0,1-1.5,0,1,1,0,0,0-1.5,0,1,1,0,0,1-1.74-.523L1.768,7Z"/>
  </g>
</svg>
