<svg xmlns="http://www.w3.org/2000/svg" viewBox="0 0 16 16">
  <title>hamburger</title>
  <g>
    <g>
      <path d="M13.5,8H2.5a2.5,2.5,0,0,0,0,5h11a2.5,2.5,0,0,0,0-5Z" fill="#d32f2f"/>
      <path d="M15.905,12.208A.5.5,0,0,0,15.5,12H.5a.5.5,0,0,0-.474.658l.316.948A3.5,3.5,0,0,0,3.662,16h8.676a3.5,3.5,0,0,0,3.32-2.394l.316-.948A.5.5,0,0,0,15.905,12.208Z" fill="#ffc107"/>
      <path d="M15.916,7.723l-1-1.5A.5.5,0,0,0,14.5,6H1.5a.5.5,0,0,0-.416.223l-1,1.5A.5.5,0,0,0,0,8,2,2,0,0,0,3.5,9.321a2,2,0,0,0,3,0,2,2,0,0,0,3,0,2,2,0,0,0,3,0A2,2,0,0,0,16,8,.5.5,0,0,0,15.916,7.723Z" fill="#4caf50"/>
      <polygon points="3 12 5.5 13.969 8 12 3 12" fill="#ffeb3b"/>
    </g>
    <path d="M15.962,6.308a8.626,8.626,0,0,0-15.923,0A.5.5,0,0,0,.5,7h15a.5.5,0,0,0,.462-.692Z" fill="#ffc107"/>
  </g>
</svg>
