<svg xmlns="http://www.w3.org/2000/svg" viewBox="0 0 16 16">
  <title>hand-truck</title>
  <g>
    <path d="M13.5,14H5.908A1.5,1.5,0,0,0,5,13.092V2.5a.5.5,0,0,0-.146-.354l-2-2a.5.5,0,0,0-.707.707L4,2.708V13.092A1.5,1.5,0,1,0,5.908,15H13.5a.5.5,0,0,0,0-1Zm-9,1a.5.5,0,1,1,.5-.5A.5.5,0,0,1,4.5,15Z"/>
    <path d="M12.5,13a.5.5,0,0,0,.5-.5v-4a.5.5,0,0,0-.5-.5h-6a.5.5,0,0,0-.5.5v4.007A2.5,2.5,0,0,1,6.493,13Zm-4-5h2v2h-2Z"/>
    <path d="M11,4.5a.5.5,0,0,0-.5-.5H9V5H8V4H6.5a.5.5,0,0,0-.5.5V7h5Z"/>
  </g>
</svg>
