<svg xmlns="http://www.w3.org/2000/svg" viewBox="0 0 16 16">
  <title>hand-truck</title>
  <g>
    <path d="M5.5,4h5a.5.5,0,0,1,.5.5V10H5V4.5A.5.5,0,0,1,5.5,4Z" fill="#ffd54f"/>
    <path d="M5.5,8h7a.5.5,0,0,1,.5.5V14H5V8.5A.5.5,0,0,1,5.5,8Z" fill="#ffc107"/>
    <path d="M13.5,14H5.908A1.5,1.5,0,0,0,5,13.092V2.5a.5.5,0,0,0-.146-.354l-2-2a.5.5,0,0,0-.707.707L4,2.708V13.092A1.5,1.5,0,1,0,5.908,15H13.5a.5.5,0,0,0,0-1Z" fill="#455a64"/>
    <circle cx="4.5" cy="14.5" r="0.5" fill="#fafafa"/>
    <rect x="8" y="8" width="2" height="3" fill="#f44336"/>
    <rect x="7.5" y="4" width="1" height="1" fill="#f44336"/>
  </g>
</svg>
