<svg xmlns="http://www.w3.org/2000/svg" viewBox="0 0 16 16">
  <title>hyperloop</title>
  <g>
    <path d="M5.1,13.5a2.067,2.067,0,0,1-1.6,1c-1.66,0-3-2.91-3-6.5s1.34-6.5,3-6.5a2.067,2.067,0,0,1,1.6,1" fill="none" stroke="#000" stroke-linecap="round" stroke-linejoin="round"/>
    <line x1="5.5" y1="11.5" x2="3" y2="11.5" fill="none" stroke="#000" stroke-linecap="round" stroke-linejoin="round"/>
    <path d="M3.5,4.5h6a1.993,1.993,0,0,1,1.361.535L15.021,8.9A1.5,1.5,0,0,1,14,11.5H7.5" fill="none" stroke="#000" stroke-linecap="round" stroke-linejoin="round"/>
    <path d="M5.5,4.5c.11,1.17.95,4,6.5,4h2.59" fill="none" stroke="#000" stroke-linecap="round" stroke-linejoin="round"/>
    <line x1="2.5" y1="9.5" x2="4.5" y2="9.5" fill="none" stroke="#000" stroke-linecap="round" stroke-linejoin="round"/>
    <line x1="2.5" y1="7.5" x2="3.5" y2="7.5" fill="none" stroke="#000" stroke-linecap="round" stroke-linejoin="round"/>
  </g>
</svg>
