<svg xmlns="http://www.w3.org/2000/svg" viewBox="0 0 16 16">
  <title>hyperloop</title>
  <g>
    <ellipse cx="3.5" cy="8" rx="3" ry="6.5" fill="#fafafa"/>
    <path d="M3.5,15C1.538,15,0,11.925,0,8S1.538,1,3.5,1,7,4.075,7,8,5.462,15,3.5,15Zm0-13C2.317,2,1,4.464,1,8s1.317,6,2.5,6S6,11.536,6,8,4.683,2,3.5,2Z" fill="#455a64"/>
    <path d="M15.36,8.534l-.43-.4A.5.5,0,0,0,14.59,8H12C6.883,8,6.1,5.52,6,4.453A.5.5,0,0,0,5.5,4H3A.5.5,0,0,0,3,5h.5a.5.5,0,0,1,0,1H3a.5.5,0,0,0-.5.5v1A.5.5,0,0,0,3,8h.5a.5.5,0,0,1,0,1H3a.5.5,0,0,0,0,1H5a.5.5,0,0,1,0,1H3a.5.5,0,0,0,0,1H14a2,2,0,0,0,2-2A1.972,1.972,0,0,0,15.36,8.534Z" fill="#ffc107"/>
    <path d="M14.59,9a.5.5,0,0,0,.341-.866L11.2,4.661A2.515,2.515,0,0,0,9.5,4h-4a.5.5,0,0,0-.5.547C5.128,5.886,6.062,9,12,9Z" fill="#eceff1"/>
  </g>
</svg>
