<svg xmlns="http://www.w3.org/2000/svg" viewBox="0 0 16 16">
  <title>inbox</title>
  <path d="M15.974,8.372a.486.486,0,0,0-.032-.094c0-.01,0-.02-.01-.03l-3.5-6A.5.5,0,0,0,12,2H4a.5.5,0,0,0-.432.248l-3.5,6c-.005.009-.005.02-.01.03a.486.486,0,0,0-.032.094.494.494,0,0,0-.02.1C.006,8.48,0,8.489,0,8.5V14a1,1,0,0,0,1,1H15a1,1,0,0,0,1-1V8.5c0-.011-.006-.02-.006-.031A.494.494,0,0,0,15.974,8.372ZM4.287,3h7.426l2.916,5H12.5a.5.5,0,0,0-.447.276L11.191,10H4.81L3.948,8.276A.5.5,0,0,0,3.5,8H1.371ZM15,14.5V14H1V9H3.191l.862,1.724A.5.5,0,0,0,4.5,11h7a.5.5,0,0,0,.447-.276L12.81,9H15v5h0Z"/>
  <path d="M5.5,5h5a.5.5,0,0,0,0-1h-5a.5.5,0,0,0,0,1Z"/>
  <path d="M4.5,7h7a.5.5,0,0,0,0-1h-7a.5.5,0,0,0,0,1Z"/>
</svg>
