<svg xmlns="http://www.w3.org/2000/svg" viewBox="0 0 16 16">
  <title>isometric-graph</title>
  <path d="M.5,16h12a.5.5,0,0,0,.354-.147l2-2A.506.506,0,0,0,15,13.5v-5a.5.5,0,0,0-.038-.187v0h0a.493.493,0,0,0-.163-.2.465.465,0,0,0-.05-.034A.486.486,0,0,0,14.5,8H11V4.5a.5.5,0,0,0-.038-.187v0h0a.493.493,0,0,0-.163-.2.465.465,0,0,0-.05-.034A.486.486,0,0,0,10.5,4H7V.5A.5.5,0,0,0,6.962.313v0h0A.493.493,0,0,0,6.8.109a.465.465,0,0,0-.05-.034A.486.486,0,0,0,6.5,0h-4a.5.5,0,0,0-.354.146l-2,2a.5.5,0,0,0-.122.227.458.458,0,0,0-.013.062A.473.473,0,0,0,0,2.5v13A.5.5,0,0,0,.5,16ZM6,4.293l-1,1V2.707l1-1Zm4,4-1,1V6.707l1-1Zm4,5-1,1V10.707l1-1ZM12,15H9V11h3ZM8,15H5V7H8ZM4,15H1V3H4Zm8.293-5H9.707l1-1h2.586Zm-4-4H5.707l1-1H9.293ZM2.707,1H5.293l-1,1H1.707Z"/>
</svg>
