<svg xmlns="http://www.w3.org/2000/svg" viewBox="0 0 16 16">
  <title>isometric-graph</title>
  <g>
    <polygon points="4.5 2.5 0.5 2.5 2.5 0.5 6.5 0.5 4.5 2.5" fill="none" stroke="#000" stroke-linecap="round" stroke-linejoin="round"/>
    <polygon points="8.5 6.5 4.5 6.5 6.5 4.5 10.5 4.5 8.5 6.5" fill="none" stroke="#000" stroke-linecap="round" stroke-linejoin="round"/>
    <polygon points="12.5 10.5 8.5 10.5 10.5 8.5 14.5 8.5 12.5 10.5" fill="none" stroke="#000" stroke-linecap="round" stroke-linejoin="round"/>
    <polyline points="14.5 13.5 12.5 15.5 0.5 15.5" fill="none" stroke="#000" stroke-linecap="round" stroke-linejoin="round"/>
    <line x1="0.5" y1="2.5" x2="0.5" y2="15.5" fill="none" stroke="#000" stroke-linecap="round" stroke-linejoin="round"/>
    <line x1="4.5" y1="2.5" x2="4.5" y2="15.5" fill="none" stroke="#000" stroke-linecap="round" stroke-linejoin="round"/>
    <line x1="8.5" y1="6.5" x2="8.5" y2="15.5" fill="none" stroke="#000" stroke-linecap="round" stroke-linejoin="round"/>
    <line x1="12.5" y1="10.5" x2="12.5" y2="15.5" fill="none" stroke="#000" stroke-linecap="round" stroke-linejoin="round"/>
    <line x1="14.5" y1="8.5" x2="14.5" y2="13.5" fill="none" stroke="#000" stroke-linecap="round" stroke-linejoin="round"/>
    <line x1="10.5" y1="4.5" x2="10.5" y2="8.5" fill="none" stroke="#000" stroke-linecap="round" stroke-linejoin="round"/>
    <line x1="6.5" y1="0.5" x2="6.5" y2="4.5" fill="none" stroke="#000" stroke-linecap="round" stroke-linejoin="round"/>
  </g>
</svg>
