<svg xmlns="http://www.w3.org/2000/svg" viewBox="0 0 16 16">
  <title>isometric-graph</title>
  <g>
    <polygon points="5 2 0 2 2 0 7 0 5 2" fill="#90caf9"/>
    <rect y="2" width="5" height="14" fill="#42a5f5"/>
    <polygon points="5 16 7 16 7 0 5 2 5 16" fill="#1e88e5"/>
    <polygon points="10 7 5 7 7 5 12 5 10 7" fill="#80cbc4"/>
    <rect x="5" y="7" width="5" height="9" fill="#66bb6a"/>
    <polygon points="10 16 12 16 12 5 10 7 10 16" fill="#43a047"/>
    <polygon points="14 11 10 11 12 9 16 9 14 11" fill="#ffe082"/>
    <rect x="10" y="11" width="4" height="5" fill="#ffca28"/>
    <polygon points="14 16 16 14 16 9 14 11 14 16" fill="#ffb300"/>
  </g>
</svg>
