<svg xmlns="http://www.w3.org/2000/svg" viewBox="0 0 16 16">
  <title>megaphone</title>
  <g>
    <path d="M2.5,4a.5.5,0,0,0-.5.5V5H.5a.5.5,0,0,0-.5.5v3A.5.5,0,0,0,.5,9H2v.5a.5.5,0,0,0,.5.5h.3l2.01,5.358A1.006,1.006,0,0,0,5.749,16a.973.973,0,0,0,.7-.3l1.2-1.191a1,1,0,0,0,.184-1.157L6.159,10H7.487c.173.008.342.035.513.051v-6.1c-.173.017-.344.043-.518.051Z"/>
    <path d="M15.918.242A.452.452,0,0,0,15.887.2a.49.49,0,0,0-.209-.16L15.669.029c-.01,0-.019,0-.029,0A.486.486,0,0,0,15.5,0a.477.477,0,0,0-.1.02.476.476,0,0,0-.056.011.489.489,0,0,0-.219.142s-.01,0-.014.009A10.519,10.519,0,0,1,9,3.8V10.2a10.522,10.522,0,0,1,6.114,3.622c0,.005.011.007.016.013a.492.492,0,0,0,.124.1.478.478,0,0,0,.042.029.5.5,0,0,0,.2.045.508.508,0,0,0,.169-.029l.008-.006a.49.49,0,0,0,.209-.16.452.452,0,0,0,.032-.047A.486.486,0,0,0,16,13.5V.5A.486.486,0,0,0,15.918.242Z"/>
  </g>
</svg>
