<svg xmlns="http://www.w3.org/2000/svg" viewBox="0 0 16 16">
  <title>mobile-apps</title>
  <path d="M4.009,15.992h9a1,1,0,0,0,1-1v-14a1,1,0,0,0-1-1h-9a1,1,0,0,0-1,1v14A1,1,0,0,0,4.009,15.992Zm0-1v-1h9v1Zm0-2v-10h9v10Zm9-12v1h-9v-1Z"/>
  <path d="M7.5,4h-2a.5.5,0,0,0-.5.5v2a.5.5,0,0,0,.5.5h2A.5.5,0,0,0,8,6.5v-2A.5.5,0,0,0,7.5,4ZM7,6H6V5H7Z"/>
  <path d="M11.5,4h-2a.5.5,0,0,0-.5.5v2a.5.5,0,0,0,.5.5h2a.5.5,0,0,0,.5-.5v-2A.5.5,0,0,0,11.5,4ZM11,6H10V5h1Z"/>
  <path d="M7.5,8h-2a.5.5,0,0,0-.5.5v2a.5.5,0,0,0,.5.5h2a.5.5,0,0,0,.5-.5v-2A.5.5,0,0,0,7.5,8ZM7,10H6V9H7Z"/>
</svg>
