<svg xmlns="http://www.w3.org/2000/svg" viewBox="0 0 16 16">
  <title>money-stack</title>
  <g>
    <path d="M2,1H14a1,1,0,0,1,1,1V4a0,0,0,0,1,0,0H1A0,0,0,0,1,1,4V2A1,1,0,0,1,2,1Z" fill="#00796b"/>
    <g>
      <rect y="3" width="16" height="11" rx="1" ry="1" fill="#009688"/>
      <path d="M12.051,13h-8.1A3.487,3.487,0,0,0,1,10.051v-3.1A3.487,3.487,0,0,0,3.949,4h8.1A3.487,3.487,0,0,0,15,6.949v3.1A3.487,3.487,0,0,0,12.051,13Z" fill="#4db6ac"/>
      <path d="M8,6.5a2,2,0,1,0,2,2A2,2,0,0,0,8,6.5Z" fill="#009688"/>
    </g>
  </g>
</svg>
