<svg xmlns="http://www.w3.org/2000/svg" viewBox="0 0 16 16">
  <title>money-dollar</title>
  <g>
    <g>
      <rect y="3" width="16" height="11" rx="1" ry="1" fill="#009688"/>
      <path d="M12.051,13h-8.1A3.487,3.487,0,0,0,1,10.051v-3.1A3.487,3.487,0,0,0,3.949,4h8.1A3.487,3.487,0,0,0,15,6.949v3.1A3.487,3.487,0,0,0,12.051,13Z" fill="#4db6ac"/>
    </g>
    <path d="M8,8A.5.5,0,0,1,8,7H9A.5.5,0,0,0,9,6H8.5V5.5a.5.5,0,0,0-1,0v.592A1.5,1.5,0,0,0,8,9a.5.5,0,0,1,0,1H7a.5.5,0,0,0,0,1h.5v.5a.5.5,0,0,0,1,0v-.592A1.5,1.5,0,0,0,8,8Z" fill="#fafafa"/>
  </g>
</svg>
