<svg xmlns="http://www.w3.org/2000/svg" viewBox="0 0 16 16">
  <title>money-bag</title>
  <path d="M5.5,16h5A3.5,3.5,0,0,0,14,12.5a4.322,4.322,0,0,0-.555-2.117L9.855,4H10a.5.5,0,0,0,0-1H9.934L11.416.777A.5.5,0,0,0,11,0H5a.5.5,0,0,0-.416.777L6.066,3H6A.5.5,0,0,0,6,4h.145L2.555,10.383A4.322,4.322,0,0,0,2,12.5,3.5,3.5,0,0,0,5.5,16ZM5.935,1h4.131L8.732,3H7.268ZM3.426,10.874,7.292,4H8.708l3.866,6.874A3.329,3.329,0,0,1,13,12.5,2.5,2.5,0,0,1,10.5,15h-5A2.5,2.5,0,0,1,3,12.5,3.329,3.329,0,0,1,3.426,10.874Z"/>
  <path d="M8,12H7a.5.5,0,0,0,0,1h.5v.5a.5.5,0,0,0,1,0v-.592A1.5,1.5,0,0,0,8,10,.5.5,0,0,1,8,9H9A.5.5,0,0,0,9,8H8.5V7.5a.5.5,0,0,0-1,0v.592A1.5,1.5,0,0,0,8,11a.5.5,0,0,1,0,1Z"/>
</svg>
