<svg xmlns="http://www.w3.org/2000/svg" viewBox="0 0 16 16">
  <title>money</title>
  <path d="M1,14H15a1,1,0,0,0,1-1V4a1,1,0,0,0-1-1H1A1,1,0,0,0,0,4v9A1,1,0,0,0,1,14ZM3.949,4h8.1A3.487,3.487,0,0,0,15,6.949v3.1A3.487,3.487,0,0,0,12.051,13h-8.1A3.487,3.487,0,0,0,1,10.051v-3.1A3.487,3.487,0,0,0,3.949,4ZM1,11.051A2.507,2.507,0,0,1,2.949,13H1ZM15,13.5V13H13.051A2.507,2.507,0,0,1,15,11.051V13h0Zm0-7.551A2.507,2.507,0,0,1,13.051,4H15ZM2.949,4A2.507,2.507,0,0,1,1,5.949V4Z"/>
  <path d="M8,10.5a2,2,0,1,0-2-2A2,2,0,0,0,8,10.5Zm0-3a1,1,0,1,1-1,1A1,1,0,0,1,8,7.5Z"/>
</svg>
