<svg xmlns="http://www.w3.org/2000/svg" viewBox="0 0 16 16">
  <title>money-dollar</title>
  <g>
    <rect x="0.5" y="3.5" width="15" height="10" rx="0.5" ry="0.5" fill="none" stroke="#000" stroke-linecap="round" stroke-linejoin="round"/>
    <path d="M3.5,3.5a3,3,0,0,1-3,3" fill="none" stroke="#000" stroke-linecap="round" stroke-linejoin="round"/>
    <path d="M12.5,3.5a3,3,0,0,0,3,3" fill="none" stroke="#000" stroke-linecap="round" stroke-linejoin="round"/>
    <path d="M3.5,13.5a3,3,0,0,0-3-3" fill="none" stroke="#000" stroke-linecap="round" stroke-linejoin="round"/>
    <path d="M12.5,13.5a3,3,0,0,1,3-3" fill="none" stroke="#000" stroke-linecap="round" stroke-linejoin="round"/>
    <g>
      <path d="M7,10.5H8a1,1,0,0,0,1-1H9a1,1,0,0,0-1-1H8a1,1,0,0,1-1-1H7a1,1,0,0,1,1-1H9" fill="none" stroke="#000" stroke-linecap="round" stroke-linejoin="round"/>
      <line x1="8" y1="5.5" x2="8" y2="6.5" fill="none" stroke="#000" stroke-linecap="round" stroke-linejoin="round"/>
      <line x1="8" y1="10.5" x2="8" y2="11.5" fill="none" stroke="#000" stroke-linecap="round" stroke-linejoin="round"/>
    </g>
  </g>
</svg>
