<svg xmlns="http://www.w3.org/2000/svg" viewBox="0 0 16 16">
  <title>money-bag</title>
  <g>
    <path d="M6,3A.5.5,0,0,0,6,4h4a.5.5,0,0,0,0-1Z"/>
    <path d="M13.445,10.384,10.417,5H5.583L2.554,10.384A4.33,4.33,0,0,0,2,12.5,3.5,3.5,0,0,0,5.5,16h5A3.5,3.5,0,0,0,14,12.5,4.32,4.32,0,0,0,13.445,10.384ZM8,10a1.5,1.5,0,0,1,.5,2.908V13.5a.5.5,0,0,1-1,0V13H7a.5.5,0,0,1,0-1H8a.5.5,0,0,0,0-1,1.5,1.5,0,0,1-.5-2.908V7.5a.5.5,0,0,1,1,0V8H9A.5.5,0,0,1,9,9H8a.5.5,0,0,0,0,1Z"/>
    <path d="M5.4,2h5.2L11.416.777A.5.5,0,0,0,11,0H5a.5.5,0,0,0-.416.777Z"/>
  </g>
</svg>
