<svg xmlns="http://www.w3.org/2000/svg" viewBox="0 0 16 16">
  <title>music-album</title>
  <path d="M7,14c1.122,0,2-.659,2-1.5V7.19a1.438,1.438,0,0,1,1,1.247.5.5,0,0,0,1,0c0-1.564-1.575-2.273-2.407-2.429-.015,0-.029,0-.044,0A.466.466,0,0,0,8.5,6a.474.474,0,0,0-.058.012.492.492,0,0,0-.089.018.483.483,0,0,0-.325.329.458.458,0,0,0-.02.049c0,.016,0,.03,0,.046A.473.473,0,0,0,8,6.5v4.7A2.538,2.538,0,0,0,7,11c-1.122,0-2,.659-2,1.5S5.878,14,7,14Zm0-2c.61,0,1,.3,1,.5s-.39.5-1,.5-1-.3-1-.5S6.39,12,7,12Z"/>
  <path d="M15.5,4H14V2.5a.5.5,0,0,0-.5-.5H12V.5a.5.5,0,0,0-.5-.5h-7A.5.5,0,0,0,4,.5V2H2.5a.5.5,0,0,0-.5.5V4H.5a.5.5,0,0,0-.5.5v11a.5.5,0,0,0,.5.5h15a.5.5,0,0,0,.5-.5V4.5A.5.5,0,0,0,15.5,4ZM5,1h6V2H5ZM3,3H13V4H3ZM15,15H1V5H15Z"/>
</svg>
