<svg xmlns="http://www.w3.org/2000/svg" viewBox="0 0 16 16">
  <title>music-album</title>
  <g>
    <path d="M15.5,4H.5a.5.5,0,0,0-.5.5v11a.5.5,0,0,0,.5.5h15a.5.5,0,0,0,.5-.5V4.5A.5.5,0,0,0,15.5,4Zm-5,4.938a.5.5,0,0,1-.5-.5A1.445,1.445,0,0,0,9,7.186V12.5c0,.841-.878,1.5-2,1.5s-2-.659-2-1.5S5.878,11,7,11a2.538,2.538,0,0,1,1,.2V6.5a.5.5,0,0,1,.592-.491C9.426,6.165,11,6.874,11,8.438A.5.5,0,0,1,10.5,8.938Z"/>
    <path d="M14,2.5a.5.5,0,0,0-.5-.5H2.5a.5.5,0,0,0-.5.5V3H14Z"/>
    <path d="M12,.5a.5.5,0,0,0-.5-.5h-7A.5.5,0,0,0,4,.5V1h8Z"/>
  </g>
</svg>
