<svg xmlns="http://www.w3.org/2000/svg" viewBox="0 0 16 16">
  <title>office</title>
  <g>
    <rect x="3" width="9" height="9" rx="0.5" ry="0.5" fill="#1976d2"/>
    <path d="M15.5,4h-6a.5.5,0,0,0-.5.5V7.232L6.223,9.084A.5.5,0,0,0,6,9.5v6a.5.5,0,0,0,.5.5h9a.5.5,0,0,0,.5-.5V4.5A.5.5,0,0,0,15.5,4Z" fill="#2196f3"/>
    <rect y="7" width="7" height="9" rx="0.5" ry="0.5" fill="#64b5f6"/>
    <rect x="2" y="9" width="1" height="1" fill="#fafafa"/>
    <rect x="4" y="9" width="1" height="1" fill="#fafafa"/>
    <rect x="2" y="11" width="1" height="1" fill="#fafafa"/>
    <rect x="4" y="11" width="1" height="1" fill="#fafafa"/>
    <rect x="5" y="2" width="1" height="1" fill="#fafafa"/>
    <rect x="7" y="2" width="1" height="1" fill="#fafafa"/>
    <rect x="5" y="4" width="1" height="1" fill="#fafafa"/>
    <rect x="7" y="4" width="1" height="1" fill="#fafafa"/>
    <rect x="9" y="2" width="1" height="1" fill="#fafafa"/>
    <rect x="12" y="11" width="2" height="2" fill="#fafafa"/>
    <rect x="12" y="7" width="2" height="2" fill="#fafafa"/>
  </g>
</svg>
