<svg xmlns="http://www.w3.org/2000/svg" viewBox="0 0 16 16">
  <title>office</title>
  <g>
    <path d="M6.5,7H.5a.5.5,0,0,0-.5.5v8a.5.5,0,0,0,.5.5h6a.5.5,0,0,0,.5-.5v-8A.5.5,0,0,0,6.5,7ZM3,12H2V11H3Zm0-2H2V9H3Zm2,2H4V11H5Zm0-2H4V9H5Z"/>
    <path d="M8,8,9,7V4.5A.5.5,0,0,1,9.5,4H12V.5a.5.5,0,0,0-.5-.5h-8A.5.5,0,0,0,3,.5V6H7.357A.627.627,0,0,1,8,6.611ZM9,2h1V3H9ZM7,2H8V3H7ZM6,5H5V4H6ZM6,3H5V2H6ZM7,5V4H8V5Z"/>
    <path d="M15.5,5h-5a.5.5,0,0,0-.5.5V7.232L8.223,9.084A.5.5,0,0,0,8,9.5v6a.5.5,0,0,0,.5.5h7a.5.5,0,0,0,.5-.5V5.5A.5.5,0,0,0,15.5,5ZM14,13H12V11h2Zm0-4H12V7h2Z"/>
  </g>
</svg>
