<svg xmlns="http://www.w3.org/2000/svg" viewBox="0 0 16 16">
  <title>phone-message</title>
  <g>
    <path d="M13.5,12a9.283,9.283,0,0,1-4.11-.939.493.493,0,0,0-.383-.023.5.5,0,0,0-.287.255l-.786,1.627A12.582,12.582,0,0,1,3.081,8.067L4.708,7.28a.5.5,0,0,0,.231-.67A9.278,9.278,0,0,1,4,2.5.5.5,0,0,0,3.5,2H.5a.5.5,0,0,0-.5.5A13.515,13.515,0,0,0,13.5,16a.5.5,0,0,0,.5-.5v-3A.5.5,0,0,0,13.5,12Z"/>
    <path d="M15,1H8A1,1,0,0,0,7,2V6A1,1,0,0,0,8,7H9V8.5a.5.5,0,0,0,.342.474A.493.493,0,0,0,9.5,9a.5.5,0,0,0,.4-.2L11.25,7H15a.99.99,0,0,0,1-1V2A.99.99,0,0,0,15,1Z"/>
  </g>
</svg>
