<svg xmlns="http://www.w3.org/2000/svg" viewBox="0 0 16 16">
  <title>picture</title>
  <path d="M15,5h-.849l-4.7-3.129A1.484,1.484,0,0,0,9.5,1.5a1.5,1.5,0,0,0-3,0,1.484,1.484,0,0,0,.052.371L1.849,5H1A.99.99,0,0,0,0,6v9a.99.99,0,0,0,1,1H15a.99.99,0,0,0,1-1V6A.99.99,0,0,0,15,5ZM8,1a.5.5,0,1,1-.5.5A.5.5,0,0,1,8,1ZM7.109,2.7a1.473,1.473,0,0,0,1.781,0L12.347,5H3.653ZM2,6H2L13.985,6c.005,0,.01,0,.015,0s.012,0,.018,0H15v4.054L11.839,7.133a.5.5,0,0,0-.678,0L7.067,10.908,4.891,8.188a.519.519,0,0,0-.781,0L1,12.074V6Zm13,7H8.741L7.693,11.69,11.5,8.181,15,11.409ZM6.617,11.946l0,.006L7.459,13H1.541L4.5,9.3ZM1,15V14H15v1Z"/>
</svg>
