<svg xmlns="http://www.w3.org/2000/svg" viewBox="0 0 16 16">
  <title>polo-shirt</title>
  <path d="M.02,3.638l1,3.5a.505.505,0,0,0,.6.348L3,7.141V15.5a.5.5,0,0,0,.5.5h9a.5.5,0,0,0,.5-.5V7.141l1.379.345a.5.5,0,0,0,.6-.348l1-3.5a.5.5,0,0,0-.232-.572l-3.5-2A.5.5,0,0,0,12,1H11V.5a.5.5,0,0,0-.045-.2V.288c0-.009-.015-.013-.02-.022a.49.49,0,0,0-.14-.159.458.458,0,0,0-.056-.038A.487.487,0,0,0,10.511,0L10.5,0h-5a.487.487,0,0,0-.24.07.459.459,0,0,0-.051.035A.49.49,0,0,0,5.064.27c0,.008-.013.011-.017.019V.3A.494.494,0,0,0,5,.5V1H4a.5.5,0,0,0-.248.065l-3.5,2A.5.5,0,0,0,.02,3.638ZM6,1.881l1.176,1.41L6,3.762ZM9.433,1,8,2.719,6.567,1ZM10,1.881V3.762l-1.176-.47ZM4.133,2H5V4.5a.5.5,0,0,0,.5.5.49.49,0,0,0,.186-.036L7.5,4.238V6.507a.5.5,0,0,0,1,0V4.238l1.814.726A.49.49,0,0,0,10.5,5a.5.5,0,0,0,.5-.5V2h.867l3.044,1.738L14.152,6.4l-1.531-.383a.51.51,0,0,0-.429.091A.5.5,0,0,0,12,6.5V15H4V6.5a.5.5,0,0,0-.621-.485L1.848,6.4,1.089,3.739Z"/>
</svg>
