<svg xmlns="http://www.w3.org/2000/svg" viewBox="0 0 16 16">
  <title>presentation</title>
  <path d="M15.5,1H.5a.5.5,0,0,0-.5.5v2A.5.5,0,0,0,.5,4H1v7a1,1,0,0,0,1,1H7.5v1.232l-1.277.852a.5.5,0,1,0,.555.832L8,14.1l1.223.815a.5.5,0,1,0,.555-.832L8.5,13.232V12H14a1,1,0,0,0,1-1V4h.5a.5.5,0,0,0,.5-.5v-2A.5.5,0,0,0,15.5,1ZM14,11H2V4H14Zm1-8H1V2H15Z"/>
  <path d="M11.5,10a.5.5,0,0,0,.5-.5v-4a.5.5,0,0,0-1,0v4A.5.5,0,0,0,11.5,10Z"/>
  <path d="M8,10a.5.5,0,0,0,.5-.5v-2a.5.5,0,0,0-1,0v2A.5.5,0,0,0,8,10Z"/>
  <path d="M4.5,10A.5.5,0,0,0,5,9.5v-1a.5.5,0,0,0-1,0v1A.5.5,0,0,0,4.5,10Z"/>
</svg>
