<svg xmlns="http://www.w3.org/2000/svg" viewBox="0 0 16 16">
  <title>prism</title>
  <path d="M15.991,11.453a.476.476,0,0,0,0-.062v-.012a.5.5,0,0,0-.07-.157v0l-7.5-11C8.407.21,8.4.207,8.388.2a.48.48,0,0,0-.776,0C7.6.207,7.593.21,7.587.22l-7.5,11v0a.5.5,0,0,0-.07.157v.012a.476.476,0,0,0,0,.063.494.494,0,0,0,0,.118.485.485,0,0,0,.017.065.489.489,0,0,0,.041.1.488.488,0,0,0,.121.143c.011.009.018.023.03.031s.015,0,.021.009.015.014.025.019l7.5,4c.006,0,.013,0,.019,0a.462.462,0,0,0,.433,0c.006,0,.013,0,.019,0l7.5-4c.011-.006.019-.016.03-.023s.011,0,.016-.005.019-.022.03-.031a.462.462,0,0,0,.178-.429ZM7.5,11H1.446L7.5,2.122Zm1-8.878L14.554,11H8.5ZM7.5,12v2.667L2.5,12Zm1,2.667V12h5Z"/>
</svg>
