<svg xmlns="http://www.w3.org/2000/svg" viewBox="0 0 16 16">
  <title>rain</title>
  <g>
    <path d="M3.5,10.5a3,3,0,0,1,0-6,1.055,1.055,0,0,1,.25.02,4.5,4.5,0,0,1,8.73,1.03A2.867,2.867,0,0,1,13,5.5a2.5,2.5,0,0,1,0,5Z" fill="none" stroke="#000" stroke-linecap="round" stroke-linejoin="round"/>
    <path d="M13.5,14.5a1,1,0,0,1-2,0,6.612,6.612,0,0,1,1-2A6.612,6.612,0,0,1,13.5,14.5Z" fill="none" stroke="#000" stroke-linecap="round" stroke-linejoin="round"/>
    <path d="M9,14.5a1,1,0,0,1-2,0,6.612,6.612,0,0,1,1-2A6.612,6.612,0,0,1,9,14.5Z" fill="none" stroke="#000" stroke-linecap="round" stroke-linejoin="round"/>
    <path d="M4.5,14.5a1,1,0,0,1-2,0,6.612,6.612,0,0,1,1-2A6.612,6.612,0,0,1,4.5,14.5Z" fill="none" stroke="#000" stroke-linecap="round" stroke-linejoin="round"/>
  </g>
</svg>
