<svg xmlns="http://www.w3.org/2000/svg" viewBox="0 0 16 16">
  <title>retro-camera</title>
  <path d="M1,14H15a1,1,0,0,0,1-1V3a1,1,0,0,0-1-1H7A1,1,0,0,0,6,3H5V1.5A.5.5,0,0,0,4.5,1h-2a.5.5,0,0,0-.5.5V3H1A1,1,0,0,0,0,4v9A1,1,0,0,0,1,14ZM15,9H11.449a3.455,3.455,0,0,0,.051-.5,3.455,3.455,0,0,0-.051-.5H15Zm-4.5-.5A2.5,2.5,0,1,1,8,6,2.5,2.5,0,0,1,10.5,8.5ZM8,12a3.45,3.45,0,0,0,1-.163V13H7V11.837A3.45,3.45,0,0,0,8,12ZM4.551,9H1V8H4.551a3.455,3.455,0,0,0-.051.5A3.455,3.455,0,0,0,4.551,9ZM1,10H4.851A3.513,3.513,0,0,0,6,11.365V13H1Zm9,3V11.365A3.513,3.513,0,0,0,11.149,10H15v3ZM3,2H4V3H3ZM2.5,4h4A.5.5,0,0,0,7,3.5V3h8V7H11.149a3.479,3.479,0,0,0-6.3,0H1V4Z"/>
</svg>
