<svg xmlns="http://www.w3.org/2000/svg" viewBox="0 0 16 16">
  <title>retro-camera</title>
  <g>
    <path d="M15,2.5a.5.5,0,0,1,.5.5V13a.5.5,0,0,1-.5.5H1A.5.5,0,0,1,.5,13V4A.5.5,0,0,1,1,3.5H6.5V3A.5.5,0,0,1,7,2.5Z" fill="none" stroke="#000" stroke-linecap="round" stroke-linejoin="round"/>
    <circle cx="8" cy="8.5" r="3" fill="none" stroke="#000" stroke-linecap="round" stroke-linejoin="round"/>
    <rect x="2.5" y="1.5" width="2" height="2" fill="none" stroke="#000" stroke-linecap="round" stroke-linejoin="round"/>
    <line x1="15.5" y1="7.5" x2="10.82" y2="7.5" fill="none" stroke="#000" stroke-linecap="round" stroke-linejoin="round"/>
    <line x1="5.18" y1="7.5" x2="0.5" y2="7.5" fill="none" stroke="#000" stroke-linecap="round" stroke-linejoin="round"/>
    <line x1="15.5" y1="9.5" x2="10.82" y2="9.5" fill="none" stroke="#000" stroke-linecap="round" stroke-linejoin="round"/>
    <line x1="5.18" y1="9.5" x2="0.5" y2="9.5" fill="none" stroke="#000" stroke-linecap="round" stroke-linejoin="round"/>
    <line x1="6.5" y1="13.5" x2="6.5" y2="11.1" fill="none" stroke="#000" stroke-linecap="round" stroke-linejoin="round"/>
    <line x1="9.5" y1="13.5" x2="9.5" y2="11.1" fill="none" stroke="#000" stroke-linecap="round" stroke-linejoin="round"/>
  </g>
</svg>
