<svg xmlns="http://www.w3.org/2000/svg" viewBox="0 0 16 16">
  <title>road-sign</title>
  <g>
    <path d="M15.854,3.146l-2-2A.5.5,0,0,0,13.5,1h-6a.5.5,0,0,0-.5.5v4a.5.5,0,0,0,.5.5h6a.5.5,0,0,0,.354-.146l2-2A.5.5,0,0,0,15.854,3.146Z" fill="#ffc107"/>
    <path d="M13.8,8.6l-2-1.5a.5.5,0,0,0-.3-.1h-4a.5.5,0,0,0-.5.5v3a.5.5,0,0,0,.5.5h4a.5.5,0,0,0,.3-.1l2-1.5a.5.5,0,0,0,0-.8Z" fill="#ffa000"/>
    <path d="M7.5,4h-5a.5.5,0,0,0-.354.146l-2,2a.5.5,0,0,0,0,.707l2,2A.5.5,0,0,0,2.5,9h5A.5.5,0,0,0,8,8.5v-4A.5.5,0,0,0,7.5,4Z" fill="#ffd54f"/>
    <path d="M7.5,16a.5.5,0,0,1-.5-.5V.5a.5.5,0,0,1,1,0v15A.5.5,0,0,1,7.5,16Z" fill="#455a64"/>
  </g>
</svg>
