<svg xmlns="http://www.w3.org/2000/svg" viewBox="0 0 16 16">
  <title>sale-sign</title>
  <g>
    <g>
      <path d="M3.5,5.5H3a.5.5,0,0,0-.5.5V7a.5.5,0,0,0,.5.5H3a.5.5,0,0,1,.5.5V9a.5.5,0,0,1-.5.5H2.5" fill="none" stroke="#000" stroke-linecap="round" stroke-linejoin="round"/>
      <polyline points="10.5 9.5 9.5 9.5 9.5 5.5" fill="none" stroke="#000" stroke-linecap="round" stroke-linejoin="round"/>
      <polyline points="13.5 9.5 12.5 9.5 12.5 5.5" fill="none" stroke="#000" stroke-linecap="round" stroke-linejoin="round"/>
      <line x1="12.5" y1="5.5" x2="13.5" y2="5.5" fill="none" stroke="#000" stroke-linecap="round" stroke-linejoin="round"/>
      <line x1="12.5" y1="7.5" x2="13.5" y2="7.5" fill="none" stroke="#000" stroke-linecap="round" stroke-linejoin="round"/>
      <polyline points="5.5 9.5 6.5 5.5 7.5 9.5" fill="none" stroke="#000" stroke-linecap="round" stroke-linejoin="round"/>
      <line x1="7.25" y1="8.5" x2="5.75" y2="8.5" fill="none" stroke="#000" stroke-linecap="round" stroke-linejoin="round"/>
    </g>
    <rect x="0.5" y="2.5" width="15" height="10" rx="0.5" ry="0.5" fill="none" stroke="#000" stroke-linecap="round" stroke-linejoin="round"/>
  </g>
</svg>
