<svg xmlns="http://www.w3.org/2000/svg" viewBox="0 0 16 16">
  <title>sale-sign</title>
  <g>
    <rect y="2" width="16" height="11" rx="1" ry="1" fill="#2196f3"/>
    <g>
      <path d="M3.5,6a.5.5,0,0,0,0-1H3A1,1,0,0,0,2,6V7A1,1,0,0,0,3,8V9H2.5a.5.5,0,0,0,0,1H3A1,1,0,0,0,4,9V8A1,1,0,0,0,3,7V6Z" fill="#fafafa"/>
      <path d="M10.5,9H10V5.5a.5.5,0,0,0-1,0v4a.5.5,0,0,0,.5.5h1a.5.5,0,0,0,0-1Z" fill="#fafafa"/>
      <path d="M13.5,8a.5.5,0,0,0,0-1H13V6h.5a.5.5,0,0,0,0-1h-1a.5.5,0,0,0-.5.5v4a.5.5,0,0,0,.5.5h1a.5.5,0,0,0,0-1H13V8Z" fill="#fafafa"/>
      <path d="M6.985,5.379a.519.519,0,0,0-.97,0l-1,4a.5.5,0,1,0,.97.242L6.14,9h.72l.155.621A.5.5,0,0,0,7.5,10a.52.52,0,0,0,.122-.015.5.5,0,0,0,.364-.606ZM6.39,8l.11-.438L6.61,8Z" fill="#fafafa"/>
    </g>
  </g>
</svg>
