<svg xmlns="http://www.w3.org/2000/svg" viewBox="0 0 16 16">
  <title>selfie</title>
  <g>
    <path d="M14.37,13.821l-3.356-3.706a.5.5,0,0,0-.346-.163.451.451,0,0,0-.36.129l-.01.009L9.207,9H9.5a.5.5,0,0,0,.5-.5V8h3a1,1,0,0,0,1-1V2a1,1,0,0,0-1-1H8V.5a.5.5,0,0,0-1,0V1H2A1,1,0,0,0,1,2V7A1,1,0,0,0,2,8H5v.5a.5.5,0,0,0,.5.5H7.793l1.763,1.763-.73.661a.5.5,0,0,0-.035.706l3.357,3.706a.5.5,0,0,0,.346.163h.024a.5.5,0,0,0,.336-.13l1.482-1.343A.5.5,0,0,0,14.37,13.821ZM2,7V2H12V7Z"/>
    <path d="M8.724,4.053l-2-1A.5.5,0,0,0,6,3.5v2a.5.5,0,0,0,.724.447l2-1a.5.5,0,0,0,0-.895Z"/>
  </g>
</svg>
