<svg xmlns="http://www.w3.org/2000/svg" viewBox="0 0 16 16">
  <title>shopping-cart</title>
  <path d="M6.5,13A1.5,1.5,0,1,0,8,14.5,1.5,1.5,0,0,0,6.5,13Zm0,2a.5.5,0,1,1,.5-.5A.5.5,0,0,1,6.5,15Z"/>
  <path d="M14,14.5A1.5,1.5,0,1,0,12.5,16,1.5,1.5,0,0,0,14,14.5Zm-2,0a.5.5,0,1,1,.5.5A.5.5,0,0,1,12,14.5Z"/>
  <path d="M.5,2H2.446l2.571,9.629A.5.5,0,0,0,5.5,12h8a.5.5,0,0,0,0-1H5.884L5.591,9.9l8.932-.4a.5.5,0,0,0,.469-.41l1-5.5A.5.5,0,0,0,15.5,3H3.748L3.313,1.371A.5.5,0,0,0,2.83,1H.5a.5.5,0,0,0,0,1ZM14.9,4,14.08,8.519l-8.753.394L4.015,4Z"/>
  <path d="M12.5,8a.5.5,0,0,0,.5-.5v-2a.5.5,0,0,0-1,0v2A.5.5,0,0,0,12.5,8Z"/>
  <path d="M9.5,8a.5.5,0,0,0,.5-.5v-2a.5.5,0,0,0-1,0v2A.5.5,0,0,0,9.5,8Z"/>
  <path d="M6.5,8A.5.5,0,0,0,7,7.5v-2a.5.5,0,0,0-1,0v2A.5.5,0,0,0,6.5,8Z"/>
</svg>
