<svg xmlns="http://www.w3.org/2000/svg" viewBox="0 0 16 16">
  <title>skull</title>
  <g>
    <line x1="8" y1="14" x2="8" y2="15.5" fill="none" stroke="#000" stroke-linecap="round" stroke-linejoin="round"/>
    <line x1="6" y1="14" x2="6" y2="15.5" fill="none" stroke="#000" stroke-linecap="round" stroke-linejoin="round"/>
    <line x1="10" y1="14" x2="10" y2="15.5" fill="none" stroke="#000" stroke-linecap="round" stroke-linejoin="round"/>
    <path d="M3.5,11.69V14A1.5,1.5,0,0,0,5,15.5h6A1.5,1.5,0,0,0,12.5,14V11.69a6.5,6.5,0,1,0-9,0Z" fill="none" stroke="#000" stroke-linecap="round" stroke-linejoin="round"/>
    <path d="M8,11.5a1,1,0,0,1-2,0c0-.552.948-2,1.5-2S8,10.948,8,11.5Z" fill="none" stroke="#000" stroke-linecap="round" stroke-linejoin="round"/>
    <path d="M8,11.5a1,1,0,0,0,2,0c0-.552-.948-2-1.5-2S8,10.948,8,11.5Z" fill="none" stroke="#000" stroke-linecap="round" stroke-linejoin="round"/>
    <path d="M6.106,6.106a.961.961,0,0,1,.2,1.137A1.5,1.5,0,1,1,4.257,5.2a.961.961,0,0,1,1.137.2Z" fill="none" stroke="#000" stroke-linecap="round" stroke-linejoin="round"/>
    <path d="M9.806,6.106a.961.961,0,0,0-.2,1.137A1.5,1.5,0,1,0,11.655,5.2a.961.961,0,0,0-1.137.2Z" fill="none" stroke="#000" stroke-linecap="round" stroke-linejoin="round"/>
  </g>
</svg>
