<svg xmlns="http://www.w3.org/2000/svg" viewBox="0 0 16 16">
  <title>smartwatch</title>
  <path d="M11.153,3.372A6.67,6.67,0,0,1,10.5.5.5.5,0,0,0,10,0H5a.5.5,0,0,0-.5.5,6.67,6.67,0,0,1-.653,2.872A2,2,0,0,0,3,5v6a2,2,0,0,0,.847,1.628A6.67,6.67,0,0,1,4.5,15.5.5.5,0,0,0,5,16h5a.5.5,0,0,0,.5-.5,6.67,6.67,0,0,1,.653-2.872A2,2,0,0,0,12,11V6.5a.5.5,0,0,0,1,0v-1a.5.5,0,0,0-1,0V5A2,2,0,0,0,11.153,3.372ZM4,11V5A1,1,0,0,1,5,4h5a1,1,0,0,1,1,1v6a1,1,0,0,1-1,1H5A1,1,0,0,1,4,11ZM9.517,1a7.705,7.705,0,0,0,.408,2H5.075a7.705,7.705,0,0,0,.408-2ZM5.483,15a7.705,7.705,0,0,0-.408-2H9.925a7.705,7.705,0,0,0-.408,2Z"/>
  <path d="M10,9.077a.5.5,0,0,0-.5-.5,2.528,2.528,0,0,1-1.113-.254A.49.49,0,0,0,8,8.3a.5.5,0,0,0-.287.255l-.169.35A3.513,3.513,0,0,1,6.6,7.951l.35-.169a.5.5,0,0,0,.231-.669A2.528,2.528,0,0,1,6.923,6a.5.5,0,0,0-.5-.5H5.5A.5.5,0,0,0,5,6a4.5,4.5,0,0,0,4.5,4.5A.5.5,0,0,0,10,10Z"/>
</svg>
