<svg xmlns="http://www.w3.org/2000/svg" viewBox="0 0 16 16">
  <title>smartwatch-app</title>
  <path d="M12.5,5H12a2,2,0,0,0-.847-1.629A6.675,6.675,0,0,1,10.5.5.5.5,0,0,0,10,0H5a.5.5,0,0,0-.5.5,6.675,6.675,0,0,1-.653,2.871A2,2,0,0,0,3,5v6a2,2,0,0,0,.847,1.629A6.67,6.67,0,0,1,4.5,15.5.5.5,0,0,0,5,16h5a.5.5,0,0,0,.5-.5,6.67,6.67,0,0,1,.653-2.872A2,2,0,0,0,12,11V7h.5a.5.5,0,0,0,.5-.5v-1A.5.5,0,0,0,12.5,5ZM10,12H5a1,1,0,0,1-1-1c1.313,0,1.687-1.212,1.988-2.186A4.975,4.975,0,0,1,6.53,7.494a.982.982,0,0,0,.805-.477A1.4,1.4,0,0,1,7.5,7c.9,0,1.164.689,1.512,1.814C9.312,9.788,9.687,11,11,11A1,1,0,0,1,10,12Zm1-2c-.521,0-.715-.451-1.033-1.48C9.639,7.456,9.188,6,7.5,6c-.052,0-.093.013-.142.016A.987.987,0,0,0,6.5,5.5a1,1,0,0,0-1,1,.972.972,0,0,0,.162.513A6.158,6.158,0,0,0,5.033,8.52C4.715,9.549,4.521,10,4,10V5A1,1,0,0,1,5,4h5a1,1,0,0,1,1,1Z"/>
</svg>
