<svg xmlns="http://www.w3.org/2000/svg" viewBox="0 0 16 16">
  <title>smartwatch-app</title>
  <g>
    <g>
      <path d="M11,5h1.5a.5.5,0,0,1,.5.5v1a.5.5,0,0,1-.5.5H11a0,0,0,0,1,0,0V5A0,0,0,0,1,11,5Z" fill="#37474f"/>
      <g>
        <path d="M4.24,4.22h6.52a.5.5,0,0,0,.446-.726A6.672,6.672,0,0,1,10.5.5.5.5,0,0,0,10,0H5a.5.5,0,0,0-.5.5,6.672,6.672,0,0,1-.706,2.995.5.5,0,0,0,.446.726Z" fill="#cfd8dc"/>
        <path d="M10.76,11.78H4.24a.5.5,0,0,0-.446.726A6.667,6.667,0,0,1,4.5,15.5.5.5,0,0,0,5,16h5a.5.5,0,0,0,.5-.5,6.667,6.667,0,0,1,.706-2.994.5.5,0,0,0-.446-.726Z" fill="#cfd8dc"/>
      </g>
      <rect x="3" y="3" width="9" height="10" rx="2" ry="2" fill="#37474f"/>
      <rect x="4" y="4" width="7" height="8" rx="1" ry="1" fill="#263238"/>
    </g>
    <path d="M11,11C9.687,11,9.312,9.788,9.012,8.814,8.664,7.689,8.4,7,7.5,7s-1.164.689-1.512,1.814C5.687,9.788,5.313,11,4,11V10c.521,0,.715-.451,1.033-1.48C5.361,7.456,5.812,6,7.5,6S9.639,7.456,9.967,8.52C10.285,9.549,10.479,10,11,10Z" fill="#4dd0e1"/>
    <circle cx="6.5" cy="6.5" r="1" fill="#ffc107"/>
  </g>
</svg>
