<svg xmlns="http://www.w3.org/2000/svg" viewBox="0 0 16 16">
  <title>soccer</title>
  <path d="M8,0a8,8,0,1,0,8,8A8.009,8.009,0,0,0,8,0Zm6.021,11.552-2.487.491L10.567,10.9l1.179-3.3,1.537-.753L14.966,8.68A6.94,6.94,0,0,1,14.021,11.552Zm-9.569.526L2.23,11.954a6.954,6.954,0,0,1-1.2-3.274L2.727,6.841,4.271,7.6l1.163,3.3Zm9-8.454-.49,2.262-1.569.769-2.887-2.1V2.6l2.057-1.106A7.026,7.026,0,0,1,13.454,3.623Zm-8-2.136L7.508,2.6V4.551l-2.885,2.1L3.047,5.884l-.49-2.276A7.026,7.026,0,0,1,5.452,1.487Zm.409,13.176L5.232,12.7l1-1.2H9.768l.985,1.166-.971,2.1a6.87,6.87,0,0,1-3.921-.1Z"/>
</svg>
