<svg xmlns="http://www.w3.org/2000/svg" viewBox="0 0 16 16">
  <title>soccer</title>
  <g>
    <circle cx="8" cy="8" r="8" fill="#90caf9"/>
    <path d="M11.779,12.373l-1.063-1.259,1.274-3.572,1.683-.825,2.233,2.438a7.841,7.841,0,0,0-1.9-6.425l-.656,3.024L11.638,6.6,8.512,4.317V2.188L11.27.7A7.951,7.951,0,0,0,4.747.7l2.76,1.489V4.318L4.382,6.6,2.658,5.753,2,2.717A7.84,7.84,0,0,0,.093,9.154L2.337,6.715l1.69.826,1.259,3.574L4.21,12.408l-2.984-.166A8,8,0,0,0,5.848,15.7l-.854-2.66,1.1-1.318H9.912L10.992,13,9.686,15.819a8.007,8.007,0,0,0,5.393-4.1Z" fill="#2196f3"/>
  </g>
</svg>
