<svg xmlns="http://www.w3.org/2000/svg" viewBox="0 0 16 16">
  <title>soccer</title>
  <g>
    <path d="M8,.5A7.5,7.5,0,1,0,15.5,8,7.5,7.5,0,0,0,8,.5Z" fill="none" stroke="#000" stroke-linecap="round" stroke-linejoin="round"/>
    <polygon points="6 11 4.674 7.236 8.008 4.805 11.343 7.236 10 11 6 11" fill="none" stroke="#000" stroke-linecap="round" stroke-linejoin="round"/>
    <polyline points="10.53 0.95 10.52 0.95 8.01 2.3 5.49 0.94" fill="none" stroke="#000" stroke-linecap="round" stroke-linejoin="round"/>
    <polyline points="2.02 3.49 2.61 6.23 0.53 8.49" fill="none" stroke="#000" stroke-linecap="round" stroke-linejoin="round"/>
    <polyline points="1.97 12.44 4.67 12.59 5.46 15.05" fill="none" stroke="#000" stroke-linecap="round" stroke-linejoin="round"/>
    <polyline points="10.14 15.18 11.34 12.59 14.33 12" fill="none" stroke="#000" stroke-linecap="round" stroke-linejoin="round"/>
    <polyline points="15.47 8.49 13.4 6.23 13.99 3.51" fill="none" stroke="#000" stroke-linecap="round" stroke-linejoin="round"/>
    <line x1="8.008" y1="2.295" x2="8.008" y2="4.805" fill="none" stroke="#000" stroke-linecap="round" stroke-linejoin="round"/>
    <line x1="4.675" y1="12.592" x2="6" y2="11" fill="none" stroke="#000" stroke-linecap="round" stroke-linejoin="round"/>
    <line x1="10" y1="11" x2="11.343" y2="12.591" fill="none" stroke="#000" stroke-linecap="round" stroke-linejoin="round"/>
    <line x1="13.403" y1="6.227" x2="11.343" y2="7.236" fill="none" stroke="#000" stroke-linecap="round" stroke-linejoin="round"/>
    <line x1="2.614" y1="6.229" x2="4.674" y2="7.236" fill="none" stroke="#000" stroke-linecap="round" stroke-linejoin="round"/>
  </g>
</svg>
