<svg xmlns="http://www.w3.org/2000/svg" viewBox="0 0 16 16">
  <title>speech-bubble</title>
  <path d="M15.533,1l-15-1A.5.5,0,0,0,0,.5v7a.5.5,0,0,0,.424.494l6.458.994L5.063,12.257c0,.007,0,.016,0,.023a.485.485,0,0,0-.049.237.459.459,0,0,0,0,.056.488.488,0,0,0,.1.239s0,.01.006.013a.476.476,0,0,0,.051.038.475.475,0,0,0,.071.065l5,3a.5.5,0,0,0,.713-.635l-1.668-3.68,4.375-1.641h0l.011,0c.009,0,.014-.01.022-.014a.494.494,0,0,0,.128-.08.476.476,0,0,0,.044-.047.484.484,0,0,0,.065-.092.489.489,0,0,0,.03-.068.464.464,0,0,0,.02-.047l2-8A.5.5,0,0,0,15.533,1ZM7.936,9.15l3.6.554L8.418,10.872l-.015,0-.006,0-1.8.674Zm1.447,5.1L6.645,12.6l1.7-.639Zm3.743-5.311L7.741,8.108l-.029,0L1,7.071V1.034l13.87.925Z"/>
</svg>
