<svg xmlns="http://www.w3.org/2000/svg" viewBox="0 0 16 16">
  <title>storm</title>
  <path d="M12.9,5A5,5,0,0,0,3.416,4,3.5,3.5,0,0,0,0,7.5,3.452,3.452,0,0,0,.362,9.053a.5.5,0,0,0,.895-.445A2.473,2.473,0,0,1,1,7.5,2.5,2.5,0,0,1,3.5,5a1.048,1.048,0,0,1,.132,0,.5.5,0,0,0,.591-.321,4,4,0,0,1,7.761.916.5.5,0,0,0,.591.441A2.35,2.35,0,0,1,13,6a2,2,0,0,1,0,4H7.5a.5.5,0,0,0,0,1H13a3,3,0,1,0-.1-6Z"/>
  <path d="M3.595,7.009a.5.5,0,0,0-.559.306l-2,5A.5.5,0,0,0,1.5,13H3v2.5a.5.5,0,0,0,.405.491A.526.526,0,0,0,3.5,16a.5.5,0,0,0,.464-.314l2-5A.5.5,0,0,0,5.5,10H4V7.5A.5.5,0,0,0,3.595,7.009ZM4.762,11,4,12.9v-.4a.5.5,0,0,0-.5-.5H2.238L3,10.1v.4a.5.5,0,0,0,.5.5Z"/>
  <path d="M15,14.5a5.888,5.888,0,0,0-1.089-2.284.519.519,0,0,0-.822,0A5.888,5.888,0,0,0,12,14.5a1.5,1.5,0,0,0,3,0Zm-2,0a3.725,3.725,0,0,1,.5-1.074A3.713,3.713,0,0,1,14,14.5a.5.5,0,0,1-1,0Z"/>
  <path d="M11,14.5a5.888,5.888,0,0,0-1.089-2.284.519.519,0,0,0-.822,0A5.888,5.888,0,0,0,8,14.5a1.5,1.5,0,0,0,3,0Zm-2,0a3.725,3.725,0,0,1,.5-1.074A3.713,3.713,0,0,1,10,14.5a.5.5,0,0,1-1,0Z"/>
</svg>
