<svg xmlns="http://www.w3.org/2000/svg" viewBox="0 0 16 16">
  <title>suffle</title>
  <g>
    <path d="M12.5,11.5H10.63a1.5,1.5,0,0,1-1.37-.9l-2.19-5A3.491,3.491,0,0,0,3.86,3.5H.5v2H3.86a1.5,1.5,0,0,1,1.38.9l2.19,5a3.487,3.487,0,0,0,3.2,2.1H12.5v2l3-3-3-3Z" fill="none" stroke="#000" stroke-linejoin="round"/>
    <g>
      <path d="M7.25,6.01l.18-.41a3.487,3.487,0,0,1,3.2-2.1H12.5v-2l3,3-3,3v-2H10.63a1.5,1.5,0,0,0-1.37.9L8.34,8.5" fill="none" stroke="#000" stroke-linejoin="round"/>
      <path d="M6.16,8.5l-.92,2.1a1.5,1.5,0,0,1-1.38.9H.5v2H3.86a3.491,3.491,0,0,0,3.21-2.1l.18-.41" fill="none" stroke="#000" stroke-linejoin="round"/>
    </g>
  </g>
</svg>
