<svg xmlns="http://www.w3.org/2000/svg" viewBox="0 0 16 16">
  <title>suffle</title>
  <path d="M12.309,7.962a.5.5,0,0,0,.545-.108l3-3a.5.5,0,0,0,0-.707l-3-3A.5.5,0,0,0,12,1.5V3H10.63A3.992,3.992,0,0,0,7.25,4.875,4,4,0,0,0,3.86,3H.5a.5.5,0,0,0-.5.5v2A.5.5,0,0,0,.5,6H3.86a1,1,0,0,1,.922.6l.832,1.9-.832,1.9a1,1,0,0,1-.922.6H.5a.5.5,0,0,0-.5.5v2a.5.5,0,0,0,.5.5H3.86a4,4,0,0,0,3.39-1.875A3.992,3.992,0,0,0,10.63,14H12v1.5a.5.5,0,0,0,.854.354l3-3a.5.5,0,0,0,0-.707l-3-3A.5.5,0,0,0,12,9.5V11H10.63a1,1,0,0,1-.912-.6L8.886,8.5l.832-1.9A1,1,0,0,1,10.63,6H12V7.5A.5.5,0,0,0,12.309,7.962ZM3.86,13H1V12H3.86A2,2,0,0,0,5.7,10.8L6.16,9.746,6.7,10.989l-.093.211A3,3,0,0,1,3.86,13Zm6.77-1H12.5a.5.5,0,0,0,.5-.5v-.793L14.793,12.5,13,14.293V13.5a.5.5,0,0,0-.5-.5H10.63a3,3,0,0,1-2.742-1.8L5.7,6.2A2,2,0,0,0,3.86,5H1V4H3.86A3,3,0,0,1,6.612,5.8l2.19,5A2,2,0,0,0,10.63,12Zm0-7A2,2,0,0,0,8.8,6.2L8.34,7.254,7.8,6.011,7.888,5.8A3,3,0,0,1,10.63,4H12.5a.5.5,0,0,0,.5-.5V2.707L14.793,4.5,13,6.293V5.5a.5.5,0,0,0-.5-.5Z"/>
</svg>
