<svg xmlns="http://www.w3.org/2000/svg" viewBox="0 0 16 16">
  <title>support</title>
  <path d="M.543,11.661a.542.542,0,0,0,.022.058A12.4,12.4,0,0,0,2.74,15.813.5.5,0,0,0,3.082,16l.048,0a.5.5,0,0,0,.323-.119l1.91-1.62a.5.5,0,0,0,.068-.692,8.712,8.712,0,0,1-1.542-2.96.5.5,0,0,0-.631-.335l-1.894.6a11.5,11.5,0,0,1,0-5.751l1.894.6a.5.5,0,0,0,.631-.335,8.712,8.712,0,0,1,1.542-2.96.5.5,0,0,0-.068-.692L3.453.119A.49.49,0,0,0,3.082,0,.5.5,0,0,0,2.74.187,12.4,12.4,0,0,0,.565,4.281a.542.542,0,0,0-.022.058.457.457,0,0,0-.017.071,12.5,12.5,0,0,0,0,7.18A.457.457,0,0,0,.543,11.661Zm2.545-.284A9.705,9.705,0,0,0,4.356,13.8l-1.149.975a11.393,11.393,0,0,1-1.551-2.947ZM3.207,1.221,4.356,2.2A9.705,9.705,0,0,0,3.088,4.623L1.656,4.168A11.393,11.393,0,0,1,3.207,1.221Z"/>
  <path d="M9,1a6.669,6.669,0,0,0-1.621.2.5.5,0,1,0,.242.97A5.7,5.7,0,0,1,9,2,6,6,0,0,1,9,14a5.7,5.7,0,0,1-1.379-.165.5.5,0,1,0-.242.97A6.669,6.669,0,0,0,9,15,7,7,0,0,0,9,1Z"/>
  <path d="M7.5,8a1.5,1.5,0,0,0,0-3h-1a.5.5,0,0,0,0,1h1a.5.5,0,0,1,0,1A1.5,1.5,0,0,0,6,8.5v1a.5.5,0,0,0,.5.5h2a.5.5,0,0,0,0-1H7V8.5A.5.5,0,0,1,7.5,8Z"/>
  <path d="M11.121,5.015a.5.5,0,0,0-.606.364l-.5,2A.5.5,0,0,0,10.5,8H12V9.5a.5.5,0,0,0,1,0v-4a.5.5,0,0,0-1,0V7h-.859l.345-1.379A.5.5,0,0,0,11.121,5.015Z"/>
</svg>
