<svg xmlns="http://www.w3.org/2000/svg" viewBox="0 0 16 16">
  <title>support</title>
  <g>
    <path d="M1.02,11.51l2.39-.76a9.266,9.266,0,0,0,1.63,3.13L3.13,15.5a12.009,12.009,0,0,1,0-15L5.04,2.12A9.266,9.266,0,0,0,3.41,5.25L1.02,4.49" fill="none" stroke="#000" stroke-linecap="round" stroke-linejoin="round"/>
    <path d="M7.5,14.32A6.162,6.162,0,0,0,9,14.5a6.5,6.5,0,0,0,0-13,6.162,6.162,0,0,0-1.5.18" fill="none" stroke="#000" stroke-linecap="round" stroke-linejoin="round"/>
    <path d="M8.5,9.5h-2v-1a1,1,0,0,1,1-1h0a1,1,0,0,0,1-1h0a1,1,0,0,0-1-1h-1" fill="none" stroke="#000" stroke-linecap="round" stroke-linejoin="round"/>
    <line x1="12.5" y1="5.5" x2="12.5" y2="9.5" fill="none" stroke="#000" stroke-linecap="round" stroke-linejoin="round"/>
    <polyline points="11 5.5 10.5 7.5 12.5 7.5" fill="none" stroke="#000" stroke-linecap="round" stroke-linejoin="round"/>
  </g>
</svg>
