<svg xmlns="http://www.w3.org/2000/svg" viewBox="0 0 16 16">
  <title>support</title>
  <g>
    <path d="M9,15a6.7,6.7,0,0,1-1.622-.194.5.5,0,0,1,.243-.971A5.678,5.678,0,0,0,9,14,6,6,0,0,0,9,2a5.7,5.7,0,0,0-1.378.165.5.5,0,1,1-.243-.97A6.667,6.667,0,0,1,9,1,7,7,0,0,1,9,15Z" fill="#2196f3"/>
    <g>
      <path d="M7.5,8a1.5,1.5,0,0,0,0-3h-1a.5.5,0,0,0,0,1h1a.5.5,0,0,1,0,1A1.5,1.5,0,0,0,6,8.5v1a.5.5,0,0,0,.5.5h2a.5.5,0,0,0,0-1H7V8.5A.5.5,0,0,1,7.5,8Z" fill="#ffc107"/>
      <path d="M12.5,5a.5.5,0,0,0-.5.5V7h-.859l.345-1.379a.5.5,0,0,0-.971-.242l-.5,2A.5.5,0,0,0,10.5,8H12V9.5a.5.5,0,0,0,1,0v-4A.5.5,0,0,0,12.5,5Z" fill="#ffc107"/>
    </g>
    <path d="M3.89,10.608a.5.5,0,0,0-.631-.335l-1.423.453a11.224,11.224,0,0,1,0-5.452l1.423.452a.5.5,0,0,0,.631-.335,8.722,8.722,0,0,1,1.542-2.96.5.5,0,0,0-.068-.692L3.453.119A.5.5,0,0,0,2.74.187a12.51,12.51,0,0,0,0,15.627A.5.5,0,0,0,3.083,16l.047,0a.5.5,0,0,0,.323-.119l1.91-1.62a.5.5,0,0,0,.068-.691A8.729,8.729,0,0,1,3.89,10.608Z" fill="#2196f3"/>
  </g>
</svg>
