<svg xmlns="http://www.w3.org/2000/svg" viewBox="0 0 16 16">
  <title>taxi</title>
  <g>
    <path d="M1.5,7.5h13a1,1,0,0,1,1,1v4a0,0,0,0,1,0,0H.5a0,0,0,0,1,0,0v-4a1,1,0,0,1,1-1Z" fill="none" stroke="#000" stroke-linecap="round" stroke-linejoin="round"/>
    <path d="M1.5,7.5,3.249,3.129A1,1,0,0,1,4.177,2.5h7.646a1,1,0,0,1,.928.629L14.5,7.5" fill="none" stroke="#000" stroke-linecap="round" stroke-linejoin="round"/>
    <polyline points="6.5 2.5 6.5 0.5 9.5 0.5 9.5 2.5" fill="none" stroke="#000" stroke-linecap="round" stroke-linejoin="round"/>
    <circle cx="3.5" cy="10" r="1" fill="none" stroke="#000" stroke-linecap="round" stroke-linejoin="round"/>
    <circle cx="12.5" cy="10" r="1" fill="none" stroke="#000" stroke-linecap="round" stroke-linejoin="round"/>
    <polyline points="3.5 12.5 3.5 14.5 1.5 14.5 1.5 12.5" fill="none" stroke="#000" stroke-linecap="round" stroke-linejoin="round"/>
    <polyline points="14.5 12.5 14.5 14.5 12.5 14.5 12.5 12.5" fill="none" stroke="#000" stroke-linecap="round" stroke-linejoin="round"/>
    <polygon points="6 9 7 11 9 11 10 9 6 9" fill="none" stroke="#000" stroke-linecap="round" stroke-linejoin="round"/>
  </g>
</svg>
