<svg xmlns="http://www.w3.org/2000/svg" viewBox="0 0 16 16">
  <title>taxi</title>
  <path d="M14.858,7.048l-1.642-4.1A1.493,1.493,0,0,0,11.823,2H10V.5A.5.5,0,0,0,9.5,0h-3A.5.5,0,0,0,6,.5V2H4.177a1.493,1.493,0,0,0-1.393.943l-1.642,4.1A1.5,1.5,0,0,0,0,8.5v4a.5.5,0,0,0,.5.5H1v1.5a.5.5,0,0,0,.5.5h2a.5.5,0,0,0,.5-.5V13h8v1.5a.5.5,0,0,0,.5.5h2a.5.5,0,0,0,.5-.5V13h.5a.5.5,0,0,0,.5-.5v-4A1.5,1.5,0,0,0,14.858,7.048ZM7,1H9V2H7ZM3.713,3.314A.5.5,0,0,1,4.177,3h7.646a.5.5,0,0,1,.464.314L13.761,7H2.239ZM3,14H2V13H3Zm11,0H13V13h1Zm1-2H1V8.5A.5.5,0,0,1,1.5,8h13a.5.5,0,0,1,.5.5Z"/>
  <path d="M3.5,8.5A1.5,1.5,0,1,0,5,10,1.5,1.5,0,0,0,3.5,8.5Zm0,2A.5.5,0,1,1,4,10,.5.5,0,0,1,3.5,10.5Z"/>
  <path d="M12.5,8.5A1.5,1.5,0,1,0,14,10,1.5,1.5,0,0,0,12.5,8.5Zm0,2A.5.5,0,1,1,13,10,.5.5,0,0,1,12.5,10.5Z"/>
  <path d="M10,8.5H6a.5.5,0,0,0-.447.724l1,2A.5.5,0,0,0,7,11.5H9a.5.5,0,0,0,.447-.276l1-2A.5.5,0,0,0,10,8.5Zm-1.309,2H7.309l-.5-1H9.191Z"/>
</svg>
