<svg xmlns="http://www.w3.org/2000/svg" viewBox="0 0 16 16">
  <title>taxi</title>
  <g>
    <rect x="5" width="6" height="3" rx="0.5" ry="0.5" fill="#90a4ae"/>
    <path d="M1.5,7.5,3.248,3.129A1,1,0,0,1,4.177,2.5h7.646a1,1,0,0,1,.928.629L14.5,7.5" fill="#455a64"/>
    <g>
      <path d="M3.5,12a.5.5,0,0,0-.5.5H2a.5.5,0,0,0-1,0v2a.5.5,0,0,0,.5.5h2a.5.5,0,0,0,.5-.5v-2A.5.5,0,0,0,3.5,12Z" fill="#455a64"/>
      <path d="M14.5,12a.5.5,0,0,0-.5.5H13a.5.5,0,0,0-1,0v2a.5.5,0,0,0,.5.5h2a.5.5,0,0,0,.5-.5v-2A.5.5,0,0,0,14.5,12Z" fill="#455a64"/>
    </g>
    <path d="M14.5,7H1.5A1.5,1.5,0,0,0,0,8.5v4a.5.5,0,0,0,.5.5h15a.5.5,0,0,0,.5-.5v-4A1.5,1.5,0,0,0,14.5,7Z" fill="#eceff1"/>
    <path d="M1.5,8a.5.5,0,0,1-.186-.036.5.5,0,0,1-.279-.65L2.784,2.943A1.493,1.493,0,0,1,4.177,2h7.646a1.492,1.492,0,0,1,1.393.943l1.748,4.371a.5.5,0,1,1-.928.371L12.287,3.314A.5.5,0,0,0,11.823,3H4.177a.5.5,0,0,0-.464.314L1.964,7.686A.5.5,0,0,1,1.5,8Z" fill="#eceff1"/>
    <path d="M3,11a1,1,0,1,1,1-1A1,1,0,0,1,3,11Z" fill="#455a64"/>
    <path d="M13,11a1,1,0,1,1,1-1A1,1,0,0,1,13,11Z" fill="#455a64"/>
    <path d="M10.972,9.335A.5.5,0,0,0,10.5,9h-5a.5.5,0,0,0-.312.891l1.25,1A.5.5,0,0,0,6.75,11h2.5a.5.5,0,0,0,.313-.109l1.25-1A.5.5,0,0,0,10.972,9.335Z" fill="#90a4ae"/>
  </g>
</svg>
