<svg xmlns="http://www.w3.org/2000/svg" viewBox="0 0 16 16">
  <title>twitter</title>
  <path d="M15.5,3.755a6.414,6.414,0,0,1-1.771.486,3.064,3.064,0,0,0,1.353-1.7,6.162,6.162,0,0,1-1.95.745,3.076,3.076,0,0,0-5.321,2.1,3.173,3.173,0,0,0,.071.7A8.7,8.7,0,0,1,1.544,2.873a3.076,3.076,0,0,0,.946,4.11A3.037,3.037,0,0,1,1.1,6.6v.033A3.088,3.088,0,0,0,3.564,9.658a3.013,3.013,0,0,1-.807.1,2.7,2.7,0,0,1-.582-.053,3.1,3.1,0,0,0,2.873,2.143,6.178,6.178,0,0,1-3.813,1.312A5.755,5.755,0,0,1,.5,13.12,8.661,8.661,0,0,0,5.218,14.5,8.692,8.692,0,0,0,13.97,5.749c0-.136,0-.267-.011-.4A6.149,6.149,0,0,0,15.5,3.755Z" fill="none" stroke="#000" stroke-linecap="round" stroke-linejoin="round"/>
</svg>
