<svg xmlns="http://www.w3.org/2000/svg" viewBox="0 0 16 16">
  <title>twitter</title>
  <path d="M15.3,3.295a3.457,3.457,0,0,0,.256-.6.5.5,0,0,0-.732-.581,5.637,5.637,0,0,1-1.539.627A3.575,3.575,0,0,0,7.312,5.388c0,.052,0,.1,0,.152A8.256,8.256,0,0,1,1.932,2.558.51.51,0,0,0,1.5,2.375a.5.5,0,0,0-.394.249,3.628,3.628,0,0,0-.487,1.8,3.574,3.574,0,0,0,.424,1.69.562.562,0,0,0-.2.072A.528.528,0,0,0,.6,6.637,3.6,3.6,0,0,0,1.836,9.342c-.011.009-.021.02-.03.029a.5.5,0,0,0-.105.492,3.62,3.62,0,0,0,2.047,2.215,5.727,5.727,0,0,1-3.183.546.5.5,0,0,0-.335.916A9.182,9.182,0,0,0,5.218,15,9.162,9.162,0,0,0,14.47,5.749c0-.051,0-.1,0-.152a6.674,6.674,0,0,0,1.447-1.563.5.5,0,0,0-.031-.6A.505.505,0,0,0,15.3,3.295Zm-1.634,1.65a.5.5,0,0,0-.209.43c0,.123.01.246.01.374A8.172,8.172,0,0,1,5.218,14,8.268,8.268,0,0,1,2.5,13.542a6.71,6.71,0,0,0,2.86-1.3.5.5,0,0,0-.3-.894A2.591,2.591,0,0,1,3,10.253a3.3,3.3,0,0,0,.7-.113.5.5,0,0,0-.035-.972A2.583,2.583,0,0,1,1.715,7.38a3.4,3.4,0,0,0,.765.1.451.451,0,0,0,.486-.35.5.5,0,0,0-.2-.566A2.576,2.576,0,0,1,1.7,3.8,9.229,9.229,0,0,0,7.857,6.589a.443.443,0,0,0,.407-.178.5.5,0,0,0,.1-.432,2.665,2.665,0,0,1-.058-.592,2.576,2.576,0,0,1,4.456-1.76.5.5,0,0,0,.462.147c.155-.031.308-.066.459-.107-.069.051-.142.1-.217.145a.5.5,0,0,0-.216.592.489.489,0,0,0,.536.333l.182-.025C13.875,4.793,13.773,4.871,13.669,4.945Z"/>
</svg>
