<svg xmlns="http://www.w3.org/2000/svg" viewBox="0 0 16 16">
  <title>vegetarian</title>
  <g>
    <path d="M5.5,14.1a7.052,7.052,0,0,1-5-6.6h15a7.052,7.052,0,0,1-5,6.6v1.4h-5Z" fill="none" stroke="#000" stroke-linecap="round" stroke-linejoin="round"/>
    <path d="M6,7.5a2.5,2.5,0,0,1,2-4,2.5,2.5,0,0,1,4,0,2.5,2.5,0,0,1,2,4" fill="none" stroke="#000" stroke-linecap="round" stroke-linejoin="round"/>
    <path d="M5.5,7.5a2.755,2.755,0,0,0,.27-.23L2.23,3.73a2.517,2.517,0,0,0,0,3.54,2.755,2.755,0,0,0,.27.23" fill="none" stroke="#000" stroke-linecap="round" stroke-linejoin="round"/>
    <path d="M5.5,7.5v-6A2.986,2.986,0,0,0,2.54,4.04" fill="none" stroke="#000" stroke-linecap="round" stroke-linejoin="round"/>
    <line x1="10" y1="5.5" x2="10" y2="7.5" fill="none" stroke="#000" stroke-linecap="round" stroke-linejoin="round"/>
    <line x1="8" y1="6" x2="10" y2="7.5" fill="none" stroke="#000" stroke-linecap="round" stroke-linejoin="round"/>
    <line x1="12" y1="6" x2="10" y2="7.5" fill="none" stroke="#000" stroke-linecap="round" stroke-linejoin="round"/>
  </g>
</svg>
