<svg xmlns="http://www.w3.org/2000/svg" viewBox="0 0 16 16">
  <title>vintage-car</title>
  <g>
    <rect x="2.5" y="12.5" width="2" height="2" fill="none" stroke="#000" stroke-linecap="round" stroke-linejoin="round"/>
    <rect x="11.5" y="12.5" width="2" height="2" fill="none" stroke="#000" stroke-linecap="round" stroke-linejoin="round"/>
    <line x1="0.5" y1="12.5" x2="15.5" y2="12.5" fill="none" stroke="#000" stroke-linecap="round" stroke-linejoin="round"/>
    <path d="M13.5,7.77a2,2,0,0,1,1,1.73v3H1.5v-3a2,2,0,0,1,1-1.73" fill="none" stroke="#000" stroke-linecap="round" stroke-linejoin="round"/>
    <path d="M2.5,7.77V5.5a3,3,0,0,1,3-3h5a3,3,0,0,1,3,3V7.77" fill="none" stroke="#000" stroke-linecap="round" stroke-linejoin="round"/>
    <circle cx="4" cy="10" r="0.5" fill="none" stroke="#000" stroke-linecap="round" stroke-linejoin="round"/>
    <circle cx="12" cy="10" r="0.5" fill="none" stroke="#000" stroke-linecap="round" stroke-linejoin="round"/>
    <path d="M2.5,7.5H3.837A2.307,2.307,0,0,1,6.026,9.078h0A2.08,2.08,0,0,0,8,10.5H8A2.08,2.08,0,0,0,9.974,9.078h0A2.307,2.307,0,0,1,12.163,7.5H13.5" fill="none" stroke="#000" stroke-linecap="round" stroke-linejoin="round"/>
    <path d="M2.5,7.5a15.625,15.625,0,0,1,11,0" fill="none" stroke="#000" stroke-linecap="round" stroke-linejoin="round"/>
    <line x1="8" y1="6.5" x2="8.001" y2="10.5" fill="none" stroke="#000" stroke-linecap="round" stroke-linejoin="round"/>
  </g>
</svg>
