<svg xmlns="http://www.w3.org/2000/svg" viewBox="0 0 16 16">
  <title>vintage-car</title>
  <path d="M15.5,12H15V9.5a2.461,2.461,0,0,0-1-1.971V5.5A3.5,3.5,0,0,0,10.5,2h-5A3.5,3.5,0,0,0,2,5.5V7.529A2.46,2.46,0,0,0,1,9.5V12H.5a.5.5,0,0,0,0,1H2v1.5a.5.5,0,0,0,.5.5h2a.5.5,0,0,0,.5-.5V13h6v1.5a.5.5,0,0,0,.5.5h2a.5.5,0,0,0,.5-.5V13h1.5a.5.5,0,0,0,0-1ZM4,11a1,1,0,1,1,1-1A1,1,0,0,1,4,11ZM6.5,8.92A2.8,2.8,0,0,0,5.081,7.293,15.1,15.1,0,0,1,7.5,7.022v2.9A1.576,1.576,0,0,1,6.5,8.92Zm3,0a1.574,1.574,0,0,1-1,1v-2.9a15.1,15.1,0,0,1,2.419.271A2.806,2.806,0,0,0,9.5,8.92ZM12,11a1,1,0,1,1,1-1A1,1,0,0,1,12,11Zm1-4.188a16.088,16.088,0,0,0-10,0V5.5A2.5,2.5,0,0,1,5.5,3h5A2.5,2.5,0,0,1,13,5.5Z"/>
</svg>
