<svg xmlns="http://www.w3.org/2000/svg" viewBox="0 0 16 16">
  <title>vintage-car</title>
  <g>
    <g>
      <rect x="2" y="12" width="3" height="3" rx="0.5" ry="0.5" fill="#455a64"/>
      <rect x="11" y="12" width="3" height="3" rx="0.5" ry="0.5" fill="#455a64"/>
    </g>
    <path d="M13.752,7.338A.5.5,0,0,0,13.5,7.27H2.5a.5.5,0,0,0-.252.068A2.482,2.482,0,0,0,1,9.5v3a.5.5,0,0,0,.5.5h13a.5.5,0,0,0,.5-.5v-3A2.483,2.483,0,0,0,13.752,7.338Z" fill="#1976d2"/>
    <path d="M10.5,2h-5A3.5,3.5,0,0,0,2,5.5v2a.5.5,0,0,0,.5.5H3.837A1.805,1.805,0,0,1,5.552,9.236a2.581,2.581,0,0,0,4.9,0A1.805,1.805,0,0,1,12.163,8H13.5a.5.5,0,0,0,.5-.5v-2A3.5,3.5,0,0,0,10.5,2Z" fill="#2196f3"/>
    <path d="M5.5,3h5A2.5,2.5,0,0,1,13,5.5V6.909a16,16,0,0,0-10,0V5.5A2.5,2.5,0,0,1,5.5,3Z" fill="#eceff1"/>
    <path d="M15.5,12H.5a.5.5,0,0,0,0,1h15a.5.5,0,0,0,0-1Z" fill="#1976d2"/>
    <circle cx="4" cy="10" r="1" fill="#fafafa"/>
    <circle cx="12" cy="10" r="1" fill="#fafafa"/>
    <path d="M7.5,6.118V11.5a.5.5,0,1,0,1,0V6.118Q8,6.1,7.5,6.118Z" fill="#64b5f6"/>
  </g>
</svg>
