<svg xmlns="http://www.w3.org/2000/svg" viewBox="0 0 16 16">
  <title>vintage-car</title>
  <path d="M15.5,12H15V9.5a2.462,2.462,0,0,0-1-1.971V5.5A3.5,3.5,0,0,0,10.5,2h-5A3.5,3.5,0,0,0,2,5.5V7.529A2.462,2.462,0,0,0,1,9.5V12H.5a.5.5,0,0,0,0,1H2v1.5a.5.5,0,0,0,.5.5h2a.5.5,0,0,0,.5-.5V13h6v1.5a.5.5,0,0,0,.5.5h2a.5.5,0,0,0,.5-.5V13h1.5a.5.5,0,0,0,0-1Zm-8-4.978v2.9a1.576,1.576,0,0,1-1-1A2.8,2.8,0,0,0,5.081,7.293,15.1,15.1,0,0,1,7.5,7.022Zm1,2.9v-2.9a15.1,15.1,0,0,1,2.418.271A2.8,2.8,0,0,0,9.5,8.92,1.577,1.577,0,0,1,8.5,9.917ZM5.5,3h5A2.5,2.5,0,0,1,13,5.5V6.812a16.088,16.088,0,0,0-10,0V5.5A2.5,2.5,0,0,1,5.5,3ZM4,14H3V13H4Zm9,0H12V13h1Zm.5-2H2V9.5a1.493,1.493,0,0,1,.752-1.3.474.474,0,0,0,.045-.04.4.4,0,0,0,.129-.146L2.937,8h.9A1.806,1.806,0,0,1,5.552,9.236a2.581,2.581,0,0,0,4.9,0A1.8,1.8,0,0,1,12.163,8h.9l.01.015a.4.4,0,0,0,.129.146.474.474,0,0,0,.045.04A1.493,1.493,0,0,1,14,9.5V12Z"/>
  <path d="M4,9a1,1,0,1,0,1,1A1,1,0,0,0,4,9Zm0,1H4Z"/>
  <path d="M12,9a1,1,0,1,0,1,1A1,1,0,0,0,12,9Zm0,1h0Z"/>
</svg>
