<svg xmlns="http://www.w3.org/2000/svg" viewBox="0 0 16 16">
  <title>virtual-reality</title>
  <path d="M12.589,10.109,10.4,9.669A.494.494,0,0,1,10,9.18v-.5a6.043,6.043,0,0,0,.414-.736,4.068,4.068,0,0,1,.351-.617A3.66,3.66,0,0,0,11.68,6H12a1,1,0,0,0,1-1V3a1,1,0,0,0-1-1h-.579A1.848,1.848,0,0,0,10.938.911a1.545,1.545,0,0,0-.929-.39A1.626,1.626,0,0,1,9.668.44,3.524,3.524,0,0,0,7.979,0,3.979,3.979,0,0,0,4.692,2H4A1,1,0,0,0,3,3V5A1,1,0,0,0,4,6h.309a3.657,3.657,0,0,0,.924,1.33,4.311,4.311,0,0,1,.351.615A6.21,6.21,0,0,0,6,8.677v.5a.5.5,0,0,1-.4.49l-2.189.439A3,3,0,0,0,1,13.05V14a.99.99,0,0,0,1,1H14a.99.99,0,0,0,1-1v-.95A3,3,0,0,0,12.589,10.109ZM4,3h8V5H9.116l-.691-.339-.449-.22-.446.228L6.88,5H4Z"/>
</svg>
