<svg xmlns="http://www.w3.org/2000/svg" viewBox="0 0 16 16">
  <title>virtual-reality</title>
  <g>
    <path d="M12.589,10.109,10.4,9.669A.494.494,0,0,1,10,9.18v-.5a6.043,6.043,0,0,0,.414-.736,4.068,4.068,0,0,1,.351-.617,3.269,3.269,0,0,0,1.011-1.618A1.076,1.076,0,0,0,11.8,5.5a.534.534,0,0,0,0-.056L11.46,2.486A2.162,2.162,0,0,0,10.938.911a1.545,1.545,0,0,0-.929-.39A1.626,1.626,0,0,1,9.668.44,3.524,3.524,0,0,0,7.979,0,3.906,3.906,0,0,0,4.533,2.321a.512.512,0,0,0-.031.127L4.19,5.5a1.07,1.07,0,0,0,.03.229,3.259,3.259,0,0,0,1.012,1.6,4.311,4.311,0,0,1,.351.615A6.21,6.21,0,0,0,6,8.677v.5a.5.5,0,0,1-.4.49l-2.189.439A3,3,0,0,0,1,13.05V14a.99.99,0,0,0,1,1H14a.99.99,0,0,0,1-1v-.95A3,3,0,0,0,12.589,10.109Z" fill="#455a64"/>
    <path d="M12,2H4A1,1,0,0,0,3,3V5A1,1,0,0,0,4,6H7a.5.5,0,0,0,.228-.055l.756-.386.795.39A.5.5,0,0,0,9,6h3a1,1,0,0,0,1-1V3A1,1,0,0,0,12,2Z" fill="#00bcd4"/>
  </g>
</svg>
