<svg xmlns="http://www.w3.org/2000/svg" viewBox="0 0 16 16">
  <title>vr-headset</title>
  <path d="M2,11.42V14.5a.5.5,0,0,0,.418.493l6,1A.517.517,0,0,0,8.5,16a.5.5,0,0,0,.5-.5V13.589l1.837.3a1.006,1.006,0,0,0,.811-.223A.994.994,0,0,0,12,12.91V10.5h1a.5.5,0,0,0,.448-.723l-.422-.85.393.065A.517.517,0,0,0,13.5,9a.5.5,0,0,0,.5-.5v-5a.5.5,0,0,0-.177-.381.5.5,0,0,0-.405-.112l-2.048.341a5.994,5.994,0,1,0-10,6.469A2.576,2.576,0,0,1,2,11.42ZM12.193,9.5H11.5a.5.5,0,0,0-.5.5v2.907l-2.42-.4A.5.5,0,0,0,8,13v1.91l-5-.833V11.42a3.533,3.533,0,0,0-.855-2.239,4.938,4.938,0,0,1-.907-1.707A1.494,1.494,0,0,0,1.5,7.5H7a.5.5,0,0,0,.418.493l4.39.732ZM1.5,5.5H7v1H1.5a.5.5,0,0,1,0-1ZM13,7.91,8,7.077V4.923l5-.833ZM6,1a4.989,4.989,0,0,1,4.339,2.52l-2.921.487A.5.5,0,0,0,7,4.5H1.5a1.492,1.492,0,0,0-.253.026A4.99,4.99,0,0,1,6,1Z"/>
</svg>
