<svg xmlns="http://www.w3.org/2000/svg" viewBox="0 0 16 16">
  <title>vr-headset</title>
  <g>
    <path d="M12.14,8.27,13,10H11.5v2.91a.5.5,0,0,1-.58.49L8.5,13v2.5l-6-1V11.42A3.046,3.046,0,0,0,1.76,9.5a5.5,5.5,0,1,1,9.33-5.6" fill="none" stroke="#000" stroke-linecap="round" stroke-linejoin="round"/>
    <path d="M7,7H1.5a1,1,0,0,1-1-1h0a1,1,0,0,1,1-1H7" fill="none" stroke="#000" stroke-linecap="round" stroke-linejoin="round"/>
    <polygon points="7.5 7.5 7.5 4.5 13.5 3.5 13.5 8.5 7.5 7.5" fill="none" stroke="#000" stroke-linecap="round" stroke-linejoin="round"/>
  </g>
</svg>
