<svg xmlns="http://www.w3.org/2000/svg" viewBox="0 0 16 16">
  <title>youtube</title>
  <g>
    <path d="M15.32,4.06c-.434-.772-.9-.914-1.864-.968S10.089,3,8,3s-4.5.027-5.458.091-1.429.2-1.866.968S0,6.159,0,8.5v.009c0,2.328.23,3.666.677,4.429s.909.912,1.866.977S5.911,14,8,14s4.5-.033,5.455-.088,1.43-.205,1.864-.977c.453-.763.68-2.1.68-4.429V8.5C16,6.159,15.772,4.831,15.32,4.06Z" fill="#f44336" fill-rule="evenodd"/>
    <polygon points="6 11.5 6 5.5 11 8.5 6 11.5" fill="#fafafa" fill-rule="evenodd"/>
  </g>
</svg>
