<svg xmlns="http://www.w3.org/2000/svg" viewBox="0 0 16 16">
  <title>3d-glass</title>
  <g>
    <path d="M16,3.5A2.5,2.5,0,0,0,13.5,1h-1a.5.5,0,0,0,0,1h1A1.5,1.5,0,0,1,15,3.5V8H1V3.5A1.5,1.5,0,0,1,2.5,2h1a.5.5,0,0,0,0-1h-1A2.5,2.5,0,0,0,0,3.5v5H0v6a.5.5,0,0,0,.5.5H6a.5.5,0,0,0,.485-.379L7.39,11H8.609l.905,3.621A.5.5,0,0,0,10,15h5.5a.5.5,0,0,0,.5-.5v-6h0Z" fill="#eceff1"/>
    <path d="M1,9.5v4a.5.5,0,0,0,.5.5H5.1a.5.5,0,0,0,.487-.389l.912-4A.5.5,0,0,0,6.013,9H1.5A.5.5,0,0,0,1,9.5Z" fill="#2196f3"/>
    <path d="M15,9.5v4a.5.5,0,0,1-.5.5H10.9a.5.5,0,0,1-.487-.389l-.912-4A.5.5,0,0,1,9.987,9H14.5A.5.5,0,0,1,15,9.5Z" fill="#e53935"/>
  </g>
</svg>
