<svg xmlns="http://www.w3.org/2000/svg" viewBox="0 0 16 16">
  <title>bags</title>
  <g>
    <path d="M9.5,4H.5a.5.5,0,0,0-.5.5V14a2,2,0,0,0,2,2H9.5a.5.5,0,0,0,.5-.5V4.5A.5.5,0,0,0,9.5,4Z" fill="#ffc107"/>
    <path d="M15.5,8h-8a.5.5,0,0,0-.5.5V14a2,2,0,0,0,2,2h5a2,2,0,0,0,2-2V8.5A.5.5,0,0,0,15.5,8Z" fill="#2196f3"/>
    <path d="M7.5,6A.5.5,0,0,1,7,5.5V3A2,2,0,0,0,3,3V5.5a.5.5,0,0,1-1,0V3A3,3,0,0,1,8,3V5.5A.5.5,0,0,1,7.5,6Z" fill="#455a64"/>
    <path d="M13.5,10a.5.5,0,0,1-.5-.5v-2a1.5,1.5,0,0,0-3,0v2a.5.5,0,0,1-1,0v-2a2.5,2.5,0,0,1,5,0v2A.5.5,0,0,1,13.5,10Z" fill="#455a64"/>
  </g>
</svg>
