<svg xmlns="http://www.w3.org/2000/svg" viewBox="0 0 16 16">
  <title>bank</title>
  <g>
    <rect x="2" y="7" width="12" height="5" fill="#90a4ae"/>
    <rect x="2" y="7" width="12" height="1" fill="#78909c"/>
    <path d="M15.735,5.059l-7.5-4a.5.5,0,0,0-.471,0l-7.5,4A.5.5,0,0,0,0,5.5v1A.5.5,0,0,0,.5,7h15a.5.5,0,0,0,.5-.5v-1A.5.5,0,0,0,15.735,5.059Z" fill="#cfd8dc"/>
    <path d="M15,12H1a1,1,0,0,0-1,1v1.5a.5.5,0,0,0,.5.5h15a.5.5,0,0,0,.5-.5V13A1,1,0,0,0,15,12Z" fill="#cfd8dc"/>
    <rect x="2" y="7" width="2" height="5" fill="#b0bec5"/>
    <rect x="7" y="7" width="2" height="5" fill="#b0bec5"/>
    <rect x="12" y="7" width="2" height="5" fill="#b0bec5"/>
  </g>
</svg>
