<svg xmlns="http://www.w3.org/2000/svg" viewBox="0 0 16 16">
  <title>basket</title>
  <g>
    <path d="M3.5,6a.5.5,0,0,1-.447-.724l2-4a.5.5,0,0,1,.895.447l-2,4A.5.5,0,0,1,3.5,6Z" fill="#455a64"/>
    <path d="M12.5,6a.5.5,0,0,1-.447-.276l-2-4a.5.5,0,1,1,.895-.447l2,4A.5.5,0,0,1,12.5,6Z" fill="#455a64"/>
    <path d="M14.895,7.192A.5.5,0,0,0,14.5,7H1.5a.5.5,0,0,0-.485.621l2,8A.5.5,0,0,0,3.5,16h9a.5.5,0,0,0,.485-.379l2-8A.5.5,0,0,0,14.895,7.192Z" fill="#d32f2f"/>
    <rect y="5" width="16" height="3" rx="0.5" ry="0.5" fill="#f44336"/>
    <path d="M8,14a.5.5,0,0,1-.5-.5v-3a.5.5,0,0,1,1,0v3A.5.5,0,0,1,8,14Z" fill="#fafafa"/>
    <path d="M5.5,14a.5.5,0,0,1-.5-.5v-3a.5.5,0,0,1,1,0v3A.5.5,0,0,1,5.5,14Z" fill="#fafafa"/>
    <path d="M10.5,14a.5.5,0,0,1-.5-.5v-3a.5.5,0,0,1,1,0v3A.5.5,0,0,1,10.5,14Z" fill="#fafafa"/>
  </g>
</svg>
