<svg xmlns="http://www.w3.org/2000/svg" viewBox="0 0 16 16">
  <title>beer</title>
  <g>
    <path d="M13.5,13h-2a.5.5,0,0,1,0-1h2a.5.5,0,0,0,.5-.5v-4a.5.5,0,0,0-.5-.5h-2a.5.5,0,0,1,0-1h2A1.5,1.5,0,0,1,15,7.5v4A1.5,1.5,0,0,1,13.5,13Z" fill="#eceff1"/>
    <path d="M11.5,4.81H1.5a.5.5,0,0,0-.5.5V14a2,2,0,0,0,2,2h7a2,2,0,0,0,2-2V5.31A.5.5,0,0,0,11.5,4.81Z" fill="#ffc107"/>
    <path d="M8.5,13a.5.5,0,0,1-.5-.5v-4a.5.5,0,0,1,1,0v4A.5.5,0,0,1,8.5,13Z" fill="#ffecb3"/>
    <path d="M4.5,13a.5.5,0,0,1-.5-.5v-4a.5.5,0,0,1,1,0v4A.5.5,0,0,1,4.5,13Z" fill="#ffecb3"/>
    <path d="M10,1.5a2.481,2.481,0,0,0-1.111.261,2.5,2.5,0,0,0-4.777,0A2.5,2.5,0,1,0,3,6.5v1a1.5,1.5,0,0,0,3,0V6.79a2.556,2.556,0,0,0,2.827-.582A2.446,2.446,0,0,0,10,6.5a2.5,2.5,0,0,0,0-5Z" fill="#ffecb3"/>
  </g>
</svg>
