<svg xmlns="http://www.w3.org/2000/svg" viewBox="0 0 16 16">
  <title>cardboard</title>
  <g>
    <path d="M13,2H3A1,1,0,0,0,2,3v9.5a.5.5,0,0,0,.5.5h11a.5.5,0,0,0,.5-.5V3A1,1,0,0,0,13,2Z" fill="#795548"/>
    <path d="M15,4H1A1,1,0,0,0,0,5v8a1,1,0,0,0,1,1H4.534a2,2,0,0,0,1.821-1.172l1.19-2.618a.5.5,0,0,1,.91,0l1.19,2.618A2,2,0,0,0,11.466,14H15a1,1,0,0,0,1-1V5A1,1,0,0,0,15,4Z" fill="#8d6e63"/>
    <circle cx="3.5" cy="8.5" r="2.5" fill="#5d4037"/>
    <circle cx="12.5" cy="8.5" r="2.5" fill="#5d4037"/>
  </g>
</svg>
