<svg xmlns="http://www.w3.org/2000/svg" viewBox="0 0 16 16">
  <title>christmas-tree</title>
  <path d="M9,12.97a.5.5,0,0,0-.5.5h-1a.5.5,0,0,0-1,0V15.5A.5.5,0,0,0,7,16H9a.5.5,0,0,0,.5-.5V13.47A.5.5,0,0,0,9,12.97Z" fill="#388e3c"/>
  <path d="M13.96,12.69a.5.5,0,0,1-.31.29A18.5,18.5,0,0,1,8,14a18.5,18.5,0,0,1-5.65-1.02.51.51,0,0,1-.29-.72l.79-1.45.97-1.77L4.5,7.8a.509.509,0,0,1,.44-.26h6.12a.509.509,0,0,1,.44.26l.68,1.24.97,1.77.79,1.45A.5.5,0,0,1,13.96,12.69Z" fill="#43a047"/>
  <path d="M12.98,7.64a.49.49,0,0,1-.27.31A11.109,11.109,0,0,1,8,9,11.109,11.109,0,0,1,3.29,7.95a.494.494,0,0,1-.21-.72l.91-1.42L5.12,4.06,7.58.23a.514.514,0,0,1,.84,0l2.46,3.83,1.13,1.75.91,1.42A.493.493,0,0,1,12.98,7.64Z" fill="#4caf50"/>
  <g>
    <path d="M11.52,12a.5.5,0,0,1-.5-.5.5.5,0,0,1,.5-.5h.01a.5.5,0,0,1,0,1Z" fill="#f44336"/>
    <path d="M9.52,11a.5.5,0,0,1-.5-.5.5.5,0,0,1,.5-.5h.01a.5.5,0,0,1,0,1Z" fill="#ffc107"/>
    <path d="M7.52,12a.5.5,0,0,1-.5-.5.5.5,0,0,1,.5-.5h.01a.5.5,0,0,1,0,1Z" fill="#fafafa"/>
    <path d="M5.52,11a.5.5,0,0,1-.5-.5.5.5,0,0,1,.5-.5h.01a.5.5,0,0,1,0,1Z" fill="#f44336"/>
    <path d="M9.52,6a.5.5,0,0,1-.5-.5.5.5,0,0,1,.5-.5h.01a.5.5,0,0,1,0,1Z" fill="#f44336"/>
    <path d="M7.52,7a.5.5,0,0,1-.5-.5.5.5,0,0,1,.5-.5h.01a.5.5,0,0,1,0,1Z" fill="#fafafa"/>
    <path d="M7.52,5a.5.5,0,0,1-.5-.5.5.5,0,0,1,.5-.5h.01a.5.5,0,0,1,0,1Z" fill="#ffc107"/>
  </g>
</svg>
