<svg xmlns="http://www.w3.org/2000/svg" viewBox="0 0 16 16">
  <title>coffee-latte</title>
  <g>
    <path d="M13.5,12H11.37a.5.5,0,0,1,0-1H13.5A1.514,1.514,0,0,0,15,9.5,1.5,1.5,0,0,0,13.5,8h-2a.5.5,0,0,1,0-1h2A2.5,2.5,0,0,1,16,9.5,2.514,2.514,0,0,1,13.5,12Z" fill="#ffa000"/>
    <path d="M9,4A2,2,0,0,0,7,2H6.885a5.786,5.786,0,0,0-1.128-.929.5.5,0,0,0-.722.615,2.835,2.835,0,0,1,.134.494A2,2,0,0,0,4,4,2,2,0,0,0,2,6v.5a.5.5,0,0,0,.5.5h8a.5.5,0,0,0,.5-.5V6A2,2,0,0,0,9,4Z" fill="#eceff1"/>
    <path d="M11.5,6H1.5a.5.5,0,0,0-.5.5v4A4.5,4.5,0,0,0,5.5,15h2A4.5,4.5,0,0,0,12,10.5v-4A.5.5,0,0,0,11.5,6Z" fill="#ffc107"/>
  </g>
</svg>
