<svg xmlns="http://www.w3.org/2000/svg" viewBox="0 0 16 16">
  <title>coffee-cup</title>
  <g>
    <path d="M11,0H5A1,1,0,0,0,4,1V2.5a.5.5,0,0,0,.5.5h7a.5.5,0,0,0,.5-.5V1A1,1,0,0,0,11,0Z" fill="#455a64"/>
    <path d="M12.868,3.162A.5.5,0,0,0,12.5,3h-9a.5.5,0,0,0-.5.542l1,12A.5.5,0,0,0,4.5,16h7a.5.5,0,0,0,.5-.458l1-12A.5.5,0,0,0,12.868,3.162Z" fill="#eceff1"/>
    <rect x="2" y="2" width="12" height="2" rx="0.5" ry="0.5" fill="#607d8b"/>
    <polygon points="3.79 13 12.21 13 12.627 8 3.373 8 3.79 13" fill="#8d6e63"/>
    <circle cx="8" cy="10.5" r="1" fill="#fafafa"/>
  </g>
</svg>
