<svg xmlns="http://www.w3.org/2000/svg" viewBox="0 0 16 16">
  <title>croissant</title>
  <g>
    <path d="M3.6,11.4l-1.75-1.75a.5.5,0,0,0-.795.118,4.834,4.834,0,0,0-.273,3.893.5.5,0,0,0,.652.311,5.171,5.171,0,0,0,2.219-1.926A.5.5,0,0,0,3.6,11.4Z" fill="#ffc107"/>
    <path d="M14.941,9.765a.5.5,0,0,0-.795-.118L12.4,11.4a.5.5,0,0,0-.053.646,5.17,5.17,0,0,0,2.219,1.926A.51.51,0,0,0,14.74,14a.5.5,0,0,0,.475-.343A4.834,4.834,0,0,0,14.941,9.765Z" fill="#ffc107"/>
    <path d="M6.1,10.54,2.223,5.89a.5.5,0,0,0-.818.073L.194,8.094a1.508,1.508,0,0,0,.242,1.8l2.31,2.31a1.5,1.5,0,0,0,2.024.1l1.27-1.06a.5.5,0,0,0,.063-.7Z" fill="#ffe082"/>
    <path d="M15.806,8.093,14.6,5.963a.5.5,0,0,0-.818-.073L9.9,10.54a.5.5,0,0,0,.063.7l1.271,1.062a1.492,1.492,0,0,0,.953.344,1.51,1.51,0,0,0,1.069-.446l2.31-2.31A1.507,1.507,0,0,0,15.806,8.093Z" fill="#ffe082"/>
    <path d="M14.881,5.176a9.042,9.042,0,0,0-13.761,0,.5.5,0,0,0,0,.645l5,6A.5.5,0,0,0,6.8,11.9a2.012,2.012,0,0,1,2.4,0,.5.5,0,0,0,.684-.079l5-6A.5.5,0,0,0,14.881,5.176Z" fill="#ffc107"/>
  </g>
</svg>
