<svg xmlns="http://www.w3.org/2000/svg" viewBox="0 0 16 16">
  <title>devil</title>
  <g>
    <path d="M15.053,4.242A4.729,4.729,0,0,0,15.081.265.506.506,0,0,0,14.519,0a.485.485,0,0,0-.378.473c0,.006-.067.535-1.03,1.386a7.949,7.949,0,0,0-10.221,0C1.942,1.023,1.862.5,1.86.5h0A.5.5,0,0,0,.918.265,4.728,4.728,0,0,0,.947,4.242,8,8,0,1,0,16,8,7.953,7.953,0,0,0,15.053,4.242Z" fill="#f44336"/>
    <g>
      <path d="M4.293,4.086a.5.5,0,0,0-.707,0A2,2,0,1,0,6.414,6.914a.5.5,0,0,0,0-.707Z" fill="#263238"/>
      <path d="M12.414,4.086a.5.5,0,0,0-.707,0L9.586,6.207a.5.5,0,0,0,0,.707,2,2,0,1,0,2.828-2.828Z" fill="#263238"/>
    </g>
    <path d="M13.688,9.2a.5.5,0,0,0-.4-.2H2.71a.5.5,0,0,0-.481.636,6,6,0,0,0,11.543,0A.5.5,0,0,0,13.688,9.2Z" fill="#fafafa"/>
  </g>
</svg>
