<svg xmlns="http://www.w3.org/2000/svg" viewBox="0 0 16 16">
  <title>discount</title>
  <g>
    <path d="M15,0H6A1,1,0,0,0,5,1V13a1,1,0,0,0,1,1h9a1,1,0,0,0,1-1V1A1,1,0,0,0,15,0Zm0,13.5Z" fill="#607d8b"/>
    <rect x="7" y="2" width="7" height="3" rx="0.5" ry="0.5" fill="#64b5f6"/>
    <circle cx="6" cy="10" r="6" fill="#2196f3"/>
    <rect x="13" y="7" width="1" height="1" fill="#fafafa"/>
    <rect x="13" y="10" width="1" height="1" fill="#fafafa"/>
    <g>
      <path d="M5,9A1.5,1.5,0,1,1,6.5,7.5,1.5,1.5,0,0,1,5,9ZM5,7a.5.5,0,1,0,.5.5A.5.5,0,0,0,5,7Z" fill="#fafafa"/>
      <path d="M7,14a1.5,1.5,0,1,1,1.5-1.5A1.5,1.5,0,0,1,7,14Zm0-2a.5.5,0,1,0,.5.5A.5.5,0,0,0,7,12Z" fill="#fafafa"/>
      <path d="M4,13a.5.5,0,0,1-.39-.812l4-5a.5.5,0,0,1,.781.625l-4,5A.5.5,0,0,1,4,13Z" fill="#fafafa"/>
    </g>
  </g>
</svg>
