<svg xmlns="http://www.w3.org/2000/svg" viewBox="0 0 16 16">
  <title>drone</title>
  <g>
    <rect x="7" y="8" width="2" height="3" fill="#90a4ae"/>
    <g>
      <path d="M14.5,13a.5.5,0,0,1-.489-.4l-.52-2.59A2.506,2.506,0,0,0,11.04,8h-.29a.5.5,0,0,1,0-1h.29a3.508,3.508,0,0,1,3.431,2.813l.52,2.589a.5.5,0,0,1-.392.589A.492.492,0,0,1,14.5,13Z" fill="#90a4ae"/>
      <path d="M1.5,13a.491.491,0,0,1-.1-.01A.5.5,0,0,1,1.01,12.4l.52-2.59A3.507,3.507,0,0,1,4.96,7h.29a.5.5,0,0,1,0,1H4.96a2.5,2.5,0,0,0-2.45,2.008L1.99,12.6A.5.5,0,0,1,1.5,13Z" fill="#90a4ae"/>
      <path d="M11.895,4.192A.5.5,0,0,0,11.5,4h-7a.5.5,0,0,0-.485.621l.811,3.242A1.5,1.5,0,0,0,6.281,9H9.719a1.5,1.5,0,0,0,1.456-1.137l.811-3.242A.5.5,0,0,0,11.895,4.192Z" fill="#455a64"/>
      <path d="M2.5,3A.5.5,0,0,1,2,2.5V.5a.5.5,0,0,1,1,0v2A.5.5,0,0,1,2.5,3Z" fill="#cfd8dc"/>
      <path d="M4.5,1H.5a.5.5,0,0,1,0-1h4a.5.5,0,0,1,0,1Z" fill="#455a64"/>
      <path d="M13.5,3a.5.5,0,0,1-.5-.5V.5a.5.5,0,0,1,1,0v2A.5.5,0,0,1,13.5,3Z" fill="#cfd8dc"/>
      <path d="M15.5,1h-4a.5.5,0,0,1,0-1h4a.5.5,0,0,1,0,1Z" fill="#455a64"/>
      <path d="M13.5,5H2.5a.5.5,0,0,1,0-1h11a.5.5,0,0,1,0,1Z" fill="#90a4ae"/>
      <path d="M3.5,2h-2a.5.5,0,0,0-.5.5v1a1.5,1.5,0,0,0,3,0v-1A.5.5,0,0,0,3.5,2Z" fill="#607d8b"/>
      <path d="M14.5,2h-2a.5.5,0,0,0-.5.5v1a1.5,1.5,0,0,0,3,0v-1A.5.5,0,0,0,14.5,2Z" fill="#607d8b"/>
    </g>
    <circle cx="8" cy="13" r="3" fill="#eceff1"/>
    <circle cx="8" cy="13.5" r="1.5" fill="#2196f3"/>
    <circle cx="8" cy="11" r="0.5" fill="#f44336"/>
  </g>
</svg>
