<svg xmlns="http://www.w3.org/2000/svg" viewBox="0 0 16 16">
  <title>egg</title>
  <g>
    <path d="M13.086,1.824A8.048,8.048,0,0,0,6.4.156,7.962,7.962,0,0,0,.156,6.4,8.007,8.007,0,0,0,8,16a2.7,2.7,0,0,0,2.7-2.44l.121-1.211a1.716,1.716,0,0,1,1.531-1.531L13.56,10.7A2.7,2.7,0,0,0,16,8,7.98,7.98,0,0,0,13.086,1.824Z" fill="#eceff1"/>
    <circle cx="4.5" cy="8.5" r="2.5" fill="#ffc107"/>
    <path d="M3.5,8.5A.5.5,0,0,1,3,8,1,1,0,0,1,4,7,.5.5,0,0,1,4,8,.5.5,0,0,1,3.5,8.5Z" fill="#ffecb3"/>
    <circle cx="10.5" cy="5.5" r="2.5" fill="#ffc107"/>
    <path d="M9.5,5.5A.5.5,0,0,1,9,5a1,1,0,0,1,1-1,.5.5,0,0,1,0,1A.5.5,0,0,1,9.5,5.5Z" fill="#ffecb3"/>
  </g>
</svg>
