<svg xmlns="http://www.w3.org/2000/svg" viewBox="0 0 16 16">
  <title>gift-box</title>
  <g>
    <path d="M9.243,4.981H6.756A5.736,5.736,0,0,1,3.605,3.534a2.093,2.093,0,0,1,0-2.942,2.115,2.115,0,0,1,2.933,0c.433.436,1.583,2.207,1.425,3.389h.071C7.877,2.8,9.027,1.027,9.461.591a2.113,2.113,0,0,1,2.933,0,2.091,2.091,0,0,1,0,2.942A5.731,5.731,0,0,1,9.243,4.981Zm0-1a4.915,4.915,0,0,0,2.441-1.152A1.077,1.077,0,1,0,10.17,1.3c-.674.678-1.344,2.41-1.111,2.651A.331.331,0,0,0,9.243,3.981Zm-4.17-3a1.062,1.062,0,0,0-.758.316,1.09,1.09,0,0,0,0,1.532A4.919,4.919,0,0,0,6.756,3.981a.338.338,0,0,0,.185-.032C7.174,3.706,6.5,1.974,5.83,1.3A1.062,1.062,0,0,0,5.073.981Z" fill="#f44336"/>
    <path d="M1,6.981v7a1,1,0,0,0,1,1H14a1,1,0,0,0,1-1v-7Z" fill="#ffc107"/>
    <path d="M15,3.981H1a1,1,0,0,0-1,1v2.5a.5.5,0,0,0,.5.5h15a.5.5,0,0,0,.5-.5v-2.5A1,1,0,0,0,15,3.981Z" fill="#ffd54f"/>
    <rect x="7" y="3.981" width="2" height="11" fill="#f44336"/>
  </g>
</svg>
