<svg xmlns="http://www.w3.org/2000/svg" viewBox="0 0 16 16">
  <title>health-report</title>
  <g>
    <rect x="2" y="2" width="12" height="14" rx="1" ry="1" fill="#eceff1"/>
    <path d="M10.5,1H9.414A1.5,1.5,0,0,0,6.585,1H5.5a.5.5,0,0,0-.5.5v2a.5.5,0,0,0,.5.5h5a.5.5,0,0,0,.5-.5v-2A.5.5,0,0,0,10.5,1Z" fill="#455a64"/>
    <path d="M11.5,8a.5.5,0,0,0-.468.324l-.968,2.58L8.481,5.363a.5.5,0,0,0-.945-.048L5.866,9.488,4.9,8.2A.5.5,0,0,0,4.5,8H2V9H4.25L5.6,10.8a.5.5,0,0,0,.864-.114L7.921,7.043l1.6,5.594a.5.5,0,0,0,.46.362H10a.5.5,0,0,0,.468-.324L11.847,9H14V8Z" fill="#2196f3"/>
  </g>
</svg>
