<svg xmlns="http://www.w3.org/2000/svg" viewBox="0 0 16 16">
  <title>id-card</title>
  <g>
    <rect y="3" width="16" height="11" rx="1" ry="1" fill="#eceff1"/>
    <g>
      <circle cx="4.5" cy="7.5" r="1.5" fill="#8bc34a"/>
      <path d="M6.735,10.059a4.745,4.745,0,0,0-4.471,0A.5.5,0,0,0,2,10.5v1a.5.5,0,0,0,.5.5h4a.5.5,0,0,0,.5-.5v-1A.5.5,0,0,0,6.735,10.059Z" fill="#8bc34a"/>
    </g>
    <path d="M13.5,9h-4a.5.5,0,0,1,0-1h4a.5.5,0,0,1,0,1Z" fill="#90a4ae"/>
    <path d="M13.5,11h-4a.5.5,0,0,1,0-1h4a.5.5,0,0,1,0,1Z" fill="#90a4ae"/>
    <path d="M6.5,5h3a.5.5,0,0,0,.5-.5V3A2,2,0,0,0,6,3V4.5A.5.5,0,0,0,6.5,5Z" fill="#455a64"/>
  </g>
</svg>
