<svg xmlns="http://www.w3.org/2000/svg" viewBox="0 0 16 16">
  <title>inbox</title>
  <g>
    <g>
      <path d="M15.932,8.248l-3.5-6A.5.5,0,0,0,12,2H4a.5.5,0,0,0-.432.248l-3.5,6A.5.5,0,0,0,0,8.5V14a1,1,0,0,0,1,1H15a1,1,0,0,0,1-1V8.5A.5.5,0,0,0,15.932,8.248Z" fill="#ffa000"/>
      <path d="M4.287,3h7.426l2.917,5H12.5a.5.5,0,0,0-.447.276L11.191,10H4.81L3.948,8.276A.5.5,0,0,0,3.5,8H1.371Z" fill="#fafafa"/>
    </g>
    <g>
      <path d="M5.5,5h5a.5.5,0,0,0,0-1h-5a.5.5,0,0,0,0,1Z" fill="#90a4ae"/>
      <path d="M11.5,6h-7a.5.5,0,0,0,0,1h7a.5.5,0,0,0,0-1Z" fill="#90a4ae"/>
    </g>
  </g>
</svg>
