<svg xmlns="http://www.w3.org/2000/svg" viewBox="0 0 16 16">
  <title>map-search</title>
  <g>
    <path d="M11.158,2.026l-6-2a.5.5,0,0,0-.451.068A.5.5,0,0,0,4.5.5v9a.5.5,0,0,0,.342.475l6,2A.52.52,0,0,0,11,12a.5.5,0,0,0,.5-.5v-9A.5.5,0,0,0,11.158,2.026Z" fill="#ffd54f"/>
    <path d="M5,.009a.5.5,0,0,0-.2.034l-4.5,2A.5.5,0,0,0,0,2.5v9a.5.5,0,0,0,.5.5.509.509,0,0,0,.2-.043L5,10.048Z" fill="#ffe082"/>
    <path d="M15.772.081A.5.5,0,0,0,15.3.044L11,1.953V12a.509.509,0,0,0,.2-.043l4.5-2A.5.5,0,0,0,16,9.5V.5A.5.5,0,0,0,15.772.081Z" fill="#ffc107"/>
    <path d="M15,16a1,1,0,0,1-.707-.293l-3.17-3.17a1,1,0,0,1,1.414-1.414l3.17,3.17A1,1,0,0,1,15,16Z" fill="#2196f3"/>
    <path d="M15,10A5,5,0,0,0,5,10c0,.01,0,.019,0,.029l5.839,1.946A.52.52,0,0,0,11,12a.509.509,0,0,0,.2-.043l3.768-1.675C14.977,10.187,15,10.1,15,10Z" fill="#fafafa"/>
    <circle cx="10" cy="10" r="4" fill="#64b5f6"/>
  </g>
</svg>
