<svg xmlns="http://www.w3.org/2000/svg" viewBox="0 0 16 16">
  <title>map</title>
  <g>
    <path d="M11.158,6.026l-6-2a.5.5,0,0,0-.451.068A.5.5,0,0,0,4.5,4.5v9a.5.5,0,0,0,.342.475l6,2A.52.52,0,0,0,11,16a.5.5,0,0,0,.5-.5v-9A.5.5,0,0,0,11.158,6.026Z" fill="#42a5f5"/>
    <path d="M5,4.008a.5.5,0,0,0-.2.034l-4.5,2A.5.5,0,0,0,0,6.5v9a.5.5,0,0,0,.5.5.509.509,0,0,0,.2-.043L5,14.047Z" fill="#64b5f6"/>
    <path d="M15.772,4.081a.5.5,0,0,0-.476-.038L11,5.953V16a.509.509,0,0,0,.2-.043l4.5-2A.5.5,0,0,0,16,13.5v-9A.5.5,0,0,0,15.772,4.081Z" fill="#2196f3"/>
    <g>
      <path d="M12.5,0A3.5,3.5,0,0,0,9,3.5c0,1.8,2.808,4.977,3.128,5.334a.5.5,0,0,0,.744,0C13.192,8.477,16,5.3,16,3.5A3.5,3.5,0,0,0,12.5,0Z" fill="#ffc107"/>
      <circle cx="12.5" cy="3.5" r="1.5" fill="#fafafa"/>
    </g>
  </g>
</svg>
