<svg xmlns="http://www.w3.org/2000/svg" viewBox="0 0 16 16">
  <title>megaphone</title>
  <g>
    <rect y="5" width="3" height="4.001" rx="0.5" ry="0.5" fill="#607d8b"/>
    <path d="M15.669.029a.5.5,0,0,0-.555.153A10.528,10.528,0,0,1,7.477,4,.5.5,0,0,0,7,4.5v5a.5.5,0,0,0,.477.5,10.534,10.534,0,0,1,7.637,3.818A.5.5,0,0,0,15.5,14a.508.508,0,0,0,.169-.029A.5.5,0,0,0,16,13.5V.5A.5.5,0,0,0,15.669.029Z" fill="#eceff1"/>
    <path d="M15.5,14a.5.5,0,0,1-.5-.5V.5a.5.5,0,0,1,1,0v13A.5.5,0,0,1,15.5,14Z" fill="#607d8b"/>
    <path d="M7.837,13.356,5.8,9.276A.5.5,0,0,0,5.35,9H3.15a.5.5,0,0,0-.468.676l2.131,5.683A1.006,1.006,0,0,0,5.749,16a.973.973,0,0,0,.7-.3l1.2-1.191A1,1,0,0,0,7.837,13.356Z" fill="#607d8b"/>
    <rect x="2" y="4" width="6" height="6" rx="0.5" ry="0.5" fill="#2196f3"/>
  </g>
</svg>
