<svg xmlns="http://www.w3.org/2000/svg" viewBox="0 0 16 16">
  <title>money-bag</title>
  <g>
    <g>
      <path d="M13.445,10.384,9.586,3.522,11.416.777A.5.5,0,0,0,11,0H5a.5.5,0,0,0-.416.777l1.83,2.745-3.86,6.862A4.33,4.33,0,0,0,2,12.5,3.5,3.5,0,0,0,5.5,16h5A3.5,3.5,0,0,0,14,12.5,4.32,4.32,0,0,0,13.445,10.384Z" fill="#009688"/>
      <path d="M10,4H6A.5.5,0,0,1,6,3h4a.5.5,0,0,1,0,1Z" fill="#ffc107"/>
    </g>
    <path d="M8,10A.5.5,0,0,1,8,9H9A.5.5,0,0,0,9,8H8.5V7.5a.5.5,0,0,0-1,0v.592A1.5,1.5,0,0,0,8,11a.5.5,0,0,1,0,1H7a.5.5,0,0,0,0,1h.5v.5a.5.5,0,0,0,1,0v-.592A1.5,1.5,0,0,0,8,10Z" fill="#fafafa"/>
  </g>
</svg>
