<svg xmlns="http://www.w3.org/2000/svg" viewBox="0 0 16 16">
  <title>picture</title>
  <g>
    <rect x="0.5" y="5.5" width="15" height="10" rx="0.5" ry="0.5" fill="#eceff1"/>
    <path d="M5.132,14.162l5.5-6a.515.515,0,0,1,.737,0L15,12.124V15H5.5a.5.5,0,0,1-.368-.838Z" fill="#43a047"/>
    <path d="M1.146,14.146l5-5a.5.5,0,0,1,.707,0l5,5A.5.5,0,0,1,11.5,15H1.5a.5.5,0,0,1-.354-.854Z" fill="#66bb6a"/>
    <path d="M14,6a.5.5,0,0,1-.277-.083L8.553,2.477a.5.5,0,1,1,.554-.833l5.17,3.44A.5.5,0,0,1,14,6Z" fill="#455a64"/>
    <path d="M2,6a.5.5,0,0,1-.277-.917l5.17-3.44a.5.5,0,1,1,.554.833l-5.17,3.44A.5.5,0,0,1,2,6Z" fill="#455a64"/>
    <path d="M8,3A1.5,1.5,0,1,1,9.5,1.5,1.5,1.5,0,0,1,8,3ZM8,1a.5.5,0,1,0,.5.5A.5.5,0,0,0,8,1Z" fill="#455a64"/>
    <path d="M15,16H1a1,1,0,0,1-1-1V6A1,1,0,0,1,1,5H15a1,1,0,0,1,1,1v9A1,1,0,0,1,15,16Zm0-1v0ZM1,6v9H15V6Z" fill="#cfd8dc"/>
  </g>
</svg>
