<svg xmlns="http://www.w3.org/2000/svg" viewBox="0 0 16 16">
  <title>polo-shirt</title>
  <g>
    <path d="M15.748,3.066l-3.5-2A.5.5,0,0,0,12,1H4a.5.5,0,0,0-.248.066l-3.5,2a.5.5,0,0,0-.233.571l1,3.5a.5.5,0,0,0,.6.348L3,7.141V15.5a.5.5,0,0,0,.5.5h9a.5.5,0,0,0,.5-.5V7.141l1.379.344a.5.5,0,0,0,.6-.348l1-3.5A.5.5,0,0,0,15.748,3.066Z" fill="#03a9f4"/>
    <polygon points="5 0 11 0 8 3.5 5 0" fill="#1e88e5"/>
    <path d="M7.5,3V6.506a.5.5,0,0,0,1,0V3Z" fill="#fafafa"/>
    <polygon points="5 0 4.5 1.031 6 4 8 3 5 0" fill="#eceff1"/>
    <polygon points="11 0 11.5 1.031 10 4 8 3 11 0" fill="#eceff1"/>
  </g>
</svg>
