<svg xmlns="http://www.w3.org/2000/svg" viewBox="0 0 16 16">
  <title>presentation</title>
  <g>
    <g>
      <path d="M9.777,14.084,8.5,13.232V11.5a.5.5,0,0,0-1,0v1.732l-1.277.852a.5.5,0,1,0,.555.832L8,14.1l1.223.815a.5.5,0,1,0,.555-.832Z" fill="#455a64"/>
      <path d="M14.5,2H1.5a.5.5,0,0,0-.5.5V11a1,1,0,0,0,1,1H14a1,1,0,0,0,1-1V2.5A.5.5,0,0,0,14.5,2Z" fill="#eceff1"/>
      <rect y="1" width="16" height="2" rx="0.5" ry="0.5" fill="#455a64"/>
    </g>
    <rect x="7" y="6" width="2" height="4" fill="#4caf50"/>
    <rect x="11" y="5" width="2" height="5" fill="#ffc107"/>
    <rect x="3" y="8" width="2" height="2" fill="#2196f3"/>
  </g>
</svg>
