<svg xmlns="http://www.w3.org/2000/svg" viewBox="0 0 16 16">
  <title>renew-arrow</title>
  <g>
    <path d="M15.9,4.2l-3-4a.518.518,0,0,0-.8,0l-3,4a.5.5,0,0,0,.4.8H11v5.818a6.346,6.346,0,0,1-1.753,3.573l-.637.8A.5.5,0,0,0,9,16a.481.481,0,0,0,.1-.01C12.076,15.4,14,12.809,14,9.4V5h1.5a.5.5,0,0,0,.4-.8Z" fill="#f44336"/>
    <path d="M8,.011a.481.481,0,0,0-.1.01C4.924.616,3,3.2,3,6.61v4.4H1.5a.5.5,0,0,0-.4.8l3,4a.518.518,0,0,0,.8,0l3-4a.5.5,0,0,0-.4-.8H6V5.193A6.346,6.346,0,0,1,7.753,1.62l.637-.8A.5.5,0,0,0,8,.011Z" fill="#f44336"/>
  </g>
</svg>
