<svg xmlns="http://www.w3.org/2000/svg" viewBox="0 0 16 16">
  <title>retro-camera</title>
  <g>
    <rect x="2" y="2" width="3" height="2" rx="0.5" ry="0.5" fill="#455a64"/>
    <path d="M16,3V7.5H0V4A1,1,0,0,1,1,3H6A1,1,0,0,1,7,2h8A1,1,0,0,1,16,3Z" fill="#795548"/>
    <path d="M16,7.5V13a1,1,0,0,1-1,1H1a1,1,0,0,1-1-1V7.5Z" fill="#eceff1"/>
    <rect y="7" width="16" height="3" fill="#ffc107"/>
    <rect x="6" y="10" width="4" height="4" fill="#00bcd4"/>
    <circle cx="8" cy="8.5" r="3.5" fill="#455a64"/>
    <circle cx="8" cy="8.5" r="2.5" fill="#fafafa"/>
  </g>
</svg>
