<svg xmlns="http://www.w3.org/2000/svg" viewBox="0 0 16 16">
  <title>segway</title>
  <g>
    <path d="M7.5,11a.5.5,0,0,1-.5-.5v-8a.5.5,0,0,1,1,0v8A.5.5,0,0,1,7.5,11Z" fill="#455a64"/>
    <path d="M12.5,12H9.75L8.4,10.2A.5.5,0,0,0,8,10H7a.5.5,0,0,0-.4.2L5.25,12H2.5a.5.5,0,0,0-.5.5v2a.5.5,0,0,0,.5.5h10a.5.5,0,0,0,.5-.5v-2A.5.5,0,0,0,12.5,12Z" fill="#90a4ae"/>
    <g>
      <rect y="10" width="3" height="5.999" rx="0.5" ry="0.5" fill="#455a64"/>
      <rect x="12" y="10" width="3" height="5.999" rx="0.5" ry="0.5" fill="#455a64"/>
    </g>
    <path d="M6.5,2h-3a.5.5,0,0,1,0-1h3a.5.5,0,0,1,0,1Z" fill="#455a64"/>
    <path d="M11.5,2h-3a.5.5,0,0,1,0-1h3a.5.5,0,0,1,0,1Z" fill="#455a64"/>
    <rect x="6" width="3" height="3" rx="0.5" ry="0.5" fill="#90a4ae"/>
  </g>
</svg>
