<svg xmlns="http://www.w3.org/2000/svg" viewBox="0 0 16 16">
  <title>selfie</title>
  <g>
    <g>
      <path d="M7.5,2A.5.5,0,0,1,7,1.5V.5a.5.5,0,0,1,1,0v1A.5.5,0,0,1,7.5,2Z" fill="#455a64"/>
      <path d="M10.873,10.666l-2.52-2.52a.5.5,0,0,0-.707.707l2.52,2.52a.5.5,0,0,0,.707-.707Z" fill="#607d8b"/>
      <rect x="5" y="6" width="5" height="3" rx="0.5" ry="0.5" fill="#455a64"/>
      <g>
        <rect x="1" y="1" width="13" height="7" rx="1" ry="1" fill="#90a4ae"/>
        <rect x="2" y="2" width="10" height="5" fill="#eceff1"/>
      </g>
      <path d="M14.87,13.821l-3.356-3.706a.5.5,0,0,0-.346-.163.451.451,0,0,0-.36.129L9.326,11.424a.5.5,0,0,0-.035.706l3.357,3.706a.5.5,0,0,0,.346.163h.024a.5.5,0,0,0,.336-.13l1.482-1.343A.5.5,0,0,0,14.87,13.821Z" fill="#2196f3"/>
    </g>
    <path d="M9.724,4.053l-3-1.5A.5.5,0,0,0,6,3V6a.5.5,0,0,0,.724.447l3-1.5a.5.5,0,0,0,0-.895Z" fill="#f44336"/>
  </g>
</svg>
