<svg xmlns="http://www.w3.org/2000/svg" viewBox="0 0 16 16">
  <title>shopping-cart</title>
  <g>
    <path d="M15.884,3.18A.5.5,0,0,0,15.5,3H3.36a.5.5,0,0,0-.483.629l1.6,5.98a.5.5,0,0,0,.483.371h.025l9.54-.48a.5.5,0,0,0,.467-.409l1-5.5A.5.5,0,0,0,15.884,3.18Z" fill="#ffc107"/>
    <path d="M12.5,8a.5.5,0,0,1-.5-.5v-2a.5.5,0,0,1,1,0v2A.5.5,0,0,1,12.5,8Z" fill="#fafafa"/>
    <path d="M9.5,8A.5.5,0,0,1,9,7.5v-2a.5.5,0,0,1,1,0v2A.5.5,0,0,1,9.5,8Z" fill="#fafafa"/>
    <path d="M6.5,8A.5.5,0,0,1,6,7.5v-2a.5.5,0,0,1,1,0v2A.5.5,0,0,1,6.5,8Z" fill="#fafafa"/>
    <g>
      <circle cx="6.5" cy="14.5" r="1.5" fill="#455a64"/>
      <circle cx="12.5" cy="14.5" r="1.5" fill="#455a64"/>
    </g>
    <path d="M13.5,12h-8a.5.5,0,0,1-.483-.371L2.446,2H.5a.5.5,0,0,1,0-1H2.83a.5.5,0,0,1,.483.371L5.884,11H13.5a.5.5,0,0,1,0,1Z" fill="#455a64"/>
  </g>
</svg>
