<svg xmlns="http://www.w3.org/2000/svg" viewBox="0 0 16 16">
  <title>skull</title>
  <g>
    <path d="M14.859,5.584A7,7,0,1,0,3,11.9V14a2,2,0,0,0,2,2h6a2,2,0,0,0,2-2V11.9A7.021,7.021,0,0,0,14.859,5.584Z" fill="#cfd8dc"/>
    <path d="M8,11.5a1,1,0,0,1-2,0c0-.552.948-2,1.5-2S8,10.948,8,11.5Z" fill="#263238"/>
    <path d="M8,11.5a1,1,0,0,0,2,0c0-.552-.948-2-1.5-2S8,10.948,8,11.5Z" fill="#263238"/>
    <g>
      <path d="M5.748,5.041a1.454,1.454,0,0,0-1.738-.278A2,2,0,1,0,6.738,7.49a1.455,1.455,0,0,0-.278-1.738Z" fill="#263238"/>
      <path d="M11.9,4.762a1.453,1.453,0,0,0-1.738.278l-.712.712A1.454,1.454,0,0,0,9.175,7.49,2,2,0,1,0,11.9,4.762Z" fill="#263238"/>
    </g>
    <g>
      <path d="M10.5,14.5a.5.5,0,0,0-1,0V16h1Z" fill="#263238"/>
      <path d="M8.5,14.5a.5.5,0,0,0-1,0V16h1Z" fill="#263238"/>
      <path d="M6.5,14.5a.5.5,0,0,0-1,0V16h1Z" fill="#263238"/>
    </g>
  </g>
</svg>
