<svg xmlns="http://www.w3.org/2000/svg" viewBox="0 0 16 16">
  <title>smartwatch</title>
  <g>
    <g>
      <path d="M11,5h1.5a.5.5,0,0,1,.5.5v1a.5.5,0,0,1-.5.5H11a0,0,0,0,1,0,0V5A0,0,0,0,1,11,5Z" fill="#37474f"/>
      <g>
        <path d="M4.24,4.22h6.52a.5.5,0,0,0,.446-.726A6.672,6.672,0,0,1,10.5.5.5.5,0,0,0,10,0H5a.5.5,0,0,0-.5.5,6.672,6.672,0,0,1-.706,2.995.5.5,0,0,0,.446.726Z" fill="#cfd8dc"/>
        <path d="M10.76,11.78H4.24a.5.5,0,0,0-.446.726A6.667,6.667,0,0,1,4.5,15.5.5.5,0,0,0,5,16h5a.5.5,0,0,0,.5-.5,6.667,6.667,0,0,1,.706-2.994.5.5,0,0,0-.446-.726Z" fill="#cfd8dc"/>
      </g>
      <rect x="3" y="3" width="9" height="10" rx="2" ry="2" fill="#37474f"/>
      <rect x="4" y="4" width="7" height="8" rx="1" ry="1" fill="#263238"/>
    </g>
    <path d="M9.278,8.735a2.457,2.457,0,0,1-1.087-.248.222.222,0,0,0-.3.1l-.16.331A3.128,3.128,0,0,1,6.579,7.767l.331-.16a.222.222,0,0,0,.1-.3,2.453,2.453,0,0,1-.248-1.087A.222.222,0,0,0,6.543,6H5.722a.222.222,0,0,0-.222.222A3.782,3.782,0,0,0,9.278,10,.222.222,0,0,0,9.5,9.778v-.82A.222.222,0,0,0,9.278,8.735Z" fill="#4caf50"/>
  </g>
</svg>
