<svg xmlns="http://www.w3.org/2000/svg" viewBox="0 0 16 16">
  <title>speech-bubble</title>
  <g>
    <path d="M10.955,15.294l-1.89-4.17a.5.5,0,0,0-.632-.262l-3.11,1.17a.5.5,0,0,0-.081.9l5,3a.5.5,0,0,0,.712-.635Z" fill="#2196f3"/>
    <path d="M13.576,9.006l-5.83-.9a.5.5,0,0,0-.513.251l-2.17,3.9a.5.5,0,0,0,.613.711l8-3a.5.5,0,0,0-.1-.962Z" fill="#64b5f6"/>
    <path d="M15.9,1.206a.5.5,0,0,0-.371-.2l-15-1A.529.529,0,0,0,.158.135.5.5,0,0,0,0,.5v7a.5.5,0,0,0,.424.494l13,2A.51.51,0,0,0,13.5,10a.5.5,0,0,0,.485-.379l2-8A.5.5,0,0,0,15.9,1.206Z" fill="#2196f3"/>
  </g>
</svg>
