<svg xmlns="http://www.w3.org/2000/svg" viewBox="0 0 16 16">
  <title>storm</title>
  <g>
    <path d="M13,5h-.1A5,5,0,0,0,3.416,4,3.5,3.5,0,0,0,3.5,11H13a3,3,0,0,0,0-6Z" fill="#e3f2fd"/>
    <g>
      <path d="M13.911,12.216a.519.519,0,0,0-.822,0A5.888,5.888,0,0,0,12,14.5a1.5,1.5,0,0,0,3,0A5.888,5.888,0,0,0,13.911,12.216Z" fill="#2196f3"/>
      <path d="M9.089,12.216A5.882,5.882,0,0,0,8,14.5a1.5,1.5,0,0,0,3,0,5.888,5.888,0,0,0-1.089-2.284A.519.519,0,0,0,9.089,12.216Z" fill="#2196f3"/>
    </g>
    <path d="M5.411,11.215A.5.5,0,0,0,5,11H4V8.5a.5.5,0,0,0-.968-.176l-1.5,4A.5.5,0,0,0,2,13H3v2.5a.5.5,0,0,0,.411.492A.563.563,0,0,0,3.5,16a.5.5,0,0,0,.468-.324l1.5-4A.5.5,0,0,0,5.411,11.215Z" fill="#ffc107"/>
  </g>
</svg>
