<svg xmlns="http://www.w3.org/2000/svg" viewBox="0 0 16 16">
  <title>tags</title>
  <g>
    <path d="M14.854,6.646l-6.5-6.5A.5.5,0,0,0,8,0H2.5A.5.5,0,0,0,2,.5V6a.5.5,0,0,0,.16.366l7,6.5A.5.5,0,0,0,9.5,13h.021a.5.5,0,0,0,.349-.164l5-5.5A.5.5,0,0,0,14.854,6.646Z" fill="#1976d2"/>
    <path d="M12.854,9.646l-6.5-6.5A.5.5,0,0,0,6,3H.5a.5.5,0,0,0-.5.5V9a.5.5,0,0,0,.16.366l7,6.5A.5.5,0,0,0,7.5,16h.021a.5.5,0,0,0,.349-.164l5-5.5A.5.5,0,0,0,12.854,9.646Z" fill="#2196f3"/>
    <circle cx="3.5" cy="6.5" r="1.5" fill="#fafafa"/>
  </g>
</svg>
