<svg xmlns="http://www.w3.org/2000/svg" viewBox="0 0 16 16">
  <title>team</title>
  <g>
    <circle cx="13" cy="2" r="2" fill="#90a4ae"/>
    <circle cx="3" cy="2" r="2" fill="#90a4ae"/>
    <circle cx="8" cy="2" r="2" fill="#455a64"/>
    <path d="M10.542,5.9A1,1,0,0,0,9.548,5H9a.5.5,0,0,0-.354.146L8,5.792l-.646-.646A.5.5,0,0,0,7,5H6.453a.993.993,0,0,0-.994.887L5,9.437A.5.5,0,0,0,5.5,10h.54l.418,5.1a1,1,0,0,0,1,.9H8.547a1,1,0,0,0,1-.909L9.961,10H10.5a.5.5,0,0,0,.5-.563Z" fill="#455a64"/>
    <g>
      <path d="M4.372,10.488a1.49,1.49,0,0,1-.36-1.174L4.467,5.76A1.9,1.9,0,0,1,4.7,5.028.956.956,0,0,0,4.548,5H4a.5.5,0,0,0-.354.146L3,5.792l-.646-.646A.5.5,0,0,0,2,5H1.453a.993.993,0,0,0-.994.887L0,9.437A.5.5,0,0,0,.5,10h.54l.418,4.1a1,1,0,0,0,1,.9H3.547a1,1,0,0,0,1-.909l.332-3.245A1.475,1.475,0,0,1,4.372,10.488Z" fill="#90a4ae"/>
      <path d="M15.542,5.9a1,1,0,0,0-.994-.9H14a.5.5,0,0,0-.354.146L13,5.792l-.646-.646A.5.5,0,0,0,12,5h-.548a.96.96,0,0,0-.16.03,2,2,0,0,1,.242.755l.453,3.524a1.5,1.5,0,0,1-.366,1.186,1.458,1.458,0,0,1-.5.352l.332,3.253a1,1,0,0,0,1,.9h1.095a1,1,0,0,0,1-.909L14.961,10H15.5a.5.5,0,0,0,.5-.563Z" fill="#90a4ae"/>
    </g>
  </g>
</svg>
