<svg xmlns="http://www.w3.org/2000/svg" viewBox="0 0 16 16">
  <title>twitter</title>
  <path d="M16,3.539a6.841,6.841,0,0,1-1.89.518,3.268,3.268,0,0,0,1.443-1.813,6.572,6.572,0,0,1-2.08.794A3.281,3.281,0,0,0,7.8,5.281a3.384,3.384,0,0,0,.076.748A9.281,9.281,0,0,1,1.114,2.6,3.281,3.281,0,0,0,2.122,6.982a3.239,3.239,0,0,1-1.482-.4v.036A3.294,3.294,0,0,0,3.269,9.836a3.214,3.214,0,0,1-.861.109,2.879,2.879,0,0,1-.621-.056,3.312,3.312,0,0,0,3.065,2.285,6.59,6.59,0,0,1-4.067,1.4A6.139,6.139,0,0,1,0,13.528,9.239,9.239,0,0,0,5.032,15a9.272,9.272,0,0,0,9.336-9.334c0-.145-.005-.285-.012-.424A6.558,6.558,0,0,0,16,3.539Z" fill="#03a9f4"/>
</svg>
