<svg xmlns="http://www.w3.org/2000/svg" viewBox="0 0 16 16">
  <title>vegetarian</title>
  <g>
    <path d="M12.245,3.01a3,3,0,0,0-4.49,0A3,3,0,0,0,5.6,7.8.5.5,0,0,0,6,8h8a.5.5,0,0,0,.4-.2A3,3,0,0,0,12.245,3.01Z" fill="#4caf50"/>
    <path d="M10,8a.5.5,0,0,1-.5-.5v-2a.5.5,0,0,1,1,0v2A.5.5,0,0,1,10,8Z" fill="#43a047"/>
    <path d="M10,8a.5.5,0,0,1-.3-.1l-2-1.5a.5.5,0,0,1,.6-.8l2,1.5A.5.5,0,0,1,10,8Z" fill="#43a047"/>
    <path d="M10,8a.5.5,0,0,1-.3-.9l2-1.5a.5.5,0,1,1,.6.8l-2,1.5A.5.5,0,0,1,10,8Z" fill="#43a047"/>
    <path d="M6.5,1a3.5,3.5,0,0,0,0,7A.5.5,0,0,0,7,7.5v-6A.5.5,0,0,0,6.5,1Z" fill="#f44336"/>
    <path d="M2.023,3.464a3.5,3.5,0,0,0,4.95,4.95.5.5,0,0,0,0-.707L2.73,3.464A.5.5,0,0,0,2.023,3.464Z" fill="#ffc107"/>
    <path d="M15.5,7H.5a.5.5,0,0,0-.5.5,7.53,7.53,0,0,0,5,6.953V15.5a.5.5,0,0,0,.5.5h5a.5.5,0,0,0,.5-.5V14.453A7.529,7.529,0,0,0,16,7.5.5.5,0,0,0,15.5,7Z" fill="#eceff1"/>
  </g>
</svg>
