<svg xmlns="http://www.w3.org/2000/svg" viewBox="0 0 16 16">
  <title>vr-headset</title>
  <g>
    <path d="M14.447,9.777,13.612,8.1l-1.061-4.39A6,6,0,1,0,2.373,9.816,2.578,2.578,0,0,1,3,11.42V14.5a.5.5,0,0,0,.418.493l6,1A.465.465,0,0,0,9.5,16a.5.5,0,0,0,.5-.5V13.59l1.838.3A1,1,0,0,0,13,12.91V10.5h1a.5.5,0,0,0,.447-.723Z" fill="#455a64"/>
    <path d="M8,7H1A1,1,0,0,1,0,6H0A1,1,0,0,1,1,5H8" fill="#0097a7"/>
    <path d="M14.823,3.119a.506.506,0,0,0-.405-.112l-6,1A.5.5,0,0,0,8,4.5v3a.5.5,0,0,0,.418.493l6,1A.517.517,0,0,0,14.5,9a.5.5,0,0,0,.5-.5v-5A.5.5,0,0,0,14.823,3.119Z" fill="#00bcd4"/>
  </g>
</svg>
