<svg width="0" height="0" class="hidden">
  <symbol xmlns="http://www.w3.org/2000/svg" viewBox="0 0 16 16" id="chevron">
    <title>taxi</title>
    <g>
      <path d="M1.5,7.5h13a1,1,0,0,1,1,1v4a0,0,0,0,1,0,0H.5a0,0,0,0,1,0,0v-4a1,1,0,0,1,1-1Z" fill="none" stroke="#000" stroke-linecap="round" stroke-linejoin="round"></path>
      <path d="M1.5,7.5,3.249,3.129A1,1,0,0,1,4.177,2.5h7.646a1,1,0,0,1,.928.629L14.5,7.5" fill="none" stroke="#000" stroke-linecap="round" stroke-linejoin="round"></path>
      <polyline points="6.5 2.5 6.5 0.5 9.5 0.5 9.5 2.5" fill="none" stroke="#000" stroke-linecap="round" stroke-linejoin="round"></polyline>
      <circle cx="3.5" cy="10" r="1" fill="none" stroke="#000" stroke-linecap="round" stroke-linejoin="round"></circle>
      <circle cx="12.5" cy="10" r="1" fill="none" stroke="#000" stroke-linecap="round" stroke-linejoin="round"></circle>
      <polyline points="3.5 12.5 3.5 14.5 1.5 14.5 1.5 12.5" fill="none" stroke="#000" stroke-linecap="round" stroke-linejoin="round"></polyline>
      <polyline points="14.5 12.5 14.5 14.5 12.5 14.5 12.5 12.5" fill="none" stroke="#000" stroke-linecap="round" stroke-linejoin="round"></polyline>
      <polygon points="6 9 7 11 9 11 10 9 6 9" fill="none" stroke="#000" stroke-linecap="round" stroke-linejoin="round"></polygon>
    </g>
  </symbol>
  <symbol xmlns="http://www.w3.org/2000/svg" viewBox="0 0 16 16" id="clock">
    <title>support</title>
    <g>
      <path d="M1.02,11.51l2.39-.76a9.266,9.266,0,0,0,1.63,3.13L3.13,15.5a12.009,12.009,0,0,1,0-15L5.04,2.12A9.266,9.266,0,0,0,3.41,5.25L1.02,4.49" fill="none" stroke="#000" stroke-linecap="round" stroke-linejoin="round"></path>
      <path d="M7.5,14.32A6.162,6.162,0,0,0,9,14.5a6.5,6.5,0,0,0,0-13,6.162,6.162,0,0,0-1.5.18" fill="none" stroke="#000" stroke-linecap="round" stroke-linejoin="round"></path>
      <path d="M8.5,9.5h-2v-1a1,1,0,0,1,1-1h0a1,1,0,0,0,1-1h0a1,1,0,0,0-1-1h-1" fill="none" stroke="#000" stroke-linecap="round" stroke-linejoin="round"></path>
      <line x1="12.5" y1="5.5" x2="12.5" y2="9.5" fill="none" stroke="#000" stroke-linecap="round" stroke-linejoin="round"></line>
      <polyline points="11 5.5 10.5 7.5 12.5 7.5" fill="none" stroke="#000" stroke-linecap="round" stroke-linejoin="round"></polyline>
    </g>
  </symbol>
  <symbol xmlns="http://www.w3.org/2000/svg" viewBox="0 0 16 16" id="easy">
    <title>beer</title>
    <g>
      <path d="M11.5,5.31V14A1.5,1.5,0,0,1,10,15.5H3A1.5,1.5,0,0,1,1.5,14V5.31" fill="none" stroke="#000" stroke-linecap="round" stroke-linejoin="round"></path>
      <path d="M11.5,6.5h2a1,1,0,0,1,1,1v4a1,1,0,0,1-1,1h-2" fill="none" stroke="#000" stroke-linecap="round" stroke-linejoin="round"></path>
      <path d="M8.49,2.7a1.275,1.275,0,0,0,.01-.2,2,2,0,0,0-4,0,1.275,1.275,0,0,0,.01.2A1.972,1.972,0,0,0,3,2,2,2,0,0,0,3,6a1.679,1.679,0,0,0,.5-.07V7.5a1,1,0,0,0,2,0V5.81A1.976,1.976,0,0,0,7,6.5a2.033,2.033,0,0,0,1.72-.97A1.94,1.94,0,0,0,10,6a2,2,0,0,0,0-4A1.972,1.972,0,0,0,8.49,2.7Z" fill="none" stroke="#000" stroke-linecap="round" stroke-linejoin="round"></path>
      <line x1="8.5" y1="8.5" x2="8.5" y2="12.5" fill="none" stroke="#000" stroke-linecap="round" stroke-linejoin="round"></line>
      <line x1="4.5" y1="8.5" x2="4.5" y2="12.5" fill="none" stroke="#000" stroke-linecap="round" stroke-linejoin="round"></line>
    </g>
  </symbol>
  <symbol xmlns="http://www.w3.org/2000/svg" viewBox="0 0 16 16" id="growth">
    <title>isometric-graph</title>
    <g>
      <polygon points="4.5 2.5 0.5 2.5 2.5 0.5 6.5 0.5 4.5 2.5" fill="none" stroke="#000" stroke-linecap="round" stroke-linejoin="round"></polygon>
      <polygon points="8.5 6.5 4.5 6.5 6.5 4.5 10.5 4.5 8.5 6.5" fill="none" stroke="#000" stroke-linecap="round" stroke-linejoin="round"></polygon>
      <polygon points="12.5 10.5 8.5 10.5 10.5 8.5 14.5 8.5 12.5 10.5" fill="none" stroke="#000" stroke-linecap="round" stroke-linejoin="round"></polygon>
      <polyline points="14.5 13.5 12.5 15.5 0.5 15.5" fill="none" stroke="#000" stroke-linecap="round" stroke-linejoin="round"></polyline>
      <line x1="0.5" y1="2.5" x2="0.5" y2="15.5" fill="none" stroke="#000" stroke-linecap="round" stroke-linejoin="round"></line>
      <line x1="4.5" y1="2.5" x2="4.5" y2="15.5" fill="none" stroke="#000" stroke-linecap="round" stroke-linejoin="round"></line>
      <line x1="8.5" y1="6.5" x2="8.5" y2="15.5" fill="none" stroke="#000" stroke-linecap="round" stroke-linejoin="round"></line>
      <line x1="12.5" y1="10.5" x2="12.5" y2="15.5" fill="none" stroke="#000" stroke-linecap="round" stroke-linejoin="round"></line>
      <line x1="14.5" y1="8.5" x2="14.5" y2="13.5" fill="none" stroke="#000" stroke-linecap="round" stroke-linejoin="round"></line>
      <line x1="10.5" y1="4.5" x2="10.5" y2="8.5" fill="none" stroke="#000" stroke-linecap="round" stroke-linejoin="round"></line>
      <line x1="6.5" y1="0.5" x2="6.5" y2="4.5" fill="none" stroke="#000" stroke-linecap="round" stroke-linejoin="round"></line>
    </g>
  </symbol>
  <symbol xmlns="http://www.w3.org/2000/svg" viewBox="0 0 16 16" id="line">
    <title>message</title>
    <g>
      <path d="M10.6,12.5,8,15.5l-2.5-3H2A1.5,1.5,0,0,1,.5,11V2A1.5,1.5,0,0,1,2,.5H14A1.5,1.5,0,0,1,15.5,2v9A1.5,1.5,0,0,1,14,12.5Z" fill="none" stroke="#000" stroke-linecap="round" stroke-linejoin="round"></path>
      <line x1="4.5" y1="7.5" x2="8.5" y2="7.5" fill="none" stroke="#000" stroke-linecap="round" stroke-linejoin="round"></line>
      <line x1="4.5" y1="4.5" x2="11.5" y2="4.5" fill="none" stroke="#000" stroke-linecap="round" stroke-linejoin="round"></line>
    </g>
  </symbol>
  <symbol xmlns="http://www.w3.org/2000/svg" viewBox="0 0 16 16" id="menu">
    <title>basket</title>
    <g>
      <g>
        <rect x="0.5" y="5.5" width="15" height="2" fill="none" stroke="#000" stroke-linecap="round" stroke-linejoin="round"></rect>
        <polyline points="1.5 7.5 3.5 15.5 12.5 15.5 14.5 7.5" fill="none" stroke="#000" stroke-linecap="round" stroke-linejoin="round"></polyline>
        <line x1="5.5" y1="1.5" x2="3.5" y2="5.5" fill="none" stroke="#000" stroke-linecap="round" stroke-linejoin="round"></line>
        <line x1="10.5" y1="1.5" x2="12.5" y2="5.5" fill="none" stroke="#000" stroke-linecap="round" stroke-linejoin="round"></line>
      </g>
      <line x1="8" y1="10.5" x2="8" y2="13.5" fill="none" stroke="#000" stroke-linecap="round" stroke-linejoin="round"></line>
      <line x1="5.5" y1="10.5" x2="5.5" y2="13.5" fill="none" stroke="#000" stroke-linecap="round" stroke-linejoin="round"></line>
      <line x1="10.5" y1="10.5" x2="10.5" y2="13.5" fill="none" stroke="#000" stroke-linecap="round" stroke-linejoin="round"></line>
    </g>
  </symbol>
  <symbol xmlns="http://www.w3.org/2000/svg" viewBox="0 0 16 16" id="quote">
    <title>discount</title>
    <g>
      <rect x="7.5" y="2.5" width="6" height="2" fill="none" stroke="#000" stroke-linecap="round" stroke-linejoin="round"></rect>
      <path d="M5.5,2.5V1A.5.5,0,0,1,6,.5h9a.5.5,0,0,1,.5.5V13a.5.5,0,0,1-.5.5H12.5" fill="none" stroke="#000" stroke-linecap="round" stroke-linejoin="round"></path>
      <line x1="13" y1="7.5" x2="14" y2="7.5" fill="none" stroke="#000" stroke-linejoin="round"></line>
      <line x1="13" y1="10.5" x2="14" y2="10.5" fill="none" stroke="#000" stroke-linejoin="round"></line>
      <g>
        <circle cx="5" cy="7.5" r="1" fill="none" stroke="#000" stroke-linejoin="round"></circle>
        <circle cx="7" cy="12.5" r="1" fill="none" stroke="#000" stroke-linejoin="round"></circle>
        <line x1="4" y1="12.5" x2="8" y2="7.5" fill="none" stroke="#000" stroke-linecap="round" stroke-linejoin="round"></line>
      </g>
      <circle cx="6" cy="10" r="5.5" fill="none" stroke="#000" stroke-linecap="round" stroke-linejoin="round"></circle>
    </g>
  </symbol>
  <symbol xmlns="http://www.w3.org/2000/svg" viewBox="0 0 16 16" id="search">
    <title>artificial-intelligent</title>
    <g>
      <path d="M12.5,6A5.5,5.5,0,1,0,2.756,9.5a3.028,3.028,0,0,1,.744,1.92V14.5l6,1V13l2.42.4a.5.5,0,0,0,.58-.492V10H14L12.5,7Z" fill="none" stroke="#000" stroke-linecap="round" stroke-linejoin="round"></path>
      <g>
        <rect x="4.5" y="3.5" width="4" height="4" fill="none" stroke="#000" stroke-linecap="round" stroke-linejoin="round"></rect>
        <line x1="5.5" y1="2.5" x2="5.5" y2="3.5" fill="none" stroke="#000" stroke-linecap="round" stroke-linejoin="round"></line>
        <line x1="7.5" y1="2.5" x2="7.5" y2="3.5" fill="none" stroke="#000" stroke-linecap="round" stroke-linejoin="round"></line>
        <line x1="5.5" y1="7.5" x2="5.5" y2="8.5" fill="none" stroke="#000" stroke-linecap="round" stroke-linejoin="round"></line>
        <line x1="7.5" y1="7.5" x2="7.5" y2="8.5" fill="none" stroke="#000" stroke-linecap="round" stroke-linejoin="round"></line>
        <line x1="3.5" y1="6.5" x2="4.5" y2="6.5" fill="none" stroke="#000" stroke-linecap="round" stroke-linejoin="round"></line>
        <line x1="3.5" y1="4.5" x2="4.5" y2="4.5" fill="none" stroke="#000" stroke-linecap="round" stroke-linejoin="round"></line>
        <line x1="8.5" y1="6.5" x2="9.5" y2="6.5" fill="none" stroke="#000" stroke-linecap="round" stroke-linejoin="round"></line>
        <line x1="8.5" y1="4.5" x2="9.5" y2="4.5" fill="none" stroke="#000" stroke-linecap="round" stroke-linejoin="round"></line>
      </g>
    </g>
  </symbol>
  <symbol xmlns="http://www.w3.org/2000/svg" viewBox="0 0 16 16" id="snap">
    <title>camera-shutter</title>
    <g>
      <circle cx="8" cy="8" r="7.5" fill="none" stroke="#000" stroke-linecap="round" stroke-linejoin="round"></circle>
      <polygon points="9.375 5.5 6.625 5.5 5.25 8 6.625 10.5 9.375 10.5 10.75 8 9.375 5.5" fill="none" stroke="#000" stroke-linecap="round" stroke-linejoin="round"></polygon>
      <line x1="6.62" y1="10.5" x2="0.94" y2="10.5" fill="none" stroke="#000" stroke-linecap="round" stroke-linejoin="round"></line>
      <line x1="9.38" y1="10.5" x2="6.7" y2="15.38" fill="none" stroke="#000" stroke-linecap="round" stroke-linejoin="round"></line>
      <line x1="13.53" y1="13.05" x2="10.75" y2="8" fill="none" stroke="#000" stroke-linecap="round" stroke-linejoin="round"></line>
      <line x1="5.25" y1="8" x2="2.47" y2="2.95" fill="none" stroke="#000" stroke-linecap="round" stroke-linejoin="round"></line>
      <line x1="9.31" y1="0.62" x2="6.63" y2="5.5" fill="none" stroke="#000" stroke-linecap="round" stroke-linejoin="round"></line>
      <line x1="15.06" y1="5.5" x2="9.38" y2="5.5" fill="none" stroke="#000" stroke-linecap="round" stroke-linejoin="round"></line>
    </g>
  </symbol>
  <symbol xmlns="http://www.w3.org/2000/svg" viewBox="0 0 16 16" id="tick">
    <title>tobacco-pipe</title>
    <g>
      <path d="M3,14.5a2.175,2.175,0,0,0,.26-.01C10,14.5,11.88,5.66,15.5,5.5v-1c-4.5,0-6.344,6.938-10,6.9V8.5H.5V12A2.5,2.5,0,0,0,3,14.5a2.175,2.175,0,0,0,.26-.01" fill="none" stroke="#000" stroke-linecap="round" stroke-linejoin="round"></path>
      <path d="M2.215,5.785a3.928,3.928,0,0,0,1,.715l0,0,.013,0A1.311,1.311,0,0,1,3.3,4.93C3.775,4.421,4.5,4.047,4.5,3A2.724,2.724,0,0,0,2.786.5l0,0-.01,0A2.263,2.263,0,0,1,3,1.375C3,2.376,1.5,2.5,1.5,4A2.42,2.42,0,0,0,2.215,5.785Z" fill="none" stroke="#000" stroke-linecap="round" stroke-linejoin="round"></path>
    </g>
  </symbol>
  <symbol xmlns="http://www.w3.org/2000/svg" viewBox="0 0 16 16" id="wordpress">
    <title>email-document</title>
    <g>
      <path d="M13.5,4.17l2,1.33V15a.5.5,0,0,1-.5.5H1A.5.5,0,0,1,.5,15V5.5l2-1.33" fill="none" stroke="#000" stroke-linecap="round" stroke-linejoin="round"></path>
      <line x1="15.5" y1="6" x2="9.36" y2="10.5" fill="none" stroke="#000" stroke-linecap="round" stroke-linejoin="round"></line>
      <line x1="6.64" y1="10.5" x2="0.5" y2="6" fill="none" stroke="#000" stroke-linecap="round" stroke-linejoin="round"></line>
      <polyline points="0.5 15 8 9.5 15.5 15" fill="none" stroke="#000" stroke-linecap="round" stroke-linejoin="round"></polyline>
      <path d="M2.5,7.47V1A.5.5,0,0,1,3,.5H13a.5.5,0,0,1,.5.5V7.47" fill="none" stroke="#000" stroke-linecap="round" stroke-linejoin="round"></path>
      <line x1="4.5" y1="2.5" x2="11.5" y2="2.5" fill="none" stroke="#000" stroke-linecap="round" stroke-linejoin="round"></line>
      <line x1="4.5" y1="4.5" x2="11.5" y2="4.5" fill="none" stroke="#000" stroke-linecap="round" stroke-linejoin="round"></line>
      <line x1="4.5" y1="6.5" x2="8.5" y2="6.5" fill="none" stroke="#000" stroke-linecap="round" stroke-linejoin="round"></line>
    </g>
  </symbol>
</svg>