<svg xmlns="http://www.w3.org/2000/svg" viewBox="0 0 16 16">
  <title>3d-glass</title>
  <path d="M16,3.5A2.5,2.5,0,0,0,13.5,1h-1a.5.5,0,0,0,0,1h1A1.5,1.5,0,0,1,15,3.5V8H1V3.5A1.5,1.5,0,0,1,2.5,2h1a.5.5,0,0,0,0-1h-1A2.5,2.5,0,0,0,0,3.5v5H0v6a.5.5,0,0,0,.5.5H6a.5.5,0,0,0,.485-.379L7.39,11H8.609l.905,3.621A.5.5,0,0,0,10,15h5.5a.5.5,0,0,0,.5-.5v-6h0ZM5.485,10.621l-.5,2A.5.5,0,0,1,4.5,13h-2a.5.5,0,0,1-.5-.5v-2a.5.5,0,0,1,.5-.5H5a.5.5,0,0,1,.485.621ZM14,12.5a.5.5,0,0,1-.5.5h-2a.5.5,0,0,1-.485-.379l-.5-2A.5.5,0,0,1,11,10h2.5a.5.5,0,0,1,.5.5Z"/>
</svg>
