<svg xmlns="http://www.w3.org/2000/svg" viewBox="0 0 16 16">
  <title>android</title>
  <g>
    <path d="M2,6A1,1,0,0,0,1,7v4a1,1,0,0,0,2,0V7A1,1,0,0,0,2,6Z"/>
    <path d="M14,6a1,1,0,0,0-1,1v4a1,1,0,0,0,2,0V7A1,1,0,0,0,14,6Z"/>
    <path d="M4,12.058a1,1,0,0,0,1,1V15a1,1,0,0,0,2,0V13.058H9V15a1,1,0,0,0,2,0V13.058a1,1,0,0,0,1-1v-6H4Z"/>
    <path d="M10.5,1.9l.89-1.079a.5.5,0,1,0-.771-.637L9.642,1.36a3.912,3.912,0,0,0-3.3.011L5.391.188a.5.5,0,1,0-.781.625l.878,1.1A3.975,3.975,0,0,0,4,5h8A3.975,3.975,0,0,0,10.5,1.9ZM7,3.5A.5.5,0,1,1,7.5,3,.5.5,0,0,1,7,3.5Zm2,0A.5.5,0,1,1,9.5,3,.5.5,0,0,1,9,3.5Z"/>
  </g>
</svg>
