<svg xmlns="http://www.w3.org/2000/svg" viewBox="0 0 16 16">
  <title>beer</title>
  <path d="M13.5,6H12V5.485A2.477,2.477,0,0,0,12.5,4,2.5,2.5,0,0,0,8.889,1.761a2.5,2.5,0,0,0-4.777,0A2.492,2.492,0,0,0,1,5.485V14a2,2,0,0,0,2,2h7a2,2,0,0,0,2-2V13h1.5A1.5,1.5,0,0,0,15,11.5v-4A1.5,1.5,0,0,0,13.5,6ZM5,12.5a.5.5,0,0,1-1,0v-3a.5.5,0,0,1,1,0Zm4,0a.5.5,0,0,1-1,0v-3a.5.5,0,0,1,1,0Zm1-7a1.446,1.446,0,0,1-.954-.35.5.5,0,0,0-.75.116,1.555,1.555,0,0,1-2.416.219A.5.5,0,0,0,5,5.81V7.5a.5.5,0,0,1-1,0V5.93a.5.5,0,0,0-.648-.478A1.2,1.2,0,0,1,3,5.5a1.5,1.5,0,0,1,0-3,1.463,1.463,0,0,1,1.126.521A.5.5,0,0,0,5,2.62.8.8,0,0,1,5,2.5a1.5,1.5,0,0,1,3,0,.8.8,0,0,1,0,.12.5.5,0,0,0,.877.4A1.463,1.463,0,0,1,10,2.5a1.5,1.5,0,0,1,0,3Zm4,6a.5.5,0,0,1-.5.5H12V7h1.5a.5.5,0,0,1,.5.5Z"/>
</svg>
