<svg xmlns="http://www.w3.org/2000/svg" viewBox="0 0 16 16">
  <title>camera-shutter</title>
  <g>
    <path d="M2.831,11a5.926,5.926,0,0,0,.926,1.243A5.956,5.956,0,0,0,6.942,13.9L8.534,11Z"/>
    <path d="M8.028,13.995a5.978,5.978,0,0,0,4.214-1.752c.061-.061.1-.134.161-.2L10.75,9.038Z"/>
    <path d="M13.635,6H10.221l2.851,5.185A6,6,0,0,0,13.635,6Z"/>
    <path d="M13.169,5a5.926,5.926,0,0,0-.927-1.243A5.957,5.957,0,0,0,9.069,2.1L7.476,5Z"/>
    <path d="M2.929,4.814A6,6,0,0,0,2.365,10H5.779Z"/>
    <path d="M7.981,2A5.979,5.979,0,0,0,3.757,3.757c-.061.061-.1.134-.161.2L5.25,6.963Z"/>
    <path d="M8,0a8,8,0,1,0,8,8A8.009,8.009,0,0,0,8,0ZM8,15a7,7,0,1,1,7-7A7.008,7.008,0,0,1,8,15Z"/>
  </g>
</svg>
