<svg xmlns="http://www.w3.org/2000/svg" viewBox="0 0 16 16">
  <title>car-key</title>
  <path d="M15.633,12.841a.5.5,0,0,0-.447-.276h-.914V11.65a.5.5,0,0,0-.5-.5h-.914v-.914a.5.5,0,0,0-.146-.354l-3.2-3.2.707-.707a1.5,1.5,0,0,0,0-2.121L7.389,1.025a3.584,3.584,0,0,0-4.95,0L1.025,2.439a3.5,3.5,0,0,0,0,4.95l2.828,2.829a1.5,1.5,0,0,0,2.121,0l.707-.707,3.2,3.2a.5.5,0,0,0,.354.146h.914v.914a.5.5,0,0,0,.5.5h.914v.914a.5.5,0,0,0,.276.447,3.648,3.648,0,0,0,1.48.37,1.664,1.664,0,0,0,1.218-.464C16.474,14.6,15.722,13.019,15.633,12.841ZM4.354,6.475a.5.5,0,0,1-.707,0L2.586,5.414a2,2,0,0,1,0-2.828,2.047,2.047,0,0,1,2.828,0L6.475,3.646a.5.5,0,0,1,0,.707Z"/>
</svg>
