<svg xmlns="http://www.w3.org/2000/svg" viewBox="0 0 16 16">
  <title>chat</title>
  <g>
    <path d="M14.61,12.9A4.981,4.981,0,0,0,16,9.5a5.12,5.12,0,0,0-2-3.961C13.973,9.1,10.621,12,6.5,12H3.718A6.714,6.714,0,0,0,9.5,15h6a.5.5,0,0,0,.354-.854Z"/>
    <path d="M13,5.5C13,2.467,10.084,0,6.5,0S0,2.467,0,5.5A4.978,4.978,0,0,0,1.39,8.9L.146,10.146A.5.5,0,0,0,.5,11h6C10.084,11,13,8.533,13,5.5ZM3.5,4h6a.5.5,0,0,1,0,1h-6a.5.5,0,0,1,0-1ZM3,6.5A.5.5,0,0,1,3.5,6h4a.5.5,0,0,1,0,1h-4A.5.5,0,0,1,3,6.5Z"/>
  </g>
</svg>
