<svg xmlns="http://www.w3.org/2000/svg" viewBox="0 0 16 16">
  <title>christmas-tree</title>
  <path d="M13.94,12.26l-.79-1.45-.97-1.77-.394-.718c.311-.113.621-.23.924-.372a.494.494,0,0,0,.21-.72l-.91-1.42L10.88,4.06,8.42.23a.514.514,0,0,0-.84,0L5.12,4.06,3.99,5.81,3.08,7.23a.494.494,0,0,0,.21.72c.3.142.613.259.924.372L3.82,9.04l-.97,1.77-.79,1.45a.51.51,0,0,0,.29.72,21.514,21.514,0,0,0,4.15.93V15.5A.5.5,0,0,0,7,16H9a.5.5,0,0,0,.5-.5V13.91a21.514,21.514,0,0,0,4.15-.93.51.51,0,0,0,.29-.72ZM5.52,11a.5.5,0,0,1-.5-.5.5.5,0,0,1,.5-.5h.01a.5.5,0,0,1,0,1Zm2,1a.5.5,0,0,1-.5-.5.5.5,0,0,1,.5-.5h.01a.5.5,0,0,1,0,1Zm0-5a.5.5,0,0,1-.5-.5.5.5,0,0,1,.5-.5h.01a.5.5,0,0,1,0,1Zm0-2a.5.5,0,0,1-.5-.5.5.5,0,0,1,.5-.5h.01a.5.5,0,0,1,0,1Zm2,6a.5.5,0,0,1-.5-.5.5.5,0,0,1,.5-.5h.01a.5.5,0,0,1,0,1Zm0-5a.5.5,0,0,1-.5-.5.5.5,0,0,1,.5-.5h.01a.5.5,0,0,1,0,1Zm2,6a.5.5,0,0,1-.5-.5.5.5,0,0,1,.5-.5h.01a.5.5,0,0,1,0,1Z"/>
</svg>
