<svg xmlns="http://www.w3.org/2000/svg" viewBox="0 0 16 16">
  <title>drone</title>
  <path d="M15.5,0h-4a.5.5,0,0,0,0,1H13V2h-.5a.5.5,0,0,0-.5.5v1a1.483,1.483,0,0,0,.092.5H3.908A1.483,1.483,0,0,0,4,3.5v-1A.5.5,0,0,0,3.5,2H3V1H4.5a.5.5,0,0,0,0-1H.5a.5.5,0,0,0,0,1H2V2H1.5a.5.5,0,0,0-.5.5v1A1.5,1.5,0,0,0,2.5,5H4.11l.508,2.03A3.5,3.5,0,0,0,1.53,9.812L1.01,12.4a.5.5,0,0,0,.392.589.491.491,0,0,0,.1.01.5.5,0,0,0,.49-.4l.52-2.591a2.5,2.5,0,0,1,2.378-2A1.486,1.486,0,0,0,6.281,9H7v1.184a3,3,0,1,0,2,0V9h.719a1.488,1.488,0,0,0,1.393-.994,2.5,2.5,0,0,1,2.378,2l.52,2.59a.5.5,0,0,0,.489.4.492.492,0,0,0,.1-.01.5.5,0,0,0,.392-.589l-.52-2.589A3.5,3.5,0,0,0,11.383,7.03L11.891,5H13.5A1.5,1.5,0,0,0,15,3.5v-1a.5.5,0,0,0-.5-.5H14V1h1.5a.5.5,0,0,0,0-1Zm-7,11a.5.5,0,1,1-.5-.5A.5.5,0,0,1,8.5,11Zm1,2.5A1.5,1.5,0,1,1,8,12,1.5,1.5,0,0,1,9.5,13.5Z"/>
</svg>
