<svg xmlns="http://www.w3.org/2000/svg" viewBox="0 0 16 16">
  <title>egg</title>
  <g>
    <path d="M4,7A1,1,0,0,0,3,8,.5.5,0,0,0,4,8,.5.5,0,0,0,4,7Z"/>
    <path d="M13.086,1.824A8.048,8.048,0,0,0,6.4.156,7.962,7.962,0,0,0,.156,6.4,8.007,8.007,0,0,0,8,16a2.7,2.7,0,0,0,2.7-2.44l.121-1.211a1.716,1.716,0,0,1,1.531-1.531L13.56,10.7A2.7,2.7,0,0,0,16,8,7.98,7.98,0,0,0,13.086,1.824ZM4.5,11A2.5,2.5,0,1,1,7,8.5,2.5,2.5,0,0,1,4.5,11Zm6-3A2.5,2.5,0,1,1,13,5.5,2.5,2.5,0,0,1,10.5,8Z"/>
    <path d="M10,4A1,1,0,0,0,9,5a.5.5,0,0,0,1,0,.5.5,0,0,0,0-1Z"/>
  </g>
</svg>
