<svg xmlns="http://www.w3.org/2000/svg" viewBox="0 0 16 16">
  <title>email-document</title>
  <g>
    <polygon points="16 13.992 16 7.028 10.606 10.582 16 13.992"/>
    <polygon points="0 7.028 0 13.992 5.394 10.582 0 7.028"/>
    <path d="M8.275,12.118a.5.5,0,0,1-.55,0L6.31,11.185.031,15.156A.987.987,0,0,0,1,16H15a.987.987,0,0,0,.968-.844L9.69,11.186Z"/>
    <path d="M14,3.73V1a1,1,0,0,0-1-1H3A1,1,0,0,0,2,1V3.73L0,5v.83L2,7.15l.5.33.5.33V1H13V7.81l.5-.33.5-.33,2-1.32V5Z"/>
    <path d="M4.5,3h7a.5.5,0,0,0,0-1h-7a.5.5,0,0,0,0,1Z"/>
    <path d="M4.5,5h7a.5.5,0,0,0,0-1h-7a.5.5,0,0,0,0,1Z"/>
  </g>
</svg>
