<svg xmlns="http://www.w3.org/2000/svg" viewBox="0 0 16 16">
  <title>fidget-spinner</title>
  <g>
    <path d="M14.261,8.647a3.122,3.122,0,0,0-.713-.3.546.546,0,0,0-.068-.014A3.531,3.531,0,0,1,10.9,3.778v0c0-.021.009-.041.012-.061A2.887,2.887,0,0,0,11,3,3,3,0,0,0,5,3a2.423,2.423,0,0,0,.085.664.5.5,0,0,0,.017.113A3.532,3.532,0,0,1,2.524,8.334a.526.526,0,0,0-.072.015,3.109,3.109,0,0,0-.714.3,3.02,3.02,0,0,0-1.1,4.1,2.973,2.973,0,0,0,4.687.654.366.366,0,0,0,.036-.032,3.537,3.537,0,0,1,5.283,0,.371.371,0,0,0,.036.032,3,3,0,1,0,3.583-4.756Zm-10.274,3.9a1.487,1.487,0,0,1-.748.2,1.528,1.528,0,0,1-.391-.052,1.5,1.5,0,0,1-.362-2.748h0a1.5,1.5,0,1,1,1.5,2.6ZM8,1.5A1.5,1.5,0,1,1,6.5,3,1.5,1.5,0,0,1,8,1.5Zm0,9a2,2,0,1,1,2-2A2,2,0,0,1,8,10.5ZM14.062,12a1.5,1.5,0,0,1-1.3.75,1.483,1.483,0,0,1-.747-.2,1.5,1.5,0,0,1-.548-2.049,1.5,1.5,0,0,1,2.048-.549A1.5,1.5,0,0,1,14.062,12Z"/>
    <path d="M14.718,6.073a.5.5,0,0,0,.965-.266A7.774,7.774,0,0,0,13.747,2.45a.5.5,0,0,0-.715.7A6.759,6.759,0,0,1,14.718,6.073Z"/>
    <path d="M.667,6.422a.5.5,0,0,0,.615-.349A6.769,6.769,0,0,1,2.967,3.149a.5.5,0,1,0-.715-.7A7.765,7.765,0,0,0,.318,5.807.5.5,0,0,0,.667,6.422Z"/>
    <path d="M9.7,14.785a6.822,6.822,0,0,1-3.39,0,.5.5,0,0,0-.251.969,7.812,7.812,0,0,0,3.891,0,.5.5,0,1,0-.25-.969Z"/>
    <path d="M12.8,6.622a.5.5,0,0,0,.482.368.5.5,0,0,0,.132-.018.5.5,0,0,0,.351-.614A5.868,5.868,0,0,0,12.31,3.832a.5.5,0,0,0-.719.7A4.859,4.859,0,0,1,12.8,6.622Z"/>
    <path d="M2.589,6.973a.492.492,0,0,0,.132.018A.5.5,0,0,0,3.2,6.622,4.865,4.865,0,0,1,4.409,4.528a.5.5,0,0,0-.718-.7A5.859,5.859,0,0,0,2.238,6.359.5.5,0,0,0,2.589,6.973Z"/>
    <path d="M6.546,13.814a5.791,5.791,0,0,0,2.908,0,.5.5,0,0,0-.248-.969,4.762,4.762,0,0,1-2.412,0,.5.5,0,0,0-.248.969Z"/>
  </g>
</svg>
