<svg xmlns="http://www.w3.org/2000/svg" viewBox="0 0 16 16">
  <title>gift-card</title>
  <g>
    <path d="M7.354,11.354a.5.5,0,0,1-.707-.707L8.293,9H0v4a1,1,0,0,0,1,1H9V9.707ZM5.5,12h-3a.5.5,0,0,1,0-1h3a.5.5,0,0,1,0,1Z"/>
    <path d="M15,3H10V7.112c.561-.673,1.214-1.447,1.439-1.672a1.5,1.5,0,0,1,2.121,2.121A2.935,2.935,0,0,1,12.729,8H16V4A1,1,0,0,0,15,3Z"/>
    <path d="M6.5,6a.5.5,0,0,0-.354.853,10.991,10.991,0,0,0,1.93.712c-.522-.625-1.05-1.247-1.223-1.419A.5.5,0,0,0,6.5,6Z"/>
    <path d="M5.439,7.561A1.5,1.5,0,0,1,7.561,5.439c.225.225.878,1,1.439,1.672V3H1A1,1,0,0,0,0,4V8H6.271A2.932,2.932,0,0,1,5.439,7.561Z"/>
    <path d="M12.354,10.646a.5.5,0,1,1-.707.707L10,9.707V14h5a1,1,0,0,0,1-1V9H10.707ZM15,13h0v0Z"/>
    <path d="M12.854,6.146a.5.5,0,0,0-.707,0c-.172.172-.7.794-1.222,1.418a10.649,10.649,0,0,0,1.94-.722A.5.5,0,0,0,12.854,6.146Z"/>
  </g>
</svg>
