<svg xmlns="http://www.w3.org/2000/svg" viewBox="0 0 16 16">
  <title>health-report</title>
  <g>
    <path d="M5.5,4h5a.5.5,0,0,0,.5-.5v-2a.5.5,0,0,0-.5-.5H9.414A1.5,1.5,0,0,0,6.585,1H5.5a.5.5,0,0,0-.5.5v2A.5.5,0,0,0,5.5,4Z"/>
    <path d="M10.468,13.676A.5.5,0,0,1,10,14H9.979a.5.5,0,0,1-.46-.362l-1.6-5.594L6.464,11.686A.5.5,0,0,1,5.6,11.8L4.25,10H2v5a.99.99,0,0,0,1,1H13a.99.99,0,0,0,1-1V10H11.847Z"/>
    <path d="M13,2H12V3.5A1.5,1.5,0,0,1,10.5,5h-5A1.5,1.5,0,0,1,4,3.5V2H3A1,1,0,0,0,2,3V9H4.5a.5.5,0,0,1,.4.2l.966,1.288L7.536,6.314a.5.5,0,0,1,.945.048L10.064,11.9l.968-2.58A.5.5,0,0,1,11.5,9H14V3A.99.99,0,0,0,13,2Z"/>
  </g>
</svg>
