<svg xmlns="http://www.w3.org/2000/svg" viewBox="0 0 16 16">
  <title>hyperloop</title>
  <g>
    <path d="M15.36,8.534,11.2,4.661A2.515,2.515,0,0,0,9.5,4H3A.5.5,0,0,0,3,5h.5a.5.5,0,0,1,0,1H3a.5.5,0,0,0-.5.5v1A.5.5,0,0,0,3,8h.5a.5.5,0,0,1,0,1H3a.5.5,0,0,0,0,1H5a.5.5,0,0,1,0,1H3a.5.5,0,0,0,0,1H14a2,2,0,0,0,2-2A1.972,1.972,0,0,0,15.36,8.534ZM12,8c-.3,0-.591-.01-.866-.027-.052,0-.1-.008-.152-.012-.234-.017-.462-.038-.674-.067l-.065-.009C7.289,7.471,6.374,6.014,6.1,5H9.5a1.512,1.512,0,0,1,1.017.393L13.319,8Z"/>
    <path d="M3.5,14C2.317,14,1,11.536,1,8S2.317,2,3.5,2c.451,0,.921.36,1.331,1H5.97c-.629-1.242-1.5-2-2.47-2C1.538,1,0,4.075,0,8s1.538,7,3.5,7c.974,0,1.842-.758,2.47-2H4.831C4.421,13.64,3.951,14,3.5,14Z"/>
  </g>
</svg>
