<svg xmlns="http://www.w3.org/2000/svg" viewBox="0 0 16 16">
  <title>id-card</title>
  <g>
    <path d="M15,3H11v.5A1.5,1.5,0,0,1,9.5,5h-3A1.5,1.5,0,0,1,5,3.5V3H1A1,1,0,0,0,0,4v9a.99.99,0,0,0,1,1H15a.99.99,0,0,0,1-1V4A.99.99,0,0,0,15,3ZM4.5,6A1.5,1.5,0,1,1,3,7.5,1.5,1.5,0,0,1,4.5,6ZM7,11.5a.5.5,0,0,1-.5.5h-4a.5.5,0,0,1-.5-.5v-1a.5.5,0,0,1,.265-.441,4.745,4.745,0,0,1,4.471,0A.5.5,0,0,1,7,10.5Zm5.5-.5h-4a.5.5,0,0,1,0-1h4a.5.5,0,0,1,0,1Zm0-2h-4a.5.5,0,0,1,0-1h4a.5.5,0,0,1,0,1Z"/>
    <path d="M6.5,4h3a.5.5,0,0,0,.5-.5V3A2,2,0,0,0,6,3v.5A.5.5,0,0,0,6.5,4Z"/>
  </g>
</svg>
