<svg xmlns="http://www.w3.org/2000/svg" viewBox="0 0 16 16">
  <title>isometric-graph</title>
  <path d="M14.981,8.5a.483.483,0,0,0-.019-.191A.5.5,0,0,0,14.5,8H11V4.5h-.019a.483.483,0,0,0-.019-.191A.5.5,0,0,0,10.5,4H7V.5H6.981A.482.482,0,0,0,6.962.309.5.5,0,0,0,6.5,0h-4a.5.5,0,0,0-.354.146l-2,2A.482.482,0,0,0,.019,2.5H0v13a.5.5,0,0,0,.5.5h12a.5.5,0,0,0,.354-.146l2-2A.5.5,0,0,0,15,13.5v-5ZM5,7H8v8H5Zm4,4h3v4H9Zm3.293-1H9.707l1-1h2.586Zm-4-4H5.707l1-1H9.293ZM2.707,1H5.293l-1,1H1.707ZM1,3H4V15H1Z"/>
</svg>
