<svg xmlns="http://www.w3.org/2000/svg" viewBox="0 0 16 16">
  <title>map-search</title>
  <g>
    <path d="M13.3,11.887A4.53,4.53,0,1,0,11.887,13.3l2.406,2.406a1,1,0,0,0,1.414-1.414Z"/>
    <path d="M15.78.087a.5.5,0,0,0-.466-.05L11,1.762V4.213A5.506,5.506,0,0,1,15,9.5a5.343,5.343,0,0,1-.062.763l.747-.3A.5.5,0,0,0,16,9.5V.5A.5.5,0,0,0,15.78.087Z"/>
    <path d="M5,6.348V0L.314,1.874A.5.5,0,0,0,0,2.339v9a.5.5,0,0,0,.5.5A.488.488,0,0,0,.686,11.8l3.4-1.36A5.4,5.4,0,0,1,5,6.348Z"/>
    <path d="M10,4.025V1.6L6,0V5.261A5.475,5.475,0,0,1,9.5,4C9.669,4,9.835,4.01,10,4.025Z"/>
  </g>
</svg>
