<svg xmlns="http://www.w3.org/2000/svg" viewBox="0 0 16 16">
  <title>map</title>
  <g>
    <path d="M12.5,9a.5.5,0,0,0,.372-.166C13.192,8.477,16,5.3,16,3.5a3.5,3.5,0,0,0-7,0c0,1.8,2.808,4.977,3.128,5.334A.5.5,0,0,0,12.5,9ZM11,3.5A1.5,1.5,0,1,1,12.5,5,1.5,1.5,0,0,1,11,3.5Z"/>
    <path d="M0,6.339V15.5a.5.5,0,0,0,.5.5.488.488,0,0,0,.186-.036L5,14.238V4L.314,5.874A.5.5,0,0,0,0,6.339Z"/>
    <path d="M12.5,10a1.5,1.5,0,0,1-1.116-.5c-.1-.113-.233-.262-.384-.439V16l4.686-1.874A.5.5,0,0,0,16,13.662V6.311A21.707,21.707,0,0,1,13.616,9.5,1.5,1.5,0,0,1,12.5,10Z"/>
    <path d="M6,4V14.238l4,1.6V7.807A13.028,13.028,0,0,1,8.315,4.926Z"/>
  </g>
</svg>
