<svg xmlns="http://www.w3.org/2000/svg" viewBox="0 0 16 16">
  <title>phone</title>
  <path d="M15,0H7A1,1,0,0,0,6,1V12a1,1,0,0,0,1,1H9v.5A1.5,1.5,0,0,1,7.5,15h-3A1.5,1.5,0,0,1,3,13.5V13h.5A1.5,1.5,0,0,0,5,11.5V10.236a1.509,1.509,0,0,0-.158-.671l-.289-.578A.5.5,0,0,1,4.5,8.764V4.236a.5.5,0,0,1,.053-.224l.289-.578A1.507,1.507,0,0,0,5,2.764V1.5A1.5,1.5,0,0,0,3.5,0h-2A1.5,1.5,0,0,0,0,1.5V2.764a1.507,1.507,0,0,0,.158.67l.289.578A.5.5,0,0,1,.5,4.236V8.764a.5.5,0,0,1-.053.223l-.289.578A1.509,1.509,0,0,0,0,10.236V11.5A1.5,1.5,0,0,0,1.5,13H2v.5A2.5,2.5,0,0,0,4.5,16h3A2.5,2.5,0,0,0,10,13.5V13h5a1,1,0,0,0,1-1V1A1,1,0,0,0,15,0ZM8,6H9V7H8ZM8,8H9V9H8Zm0,2H9v1H8Zm3.5,1h-1V10h1Zm0-2h-1V8h1Zm0-2h-1V6h1ZM14,11H13V10h1Zm0-2H13V8h1Zm0-2H13V6h1Zm0-2.5a.5.5,0,0,1-.5.5h-5A.5.5,0,0,1,8,4.5v-2A.5.5,0,0,1,8.5,2h5a.5.5,0,0,1,.5.5Z"/>
</svg>
