<svg xmlns="http://www.w3.org/2000/svg" viewBox="0 0 16 16">
  <title>picture</title>
  <path d="M15,5h-.848l-4.7-3.13A1.484,1.484,0,0,0,9.5,1.5a1.5,1.5,0,0,0-3,0,1.484,1.484,0,0,0,.052.37L1.848,5H1A.99.99,0,0,0,0,6v9a.99.99,0,0,0,1,1H15a.99.99,0,0,0,1-1V6A.99.99,0,0,0,15,5ZM8,1a.5.5,0,1,1-.5.5A.5.5,0,0,1,8,1ZM7.11,2.7a1.473,1.473,0,0,0,1.78,0L12.345,5H3.655ZM2,6H2L13.986,6,14,6c.006,0,.011,0,.017,0H15v4.053L11.839,7.132a.5.5,0,0,0-.678,0L7.067,10.908,4.891,8.188a.518.518,0,0,0-.781,0L1,12.074V6Z"/>
</svg>
