<svg xmlns="http://www.w3.org/2000/svg" viewBox="0 0 16 16">
  <title>rain</title>
  <g>
    <path d="M13,5h-.1A5,5,0,0,0,3.416,4,3.5,3.5,0,0,0,3.5,11H13a3,3,0,0,0,0-6Z"/>
    <path d="M12.089,12.216A5.888,5.888,0,0,0,11,14.5a1.5,1.5,0,0,0,3,0,5.888,5.888,0,0,0-1.089-2.284A.519.519,0,0,0,12.089,12.216Z"/>
    <path d="M7.589,12.216A5.882,5.882,0,0,0,6.5,14.5a1.5,1.5,0,0,0,3,0,5.882,5.882,0,0,0-1.089-2.284A.519.519,0,0,0,7.589,12.216Z"/>
    <path d="M3.089,12.216A5.882,5.882,0,0,0,2,14.5a1.5,1.5,0,0,0,3,0,5.882,5.882,0,0,0-1.089-2.284A.519.519,0,0,0,3.089,12.216Z"/>
  </g>
</svg>
