<svg xmlns="http://www.w3.org/2000/svg" viewBox="0 0 16 16">
  <title>sale-sign</title>
  <g>
    <polygon points="6.39 8 6.61 8 6.5 7.562 6.39 8"/>
    <path d="M15,2H1A1,1,0,0,0,0,3v9a1,1,0,0,0,1,1H15a1,1,0,0,0,1-1V3A1,1,0,0,0,15,2ZM4,8V9a1,1,0,0,1-1,1H2.5a.5.5,0,0,1,0-1H3V8A1,1,0,0,1,2,7V6A1,1,0,0,1,3,5h.5a.5.5,0,0,1,0,1H3V7A1,1,0,0,1,4,8ZM7.621,9.985A.52.52,0,0,1,7.5,10a.5.5,0,0,1-.484-.379L6.86,9H6.14l-.155.621a.5.5,0,1,1-.97-.242l1-4a.519.519,0,0,1,.97,0l1,4A.5.5,0,0,1,7.621,9.985ZM10.5,10h-1A.5.5,0,0,1,9,9.5v-4a.5.5,0,0,1,1,0V9h.5a.5.5,0,0,1,0,1Zm3-3a.5.5,0,0,1,0,1H13V9h.5a.5.5,0,0,1,0,1h-1a.5.5,0,0,1-.5-.5v-4a.5.5,0,0,1,.5-.5h1a.5.5,0,0,1,0,1H13V7Z"/>
  </g>
</svg>
