<svg xmlns="http://www.w3.org/2000/svg" viewBox="0 0 16 16">
  <title>shopping-cart</title>
  <g>
    <path d="M15.884,3.18A.5.5,0,0,0,15.5,3H3.748L3.313,1.371A.5.5,0,0,0,2.83,1H.5a.5.5,0,0,0,0,1H2.446l.43,1.611c0,.006,0,.012,0,.019l1.6,5.98v0l.539,2.017A.5.5,0,0,0,5.5,12h8a.5.5,0,0,0,0-1H5.884L5.6,9.948,14.525,9.5a.5.5,0,0,0,.467-.409l1-5.5A.5.5,0,0,0,15.884,3.18ZM7,7.5a.5.5,0,0,1-1,0v-2a.5.5,0,0,1,1,0Zm3,0a.5.5,0,0,1-1,0v-2a.5.5,0,0,1,1,0Zm3,0a.5.5,0,0,1-1,0v-2a.5.5,0,0,1,1,0Z"/>
    <circle cx="6.5" cy="14.5" r="1.5"/>
    <circle cx="12.5" cy="14.5" r="1.5"/>
  </g>
</svg>
