<svg xmlns="http://www.w3.org/2000/svg" viewBox="0 0 16 16">
  <title>skull</title>
  <path d="M14.859,5.584A7,7,0,1,0,3,11.9V14a2,2,0,0,0,2,2h.5V14.5a.5.5,0,0,1,1,0V16h1V14.5a.5.5,0,0,1,1,0V16h1V14.5a.5.5,0,0,1,1,0V16H11a2,2,0,0,0,2-2V11.9A7.021,7.021,0,0,0,14.859,5.584ZM5,8.5a2,2,0,0,1-.991-3.738,1.454,1.454,0,0,1,1.738.278l.712.712A1.455,1.455,0,0,1,6.738,7.49,2.006,2.006,0,0,1,5,8.5Zm4,4a1,1,0,0,1-1-1c0-.04,0-.093,0-.142,0,.048,0,.1,0,.142a1,1,0,0,1-2,0c0-.552.948-2,1.5-2,.462,0,.5,1.008.5,1.663,0-.655.039-1.663.5-1.663.552,0,1.5,1.448,1.5,2A1,1,0,0,1,9,12.5Zm1.911-4A2,2,0,0,1,9.175,7.49a1.454,1.454,0,0,1,.278-1.738l.712-.712A1.453,1.453,0,0,1,11.9,4.762,2,2,0,0,1,10.912,8.5Z"/>
</svg>
