<svg xmlns="http://www.w3.org/2000/svg" viewBox="0 0 16 16">
  <title>smartwatch</title>
  <g>
    <path d="M9.278,8.735a2.457,2.457,0,0,1-1.087-.248.222.222,0,0,0-.3.1l-.16.331A3.127,3.127,0,0,1,6.579,7.767l.331-.16a.222.222,0,0,0,.1-.3,2.452,2.452,0,0,1-.248-1.087A.222.222,0,0,0,6.543,6h-.82a.222.222,0,0,0-.222.222A3.782,3.782,0,0,0,9.278,10,.222.222,0,0,0,9.5,9.778v-.82A.222.222,0,0,0,9.278,8.735Z"/>
    <path d="M12.5,5H12a2,2,0,0,0-.847-1.629A6.675,6.675,0,0,1,10.5.5.5.5,0,0,0,10,0H5a.5.5,0,0,0-.5.5,6.675,6.675,0,0,1-.653,2.871A2,2,0,0,0,3,5v6a2,2,0,0,0,.847,1.629A6.67,6.67,0,0,1,4.5,15.5.5.5,0,0,0,5,16h5a.5.5,0,0,0,.5-.5,6.67,6.67,0,0,1,.653-2.872A2,2,0,0,0,12,11V7h.5a.5.5,0,0,0,.5-.5v-1A.5.5,0,0,0,12.5,5ZM11,11a1,1,0,0,1-1,1H5a1,1,0,0,1-1-1V5A1,1,0,0,1,5,4h5a1,1,0,0,1,1,1Z"/>
  </g>
</svg>
