<svg xmlns="http://www.w3.org/2000/svg" viewBox="0 0 16 16">
  <title>speech-bubble</title>
  <path d="M15.9,1.206a.5.5,0,0,0-.371-.2l-15-1A.529.529,0,0,0,.158.135.5.5,0,0,0,0,.5v7a.5.5,0,0,0,.424.494l6.458.994L5.063,12.257c-.015.027-.008.059-.018.088A.478.478,0,0,0,5,12.455c0,.018.009.033.01.051a.462.462,0,0,0,.023.12.467.467,0,0,0,.064.148c.011.016.009.037.022.052a.478.478,0,0,0,.086.065c.014.011.02.029.035.038l5,3a.5.5,0,0,0,.712-.635l-1.668-3.68,4.376-1.641h0l.012,0a.471.471,0,0,0,.054-.031.5.5,0,0,0,.082-.048.485.485,0,0,0,.057-.062.288.288,0,0,0,.09-.146.471.471,0,0,0,.026-.06l2-8A.5.5,0,0,0,15.9,1.206Z"/>
</svg>
