<svg xmlns="http://www.w3.org/2000/svg" viewBox="0 0 16 16">
  <title>storm</title>
  <g>
    <path d="M13.089,12.216A5.888,5.888,0,0,0,12,14.5a1.5,1.5,0,0,0,3,0,5.888,5.888,0,0,0-1.089-2.284A.519.519,0,0,0,13.089,12.216Z"/>
    <path d="M9.089,12.216A5.882,5.882,0,0,0,8,14.5a1.5,1.5,0,0,0,3,0,5.888,5.888,0,0,0-1.089-2.284A.519.519,0,0,0,9.089,12.216Z"/>
    <path d="M5,11H4V8.5a.5.5,0,0,0-.968-.176l-1.5,4A.5.5,0,0,0,2,13H3v2.5a.5.5,0,0,0,.411.492A.563.563,0,0,0,3.5,16a.5.5,0,0,0,.468-.324l1.5-4A.5.5,0,0,0,5,11Z"/>
    <path d="M13,5h-.1A5,5,0,0,0,3.416,4,3.484,3.484,0,0,0,1.27,10.175l.825-2.2A1.5,1.5,0,0,1,5,8.5V10a1.5,1.5,0,0,1,1.232.644l0,0A1.5,1.5,0,0,1,6.411,11H13a3,3,0,0,0,0-6Z"/>
  </g>
</svg>
