<svg xmlns="http://www.w3.org/2000/svg" viewBox="0 0 16 16">
  <title>suffle</title>
  <g>
    <path d="M15.82,11.616l-3-2.5A.5.5,0,0,0,12,9.5V11h-.837a1.989,1.989,0,0,1-1.7-.94L6.229,4.88A3.977,3.977,0,0,0,2.837,3H0V5H2.837a1.989,1.989,0,0,1,1.7.94l3.238,5.18A3.979,3.979,0,0,0,11.163,13H12v1.5a.5.5,0,0,0,.5.5.5.5,0,0,0,.32-.116l3-2.5a.5.5,0,0,0,0-.768Z"/>
    <path d="M15.82,3.616l-3-2.5A.5.5,0,0,0,12,1.5V3h-.837A3.977,3.977,0,0,0,7.771,4.88L4.534,10.06a1.99,1.99,0,0,1-1.7.94H0v2H2.837a3.98,3.98,0,0,0,3.392-1.88L9.467,5.94a1.99,1.99,0,0,1,1.7-.94H12V6.5a.5.5,0,0,0,.82.384l3-2.5a.5.5,0,0,0,0-.769Z"/>
  </g>
</svg>
