<svg xmlns="http://www.w3.org/2000/svg" viewBox="0 0 16 16">
  <title>taxi</title>
  <path d="M14.857,7.048l-1.641-4.1A1.492,1.492,0,0,0,11.823,2H11V.5a.5.5,0,0,0-.5-.5h-5A.5.5,0,0,0,5,.5V2H4.177a1.493,1.493,0,0,0-1.393.943l-1.642,4.1A1.5,1.5,0,0,0,0,8.5v4a.5.5,0,0,0,.5.5H1v1.5a.5.5,0,0,0,.5.5h2a.5.5,0,0,0,.5-.5V13h8v1.5a.5.5,0,0,0,.5.5h2a.5.5,0,0,0,.5-.5V13h.5a.5.5,0,0,0,.5-.5v-4A1.5,1.5,0,0,0,14.857,7.048ZM3,11a1,1,0,1,1,1-1A1,1,0,0,1,3,11Zm7.813-1.109-1.25,1A.5.5,0,0,1,9.25,11H6.75a.5.5,0,0,1-.312-.109l-1.25-1A.5.5,0,0,1,5.5,9h5a.5.5,0,0,1,.313.891ZM2.239,7,3.713,3.314A.5.5,0,0,1,4.177,3h7.646a.5.5,0,0,1,.464.314L13.762,7ZM13,11a1,1,0,1,1,1-1A1,1,0,0,1,13,11Z"/>
</svg>
