<svg xmlns="http://www.w3.org/2000/svg" viewBox="0 0 16 16">
  <title>tobacco-pipe</title>
  <g>
    <path d="M15.5,4c-2.593,0-4.358,2.07-5.917,3.9C8.407,9.276,7.289,10.587,6,10.852V8.5A.5.5,0,0,0,5.5,8H.5a.5.5,0,0,0-.5.5V12a3,3,0,0,0,3,3c.081,0,.162,0,.214,0l.073-.006c4.149-.008,6.559-3.169,8.5-5.709C13.1,7.551,14.24,6.056,15.522,6A.5.5,0,0,0,16,5.5v-1A.5.5,0,0,0,15.5,4Z"/>
    <path d="M2.979,6.941A.489.489,0,0,0,3.2,7h.028a.5.5,0,0,0,.456-.7c-.292-.653-.17-.863-.02-1.023.093-.1.2-.191.3-.286A2.525,2.525,0,0,0,5,3,3.225,3.225,0,0,0,3.021.059.5.5,0,0,0,2.814,0,.524.524,0,0,0,2.42.152a.5.5,0,0,0-.1.547,1.769,1.769,0,0,1,.179.676c0,.206-.136.349-.47.649A2.488,2.488,0,0,0,1,4a2.934,2.934,0,0,0,.863,2.141A4.458,4.458,0,0,0,2.979,6.941Z"/>
  </g>
</svg>
