<svg xmlns="http://www.w3.org/2000/svg" viewBox="0 0 16 16">
  <title>vegetarian</title>
  <g>
    <path d="M.04,8A7.552,7.552,0,0,0,5,14.453V15.5a.5.5,0,0,0,.5.5h5a.5.5,0,0,0,.5-.5V14.453A7.551,7.551,0,0,0,15.96,8Z"/>
    <path d="M2.236,7A2.513,2.513,0,0,1,2.41,4.56l.67.67L4.85,7H8.5l-.8-.6a.5.5,0,0,1,.6-.8l1.2.9v-1a.5.5,0,0,1,1,0v1l1.2-.9a.5.5,0,1,1,.6.8l-.8.6h3.324a2.989,2.989,0,0,0-2.579-3.99,3,3,0,0,0-4.49,0A2.815,2.815,0,0,0,7,3.19V1.5A.5.5,0,0,0,6.5,1,3.506,3.506,0,0,0,3.07,3.8l-.34-.34a.537.537,0,0,0-.35-.14.543.543,0,0,0-.36.14A3.507,3.507,0,0,0,1.18,7ZM6,2.05V6.74L4.01,4.75A2.007,2.007,0,0,1,4,4.5,2.5,2.5,0,0,1,6,2.05Z"/>
  </g>
</svg>
