<svg xmlns="http://www.w3.org/2000/svg" viewBox="0 0 16 16">
  <title>vr-headset</title>
  <g>
    <path d="M14.823,3.119a.506.506,0,0,0-.405-.112l-6,1A.5.5,0,0,0,8,4.5V5H1A1,1,0,0,0,1,7H8v.5a.5.5,0,0,0,.418.493l6,1A.517.517,0,0,0,14.5,9a.5.5,0,0,0,.5-.5v-5A.5.5,0,0,0,14.823,3.119Z"/>
    <path d="M8.336,3.514l3.794-.632A6,6,0,0,0,1.2,4.5H7.5A1,1,0,0,1,8.336,3.514Z"/>
    <path d="M14.3,9.48,8.336,8.486A1,1,0,0,1,7.5,7.5H1.213a5.93,5.93,0,0,0,1.16,2.316A2.578,2.578,0,0,1,3,11.42V14.5a.5.5,0,0,0,.418.493l6,1A.465.465,0,0,0,9.5,16a.5.5,0,0,0,.5-.5V13.59l1.838.3A1,1,0,0,0,13,12.91V10.5h1a.5.5,0,0,0,.447-.723Z"/>
  </g>
</svg>
