<svg xmlns="http://www.w3.org/2000/svg" viewBox="0 0 16 16">
  <title>3d-glass</title>
  <g>
    <polygon points="15.5 14.5 10 14.5 9 10.5 7 10.5 6 14.5 0.5 14.5 0.5 8.5 15.5 8.5 15.5 14.5" fill="none" stroke="#000" stroke-linecap="round" stroke-linejoin="round"/>
    <path d="M3.5,1.5h-1a2,2,0,0,0-2,2v5" fill="none" stroke="#000" stroke-linecap="round" stroke-linejoin="round"/>
    <path d="M12.5,1.5h1a2,2,0,0,1,2,2v5" fill="none" stroke="#000" stroke-linecap="round" stroke-linejoin="round"/>
    <polygon points="4.5 12.5 2.5 12.5 2.5 10.5 5 10.5 4.5 12.5" fill="none" stroke="#000" stroke-linecap="round" stroke-linejoin="round"/>
    <polygon points="11.5 12.5 13.5 12.5 13.5 10.5 11 10.5 11.5 12.5" fill="none" stroke="#000" stroke-linecap="round" stroke-linejoin="round"/>
  </g>
</svg>
