<svg xmlns="http://www.w3.org/2000/svg" viewBox="0 0 16 16">
  <title>apple</title>
  <g>
    <path d="M10.062,2.935A3.329,3.329,0,0,0,10.78.5,3.472,3.472,0,0,0,8.526,1.734a3.078,3.078,0,0,0-.738,2.375A2.926,2.926,0,0,0,10.062,2.935Z" fill="none" stroke="#000" stroke-linecap="round" stroke-linejoin="round"/>
    <path d="M13.9,5.533a3.741,3.741,0,0,0-2.833-1.521c-1.33,0-1.893.644-2.817.644-.953,0-1.676-.642-2.826-.642a3.84,3.84,0,0,0-3.1,1.893c-1.072,1.682-.889,4.844.849,7.537.621.964,1.452,2.047,2.538,2.057.966.01,1.239-.627,2.549-.634s1.558.642,2.523.632c1.087-.009,1.963-1.209,2.585-2.173a10.88,10.88,0,0,0,.958-1.819A3.322,3.322,0,0,1,13.9,5.533Z" fill="none" stroke="#000" stroke-linecap="round" stroke-linejoin="round"/>
  </g>
</svg>
