<svg xmlns="http://www.w3.org/2000/svg" viewBox="0 0 16 16">
  <title>bank</title>
  <g>
    <polygon points="7.5 1.5 0.5 5.5 0.5 6.5 14.5 6.5 14.5 5.5 7.5 1.5" fill="none" stroke="#000" stroke-linecap="round" stroke-linejoin="round"/>
    <path d="M1,12.5H14a.5.5,0,0,1,.5.5v1.5a0,0,0,0,1,0,0H.5a0,0,0,0,1,0,0V13A.5.5,0,0,1,1,12.5Z" fill="none" stroke="#000" stroke-linecap="round" stroke-linejoin="round"/>
    <line x1="1.5" y1="6.5" x2="1.5" y2="12.5" fill="none" stroke="#000" stroke-linecap="round" stroke-linejoin="round"/>
    <line x1="3.5" y1="6.5" x2="3.5" y2="12.5" fill="none" stroke="#000" stroke-linecap="round" stroke-linejoin="round"/>
    <line x1="6.5" y1="6.5" x2="6.5" y2="12.5" fill="none" stroke="#000" stroke-linecap="round" stroke-linejoin="round"/>
    <line x1="8.5" y1="6.5" x2="8.5" y2="12.5" fill="none" stroke="#000" stroke-linecap="round" stroke-linejoin="round"/>
    <line x1="11.5" y1="6.5" x2="11.5" y2="12.5" fill="none" stroke="#000" stroke-linecap="round" stroke-linejoin="round"/>
    <line x1="13.5" y1="6.5" x2="13.5" y2="12.5" fill="none" stroke="#000" stroke-linecap="round" stroke-linejoin="round"/>
  </g>
</svg>
