<svg xmlns="http://www.w3.org/2000/svg" viewBox="0 0 16 16">
  <title>cardboard</title>
  <g>
    <path d="M15,13.5H11.466a1.5,1.5,0,0,1-1.366-.879L8.91,10A1,1,0,0,0,7.09,10L5.9,12.621a1.5,1.5,0,0,1-1.366.879H1A.5.5,0,0,1,.5,13V5A.5.5,0,0,1,1,4.5H15a.5.5,0,0,1,.5.5v8A.5.5,0,0,1,15,13.5Z" fill="none" stroke="#000" stroke-linecap="round" stroke-linejoin="round"/>
    <circle cx="4" cy="8" r="1.5" fill="none" stroke="#000" stroke-linecap="round" stroke-linejoin="round"/>
    <circle cx="12" cy="8" r="1.5" fill="none" stroke="#000" stroke-linecap="round" stroke-linejoin="round"/>
    <line x1="10.05" y1="12.5" x2="5.95" y2="12.5" fill="none" stroke="#000" stroke-linecap="round" stroke-linejoin="round"/>
    <path d="M2.5,4.5V3A.5.5,0,0,1,3,2.5H13a.5.5,0,0,1,.5.5V4.5" fill="none" stroke="#000" stroke-linecap="round" stroke-linejoin="round"/>
  </g>
</svg>
