<svg xmlns="http://www.w3.org/2000/svg" viewBox="0 0 16 16">
  <title>coffee-plunger</title>
  <g>
    <path d="M10,15.5H3a.5.5,0,0,1-.5-.5V8L.5,6.5h10V15A.5.5,0,0,1,10,15.5Z" fill="none" stroke="#000" stroke-linecap="round" stroke-linejoin="round"/>
    <circle cx="6.5" cy="1.5" r="1" fill="none" stroke="#000" stroke-linecap="round" stroke-linejoin="round"/>
    <path d="M4.5,2.5h4a2,2,0,0,1,2,2v0a0,0,0,0,1,0,0h-8a0,0,0,0,1,0,0v0a2,2,0,0,1,2-2Z" fill="none" stroke="#000" stroke-linecap="round" stroke-linejoin="round"/>
    <line x1="6.5" y1="4.5" x2="6.5" y2="12.5" fill="none" stroke="#000" stroke-linecap="round" stroke-linejoin="round"/>
    <line x1="4.5" y1="12.5" x2="8.5" y2="12.5" fill="none" stroke="#000" stroke-linecap="round" stroke-linejoin="round"/>
    <path d="M10.5,6.5h2a2,2,0,0,1,2,2v2a2,2,0,0,1-2,2h-2a0,0,0,0,1,0,0v-6A0,0,0,0,1,10.5,6.5Z" fill="none" stroke="#000" stroke-linecap="round" stroke-linejoin="round"/>
  </g>
</svg>
