<svg xmlns="http://www.w3.org/2000/svg" viewBox="0 0 16 16">
  <title>devil</title>
  <g>
    <path d="M2.9,2.52a7.448,7.448,0,0,1,10.2,0" fill="none" stroke="#000" stroke-linecap="round" stroke-linejoin="round"/>
    <path d="M14.49,4.26A7.423,7.423,0,0,1,15.5,8,7.5,7.5,0,0,1,.5,8,7.423,7.423,0,0,1,1.51,4.26" fill="none" stroke="#000" stroke-linecap="round" stroke-linejoin="round"/>
    <path d="M6.061,6.561A1.5,1.5,0,0,1,3.939,4.439Z" fill="none" stroke="#000" stroke-linecap="round" stroke-linejoin="round"/>
    <path d="M12.061,4.439A1.5,1.5,0,1,1,9.939,6.561Z" fill="none" stroke="#000" stroke-linecap="round" stroke-linejoin="round"/>
    <path d="M2.71,9.5H13.29a5.5,5.5,0,0,1-10.58,0Z" fill="none" stroke="#000" stroke-linecap="round" stroke-linejoin="round"/>
    <path d="M1.51,4.26A4.274,4.274,0,0,1,1.36.5s0,.8,1.54,2.02" fill="none" stroke="#000" stroke-linecap="round" stroke-linejoin="round"/>
    <path d="M13.1,2.52C14.64,1.3,14.64.5,14.64.5a4.274,4.274,0,0,1-.15,3.76" fill="none" stroke="#000" stroke-linecap="round" stroke-linejoin="round"/>
  </g>
</svg>
