<svg xmlns="http://www.w3.org/2000/svg" viewBox="0 0 16 16">
  <title>document</title>
  <g>
    <g>
      <path d="M9.5.5H3a.5.5,0,0,0-.5.5V15a.5.5,0,0,0,.5.5H13a.5.5,0,0,0,.5-.5V4.5Z" fill="none" stroke="#000" stroke-linecap="round" stroke-linejoin="round"/>
      <path d="M9.5.5V4a.5.5,0,0,0,.5.5h3.5" fill="none" stroke="#000" stroke-linecap="round" stroke-linejoin="round"/>
    </g>
    <path d="M7.5,6.5,6,5,4.5,6.5v-5a1,1,0,0,1,1-1h3a1,1,0,0,0-1,1Z" fill="none" stroke="#000" stroke-linecap="round" stroke-linejoin="round"/>
    <line x1="4.5" y1="9.5" x2="11.5" y2="9.5" fill="none" stroke="#000" stroke-linecap="round" stroke-linejoin="round"/>
    <line x1="4.5" y1="11.5" x2="8.5" y2="11.5" fill="none" stroke="#000" stroke-linecap="round" stroke-linejoin="round"/>
  </g>
</svg>
