<svg xmlns="http://www.w3.org/2000/svg" viewBox="0 0 16 16">
  <title>fidget-spinner</title>
  <g>
    <circle cx="8" cy="8.5" r="1.5" fill="none" stroke="#000" stroke-linecap="round" stroke-linejoin="round"/>
    <circle cx="8" cy="3" r="1" fill="none" stroke="#000" stroke-linecap="round" stroke-linejoin="round"/>
    <circle cx="3.237" cy="11.25" r="1" transform="translate(-5.191 3.126) rotate(-30)" fill="none" stroke="#000" stroke-linecap="round" stroke-linejoin="round"/>
    <path d="M5.585,3.647a4.046,4.046,0,0,1-3,5.188l.01,0H2.59a2.626,2.626,0,0,0-.6.25A2.5,2.5,0,1,0,5,13.02L5.02,13,5,13.018a4.045,4.045,0,0,1,5.99,0L10.98,13a.022.022,0,0,0,.02.02,2.5,2.5,0,1,0,3.01-3.94,2.626,2.626,0,0,0-.6-.25H13.4l.01,0a4.046,4.046,0,0,1-3-5.188l-.025.093a.292.292,0,0,1,.02-.09A2.372,2.372,0,0,0,10.5,3a2.5,2.5,0,0,0-5,0,2.372,2.372,0,0,0,.09.65.292.292,0,0,1,.02.09" fill="none" stroke="#000" stroke-linecap="round" stroke-linejoin="round"/>
    <circle cx="12.763" cy="11.25" r="1" transform="translate(-3.361 16.678) rotate(-60)" fill="none" stroke="#000" stroke-linecap="round" stroke-linejoin="round"/>
    <g>
      <path d="M15.2,5.94A7.231,7.231,0,0,0,13.39,2.8" fill="none" stroke="#000" stroke-linecap="round" stroke-linejoin="round"/>
      <path d="M2.61,2.8A7.231,7.231,0,0,0,.8,5.94" fill="none" stroke="#000" stroke-linecap="round" stroke-linejoin="round"/>
      <path d="M6.18,15.27a7.316,7.316,0,0,0,3.64,0" fill="none" stroke="#000" stroke-linecap="round" stroke-linejoin="round"/>
      <path d="M13.28,6.49a5.358,5.358,0,0,0-1.33-2.31" fill="none" stroke="#000" stroke-linecap="round" stroke-linejoin="round"/>
      <path d="M4.05,4.18A5.358,5.358,0,0,0,2.72,6.49" fill="none" stroke="#000" stroke-linecap="round" stroke-linejoin="round"/>
      <path d="M6.67,13.33a5.288,5.288,0,0,0,2.66,0" fill="none" stroke="#000" stroke-linecap="round" stroke-linejoin="round"/>
    </g>
  </g>
</svg>
