<svg xmlns="http://www.w3.org/2000/svg" viewBox="0 0 16 16">
  <title>hamburger</title>
  <g>
    <path d="M12.338,15.5H3.662A3,3,0,0,1,.816,13.449L.5,12.5h15l-.316.949A3,3,0,0,1,12.338,15.5Z" fill="none" stroke="#000" stroke-linecap="round" stroke-linejoin="round"/>
    <path d="M.5,8a1.468,1.468,0,0,0,.54,1.14A1.427,1.427,0,0,0,2,9.5a1.5,1.5,0,0,0,1.41-1A1.386,1.386,0,0,0,3.5,8a1.386,1.386,0,0,0,.09.5,1.494,1.494,0,0,0,2.82,0A1.386,1.386,0,0,0,6.5,8a1.386,1.386,0,0,0,.09.5,1.494,1.494,0,0,0,2.82,0A1.386,1.386,0,0,0,9.5,8a1.386,1.386,0,0,0,.09.5,1.494,1.494,0,0,0,2.82,0A1.386,1.386,0,0,0,12.5,8a1.386,1.386,0,0,0,.09.5A1.5,1.5,0,0,0,14,9.5a1.427,1.427,0,0,0,.96-.36A1.468,1.468,0,0,0,15.5,8" fill="none" stroke="#000" stroke-linecap="round" stroke-linejoin="round"/>
    <polyline points="15.5 8 14.5 6.5 1.5 6.5 0.5 8" fill="none" stroke="#000" stroke-linecap="round" stroke-linejoin="round"/>
    <polyline points="3.5 12.5 5.5 14 7.5 12.5" fill="none" stroke="#000" stroke-linecap="round" stroke-linejoin="round"/>
    <line x1="0.5" y1="6.5" x2="15.5" y2="6.5" fill="none" stroke="#000" stroke-linecap="round" stroke-linejoin="round"/>
    <path d="M.5,6.5a8.125,8.125,0,0,1,15,0" fill="none" stroke="#000" stroke-linecap="round" stroke-linejoin="round"/>
    <path d="M14.96,9.14A2,2,0,0,1,13.5,12.5H2.5a2.006,2.006,0,0,1-2-2,1.937,1.937,0,0,1,.54-1.36" fill="none" stroke="#000" stroke-linecap="round" stroke-linejoin="round"/>
  </g>
</svg>
