<svg xmlns="http://www.w3.org/2000/svg" viewBox="0 0 16 16">
  <title>id-card</title>
  <g>
    <path d="M11.5,3.5H15a.5.5,0,0,1,.5.5v9a.5.5,0,0,1-.5.5H1A.5.5,0,0,1,.5,13V4A.5.5,0,0,1,1,3.5H4.5" fill="none" stroke="#000" stroke-linecap="round" stroke-linejoin="round"/>
    <circle cx="4.5" cy="7.5" r="1" fill="none" stroke="#000" stroke-linecap="round" stroke-linejoin="round"/>
    <path d="M6.5,10.5a4.25,4.25,0,0,0-4,0v1h4Z" fill="none" stroke="#000" stroke-linecap="round" stroke-linejoin="round"/>
    <line x1="8.5" y1="8.5" x2="12.5" y2="8.5" fill="none" stroke="#000" stroke-linecap="round" stroke-linejoin="round"/>
    <line x1="8.5" y1="10.5" x2="12.5" y2="10.5" fill="none" stroke="#000" stroke-linecap="round" stroke-linejoin="round"/>
    <path d="M8,1.5H8A1.5,1.5,0,0,1,9.5,3V4.5a0,0,0,0,1,0,0h-3a0,0,0,0,1,0,0V3A1.5,1.5,0,0,1,8,1.5Z" fill="none" stroke="#000" stroke-linecap="round" stroke-linejoin="round"/>
  </g>
</svg>
