<svg xmlns="http://www.w3.org/2000/svg" viewBox="0 0 16 16">
  <title>money-bag</title>
  <g>
    <g>
      <path d="M5,.5h6l-2,3,4.01,7.128A3.817,3.817,0,0,1,13.5,12.5h0a3,3,0,0,1-3,3h-5a3,3,0,0,1-3-3h0a3.817,3.817,0,0,1,.49-1.872L7,3.5Z" fill="none" stroke="#000" stroke-linecap="round" stroke-linejoin="round"/>
      <line x1="6" y1="3.5" x2="10" y2="3.5" fill="none" stroke="#000" stroke-linecap="round" stroke-linejoin="round"/>
    </g>
    <g>
      <path d="M7,12.5H8a1,1,0,0,0,1-1H9a1,1,0,0,0-1-1H8a1,1,0,0,1-1-1H7a1,1,0,0,1,1-1H9" fill="none" stroke="#000" stroke-linecap="round" stroke-linejoin="round"/>
      <line x1="8" y1="7.5" x2="8" y2="8.5" fill="none" stroke="#000" stroke-linecap="round" stroke-linejoin="round"/>
      <line x1="8" y1="12.5" x2="8" y2="13.5" fill="none" stroke="#000" stroke-linecap="round" stroke-linejoin="round"/>
    </g>
  </g>
</svg>
