<svg xmlns="http://www.w3.org/2000/svg" viewBox="0 0 16 16">
  <title>office</title>
  <g>
    <rect x="0.5" y="7.5" width="6" height="8" fill="none" stroke="#000" stroke-linecap="round" stroke-linejoin="round"/>
    <polyline points="3.5 7.5 3.5 0.5 11.5 0.5 11.5 4.5" fill="none" stroke="#000" stroke-linecap="round" stroke-linejoin="round"/>
    <polygon points="15.5 15.5 6.5 15.5 6.5 9.5 9.5 7.5 9.5 4.5 15.5 4.5 15.5 15.5" fill="none" stroke="#000" stroke-linecap="round" stroke-linejoin="round"/>
    <line x1="2" y1="9.5" x2="3" y2="9.5" fill="none" stroke="#000" stroke-linejoin="round"/>
    <line x1="4" y1="9.5" x2="5" y2="9.5" fill="none" stroke="#000" stroke-linejoin="round"/>
    <line x1="2" y1="11.5" x2="3" y2="11.5" fill="none" stroke="#000" stroke-linejoin="round"/>
    <line x1="4" y1="11.5" x2="5" y2="11.5" fill="none" stroke="#000" stroke-linejoin="round"/>
    <line x1="5" y1="2.5" x2="6" y2="2.5" fill="none" stroke="#000" stroke-linejoin="round"/>
    <line x1="7" y1="2.5" x2="8" y2="2.5" fill="none" stroke="#000" stroke-linejoin="round"/>
    <line x1="5" y1="4.5" x2="6" y2="4.5" fill="none" stroke="#000" stroke-linejoin="round"/>
    <line x1="7" y1="4.5" x2="8" y2="4.5" fill="none" stroke="#000" stroke-linejoin="round"/>
    <line x1="9" y1="2.5" x2="10" y2="2.5" fill="none" stroke="#000" stroke-linejoin="round"/>
    <rect x="11.5" y="10.5" width="2" height="2" fill="none" stroke="#000" stroke-linejoin="round"/>
    <rect x="11.5" y="6.5" width="2" height="2" fill="none" stroke="#000" stroke-linejoin="round"/>
  </g>
</svg>
