<svg xmlns="http://www.w3.org/2000/svg" viewBox="0 0 16 16">
  <title>phone</title>
  <g>
    <path d="M3.5,12.5h-2a1,1,0,0,1-1-1V10.236a1,1,0,0,1,.106-.447l.289-.578A1,1,0,0,0,1,8.764V4.236a1,1,0,0,0-.106-.447L.606,3.211A1,1,0,0,1,.5,2.763V1.5a1,1,0,0,1,1-1h2a1,1,0,0,1,1,1V2.763a1,1,0,0,1-.106.447l-.289.578A1,1,0,0,0,4,4.236V8.764a1,1,0,0,0,.106.447l.289.578a1,1,0,0,1,.106.447V11.5A1,1,0,0,1,3.5,12.5Z" fill="none" stroke="#000" stroke-linecap="round" stroke-linejoin="round"/>
    <rect x="6.5" y="0.5" width="9" height="12" rx="0.5" ry="0.5" fill="none" stroke="#000" stroke-linecap="round" stroke-linejoin="round"/>
    <rect x="8.5" y="2.5" width="5" height="2" fill="none" stroke="#000" stroke-linecap="round" stroke-linejoin="round"/>
    <line x1="10.5" y1="8.5" x2="11.5" y2="8.5" fill="none" stroke="#000" stroke-linejoin="round"/>
    <line x1="10.5" y1="6.5" x2="11.5" y2="6.5" fill="none" stroke="#000" stroke-linejoin="round"/>
    <line x1="10.5" y1="10.5" x2="11.5" y2="10.5" fill="none" stroke="#000" stroke-linejoin="round"/>
    <line x1="8" y1="8.5" x2="9" y2="8.5" fill="none" stroke="#000" stroke-linejoin="round"/>
    <line x1="8" y1="6.5" x2="9" y2="6.5" fill="none" stroke="#000" stroke-linejoin="round"/>
    <line x1="8" y1="10.5" x2="9" y2="10.5" fill="none" stroke="#000" stroke-linejoin="round"/>
    <line x1="13" y1="8.5" x2="14" y2="8.5" fill="none" stroke="#000" stroke-linejoin="round"/>
    <line x1="13" y1="6.5" x2="14" y2="6.5" fill="none" stroke="#000" stroke-linejoin="round"/>
    <line x1="13" y1="10.5" x2="14" y2="10.5" fill="none" stroke="#000" stroke-linejoin="round"/>
    <path d="M2.5,12.5v1a2,2,0,0,0,2,2h3a2,2,0,0,0,2-2v-1" fill="none" stroke="#000" stroke-linecap="round" stroke-linejoin="round"/>
  </g>
</svg>
