<svg xmlns="http://www.w3.org/2000/svg" viewBox="0 0 16 16">
  <title>smartwatch</title>
  <g>
    <g>
      <rect x="3.5" y="3.5" width="8" height="9" rx="1.5" ry="1.5" fill="none" stroke="#000" stroke-linecap="round" stroke-linejoin="round"/>
      <line x1="12.5" y1="5.5" x2="12.5" y2="6.5" fill="none" stroke="#000" stroke-linecap="round" stroke-linejoin="round"/>
      <path d="M4.24,3.72A7.161,7.161,0,0,0,5,.5h5a7.161,7.161,0,0,0,.76,3.22" fill="none" stroke="#000" stroke-linecap="round" stroke-linejoin="round"/>
      <path d="M10.76,12.28A7.161,7.161,0,0,0,10,15.5H5a7.161,7.161,0,0,0-.76-3.22" fill="none" stroke="#000" stroke-linecap="round" stroke-linejoin="round"/>
    </g>
    <path d="M7.765,9.606l.4-.834a3.026,3.026,0,0,0,1.332.3V10a4,4,0,0,1-4-4h.923a3.026,3.026,0,0,0,.3,1.332l-.834.4" fill="none" stroke="#000" stroke-linejoin="round"/>
  </g>
</svg>
