<svg xmlns="http://www.w3.org/2000/svg" viewBox="0 0 16 16">
  <title>storm</title>
  <g>
    <path d="M.81,8.83A2.958,2.958,0,0,1,.5,7.5a3,3,0,0,1,3-3,1.055,1.055,0,0,1,.25.02,4.5,4.5,0,0,1,8.73,1.03A2.867,2.867,0,0,1,13,5.5a2.5,2.5,0,0,1,0,5H7.5" fill="none" stroke="#000" stroke-linecap="round" stroke-linejoin="round"/>
    <polygon points="3.5 7.5 3.5 10.5 5.5 10.5 3.5 15.5 3.5 12.5 1.5 12.5 3.5 7.5" fill="none" stroke="#000" stroke-linecap="round" stroke-linejoin="round"/>
    <path d="M14.5,14.5a1,1,0,0,1-2,0,6.612,6.612,0,0,1,1-2A6.612,6.612,0,0,1,14.5,14.5Z" fill="none" stroke="#000" stroke-linecap="round" stroke-linejoin="round"/>
    <path d="M10.5,14.5a1,1,0,0,1-2,0,6.612,6.612,0,0,1,1-2A6.612,6.612,0,0,1,10.5,14.5Z" fill="none" stroke="#000" stroke-linecap="round" stroke-linejoin="round"/>
  </g>
</svg>
