<svg xmlns="http://www.w3.org/2000/svg" viewBox="0 0 16 16">
  <title>virtual-reality</title>
  <g>
    <path d="M5,2.5a3.425,3.425,0,0,1,3-2A3,3,0,0,1,9.43.88c.31.17.9.11,1.14.37a1.684,1.684,0,0,1,.39,1.25" fill="none" stroke="#000" stroke-linecap="round" stroke-linejoin="round"/>
    <path d="M4.69,5.5a.688.688,0,0,0,.02.13,2.823,2.823,0,0,0,.87,1.34c.26.25.64,1.25.92,1.53v.68a1,1,0,0,1-.8.98l-2.19.44A2.5,2.5,0,0,0,1.5,13.05V14a.5.5,0,0,0,.5.5H14a.5.5,0,0,0,.5-.5v-.95a2.5,2.5,0,0,0-2.01-2.45l-2.19-.44a1,1,0,0,1-.8-.98V8.5c.28-.28.65-1.28.91-1.53a2.823,2.823,0,0,0,.87-1.34.688.688,0,0,0,.02-.13" fill="none" stroke="#000" stroke-linecap="round" stroke-linejoin="round"/>
    <path d="M12,5.5H9L7.98,5,7,5.5H4A.5.5,0,0,1,3.5,5V3A.5.5,0,0,1,4,2.5h8a.5.5,0,0,1,.5.5V5A.5.5,0,0,1,12,5.5Z" fill="none" stroke="#000" stroke-linecap="round" stroke-linejoin="round"/>
  </g>
</svg>
