<svg xmlns="http://www.w3.org/2000/svg" viewBox="0 0 16 16">
  <title>apple</title>
  <path d="M14.514,11.039a2.8,2.8,0,0,1-1.777-2.452,2.714,2.714,0,0,1,1.411-2.618.5.5,0,0,0,.149-.746,4.234,4.234,0,0,0-3.226-1.712,4.176,4.176,0,0,0-.985.118,3.534,3.534,0,0,0,.373-.39A3.806,3.806,0,0,0,11.275.429.5.5,0,0,0,10.745,0,3.951,3.951,0,0,0,8.139,1.419a3.615,3.615,0,0,0-.855,2.513c-.046-.017-.088-.028-.135-.045a4.808,4.808,0,0,0-1.721-.374A4.337,4.337,0,0,0,1.91,5.637c-1.256,1.971-.9,5.368.851,8.078C3.443,14.772,4.4,15.988,5.714,16H5.74A2.842,2.842,0,0,0,7,15.677a2.745,2.745,0,0,1,1.27-.312,2.423,2.423,0,0,1,1.253.306A2.41,2.41,0,0,0,10.795,16c1.285-.011,2.238-1.22,3-2.4a11.452,11.452,0,0,0,1-1.887.5.5,0,0,0-.277-.67Zm-5.6-8.99A3.123,3.123,0,0,1,10.3,1.107a3.108,3.108,0,0,1-.632,1.524,2.571,2.571,0,0,1-1.4.93A2.92,2.92,0,0,1,8.915,2.049Zm4.041,11c-.582.9-1.354,1.938-2.171,1.944a1.906,1.906,0,0,1-.839-.232,3.615,3.615,0,0,0-1.682-.4,3.718,3.718,0,0,0-1.677.4A2.007,2.007,0,0,1,5.724,15c-.841-.008-1.576-.98-2.123-1.828-1.734-2.687-1.73-5.611-.848-7A3.336,3.336,0,0,1,5.428,4.513a3.88,3.88,0,0,1,1.38.314,4.131,4.131,0,0,0,1.446.328,3.523,3.523,0,0,0,1.321-.312,3.827,3.827,0,0,1,1.5-.333,3.064,3.064,0,0,1,2.074.926,3.679,3.679,0,0,0-1.406,3.221,3.8,3.8,0,0,0,1.937,3.092A9.264,9.264,0,0,1,12.956,13.053Z"/>
</svg>
