<svg xmlns="http://www.w3.org/2000/svg" viewBox="0 0 16 16">
  <title>bags</title>
  <path d="M2,16H5.5a.5.5,0,0,0,0-1H2a1,1,0,0,1-1-1V5H2v.5a.5.5,0,0,0,1,0V5H7v.5a.5.5,0,0,0,1,0V5H9v.5a.5.5,0,0,0,1,0v-1A.5.5,0,0,0,9.5,4H8V3A3,3,0,0,0,2,3V4H.5a.5.5,0,0,0-.5.5V14A2,2,0,0,0,2,16ZM3,3A2,2,0,0,1,7,3V4H3Z"/>
  <path d="M13.949,8a2.5,2.5,0,0,0-4.9,0H7.5a.5.5,0,0,0-.5.5V14a2,2,0,0,0,2,2h5a2,2,0,0,0,2-2V8.5a.5.5,0,0,0-.5-.5ZM11.5,7a1.5,1.5,0,0,1,1.408,1H10.092A1.5,1.5,0,0,1,11.5,7ZM15,14a1,1,0,0,1-1,1H9a1,1,0,0,1-1-1V9H9v.5a.5.5,0,0,0,1,0V9h3v.5a.5.5,0,0,0,1,0V9h1Z"/>
</svg>
