<svg xmlns="http://www.w3.org/2000/svg" viewBox="0 0 16 16">
  <title>basket-ball</title>
  <path d="M8,16a8,8,0,1,0-5.657-2.34A7.975,7.975,0,0,0,8,16ZM2.715,3.421,7.293,8,5.5,9.795a9.7,9.7,0,0,0-4.471-2.3A6.963,6.963,0,0,1,2.715,3.421ZM14.972,7.477A8.7,8.7,0,0,1,11.209,5.5l2.077-2.077A6.964,6.964,0,0,1,14.972,7.477Zm-1.686,5.1L8.707,8,10.5,6.205a9.7,9.7,0,0,0,4.471,2.3A6.963,6.963,0,0,1,13.285,12.579ZM5.5,11.209a8.7,8.7,0,0,1,1.979,3.763,6.965,6.965,0,0,1-4.055-1.687Zm.707-.707L8,8.707l4.578,4.579a6.958,6.958,0,0,1-4.073,1.687A9.692,9.692,0,0,0,6.205,10.5Zm4.3-5.711A8.7,8.7,0,0,1,8.523,1.028a6.964,6.964,0,0,1,4.055,1.686ZM9.795,5.5,8,7.293,3.422,2.714A6.959,6.959,0,0,1,7.495,1.027,9.691,9.691,0,0,0,9.795,5.5Zm-5,5L2.715,12.579A6.964,6.964,0,0,1,1.028,8.523,8.7,8.7,0,0,1,4.791,10.5Z"/>
</svg>
