<svg xmlns="http://www.w3.org/2000/svg" viewBox="0 0 16 16">
  <title>basket</title>
  <path d="M15.5,5H12.809L10.947,1.276a.5.5,0,1,0-.895.447L11.691,5H4.309L5.947,1.724a.5.5,0,0,0-.895-.447L3.191,5H.5a.5.5,0,0,0-.5.5v2A.5.5,0,0,0,.5,8h.609l1.905,7.621A.5.5,0,0,0,3.5,16h9a.5.5,0,0,0,.485-.379L14.891,8H15.5a.5.5,0,0,0,.5-.5v-2A.5.5,0,0,0,15.5,5ZM12.109,15H3.891L2.141,8H13.859ZM15,7H1V6H15Z"/>
  <path d="M8,14a.5.5,0,0,0,.5-.5v-3a.5.5,0,0,0-1,0v3A.5.5,0,0,0,8,14Z"/>
  <path d="M5.5,14a.5.5,0,0,0,.5-.5v-3a.5.5,0,0,0-1,0v3A.5.5,0,0,0,5.5,14Z"/>
  <path d="M10.5,14a.5.5,0,0,0,.5-.5v-3a.5.5,0,0,0-1,0v3A.5.5,0,0,0,10.5,14Z"/>
</svg>
