<svg xmlns="http://www.w3.org/2000/svg" viewBox="0 0 16 16">
  <title>beer</title>
  <path d="M12.5,4A2.5,2.5,0,0,0,8.889,1.761a2.5,2.5,0,0,0-4.777,0A2.492,2.492,0,0,0,1,5.485V14a2,2,0,0,0,2,2h7a2,2,0,0,0,2-2V13h1.5A1.5,1.5,0,0,0,15,11.5v-4A1.5,1.5,0,0,0,13.5,6H12V5.485A2.476,2.476,0,0,0,12.5,4ZM3,2.5a1.46,1.46,0,0,1,1.126.521A.5.5,0,0,0,5,2.62.8.8,0,0,1,5,2.5a1.5,1.5,0,0,1,3,0,.8.8,0,0,1,0,.12.5.5,0,0,0,.877.4A1.46,1.46,0,0,1,10,2.5a1.5,1.5,0,0,1,0,3,1.444,1.444,0,0,1-.954-.35.5.5,0,0,0-.75.116,1.553,1.553,0,0,1-2.416.218A.5.5,0,0,0,5,5.81V7.5a.5.5,0,0,1-1,0V5.93a.5.5,0,0,0-.651-.477A1.164,1.164,0,0,1,3,5.5a1.5,1.5,0,0,1,0-3ZM11,14a1,1,0,0,1-1,1H3a1,1,0,0,1-1-1V6.288A2.482,2.482,0,0,0,3,6.5v1A1.5,1.5,0,0,0,4,8.908V12.5a.5.5,0,0,0,1,0V8.908A1.5,1.5,0,0,0,6,7.5V6.789a2.561,2.561,0,0,0,2.827-.581A2.445,2.445,0,0,0,10,6.5a2.482,2.482,0,0,0,1-.212Zm2.5-7a.5.5,0,0,1,.5.5v4a.5.5,0,0,1-.5.5H12V7Z"/>
  <path d="M8.5,8a.5.5,0,0,0-.5.5v4a.5.5,0,0,0,1,0v-4A.5.5,0,0,0,8.5,8Z"/>
</svg>
