<svg xmlns="http://www.w3.org/2000/svg" viewBox="0 0 16 16">
  <title>bookmark</title>
  <path d="M15,0H1A1,1,0,0,0,0,1V15a1,1,0,0,0,1,1H15a1,1,0,0,0,1-1V1A1,1,0,0,0,15,0Zm0,1V3H1V1Zm0,14.5V15H1V4H15V15h0Z"/>
  <path d="M13.52,2.5a.5.5,0,0,0,0-1h-.01a.5.5,0,0,0-.495.5A.5.5,0,0,0,13.52,2.5Z"/>
  <path d="M11.52,2.5a.5.5,0,0,0,0-1h-.01a.5.5,0,0,0-.495.5A.5.5,0,0,0,11.52,2.5Z"/>
  <path d="M10.576,7.916,9.112,7.691l-.659-1.4a.522.522,0,0,0-.905,0l-.659,1.4-1.464.225a.5.5,0,0,0-.282.844l1.074,1.1-.254,1.56a.5.5,0,0,0,.736.518L8,11.217l1.3.721a.5.5,0,0,0,.736-.518L9.784,9.86l1.074-1.1a.5.5,0,0,0-.282-.844ZM8.892,9.342a.5.5,0,0,0-.136.43l.129.793-.644-.356a.5.5,0,0,0-.484,0l-.644.356.129-.793a.5.5,0,0,0-.136-.43l-.571-.585L7.3,8.64a.5.5,0,0,0,.377-.281L8,7.677l.32.682A.5.5,0,0,0,8.7,8.64l.766.117Z"/>
</svg>
