<svg xmlns="http://www.w3.org/2000/svg" viewBox="0 0 16 16">
  <title>camera-shutter</title>
  <path d="M9.376.127l-.023,0A7.878,7.878,0,0,0,2.08,2.638l0,0A7.987,7.987,0,1,0,13.92,13.362l0,0A7.978,7.978,0,0,0,9.376.127ZM14.315,5H7.475l2.1-3.816A7.018,7.018,0,0,1,14.315,5ZM9.08,10H6.92l-1.1-2,1.1-2H9.08l1.1,2ZM8.517,1.026,6.2,5.247s-.009.007-.011.012l-.937,1.7L3.082,3.026A6.976,6.976,0,0,1,8,1C8.174,1,8.345,1.014,8.517,1.026ZM2.387,3.836,4.812,8.241,5.779,10H1.295A6.941,6.941,0,0,1,2.387,3.836ZM1.685,11h6.85l-2.1,3.818A7.018,7.018,0,0,1,1.685,11Zm5.808,3.974L9.818,10.74c0-.007,0-.014.006-.02l.925-1.683,2.167,3.937A6.976,6.976,0,0,1,8,15C7.829,15,7.661,14.987,7.493,14.974Zm6.12-2.81L11.188,7.759,10.221,6h4.484a6.941,6.941,0,0,1-1.092,6.164Z"/>
</svg>
