<svg xmlns="http://www.w3.org/2000/svg" viewBox="0 0 16 16">
  <title>cardboard</title>
  <path d="M15,4H14V3a1,1,0,0,0-1-1H3A1,1,0,0,0,2,3V4H1A1,1,0,0,0,0,5v8a1,1,0,0,0,1,1H4.534a1.991,1.991,0,0,0,1.71-1H9.756a1.991,1.991,0,0,0,1.71,1H15a1,1,0,0,0,1-1V5A1,1,0,0,0,15,4ZM3,3H13V4H3Zm3.731,9,.814-1.79a.5.5,0,0,1,.91,0L9.269,12ZM15,13.5V13H11.466a1,1,0,0,1-.91-.586l-.042-.092c0-.013-.011-.025-.017-.037L9.365,9.8a1.5,1.5,0,0,0-2.73,0L5.5,12.285c-.006.012-.012.024-.017.037l-.042.092a1,1,0,0,1-.91.586H1V5H15v8h0Z"/>
  <path d="M4,6A2,2,0,1,0,6,8,2,2,0,0,0,4,6ZM4,9A1,1,0,1,1,5,8,1,1,0,0,1,4,9Z"/>
  <path d="M12,6a2,2,0,1,0,2,2A2,2,0,0,0,12,6Zm0,3a1,1,0,1,1,1-1A1,1,0,0,1,12,9Z"/>
</svg>
