<svg xmlns="http://www.w3.org/2000/svg" viewBox="0 0 16 16">
  <title>chat</title>
  <path d="M3.5,5h6a.5.5,0,0,0,0-1h-6a.5.5,0,0,0,0,1Z"/>
  <path d="M3.5,7h4a.5.5,0,0,0,0-1h-4a.5.5,0,0,0,0,1Z"/>
  <path d="M13,5.5C13,2.467,10.084,0,6.5,0S0,2.467,0,5.5A4.978,4.978,0,0,0,1.39,8.9L.146,10.146A.5.5,0,0,0,.5,11h6C10.084,11,13,8.533,13,5.5ZM2.434,8.528A4.081,4.081,0,0,1,1,5.5C1,3.019,3.468,1,6.5,1S12,3.019,12,5.5,9.532,10,6.5,10H1.707l.746-.747a.5.5,0,0,0-.02-.725Z"/>
  <path d="M14.065,6.229a.5.5,0,0,0-.056.705A3.933,3.933,0,0,1,15,9.5a4.081,4.081,0,0,1-1.434,3.028.5.5,0,0,0-.02.725l.746.747H9.5a5.76,5.76,0,0,1-4.851-2.383.5.5,0,0,0-.838.547A6.769,6.769,0,0,0,9.5,15h6a.5.5,0,0,0,.354-.854L14.61,12.9A4.978,4.978,0,0,0,16,9.5a4.917,4.917,0,0,0-1.23-3.215A.5.5,0,0,0,14.065,6.229Z"/>
</svg>
