<svg xmlns="http://www.w3.org/2000/svg" viewBox="0 0 16 16">
  <title>chat-bubble</title>
  <path d="M14.8,2.029,5.013.053A2.22,2.22,0,0,0,4.5,0,2.508,2.508,0,0,0,2.1,1.813l-2,7A2.46,2.46,0,0,0,0,9.5,2.5,2.5,0,0,0,2.5,12a1.227,1.227,0,0,0,.211-.012l7.229-.6,1.086,3.268a.5.5,0,0,0,.949,0l1.176-3.537L14.628,11A1.5,1.5,0,0,0,16,9.5v-6A1.5,1.5,0,0,0,14.8,2.029ZM15,9.5a.507.507,0,0,1-.461.5l-1.8.15a.5.5,0,0,0-.433.34L11.5,12.915,10.765,10.7a.5.5,0,0,0-.474-.342l-.042,0-7.62.63c-.013,0-.116.006-.129.008A1.5,1.5,0,0,1,1,9.5a1.45,1.45,0,0,1,.061-.412l2-7A1.5,1.5,0,0,1,4.5,1a1.282,1.282,0,0,1,.3.03L14.6,3.01a.5.5,0,0,1,.4.49Z"/>
</svg>
