<svg xmlns="http://www.w3.org/2000/svg" viewBox="0 0 16 16">
  <title>compact-disk</title>
  <path d="M1,15H9a1,1,0,0,0,1-1V2A1,1,0,0,0,9,1H1A1,1,0,0,0,0,2V14A1,1,0,0,0,1,15ZM1,2H9V14H9v0H1Z"/>
  <path d="M11.635,2.229a.5.5,0,0,0-.271.963,5,5,0,0,1,0,9.617.5.5,0,0,0,.271.963,6,6,0,0,0,0-11.543Z"/>
  <path d="M11.337,8.938a.5.5,0,0,0,.326.945,1.994,1.994,0,0,0,0-3.766.5.5,0,0,0-.326.945.994.994,0,0,1,0,1.875Z"/>
  <path d="M5.593,4.009c-.015,0-.029,0-.044,0A.466.466,0,0,0,5.5,4a.461.461,0,0,0-.058.012.49.49,0,0,0-.088.018.484.484,0,0,0-.237.16.472.472,0,0,0-.051.076.48.48,0,0,0-.038.094.467.467,0,0,0-.02.049c0,.016,0,.03,0,.046A.473.473,0,0,0,5,4.5V9.2A2.538,2.538,0,0,0,4,9c-1.122,0-2,.659-2,1.5S2.878,12,4,12s2-.659,2-1.5V5.19A1.438,1.438,0,0,1,7,6.438a.5.5,0,0,0,1,0C8,4.874,6.425,4.165,5.593,4.009ZM4,11c-.61,0-1-.3-1-.5s.39-.5,1-.5,1,.3,1,.5S4.61,11,4,11Z"/>
</svg>
