<svg xmlns="http://www.w3.org/2000/svg" viewBox="0 0 16 16">
  <title>devil</title>
  <path d="M5,7.5a1.985,1.985,0,0,0,1.414-.586.5.5,0,0,0,0-.707L4.293,4.086a.5.5,0,0,0-.707,0A2,2,0,0,0,5,7.5ZM4.034,5.241,5.259,6.466a1.013,1.013,0,0,1-.966-.259A1,1,0,0,1,4.034,5.241Z"/>
  <path d="M11,7.5a2,2,0,0,0,1.414-3.414.5.5,0,0,0-.707,0L9.586,6.207a.5.5,0,0,0,0,.707A1.985,1.985,0,0,0,11,7.5Zm.966-2.259a1,1,0,0,1-1.225,1.225Z"/>
  <path d="M13.29,9H2.71a.5.5,0,0,0-.481.636,6,6,0,0,0,11.543,0A.5.5,0,0,0,13.29,9ZM8,13a5.016,5.016,0,0,1-4.582-3h9.164A5.016,5.016,0,0,1,8,13Z"/>
  <path d="M15.082.265A.513.513,0,0,0,14.52,0a.486.486,0,0,0-.378.473c0,.005-.078.538-1.04,1.389a7.913,7.913,0,0,0-10.2,0C1.951,1.027,1.862.5,1.86.5A.5.5,0,0,0,.918.265,4.782,4.782,0,0,0,.963,4.239,7.991,7.991,0,1,0,16,8a7.94,7.94,0,0,0-.963-3.761A4.782,4.782,0,0,0,15.082.265ZM8,15A6.986,6.986,0,0,1,1.942,4.511a.459.459,0,0,0,.016-.046.486.486,0,0,0,.034-.1A.475.475,0,0,0,2,4.273a.482.482,0,0,0-.034-.192.468.468,0,0,0-.013-.048,4,4,0,0,1-.444-2.158A6.932,6.932,0,0,0,2.589,2.911a.46.46,0,0,0,.054.028.484.484,0,0,0,.092.047.474.474,0,0,0,.091.021A.4.4,0,0,0,3.014,3,.48.48,0,0,0,3.1,2.97a.485.485,0,0,0,.085-.053.466.466,0,0,0,.053-.033,6.95,6.95,0,0,1,9.516,0,.466.466,0,0,0,.054.034.484.484,0,0,0,.078.05.473.473,0,0,0,.095.03.484.484,0,0,0,.084.016c.01,0,.02.006.03.006a.5.5,0,0,0,.063-.013.48.48,0,0,0,.1-.02.486.486,0,0,0,.088-.045.465.465,0,0,0,.06-.031,6.932,6.932,0,0,0,1.078-1.036,4,4,0,0,1-.444,2.158.455.455,0,0,0-.013.048A.482.482,0,0,0,14,4.273a.484.484,0,0,0,.045.191.48.48,0,0,0,.016.046A6.986,6.986,0,0,1,8,15Z"/>
</svg>
