<svg xmlns="http://www.w3.org/2000/svg" viewBox="0 0 16 16">
  <title>email</title>
  <path d="M15.969,3.846A.988.988,0,0,0,15,3H1a.988.988,0,0,0-.969.846.482.482,0,0,0-.02.1C.01,3.965,0,3.981,0,4v9c0,.019.01.036.011.055a.481.481,0,0,0,.02.1A.989.989,0,0,0,1,14H15a.989.989,0,0,0,.969-.847.481.481,0,0,0,.02-.1c0-.019.011-.035.011-.055V4c0-.019-.01-.035-.011-.054A.482.482,0,0,0,15.969,3.846ZM1,4.987,5.792,8.5,1,12.014ZM9.1,8.07h0L8,8.88,6.9,8.071h0L1.346,4H14.654ZM6.638,9.121,7.7,9.9a.5.5,0,0,0,.592,0l1.066-.782L14.654,13H1.346Zm3.57-.62L15,4.987v7.027ZM15,13.253h0v0Z"/>
</svg>
