<svg xmlns="http://www.w3.org/2000/svg" viewBox="0 0 16 16">
  <title>facebook</title>
  <path d="M14,0H2A2,2,0,0,0,0,2V14a2,2,0,0,0,2,2H7.5a.5.5,0,0,0,.5-.5V10a.5.5,0,0,0-.5-.5H6V8H7.5A.5.5,0,0,0,8,7.5v-2A2.5,2.5,0,0,1,10.5,3H12V4.5h-.623a1.468,1.468,0,0,0-1.111.29A.958.958,0,0,0,10,5.5v2a.5.5,0,0,0,.5.5h1.762l-.6,1.5H10.5a.5.5,0,0,0-.5.5v5.5a.5.5,0,0,0,.5.5H14a2,2,0,0,0,2-2V2A2,2,0,0,0,14,0Zm1,14a1,1,0,0,1-1,1H11V10.5h1a.5.5,0,0,0,.464-.314l1-2.5A.5.5,0,0,0,13,7H11l0-1.491c.1-.011.255-.009.365-.01H12.5A.5.5,0,0,0,13,5V2.5a.5.5,0,0,0-.5-.5h-2A3.5,3.5,0,0,0,7,5.5V7H5.5a.5.5,0,0,0-.5.5V10a.5.5,0,0,0,.5.5H7V15H2a1,1,0,0,1-1-1V2A1,1,0,0,1,2,1H14a1,1,0,0,1,1,1Z"/>
</svg>
