<svg xmlns="http://www.w3.org/2000/svg" viewBox="0 0 16 16">
  <title>gift-card</title>
  <path d="M15,3H1A1,1,0,0,0,0,4v9a1,1,0,0,0,1,1H15a1,1,0,0,0,1-1V4A1,1,0,0,0,15,3Zm0,1V8H12.729a2.935,2.935,0,0,0,.832-.439,1.5,1.5,0,0,0-2.121-2.121c-.225.225-.878,1-1.439,1.672V4ZM10.925,7.565c.521-.625,1.05-1.246,1.222-1.418a.5.5,0,0,1,.719.7A10.649,10.649,0,0,1,10.925,7.565ZM1,4H9V7.112c-.561-.673-1.214-1.447-1.439-1.672A1.5,1.5,0,0,0,5.439,7.561,2.936,2.936,0,0,0,6.271,8H1ZM8.076,7.565a11.025,11.025,0,0,1-1.93-.712.5.5,0,0,1,.707-.707C7.025,6.319,7.554,6.94,8.076,7.565ZM1,13V9H8.293L6.646,10.646a.5.5,0,1,0,.707.707L9,9.707V13Zm14,.5V13H10V9.707l1.646,1.646a.5.5,0,0,0,.707-.707L10.707,9H15v4h0Z"/>
  <path d="M5.5,11h-3a.5.5,0,0,0,0,1h3a.5.5,0,0,0,0-1Z"/>
</svg>
