<svg xmlns="http://www.w3.org/2000/svg" viewBox="0 0 16 16">
  <title>hamburger</title>
  <path d="M15.692,6.962h0a.5.5,0,0,0,.161-.109.486.486,0,0,0,.051-.076.487.487,0,0,0,.055-.084A.5.5,0,0,0,16,6.5h0a.469.469,0,0,0-.013-.064.485.485,0,0,0-.025-.128v0h0a8.625,8.625,0,0,0-15.921,0h0v0a.485.485,0,0,0-.025.128A.469.469,0,0,0,0,6.5H0a.5.5,0,0,0,.039.191.487.487,0,0,0,.055.084.486.486,0,0,0,.051.076.5.5,0,0,0,.161.109h0a.469.469,0,0,0,.077.015A.481.481,0,0,0,.5,7H.566l-.482.723c-.009.013-.01.028-.017.042a.53.53,0,0,0-.058.191C.008,7.971,0,7.984,0,8s.008.058.01.088V8.1A1.963,1.963,0,0,0,.385,9.167,2.473,2.473,0,0,0,.512,12H.5a.5.5,0,0,0-.475.658l.316.948A3.5,3.5,0,0,0,3.662,16h8.676a3.5,3.5,0,0,0,3.32-2.394l.316-.948A.5.5,0,0,0,15.5,12h-.016a2.468,2.468,0,0,0,.129-2.835A1.956,1.956,0,0,0,15.989,8.1l0-.014c0-.03.01-.058.01-.088s-.008-.029-.009-.044a.529.529,0,0,0-.058-.191c-.007-.013-.008-.029-.017-.042L15.434,7H15.5A.512.512,0,0,0,15.692,6.962ZM8,2a7.588,7.588,0,0,1,6.687,4H1.313A7.588,7.588,0,0,1,8,2Zm6.709,11.29A2.5,2.5,0,0,1,12.338,15H3.662a2.5,2.5,0,0,1-2.371-1.71l-.1-.29H3.333L5.2,14.4a.5.5,0,0,0,.6,0L7.667,13h7.139ZM5,13H6l-.5.375ZM2.5,12A1.5,1.5,0,0,1,1,10.5a1.45,1.45,0,0,1,.193-.692A2.069,2.069,0,0,0,3.5,9.323a2,2,0,0,0,3,0,2,2,0,0,0,3,0,2,2,0,0,0,3,0A2,2,0,0,0,14,10a1.951,1.951,0,0,0,.814-.181A1.488,1.488,0,0,1,13.5,12ZM14.974,8.113a.972.972,0,0,1-.346.653,1.012,1.012,0,0,1-1.569-.439A.888.888,0,0,1,13,8a.5.5,0,0,0-1,0,.908.908,0,0,1-.062.337.994.994,0,0,1-1.879-.011A.888.888,0,0,1,10,8,.5.5,0,0,0,9,8a.908.908,0,0,1-.062.337.994.994,0,0,1-1.879-.011A.888.888,0,0,1,7,8,.5.5,0,0,0,6,8a.908.908,0,0,1-.062.337.994.994,0,0,1-1.879-.011A.888.888,0,0,1,4,8,.5.5,0,0,0,3,8a.908.908,0,0,1-.062.337,1,1,0,0,1-1.581.415.954.954,0,0,1-.331-.639L1.768,7H14.232Z"/>
</svg>
