<svg xmlns="http://www.w3.org/2000/svg" viewBox="0 0 16 16">
  <title>health-report</title>
  <path d="M10.5,1H9.414A1.5,1.5,0,0,0,6.586,1H5.5a.5.5,0,0,0-.5.5V2H3A.99.99,0,0,0,2,3V15a.99.99,0,0,0,1,1H13a.99.99,0,0,0,1-1V3a.99.99,0,0,0-1-1H11V1.5A.5.5,0,0,0,10.5,1ZM6,2H7a.5.5,0,0,0,.5-.5.5.5,0,0,1,1,0A.5.5,0,0,0,9,2h1V3H6ZM3,15V9H4.25L5.6,10.8a.5.5,0,0,0,.864-.114L7.921,7.044l1.6,5.594a.5.5,0,0,0,.46.362H10a.5.5,0,0,0,.468-.324L11.847,9H13v6ZM13,3V8H11.5a.5.5,0,0,0-.468.324l-.968,2.58L8.48,5.362A.5.5,0,0,0,8.025,5a.487.487,0,0,0-.489.313L5.866,9.488,4.9,8.2A.5.5,0,0,0,4.5,8H3V3H5v.5a.5.5,0,0,0,.5.5h5a.5.5,0,0,0,.5-.5V3Z"/>
</svg>
