<svg xmlns="http://www.w3.org/2000/svg" viewBox="0 0 16 16">
  <title>hyperloop</title>
  <path d="M0,8c0,3.925,1.538,7,3.5,7a2.532,2.532,0,0,0,2-1.205.5.5,0,0,0-.808-.59A1.656,1.656,0,0,1,3.5,14C2.317,14,1,11.536,1,8S2.317,2,3.5,2a1.656,1.656,0,0,1,1.2.795.5.5,0,0,0,.808-.59A2.532,2.532,0,0,0,3.5,1C1.538,1,0,4.075,0,8Z"/>
  <path d="M2.5,11.5A.5.5,0,0,0,3,12H5.5a.5.5,0,0,0,0-1H3A.5.5,0,0,0,2.5,11.5Z"/>
  <path d="M14.944,8.148l0,0L11.2,4.669A2.488,2.488,0,0,0,9.5,4h-6a.5.5,0,0,0,0,1H5.071C5.368,6.48,6.655,9,12,9h2.393l.288.268A1,1,0,0,1,14,11H7.5a.5.5,0,0,0,0,1H14a2,2,0,0,0,1.361-3.465ZM12,8C7.63,8,6.423,6.192,6.1,5H9.5a1.5,1.5,0,0,1,1.021.4l2.8,2.6Z"/>
  <path d="M4.5,9h-2a.5.5,0,0,0,0,1h2a.5.5,0,0,0,0-1Z"/>
  <path d="M3.5,7h-1a.5.5,0,0,0,0,1h1a.5.5,0,0,0,0-1Z"/>
</svg>
