<svg xmlns="http://www.w3.org/2000/svg" viewBox="0 0 16 16">
  <title>id-card</title>
  <path d="M1,14H15a.99.99,0,0,0,1-1V4a.99.99,0,0,0-1-1H11.5a.5.5,0,0,0,0,1H15v9H1V4H4.5a.5.5,0,0,0,0-1H1A.99.99,0,0,0,0,4v9A.99.99,0,0,0,1,14Z"/>
  <path d="M6,7.5A1.5,1.5,0,1,0,4.5,9,1.5,1.5,0,0,0,6,7.5Zm-2,0a.5.5,0,1,1,.5.5A.5.5,0,0,1,4,7.5Z"/>
  <path d="M2,10.5v1a.5.5,0,0,0,.5.5h4a.5.5,0,0,0,.5-.5v-1a.5.5,0,0,0-.265-.441,4.745,4.745,0,0,0-4.471,0A.5.5,0,0,0,2,10.5Zm1,.313a3.746,3.746,0,0,1,3,0V11H3Z"/>
  <path d="M12.5,8h-4a.5.5,0,0,0,0,1h4a.5.5,0,0,0,0-1Z"/>
  <path d="M12.5,10h-4a.5.5,0,0,0,0,1h4a.5.5,0,0,0,0-1Z"/>
  <path d="M8,1A2,2,0,0,0,6,3V4.5a.5.5,0,0,0,.5.5h3a.5.5,0,0,0,.5-.5V3A2,2,0,0,0,8,1ZM9,4H7V3A1,1,0,0,1,9,3Z"/>
</svg>
