<svg xmlns="http://www.w3.org/2000/svg" viewBox="0 0 16 16">
  <title>map-search</title>
  <path d="M15.314.036,10.5,1.961,5.695.039h0l-.009,0a.5.5,0,0,0-.371,0l-.009,0h0l-4.991,2A.5.5,0,0,0,0,2.5v9a.5.5,0,0,0,.685.464l3.06-1.22a.5.5,0,1,0-.37-.929L1,10.762V2.838l4-1.6v3.8a.5.5,0,0,0,1,0v-3.8l4,1.6V3.59a.5.5,0,0,0,1,0V2.839l4-1.6V9.5a.5.5,0,0,0,1,0V.5a.5.5,0,0,0-.686-.464Z"/>
  <path d="M13,12.293A4.455,4.455,0,0,0,14,9.5,4.5,4.5,0,1,0,9.5,14a4.455,4.455,0,0,0,2.793-1l2.853,2.853a.5.5,0,0,0,.707-.707ZM6,9.5A3.5,3.5,0,1,1,9.5,13,3.5,3.5,0,0,1,6,9.5Z"/>
</svg>
