<svg xmlns="http://www.w3.org/2000/svg" viewBox="0 0 16 16">
  <title>map</title>
  <path d="M15.5,7a.5.5,0,0,0-.5.5v5.662l-4,1.6V9.5a.5.5,0,0,0-1,0v5.261l-4-1.6V5.239l2.317.927a.5.5,0,1,0,.371-.929l-2.993-1.2h0l-.009,0a.5.5,0,0,0-.371,0l-.009,0h0l-4.991,2A.5.5,0,0,0,0,6.5v9a.5.5,0,0,0,.686.464L5.5,14.039l4.805,1.922h0l.009,0a.5.5,0,0,0,.371,0l.009,0h0l4.991-2A.5.5,0,0,0,16,13.5v-6A.5.5,0,0,0,15.5,7ZM1,6.838l4-1.6v7.923l-4,1.6Z"/>
  <path d="M12.5,2A1.5,1.5,0,1,0,14,3.5,1.5,1.5,0,0,0,12.5,2Zm0,2a.5.5,0,1,1,.5-.5A.5.5,0,0,1,12.5,4Z"/>
  <path d="M12.5,0A3.5,3.5,0,0,0,9,3.5c0,1.8,2.808,4.977,3.128,5.334a.5.5,0,0,0,.744,0C13.192,8.477,16,5.3,16,3.5A3.5,3.5,0,0,0,12.5,0Zm0,7.737C11.408,6.442,10,4.454,10,3.5a2.5,2.5,0,0,1,5,0C15,4.453,13.592,6.442,12.5,7.737Z"/>
</svg>
