<svg xmlns="http://www.w3.org/2000/svg" viewBox="0 0 16 16">
  <title>megaphone</title>
  <path d="M15.669.029a.5.5,0,0,0-.555.153A10.53,10.53,0,0,1,7.482,4H2.5a.5.5,0,0,0-.5.5V5H.5a.5.5,0,0,0-.5.5v3A.5.5,0,0,0,.5,9H2v.5a.5.5,0,0,0,.5.5h.3l2.01,5.359a1,1,0,0,0,.734.621,1.011,1.011,0,0,0,.2.02.974.974,0,0,0,.7-.3l1.2-1.191a1,1,0,0,0,.184-1.157L6.159,10H7.482a10.532,10.532,0,0,1,7.632,3.818A.5.5,0,0,0,15.5,14a.506.506,0,0,0,.169-.029A.5.5,0,0,0,16,13.5V.5A.5.5,0,0,0,15.669.029ZM1,8V6H2V8Zm5.948,5.8L5.748,15,3.872,10h1.17ZM7,9H3V5H7Zm8,3.224A11.53,11.53,0,0,0,8,9.044V4.956a11.53,11.53,0,0,0,7-3.179Z"/>
</svg>
