<svg xmlns="http://www.w3.org/2000/svg" viewBox="0 0 16 16">
  <title>messages</title>
  <path d="M.036,12.314A.5.5,0,0,0,.5,13a.506.506,0,0,0,.186-.036l2.373-.951A6.424,6.424,0,0,0,6.5,13,6.5,6.5,0,1,0,0,6.5,6.424,6.424,0,0,0,.986,9.941ZM6.5,1a5.5,5.5,0,0,1,0,11,5.418,5.418,0,0,1-3.1-.959.5.5,0,0,0-.471-.053L1.4,11.6l.614-1.532A.5.5,0,0,0,1.959,9.6,5.418,5.418,0,0,1,1,6.5,5.506,5.506,0,0,1,6.5,1Z"/>
  <path d="M14.144,7.035a.5.5,0,0,0-.088.7,4.509,4.509,0,0,1,.163,5.3.5.5,0,0,0-.052.469l.438,1.1-1.1-.438a.5.5,0,0,0-.469.052,4.578,4.578,0,0,1-5.3-.163.5.5,0,0,0-.613.79,5.6,5.6,0,0,0,6.252.345l1.939.774a.5.5,0,0,0,.65-.65l-.774-1.939a5.513,5.513,0,0,0-.345-6.252A.5.5,0,0,0,14.144,7.035Z"/>
</svg>
