<svg xmlns="http://www.w3.org/2000/svg" viewBox="0 0 16 16">
  <title>money-dollar</title>
  <path d="M15,3H1A1,1,0,0,0,0,4v9a1,1,0,0,0,1,1H15a1,1,0,0,0,1-1V4A1,1,0,0,0,15,3ZM12.051,13h-8.1A3.487,3.487,0,0,0,1,10.051v-3.1A3.487,3.487,0,0,0,3.949,4h8.1A3.487,3.487,0,0,0,15,6.949v3.1A3.487,3.487,0,0,0,12.051,13ZM15,5.949A2.507,2.507,0,0,1,13.051,4H15ZM2.949,4A2.507,2.507,0,0,1,1,5.949V4ZM1,11.051A2.507,2.507,0,0,1,2.949,13H1ZM15,13.5V13H13.051A2.507,2.507,0,0,1,15,11.051V13h0Z"/>
  <path d="M8,7H9A.5.5,0,0,0,9,6H8.5V5.5a.5.5,0,0,0-1,0v.592A1.5,1.5,0,0,0,8,9a.5.5,0,0,1,0,1H7a.5.5,0,0,0,0,1h.5v.5a.5.5,0,0,0,1,0v-.592A1.5,1.5,0,0,0,8,8,.5.5,0,0,1,8,7Z"/>
</svg>
