<svg xmlns="http://www.w3.org/2000/svg" viewBox="0 0 16 16">
  <title>phone</title>
  <path d="M1.5,13H2v.5A2.5,2.5,0,0,0,4.5,16h3A2.5,2.5,0,0,0,10,13.5V13h5a1,1,0,0,0,1-1V1a1,1,0,0,0-1-1H7A1,1,0,0,0,6,1V12a1,1,0,0,0,1,1H9v.5A1.5,1.5,0,0,1,7.5,15h-3A1.5,1.5,0,0,1,3,13.5V13h.5A1.5,1.5,0,0,0,5,11.5V10.236a1.517,1.517,0,0,0-.158-.671l-.289-.576A.511.511,0,0,1,4.5,8.764V4.236a.507.507,0,0,1,.053-.224l.289-.578A1.507,1.507,0,0,0,5,2.764V1.5A1.5,1.5,0,0,0,3.5,0h-2A1.5,1.5,0,0,0,0,1.5V2.764a1.507,1.507,0,0,0,.158.67l.289.578A.507.507,0,0,1,.5,4.236V8.764a.5.5,0,0,1-.053.223l-.289.578a1.51,1.51,0,0,0-.158.67V11.5A1.5,1.5,0,0,0,1.5,13ZM7,1V1h8V12H7V1ZM1,10.236a.5.5,0,0,1,.053-.223l.289-.578a1.51,1.51,0,0,0,.158-.67V4.236a1.508,1.508,0,0,0-.158-.671l-.289-.578A.5.5,0,0,1,1,2.764V1.5A.5.5,0,0,1,1.5,1h2a.5.5,0,0,1,.5.5V2.764a.5.5,0,0,1-.053.223l-.289.578a1.508,1.508,0,0,0-.158.671V8.764a1.517,1.517,0,0,0,.158.671l.289.576A.511.511,0,0,1,4,10.236V11.5a.5.5,0,0,1-.5.5h-2a.5.5,0,0,1-.5-.5Z"/>
  <path d="M8.5,5h5a.5.5,0,0,0,.5-.5v-2a.5.5,0,0,0-.5-.5h-5a.5.5,0,0,0-.5.5v2A.5.5,0,0,0,8.5,5ZM9,3h4V4H9Z"/>
  <rect x="10.5" y="8" width="1" height="1"/>
  <rect x="10.5" y="6" width="1" height="1"/>
  <rect x="10.5" y="10" width="1" height="1"/>
  <rect x="8" y="8" width="1" height="1"/>
  <rect x="8" y="6" width="1" height="1"/>
  <rect x="8" y="10" width="1" height="1"/>
  <rect x="13" y="8" width="1" height="1"/>
  <rect x="13" y="6" width="1" height="1"/>
  <rect x="13" y="10" width="1" height="1"/>
</svg>
