<svg xmlns="http://www.w3.org/2000/svg" viewBox="0 0 16 16">
  <title>phone-message</title>
  <path d="M4.963,6.994a.5.5,0,0,0-.023-.383A9.279,9.279,0,0,1,4,2.5.5.5,0,0,0,3.5,2H.5a.5.5,0,0,0-.5.5A13.515,13.515,0,0,0,13.5,16a.5.5,0,0,0,.5-.5v-3a.5.5,0,0,0-.5-.5,9.283,9.283,0,0,1-4.11-.939.5.5,0,0,0-.67.232L7.635,13.537A12.588,12.588,0,0,1,2.464,8.365L4.708,7.28A.5.5,0,0,0,4.963,6.994Zm4.444,5.175a10.247,10.247,0,0,0,3.593.82v2a12.41,12.41,0,0,1-4.464-1.019Zm-7.379-4.7A12.417,12.417,0,0,1,1.01,3h2a10.241,10.241,0,0,0,.819,3.593Z"/>
  <path d="M15,1H8A.99.99,0,0,0,7,2V6A.99.99,0,0,0,8,7H9V8.5a.5.5,0,0,0,.342.474A.493.493,0,0,0,9.5,9a.5.5,0,0,0,.4-.2L11.25,7H15a.99.99,0,0,0,1-1V2A.99.99,0,0,0,15,1Zm0,5H11a.5.5,0,0,0-.4.2L10,7V6.5A.5.5,0,0,0,9.5,6H8V2h7Z"/>
</svg>
