<svg xmlns="http://www.w3.org/2000/svg" viewBox="0 0 16 16">
  <title>rain</title>
  <path d="M13,5l-.1,0A5,5,0,0,0,3.416,4,3.5,3.5,0,0,0,3.5,11H13a3,3,0,0,0,0-6Zm0,5H3.5a2.5,2.5,0,0,1,0-5,1.048,1.048,0,0,1,.132,0,.5.5,0,0,0,.591-.321,4,4,0,0,1,7.761.916.5.5,0,0,0,.591.441A2.35,2.35,0,0,1,13,6a2,2,0,0,1,0,4Z"/>
  <path d="M14,14.5a5.888,5.888,0,0,0-1.089-2.284.519.519,0,0,0-.822,0A5.888,5.888,0,0,0,11,14.5a1.5,1.5,0,0,0,3,0Zm-2,0a3.725,3.725,0,0,1,.5-1.074A3.713,3.713,0,0,1,13,14.5a.5.5,0,0,1-1,0Z"/>
  <path d="M9.5,14.5a5.888,5.888,0,0,0-1.089-2.284.519.519,0,0,0-.822,0A5.888,5.888,0,0,0,6.5,14.5a1.5,1.5,0,0,0,3,0Zm-2,0A3.725,3.725,0,0,1,8,13.427,3.713,3.713,0,0,1,8.5,14.5a.5.5,0,0,1-1,0Z"/>
  <path d="M3.5,16A1.5,1.5,0,0,0,5,14.5a5.888,5.888,0,0,0-1.089-2.284.519.519,0,0,0-.822,0A5.888,5.888,0,0,0,2,14.5,1.5,1.5,0,0,0,3.5,16Zm0-2.573A3.713,3.713,0,0,1,4,14.5a.5.5,0,0,1-1,0A3.725,3.725,0,0,1,3.5,13.427Z"/>
</svg>
