<svg xmlns="http://www.w3.org/2000/svg" viewBox="0 0 16 16">
  <title>renew-arrow</title>
  <path d="M8.747,14.391l-.637.8A.5.5,0,0,0,8.5,16a.481.481,0,0,0,.1-.01A6.738,6.738,0,0,0,14,9.4V5h1.5a.5.5,0,0,0,.376-.829l-3.5-4a.516.516,0,0,0-.753,0l-3.5,4A.5.5,0,0,0,8.5,5H10v5.818A5.736,5.736,0,0,1,8.747,14.391ZM10.5,4H9.6L12,1.259,14.4,4h-.9a.5.5,0,0,0-.5.5V9.4a5.74,5.74,0,0,1-3.083,5.074A6.747,6.747,0,0,0,11,10.818V4.5A.5.5,0,0,0,10.5,4Z"/>
  <path d="M7.253,1.609l.637-.8A.5.5,0,0,0,7.4.01,6.738,6.738,0,0,0,2,6.6V11H.5a.5.5,0,0,0-.376.829l3.5,4a.5.5,0,0,0,.753,0l3.5-4A.5.5,0,0,0,7.5,11H6V5.182A5.736,5.736,0,0,1,7.253,1.609ZM5.5,12h.9L4,14.741,1.6,12h.9a.5.5,0,0,0,.5-.5V6.6A5.74,5.74,0,0,1,6.083,1.525,6.747,6.747,0,0,0,5,5.182V11.5A.5.5,0,0,0,5.5,12Z"/>
</svg>
