<svg xmlns="http://www.w3.org/2000/svg" viewBox="0 0 16 16">
  <title>segway</title>
  <path d="M.5,16h2a.5.5,0,0,0,.5-.5V15h9v.5a.5.5,0,0,0,.5.5h2a.5.5,0,0,0,.5-.5v-5a.5.5,0,0,0-.5-.5h-2a.5.5,0,0,0-.5.5V12H9.75L8.4,10.2A.5.5,0,0,0,8,10H8V3h.5A.5.5,0,0,0,9,2.5V2h2.5a.5.5,0,0,0,0-1H9V.5A.5.5,0,0,0,8.5,0h-2A.5.5,0,0,0,6,.5V1H3.5a.5.5,0,0,0,0,1H6v.5a.5.5,0,0,0,.5.5H7v7a.5.5,0,0,0-.4.2L5.25,12H3V10.5a.5.5,0,0,0-.5-.5H.5a.5.5,0,0,0-.5.5v5A.5.5,0,0,0,.5,16ZM7,1H8V2H7Zm6,10h1v4H13ZM5.5,13a.5.5,0,0,0,.4-.2L7.25,11h.5L9.1,12.8a.5.5,0,0,0,.4.2H12v1H3V13ZM1,11H2v4H1Z"/>
</svg>
