<svg xmlns="http://www.w3.org/2000/svg" viewBox="0 0 16 16">
  <title>selfie</title>
  <path d="M7.5,0A.5.5,0,0,0,7,.5V1H2A1,1,0,0,0,1,2V7A1,1,0,0,0,2,8H5V9.5a.5.5,0,0,0,.5.5H7.293l2,2-.468.424a.5.5,0,0,0,.022.76L12.2,15.89a.5.5,0,0,0,.649-.02l1.482-1.343a.5.5,0,0,0-.022-.76l-3.356-2.706a.5.5,0,0,0-.649.02l-.273.247L8.707,10H9.5a.5.5,0,0,0,.5-.5V8h2a1,1,0,0,0,1-1V2a1,1,0,0,0-1-1H8V.5A.5.5,0,0,0,7.5,0Zm3.162,12.107L13.23,14.18l-.731.663L9.931,12.771l.432-.391.011-.007,0-.007ZM2,2h8V7H2ZM9,9H6V8H9Zm3-2V7H11V2h1V7Z"/>
  <path d="M8.5,4.5a.5.5,0,0,0-.276-.447l-3-1.5A.5.5,0,0,0,4.5,3V6a.5.5,0,0,0,.724.447l3-1.5A.5.5,0,0,0,8.5,4.5Zm-3,.691V3.809L6.882,4.5Z"/>
</svg>
