<svg xmlns="http://www.w3.org/2000/svg" viewBox="0 0 16 16">
  <title>skull</title>
  <path d="M5,16h6a2,2,0,0,0,2-2V11.9a7,7,0,1,0-10,0V14A2,2,0,0,0,5,16ZM2,7A6,6,0,0,1,8.016,1a6.249,6.249,0,0,1,1.122.1A6,6,0,0,1,12.154,11.33a.5.5,0,0,0-.154.36V14a1,1,0,0,1-1,1h-.5V14a.5.5,0,0,0-1,0v1h-1V14a.5.5,0,0,0-1,0v1h-1V14a.5.5,0,0,0-1,0v1H5a1,1,0,0,1-1-1V11.69a.5.5,0,0,0-.154-.36A6.033,6.033,0,0,1,2,7Z"/>
  <path d="M5.5,11.5A1.494,1.494,0,0,0,8,12.609,1.494,1.494,0,0,0,10.5,11.5c0-.726-1.067-2.5-2-2.5a.778.778,0,0,0-.5.194A.778.778,0,0,0,7.5,9C6.567,9,5.5,10.774,5.5,11.5Zm3.093-1.436A3.215,3.215,0,0,1,9.5,11.5a.5.5,0,0,1-1,0v-.137A5.216,5.216,0,0,1,8.593,10.064ZM7.5,11.5a.5.5,0,0,1-1,0,3.309,3.309,0,0,1,.9-1.447,5.064,5.064,0,0,1,.1,1.311Z"/>
  <path d="M6.738,7.491A1.455,1.455,0,0,0,6.46,5.753L5.747,5.04a1.452,1.452,0,0,0-1.738-.277A2,2,0,1,0,6.738,7.491ZM4,6.5a1.006,1.006,0,0,1,.505-.87.346.346,0,0,1,.17-.042.531.531,0,0,1,.364.159l.712.713h0A.47.47,0,0,1,5.87,7,1,1,0,0,1,4,6.5Z"/>
  <path d="M10.913,8.5A2,2,0,0,0,11.9,4.763a1.456,1.456,0,0,0-1.738.277l-.712.713a1.454,1.454,0,0,0-.278,1.738A2.006,2.006,0,0,0,10.913,8.5ZM10.16,6.46l.712-.713a.531.531,0,0,1,.365-.159.343.343,0,0,1,.17.042A1,1,0,1,1,10.043,7,.469.469,0,0,1,10.16,6.46Z"/>
</svg>
