<svg xmlns="http://www.w3.org/2000/svg" viewBox="0 0 16 16">
  <title>smartwatch-app</title>
  <path d="M11.153,3.372A6.67,6.67,0,0,1,10.5.5.5.5,0,0,0,10,0H5a.5.5,0,0,0-.5.5,6.67,6.67,0,0,1-.653,2.872A2,2,0,0,0,3,5v6a2,2,0,0,0,.847,1.628A6.67,6.67,0,0,1,4.5,15.5.5.5,0,0,0,5,16h5a.5.5,0,0,0,.5-.5,6.67,6.67,0,0,1,.653-2.872A2,2,0,0,0,12,11V6.5a.5.5,0,0,0,1,0v-1a.5.5,0,0,0-1,0V5A2,2,0,0,0,11.153,3.372ZM11,11a1,1,0,0,1-1,1H5a1,1,0,0,1-1-1v-.109a3.422,3.422,0,0,0,1.392-1.8c.128-.263.262-.525.4-.779a1.48,1.48,0,0,0,.7.184A1.5,1.5,0,0,0,7.99,7.1c.491.205.731.746,1.042,1.576.344.917.766,2.029,1.968,2.272ZM6,7a.5.5,0,1,1,.5.5A.5.5,0,0,1,6,7ZM9.968,8.324C9.591,7.317,9.115,6.08,7.62,6.013A1.492,1.492,0,0,0,5.1,7.533a12.211,12.211,0,0,0-.61,1.124A8.752,8.752,0,0,1,4,9.581V5A1,1,0,0,1,5,4h5a1,1,0,0,1,1,1V9.9C10.515,9.69,10.277,9.15,9.968,8.324ZM9.517,1a7.705,7.705,0,0,0,.408,2H5.075a7.705,7.705,0,0,0,.408-2ZM5.483,15a7.705,7.705,0,0,0-.408-2H9.925a7.705,7.705,0,0,0-.408,2Z"/>
</svg>
