<svg xmlns="http://www.w3.org/2000/svg" viewBox="0 0 16 16">
  <title>soccer</title>
  <path d="M8,0A7.984,7.984,0,0,0,1.6,3.214L1.6,3.222A7.99,7.99,0,1,0,8,0Zm6.948,7.18-1-1.1.278-1.279A6.937,6.937,0,0,1,14.948,7.18Zm-.926,4.372-2.487.491L10.567,10.9l1.178-3.3,1.537-.753L14.966,8.68A6.94,6.94,0,0,1,14.021,11.552ZM4.3,13.07l.343,1.069A7.035,7.035,0,0,1,3.116,13Zm.153-.993L2.23,11.954a6.954,6.954,0,0,1-1.2-3.274L2.727,6.841,4.271,7.6l1.163,3.3ZM1.788,4.787l.279,1.295-1.015,1.1A6.94,6.94,0,0,1,1.788,4.787ZM6.354,10.5,5.27,7.421l2.739-2,2.738,2-1.1,3.08Zm7.1-6.877-.491,2.264-1.569.768-2.886-2.1V2.6l2.057-1.106A7.027,7.027,0,0,1,13.454,3.623ZM9.173,1.106,8.01,1.731,6.846,1.1A6.989,6.989,0,0,1,8,1,6.987,6.987,0,0,1,9.173,1.106Zm-3.722.381L7.508,2.6V4.551l-2.885,2.1-1.576-.77-.49-2.276A7.027,7.027,0,0,1,5.451,1.488Zm.41,13.175L5.232,12.7l1-1.2H9.768l.985,1.167-.97,2.094a6.871,6.871,0,0,1-3.922-.1Zm5.257-.4.568-1.227,1.444-.285A7.029,7.029,0,0,1,11.118,14.258Z"/>
</svg>
