<svg xmlns="http://www.w3.org/2000/svg" viewBox="0 0 16 16">
  <title>team</title>
  <path d="M11,2a2,2,0,1,0,2-2A2,2,0,0,0,11,2Zm3,0a1,1,0,1,1-1-1A1,1,0,0,1,14,2Z"/>
  <path d="M14,5a.5.5,0,0,0-.354.146L13,5.793l-.646-.646a.5.5,0,0,0-.707.707l1,1a.5.5,0,0,0,.707,0L14.2,6l.347.009L14.932,9H14.5a.5.5,0,0,0-.5.45L13.548,14h-1.1l-.3-3.05A.5.5,0,0,0,11.6,10.5a.5.5,0,0,0-.447.547l.3,3.049a1,1,0,0,0,.994.9h1.1a1,1,0,0,0,.994-.9l.41-4.1H15.5a.5.5,0,0,0,.5-.563L15.542,5.9a1,1,0,0,0-.994-.9Z"/>
  <path d="M3,4A2,2,0,1,0,1,2,2,2,0,0,0,3,4ZM3,1A1,1,0,1,1,2,2,1,1,0,0,1,3,1Z"/>
  <path d="M.5,10h.548l.41,4.1a1,1,0,0,0,.994.9h1.1a1,1,0,0,0,.994-.9l.3-3.05a.5.5,0,1,0-.994-.1L3.548,14h-1.1L2,9.45A.5.5,0,0,0,1.5,9H1.068l.384-3h.341l.854.854a.5.5,0,0,0,.707,0l1-1a.5.5,0,0,0-.707-.707L3,5.793l-.646-.646A.5.5,0,0,0,2,5H1.452a.993.993,0,0,0-.993.887L0,9.437a.5.5,0,0,0,.121.394A.5.5,0,0,0,.5,10Z"/>
  <path d="M8,4A2,2,0,1,0,6,2,2,2,0,0,0,8,4ZM8,1A1,1,0,1,1,7,2,1,1,0,0,1,8,1Z"/>
  <path d="M5.459,5.887,5,9.437A.5.5,0,0,0,5.5,10h.539l.419,5.1a1,1,0,0,0,.994.9h1.1a1,1,0,0,0,1-.909L9.961,10H10.5a.5.5,0,0,0,.5-.563L10.542,5.9A1,1,0,0,0,9.548,5H9a.5.5,0,0,0-.354.146L8,5.793l-.646-.646A.5.5,0,0,0,7,5H6.452A.993.993,0,0,0,5.459,5.887ZM6.452,6h.341l.854.854a.5.5,0,0,0,.707,0L9.2,6l.347.009L9.932,9H9.5a.5.5,0,0,0-.5.459L8.548,15l-1.095.009L7,9.459A.5.5,0,0,0,6.5,9H6.068Z"/>
</svg>
