<svg xmlns="http://www.w3.org/2000/svg" viewBox="0 0 16 16">
  <title>tobacco-pipe</title>
  <path d="M15.5,4c-2.593,0-4.358,2.07-5.917,3.9C8.407,9.276,7.289,10.587,6,10.852V8.5A.5.5,0,0,0,5.5,8H.5a.5.5,0,0,0-.5.5V12a3,3,0,0,0,3,3c.08,0,.16,0,.213,0l.073-.006c4.15-.008,6.56-3.169,8.5-5.709C13.1,7.551,14.24,6.057,15.522,6A.5.5,0,0,0,16,5.5v-1A.5.5,0,0,0,15.5,4ZM15,5.063c-1.511.329-2.679,1.862-4.014,3.612-1.881,2.469-4.011,5.263-7.673,5.318a.373.373,0,0,0-.114,0C3.137,14,3.069,14,3,14a2,2,0,0,1-2-2V9H5v2.4a.5.5,0,0,0,.5.5c2.02.033,3.369-1.619,4.849-3.354,1.368-1.6,2.779-3.258,4.656-3.513Z"/>
  <path d="M2.029,2.024A2.488,2.488,0,0,0,1,4a2.936,2.936,0,0,0,.863,2.141,4.471,4.471,0,0,0,1.115.8A.487.487,0,0,0,3.2,7h.028a.5.5,0,0,0,.456-.705c-.293-.652-.171-.863-.021-1.022.092-.1.2-.19.3-.284A2.526,2.526,0,0,0,5,3,3.223,3.223,0,0,0,3.021.059a.51.51,0,0,0-.6.093.5.5,0,0,0-.1.548,1.772,1.772,0,0,1,.179.676C2.5,1.581,2.364,1.724,2.029,2.024Zm.669.744a2.058,2.058,0,0,0,.781-1.151A1.919,1.919,0,0,1,4,3a1.559,1.559,0,0,1-.711,1.246c-.125.112-.247.224-.357.341a1.513,1.513,0,0,0-.409.8A1.94,1.94,0,0,1,2,4,1.521,1.521,0,0,1,2.7,2.769Z"/>
</svg>
