<svg xmlns="http://www.w3.org/2000/svg" viewBox="0 0 16 16">
  <title>user</title>
  <path d="M11,4A3,3,0,1,0,8,7,3,3,0,0,0,11,4ZM6,4A2,2,0,1,1,8,6,2,2,0,0,1,6,4Z"/>
  <path d="M2,13a1,1,0,0,0,1,1H13a1,1,0,0,0,1-1V10.5c0-.008,0-.014,0-.021a1.206,1.206,0,0,0-.045-.189.5.5,0,0,0-.05-.074.488.488,0,0,0-.066-.082c-.006-.005-.008-.012-.014-.017a9.051,9.051,0,0,0-11.643,0c-.006,0-.008.012-.014.017a.494.494,0,0,0-.066.083.5.5,0,0,0-.049.073A1.2,1.2,0,0,0,2,10.479c0,.008,0,.014,0,.021Zm11-2.253V13H3V10.747A8.041,8.041,0,0,1,13,10.747Z"/>
</svg>
