<svg xmlns="http://www.w3.org/2000/svg" viewBox="0 0 16 16">
  <title>vegetarian</title>
  <path d="M15.5,7h-.675a2.99,2.99,0,0,0-2.58-3.99,3,3,0,0,0-4.489,0A2.976,2.976,0,0,0,6,3.782V1.5A.5.5,0,0,0,5.5,1,3.506,3.506,0,0,0,2.248,3.234c-.006,0-.012,0-.018,0a.59.59,0,0,0-.355.148A3.018,3.018,0,0,0,1.416,7H.5a.5.5,0,0,0-.5.5,7.53,7.53,0,0,0,5,6.953V15.5a.5.5,0,0,0,.5.5h5a.5.5,0,0,0,.5-.5V14.453A7.53,7.53,0,0,0,16,7.5.5.5,0,0,0,15.5,7ZM8,4a.5.5,0,0,0,.4-.2,2.06,2.06,0,0,1,3.2,0A.5.5,0,0,0,12,4a1.964,1.964,0,0,1,1.705,3H11.5l.8-.6a.5.5,0,0,0-.6-.8l-1.2.9v-1a.5.5,0,0,0-1,0v1L8.3,5.6a.5.5,0,0,0-.6.8l.8.6h-2.2A1.964,1.964,0,0,1,8,4ZM5,2.051V5.793L3.088,3.881A2.494,2.494,0,0,1,5,2.051ZM2.585,6.918a2.024,2.024,0,0,1-.309-2.434L4.793,7H2.682A1.232,1.232,0,0,1,2.585,6.918Zm7.758,6.707A.5.5,0,0,0,10,14.1V15H6v-.9a.5.5,0,0,0-.343-.475A6.607,6.607,0,0,1,1.021,8H14.979A6.607,6.607,0,0,1,10.343,13.625Z"/>
</svg>
