<svg xmlns="http://www.w3.org/2000/svg" viewBox="0 0 16 16">
  <title>virtual-reality</title>
  <path d="M5.6,9.67l-2.188.439A3,3,0,0,0,1,13.05V14a1,1,0,0,0,1,1H14a1,1,0,0,0,1-1v-.95a3,3,0,0,0-2.411-2.94L10.4,9.669A.5.5,0,0,1,10,9.18v-.5a6.021,6.021,0,0,0,.413-.735,4.127,4.127,0,0,1,.352-.618A3.645,3.645,0,0,0,11.68,6H12a1,1,0,0,0,1-1V3a1,1,0,0,0-1-1h-.579A1.845,1.845,0,0,0,10.937.911a1.541,1.541,0,0,0-.928-.39A1.6,1.6,0,0,1,9.668.44,3.523,3.523,0,0,0,7.979,0,3.979,3.979,0,0,0,4.692,2H4A1,1,0,0,0,3,3V5A1,1,0,0,0,4,6h.309a3.657,3.657,0,0,0,.924,1.33,4.311,4.311,0,0,1,.351.615A6.21,6.21,0,0,0,6,8.677v.5A.5.5,0,0,1,5.6,9.67ZM12,5V5ZM7.99,1a2.5,2.5,0,0,1,1.2.318,2.07,2.07,0,0,0,.651.188,1.777,1.777,0,0,1,.362.083.812.812,0,0,1,.2.41H5.884A3.108,3.108,0,0,1,7.99,1ZM4,3h8V5H9.116L8.2,4.551a.5.5,0,0,0-.448,0L6.88,5H4ZM6.854,8.146a4.3,4.3,0,0,1-.38-.66,3.609,3.609,0,0,0-.539-.87A3.768,3.768,0,0,1,5.419,6H7a.5.5,0,0,0,.228-.055l.756-.386.795.39A.5.5,0,0,0,9,6h1.578a3.946,3.946,0,0,1-.513.61,3.5,3.5,0,0,0-.544.88,4.2,4.2,0,0,1-.374.656A.5.5,0,0,0,9,8.5v.68a1.5,1.5,0,0,0,1.2,1.47l2.192.44A2,2,0,0,1,14,13.05V14H2v-.95A2,2,0,0,1,3.608,11.09L5.8,10.651A1.5,1.5,0,0,0,7,9.18V8.5A.5.5,0,0,0,6.854,8.146Z"/>
</svg>
