<svg xmlns="http://www.w3.org/2000/svg" viewBox="0 0 16 16">
  <title>youtube</title>
  <path d="M13.147,3.084C12.2,3.022,9.866,3,8,3s-4.2.022-5.145.084A2.235,2.235,0,0,0,.705,4.207C.218,5.024,0,6.348,0,8.506s.218,3.475.7,4.279a2.268,2.268,0,0,0,2.154,1.134C3.813,13.973,6.169,14,8,14s4.184-.027,5.146-.081a2.251,2.251,0,0,0,2.141-1.126c.491-.8.711-2.126.711-4.295s-.218-3.478-.707-4.289A2.225,2.225,0,0,0,13.147,3.084Zm1.282,9.2c-.279.481-.493.583-1.342.64-1.658.093-8.525.092-10.17,0-.845-.056-1.072-.164-1.355-.647A8.111,8.111,0,0,1,1,8.5a8.149,8.149,0,0,1,.566-3.782c.281-.48.507-.587,1.351-.634C3.844,4.021,6.235,4,8,4s4.153.021,5.086.082c.838.047,1.063.153,1.342.633l0,.008A8.1,8.1,0,0,1,15,8.506,8.006,8.006,0,0,1,14.43,12.281Z"/>
  <path d="M6.765,5.576A.5.5,0,0,0,6,6v5a.5.5,0,0,0,.765.424l4-2.5a.5.5,0,0,0,0-.848ZM7,10.1V6.9L9.557,8.5Z"/>
</svg>
