<svg xmlns="http://www.w3.org/2000/svg" viewBox="0 0 16 16">
  <title>beer</title>
  <g>
    <path d="M11.5,5.31V14A1.5,1.5,0,0,1,10,15.5H3A1.5,1.5,0,0,1,1.5,14V5.31" fill="none" stroke="#000" stroke-linecap="round" stroke-linejoin="round"/>
    <path d="M11.5,6.5h2a1,1,0,0,1,1,1v4a1,1,0,0,1-1,1h-2" fill="none" stroke="#000" stroke-linecap="round" stroke-linejoin="round"/>
    <path d="M8.49,2.7a1.275,1.275,0,0,0,.01-.2,2,2,0,0,0-4,0,1.275,1.275,0,0,0,.01.2A1.972,1.972,0,0,0,3,2,2,2,0,0,0,3,6a1.679,1.679,0,0,0,.5-.07V7.5a1,1,0,0,0,2,0V5.81A1.976,1.976,0,0,0,7,6.5a2.033,2.033,0,0,0,1.72-.97A1.94,1.94,0,0,0,10,6a2,2,0,0,0,0-4A1.972,1.972,0,0,0,8.49,2.7Z" fill="none" stroke="#000" stroke-linecap="round" stroke-linejoin="round"/>
    <line x1="8.5" y1="8.5" x2="8.5" y2="12.5" fill="none" stroke="#000" stroke-linecap="round" stroke-linejoin="round"/>
    <line x1="4.5" y1="8.5" x2="4.5" y2="12.5" fill="none" stroke="#000" stroke-linecap="round" stroke-linejoin="round"/>
  </g>
</svg>
