<svg xmlns="http://www.w3.org/2000/svg" viewBox="0 0 16 16">
  <title>artificial-intelligent</title>
  <g>
    <path d="M12.5,6A5.5,5.5,0,1,0,2.756,9.5a3.028,3.028,0,0,1,.744,1.92V14.5l6,1V13l2.42.4a.5.5,0,0,0,.58-.492V10H14L12.5,7Z" fill="none" stroke="#000" stroke-linecap="round" stroke-linejoin="round"/>
    <g>
      <rect x="4.5" y="3.5" width="4" height="4" fill="none" stroke="#000" stroke-linecap="round" stroke-linejoin="round"/>
      <line x1="5.5" y1="2.5" x2="5.5" y2="3.5" fill="none" stroke="#000" stroke-linecap="round" stroke-linejoin="round"/>
      <line x1="7.5" y1="2.5" x2="7.5" y2="3.5" fill="none" stroke="#000" stroke-linecap="round" stroke-linejoin="round"/>
      <line x1="5.5" y1="7.5" x2="5.5" y2="8.5" fill="none" stroke="#000" stroke-linecap="round" stroke-linejoin="round"/>
      <line x1="7.5" y1="7.5" x2="7.5" y2="8.5" fill="none" stroke="#000" stroke-linecap="round" stroke-linejoin="round"/>
      <line x1="3.5" y1="6.5" x2="4.5" y2="6.5" fill="none" stroke="#000" stroke-linecap="round" stroke-linejoin="round"/>
      <line x1="3.5" y1="4.5" x2="4.5" y2="4.5" fill="none" stroke="#000" stroke-linecap="round" stroke-linejoin="round"/>
      <line x1="8.5" y1="6.5" x2="9.5" y2="6.5" fill="none" stroke="#000" stroke-linecap="round" stroke-linejoin="round"/>
      <line x1="8.5" y1="4.5" x2="9.5" y2="4.5" fill="none" stroke="#000" stroke-linecap="round" stroke-linejoin="round"/>
    </g>
  </g>
</svg>
