<svg xmlns="http://www.w3.org/2000/svg" viewBox="0 0 16 16">
  <title>tobacco-pipe</title>
  <g>
    <path d="M3,14.5a2.175,2.175,0,0,0,.26-.01C10,14.5,11.88,5.66,15.5,5.5v-1c-4.5,0-6.344,6.938-10,6.9V8.5H.5V12A2.5,2.5,0,0,0,3,14.5a2.175,2.175,0,0,0,.26-.01" fill="none" stroke="#000" stroke-linecap="round" stroke-linejoin="round"/>
    <path d="M2.215,5.785a3.928,3.928,0,0,0,1,.715l0,0,.013,0A1.311,1.311,0,0,1,3.3,4.93C3.775,4.421,4.5,4.047,4.5,3A2.724,2.724,0,0,0,2.786.5l0,0-.01,0A2.263,2.263,0,0,1,3,1.375C3,2.376,1.5,2.5,1.5,4A2.42,2.42,0,0,0,2.215,5.785Z" fill="none" stroke="#000" stroke-linecap="round" stroke-linejoin="round"/>
  </g>
</svg>
