<svg xmlns="http://www.w3.org/2000/svg" viewBox="0 0 16 16">
  <title>email-document</title>
  <g>
    <path d="M13.5,4.17l2,1.33V15a.5.5,0,0,1-.5.5H1A.5.5,0,0,1,.5,15V5.5l2-1.33" fill="none" stroke="#000" stroke-linecap="round" stroke-linejoin="round"/>
    <line x1="15.5" y1="6" x2="9.36" y2="10.5" fill="none" stroke="#000" stroke-linecap="round" stroke-linejoin="round"/>
    <line x1="6.64" y1="10.5" x2="0.5" y2="6" fill="none" stroke="#000" stroke-linecap="round" stroke-linejoin="round"/>
    <polyline points="0.5 15 8 9.5 15.5 15" fill="none" stroke="#000" stroke-linecap="round" stroke-linejoin="round"/>
    <path d="M2.5,7.47V1A.5.5,0,0,1,3,.5H13a.5.5,0,0,1,.5.5V7.47" fill="none" stroke="#000" stroke-linecap="round" stroke-linejoin="round"/>
    <line x1="4.5" y1="2.5" x2="11.5" y2="2.5" fill="none" stroke="#000" stroke-linecap="round" stroke-linejoin="round"/>
    <line x1="4.5" y1="4.5" x2="11.5" y2="4.5" fill="none" stroke="#000" stroke-linecap="round" stroke-linejoin="round"/>
    <line x1="4.5" y1="6.5" x2="8.5" y2="6.5" fill="none" stroke="#000" stroke-linecap="round" stroke-linejoin="round"/>
  </g>
</svg>
