<?xml version="1.0" standalone="no"?>
<!DOCTYPE svg PUBLIC "-//W3C//DTD SVG 1.1//EN" "http://www.w3.org/Graphics/SVG/1.1/DTD/svg11.dtd" >
<svg xmlns="http://www.w3.org/2000/svg">
<metadata>Generated by IcoMoon</metadata>
<defs>
<font id="pixelicons-free-solid" horiz-adv-x="1024">
<font-face units-per-em="1024" ascent="960" descent="-64" />
<missing-glyph horiz-adv-x="1024" />
<glyph unicode="&#x20;" horiz-adv-x="512" d="" />
<glyph unicode="&#xe900;" glyph-name="d-glass" d="M1024 736c0 88.366-71.634 160-160 160v0h-64c-17.673 0-32-14.327-32-32s14.327-32 32-32v0h64c53.019 0 96-42.981 96-96v0-288h-896v288c0 53.019 42.981 96 96 96v0h64c17.673 0 32 14.327 32 32s-14.327 32-32 32v0h-64c-88.366 0-160-71.634-160-160v0-704c0-17.673 14.327-32 32-32v0h352c14.919 0.004 27.452 10.218 30.992 24.034l0.048 0.222 57.92 231.744h78.016l57.92-231.744c3.589-14.041 16.126-24.256 31.049-24.256 0.019 0 0.039 0 0.058 0h351.997c17.673 0 32 14.327 32 32v0 384zM351.040 280.256l-32-128c-3.588-14.038-16.121-24.252-31.040-24.256h-128c-17.673 0-32 14.327-32 32v0 128c0 17.673 14.327 32 32 32v0h160c17.669-0.005 31.991-14.33 31.991-32 0-2.75-0.347-5.419-0.999-7.966l0.048 0.222zM896 160c0-17.673-14.327-32-32-32v0h-128c-14.919 0.004-27.452 10.218-30.992 24.034l-0.048 0.222-32 128c-0.604 2.325-0.951 4.994-0.951 7.744 0 17.67 14.322 31.995 31.991 32h160c17.673 0 32-14.327 32-32v0z" />
<glyph unicode="&#xe901;" glyph-name="android" d="M128 576c-35.346 0-64-28.654-64-64v0-256c0-35.346 28.654-64 64-64s64 28.654 64 64v0 256c0 35.346-28.654 64-64 64v0zM896 576c-35.346 0-64-28.654-64-64v0-256c0-35.346 28.654-64 64-64s64 28.654 64 64v0 256c0 35.346-28.654 64-64 64v0zM256 188.288c0-35.346 28.654-64 64-64v0-124.288c0-35.346 28.654-64 64-64s64 28.654 64 64v0 124.288h128v-124.288c0-35.346 28.654-64 64-64s64 28.654 64 64v0 124.288c35.346 0 64 28.654 64 64v0 384h-512zM672 838.4l56.96 69.056c4.562 5.491 7.331 12.614 7.331 20.384 0 17.675-14.328 32.003-32.003 32.003-9.905 0-18.759-4.5-24.63-11.567l-0.042-0.052-62.528-75.264c-30.755 14.528-66.808 23.009-104.843 23.009-38.622 0-75.201-8.745-107.866-24.363l1.509 0.65-60.864 75.712c-5.915 7.348-14.909 12.009-24.992 12.009-17.678 0-32.009-14.331-32.009-32.009 0-7.596 2.646-14.573 7.065-20.062l-0.048 0.062 56.192-70.4c-58.046-46.831-94.944-117.861-95.232-197.519v-0.049h512c-0.218 80.133-37.451 151.526-95.496 198.010l-0.504 0.39zM448 736c-17.673 0-32 14.327-32 32s14.327 32 32 32c17.673 0 32-14.327 32-32v0c0-17.673-14.327-32-32-32v0zM576 736c-17.673 0-32 14.327-32 32s14.327 32 32 32c17.673 0 32-14.327 32-32v0c0-17.673-14.327-32-32-32v0z" />
<glyph unicode="&#xe902;" glyph-name="apple" d="M654.4 793.6c31.661 38.526 50.855 88.342 50.855 142.642 0 8.369-0.456 16.631-1.344 24.764l0.089-1.005c-62.829-7.732-117.26-38.684-155.351-83.863l-0.297-0.361c-32.625-36.633-52.559-85.191-52.559-138.405 0-8.376 0.494-16.636 1.454-24.754l-0.095 0.983c64.067 1.364 120.655 32.231 156.891 79.515l0.357 0.485zM919.68 616.448c-45.406 60.363-115.532 100.025-195.056 103.849l-0.592 0.023c-91.84 0-130.688-43.968-194.496-43.968-65.792 0-115.776 43.84-195.2 43.84-90.861-5.076-169.018-55.098-213.093-128.027l-0.667-1.189c-73.984-114.816-61.376-330.688 58.624-514.56 42.944-65.792 100.288-139.776 175.296-140.416 66.752-0.64 85.568 42.816 176 43.264s107.584-43.84 174.208-43.136c75.072 0.576 135.552 82.56 178.496 148.352 23.932 35.61 46.074 76.426 64.285 119.315l1.827 4.845c-85.62 33.341-145.191 115.128-145.191 210.828 0 84.19 46.104 157.612 114.441 196.396l1.118 0.584z" />
<glyph unicode="&#xe903;" glyph-name="artificial-intelligent" d="M924.608 334.336l-92.608 185.216v56.448c0 0.007 0 0.016 0 0.024 0 212.077-171.923 384-384 384s-384-171.923-384-384c0-93.105 33.135-178.47 88.256-244.948l-0.512 0.636c23.962-27.363 38.994-63.077 40.249-102.269l0.007-0.259v-197.184c0.008-15.813 11.484-28.944 26.562-31.525l0.19-0.027 384-64c1.547-0.285 3.327-0.448 5.145-0.448 0.036 0 0.072 0 0.108 0h-0.006c17.673 0 32 14.327 32 32v0 122.24l117.696-19.2c3.098-0.531 6.666-0.835 10.305-0.835 35.235 0 63.819 28.473 63.999 63.666v154.129h64c17.673 0.001 31.999 14.327 31.999 32 0 5.226-1.253 10.16-3.475 14.517l0.084-0.181zM608 576c17.673 0 32-14.327 32-32s-14.327-32-32-32v0h-32v-32c0-17.673-14.327-32-32-32v0h-32v-32c0-17.673-14.327-32-32-32s-32 14.327-32 32v0 32h-64v-32c0-17.673-14.327-32-32-32s-32 14.327-32 32v0 32h-32c-17.673 0-32 14.327-32 32v0 32h-32c-17.673 0-32 14.327-32 32s14.327 32 32 32v0h32v64h-32c-17.673 0-32 14.327-32 32s14.327 32 32 32v0h32v32c0 17.673 14.327 32 32 32v0h32v32c0 17.673 14.327 32 32 32s32-14.327 32-32v0-32h64v32c0 17.673 14.327 32 32 32s32-14.327 32-32v0-32h32c17.673 0 32-14.327 32-32v0-32h32c17.673 0 32-14.327 32-32s-14.327-32-32-32v0h-32v-64z" />
<glyph unicode="&#xe904;" glyph-name="bags" d="M992 448h-96v32c0 88.366-71.634 160-160 160s-160-71.634-160-160v0-32h-96c-17.673 0-32-14.327-32-32v0-352c0-70.692 57.308-128 128-128v0h320c70.692 0 128 57.308 128 128v0 352c0 17.673-14.327 32-32 32v0zM832 448h-192v32c0 53.019 42.981 96 96 96s96-42.981 96-96v0zM384 416c0 53.019 42.981 96 96 96v0h34.304c11.437 74.643 58.339 136.294 122.655 167.991l1.313 0.585c-3.693 13.526-15.824 23.322-30.26 23.424h-96.012v64c0 106.039-85.961 192-192 192s-192-85.961-192-192v0-64h-96c-17.673 0-32-14.327-32-32v0-608c0-70.692 57.308-128 128-128v0h305.92c-30.827 33.625-49.767 78.586-49.92 127.969v0.031zM192 768c0 70.692 57.308 128 128 128s128-57.308 128-128v0-64h-256z" />
<glyph unicode="&#xe905;" glyph-name="bank" d="M992 512c17.673 0 32 14.327 32 32v0 64c-0.008 12.16-6.798 22.732-16.791 28.14l-0.169 0.084-480 256c-4.363 2.375-9.554 3.772-15.072 3.772s-10.709-1.397-15.241-3.855l0.169 0.084-480-256c-10.133-5.506-16.896-16.069-16.896-28.211 0-0.005 0-0.009 0-0.014v0.001-64c0-17.673 14.327-32 32-32v0h96v-320h-64c-35.346 0-64-28.654-64-64v0-96c0-17.673 14.327-32 32-32v0h960c17.673 0 32 14.327 32 32v0 96c0 35.346-28.654 64-64 64v0h-64v320zM256 192v320h192v-320zM768 192h-192v320h192z" />
<glyph unicode="&#xe906;" glyph-name="basket-ball" d="M626.816 608c-77.288 96.44-131.812 214.359-153.559 343.409l-0.617 4.431-0.576 3.456c-115.763-9.167-219.196-55.664-299.783-127.301l0.519 0.453 339.2-339.136zM851.2 832.384c-83.658 74.315-192.746 121.661-312.73 127.569l-1.19 0.047c20.335-117.366 67.847-221.090 135.855-308.002l-1.135 1.506zM1024 473.28c-6.013 121.050-53.324 230.015-128.009 314.124l0.457-0.524-179.2-179.2c85.496-66.793 189.317-114.205 302.664-133.815l4.088-0.585zM149.12 810.88l-0.128-0.128 0.256 0.32-0.128-0.192zM352 333.184l114.688 114.816-339.2 339.2c-71.161-80.074-117.636-183.508-126.67-297.483l-0.114-1.781 3.456-0.576c133.48-22.363 251.399-76.887 349.331-155.33l-1.491 1.154zM0 422.72c6.038-121.057 53.369-230.019 128.072-314.123l-0.456 0.523 179.2 179.2c-85.512 66.804-189.357 114.218-302.729 133.815l-4.087 0.585zM172.8 63.552c83.668-74.288 192.755-121.61 312.732-127.506l1.188-0.046c-20.338 117.366-67.85 221.089-135.856 308.003l1.136-1.507zM397.248 288c77.222-96.399 131.717-214.245 153.493-343.21l0.619-4.438 0.576-3.456c115.742 9.11 219.178 55.541 299.789 127.114l-0.525-0.458-339.2 339.072zM672 562.752l-114.624-114.752 339.2-339.2c71.16 80.035 117.652 183.42 126.733 297.347l0.115 1.789-3.456 0.576c-133.53 22.376-251.493 76.922-349.46 155.396l1.492-1.156z" />
<glyph unicode="&#xe907;" glyph-name="basket" d="M992 640h-172.224l-119.168 238.336c-5.371 10.583-16.173 17.709-28.64 17.709-17.68 0-32.013-14.333-32.013-32.013 0-5.214 1.246-10.136 3.457-14.486l-0.084 0.182 104.896-209.728h-472.448l104.832 209.664c2.127 4.168 3.373 9.090 3.373 14.304 0 17.68-14.333 32.013-32.013 32.013-12.467 0-23.269-7.126-28.556-17.527l-0.084-0.182-119.104-238.272h-172.224c-17.673 0-32-14.327-32-32v0-128c0-17.673 14.327-32 32-32v0h960c17.673 0 32 14.327 32 32v0 128c0 17.673-14.327 32-32 32v0zM192.96-39.744c3.588-14.038 16.121-24.252 31.040-24.256h576c14.919 0.004 27.452 10.218 30.992 24.034l0.048 0.222 105.984 423.744h-849.984zM640 288c0 17.673 14.327 32 32 32s32-14.327 32-32v0-192c0-17.673-14.327-32-32-32s-32 14.327-32 32v0zM480 288c0 17.673 14.327 32 32 32s32-14.327 32-32v0-192c0-17.673-14.327-32-32-32s-32 14.327-32 32v0zM320 288c0 17.673 14.327 32 32 32s32-14.327 32-32v0-192c0-17.673-14.327-32-32-32s-32 14.327-32 32v0z" />
<glyph unicode="&#xe908;" glyph-name="beer" d="M864 576h-96v32.96c19.882 26.116 31.89 59.165 32 95.014v0.026c-0.021 88.35-71.647 159.963-160 159.963-25.906 0-50.374-6.157-72.020-17.087l0.916 0.419c-20.816 65.849-81.363 112.75-152.864 112.75s-132.048-46.901-152.554-111.616l-0.31-1.133c-20.882 10.741-45.566 17.036-71.722 17.036-88.083 0-159.488-71.405-159.488-159.488 0-36.169 12.040-69.525 32.33-96.281l-0.288 0.397v-544.96c0-70.692 57.308-128 128-128v0h448c70.692 0 128 57.308 128 128v0 64h96c53.019 0 96 42.981 96 96v0 256c0 53.019-42.981 96-96 96v0zM320 160c0-17.673-14.327-32-32-32s-32 14.327-32 32v0 192c0 17.673 14.327 32 32 32s32-14.327 32-32v0zM576 160c0-17.673-14.327-32-32-32s-32 14.327-32 32v0 192c0 17.673 14.327 32 32 32s32-14.327 32-32v0zM640 608c-0.204-0.002-0.445-0.003-0.686-0.003-23.124 0-44.267 8.481-60.488 22.502l0.118-0.099c-5.559 4.783-12.847 7.695-20.815 7.695-11.421 0-21.444-5.983-27.107-14.986l-0.078-0.133c-18.087-26.984-48.464-44.509-82.934-44.509-28.144 0-53.559 11.682-71.661 30.462l-0.029 0.030c-5.904 6.875-14.607 11.202-24.32 11.202-17.673 0-32-14.327-32-32 0-0.001 0-0.002 0-0.003v0-108.16c0-17.673-14.327-32-32-32s-32 14.327-32 32v0 100.48c0 0.008 0 0.017 0 0.026 0 17.673-14.327 32-32 32-3.381 0-6.64-0.524-9.699-1.496l0.227 0.062c-6.446-1.954-13.855-3.079-21.526-3.079-0.352 0-0.704 0.002-1.055 0.007l0.053-0.001c-53.019 0-96 42.981-96 96s42.981 96 96 96v0c0.126 0.001 0.274 0.001 0.423 0.001 28.682 0 54.352-12.896 71.527-33.207l0.114-0.138c5.904-6.865 14.6-11.186 24.306-11.186 17.673 0 32 14.327 32 32 0 1.712-0.134 3.392-0.393 5.031l0.024-0.181c-0.092 1.149-0.144 2.489-0.144 3.84s0.052 2.691 0.155 4.016l-0.011-0.176c0 53.019 42.981 96 96 96s96-42.981 96-96v0c0.092-1.149 0.144-2.489 0.144-3.84s-0.052-2.691-0.155-4.016l0.011 0.176c-0.255-1.518-0.401-3.266-0.401-5.049 0-17.673 14.327-32 32-32 9.827 0 18.619 4.43 24.489 11.401l0.040 0.048c17.288 20.411 42.934 33.28 71.587 33.28 0.1 0 0.201 0 0.301 0h-0.016c53.019 0 96-42.981 96-96s-42.981-96-96-96v0zM896 224c0-17.673-14.327-32-32-32v0h-96v320h96c17.673 0 32-14.327 32-32v0z" />
<glyph unicode="&#xe909;" glyph-name="bookmark" d="M960 960h-896c-35.346 0-64-28.654-64-64v0-896c0-35.346 28.654-64 64-64v0h896c35.346 0 64 28.654 64 64v0 896c0 35.346-28.654 64-64 64v0zM928 896c17.673 0 32-14.327 32-32s-14.327-32-32-32c-17.673 0-32 14.327-32 32v0c0 17.673 14.327 32 32 32v0zM800 896c17.673 0 32-14.327 32-32s-14.327-32-32-32c-17.673 0-32 14.327-32 32v0c0 17.673 14.327 32 32 32v0zM960-32v32h-896v768h896v-768zM676.8 453.376l-93.696 14.336-42.176 89.6c-5.853 10.118-16.624 16.817-28.96 16.817s-23.107-6.699-28.874-16.657l-0.086-0.16-42.176-89.6-93.696-14.336c-15.451-2.449-27.123-15.675-27.123-31.626 0-8.688 3.462-16.567 9.082-22.333l-0.007 0.007 68.736-70.4-16.256-99.84c-0.267-1.554-0.42-3.344-0.42-5.17 0-17.673 14.327-32 32-32 5.699 0 11.050 1.49 15.685 4.101l-0.16-0.083 83.328 46.080 83.2-46.144c4.457-2.504 9.783-3.979 15.454-3.979 17.673 0 32 14.327 32 32 0 1.812-0.151 3.589-0.44 5.318l0.026-0.187-16.064 99.84 68.736 70.4c5.608 5.758 9.067 13.634 9.067 22.317 0 15.971-11.701 29.21-26.998 31.611l-0.181 0.023z" />
<glyph unicode="&#xe90a;" glyph-name="box" d="M754.752 736l224 224h-722.752l-224-224h722.752zM0 672h736v-736h-736v736zM800 690.752v-722.752l224 224v722.752l-224-224z" />
<glyph unicode="&#xe90b;" glyph-name="calculator" d="M896 960h-768c-35.346 0-64-28.654-64-64v0-896c0-35.346 28.654-64 64-64v0h768c35.346 0 64 28.654 64 64v0 896c0 35.346-28.654 64-64 64v0zM320 64h-128v128h128zM320 320h-128v128h128zM576 64h-128v128h128zM576 320h-128v128h128zM832 64h-128v384h128zM832 608c0-17.673-14.327-32-32-32v0h-576c-17.673 0-32 14.327-32 32v0 192c0 17.673 14.327 32 32 32v0h576c17.673 0 32-14.327 32-32v0z" />
<glyph unicode="&#xe90c;" glyph-name="camera-shutter" d="M181.184 256c17.080-30.285 36.737-56.406 59.347-79.638l-0.083 0.086c53.757-53.807 123.512-91.622 201.52-105.701l2.32-0.347 101.888 185.6zM513.792 64.32c105.355 0.258 200.663 43.060 269.695 112.127l0.001 0.001c3.904 3.904 6.4 8.576 10.304 12.8l-105.792 192.32zM872.64 576h-218.496l182.464-331.84c36.524 57.701 58.202 127.945 58.202 203.252 0 46.102-8.124 90.306-23.019 131.259l0.849-2.671zM842.816 640c-17.098 30.285-36.776 56.405-59.407 79.634l0.079-0.082c-53.566 53.674-123.034 91.461-200.735 105.693l-2.337 0.355-101.952-185.6zM187.456 651.904c-36.558-57.721-58.257-127.997-58.257-203.341 0-46.092 8.121-90.288 23.010-131.234l-0.849 2.671h218.496zM510.784 832c-105.629-0.175-201.193-43.121-270.328-112.439l-0.008-0.009c-3.904-3.904-6.4-8.576-10.304-12.8l105.856-192.384zM512 960c-282.77 0-512-229.23-512-512s229.23-512 512-512c282.77 0 512 229.23 512 512v0c-0.327 282.638-229.362 511.672-511.968 512h-0.032zM512 0c-247.424 0-448 200.576-448 448s200.576 448 448 448c247.424 0 448-200.576 448-448v0c-0.291-247.307-200.694-447.709-447.973-448h-0.027z" />
<glyph unicode="&#xe90d;" glyph-name="car-key" d="M1000.512 138.176c-5.375 10.558-16.162 17.664-28.608 17.664h-58.496v58.56c0 17.673-14.327 32-32 32v0h-58.496v58.496c0 0.017 0 0.037 0 0.057 0 8.822-3.57 16.811-9.345 22.599l-204.799 204.799 45.248 45.248c17.366 17.372 28.107 41.367 28.107 67.872s-10.741 50.5-28.108 67.872l-181.12 181.056c-41.097 39.292-96.924 63.476-158.4 63.476s-117.303-24.184-158.486-63.558l0.086 0.082-90.496-90.496c-40.541-40.537-65.616-96.54-65.616-158.4s25.075-117.863 65.616-158.4l180.992-181.056c17.372-17.366 41.367-28.107 67.872-28.107s50.5 10.741 67.872 28.108l45.248 45.248 204.8-204.8c5.788-5.774 13.776-9.344 22.599-9.344 0.020 0 0.040 0 0.060 0h58.493v-58.496c0-17.673 14.327-32 32-32v0h58.496v-58.496c0-12.446 7.106-23.233 17.483-28.524l0.181-0.084c27.624-13.845 60.028-22.453 94.315-23.669l0.405-0.011c1.221-0.050 2.653-0.079 4.092-0.079 28.697 0 54.742 11.35 73.892 29.806l-0.033-0.031c59.968 60.032 11.84 161.216 6.144 172.608zM278.656 545.6c-5.791-5.789-13.789-9.369-22.624-9.369s-16.833 3.58-22.624 9.369l-67.904 67.904c-23.155 23.162-37.477 55.157-37.477 90.496s14.321 67.334 37.477 90.496v0c23.476 22.456 55.372 36.279 90.496 36.279s67.020-13.823 90.545-36.325l-0.049 0.046 67.904-67.84c5.789-5.791 9.369-13.789 9.369-22.624s-3.58-16.833-9.369-22.624v0z" />
<glyph unicode="&#xe90e;" glyph-name="cardboard" d="M832 832h-640c-35.346 0-64-28.654-64-64v0h768c0 35.346-28.654 64-64 64v0zM960 704h-896c-35.346 0-64-28.654-64-64v0-512c0-35.346 28.654-64 64-64v0h226.176c0.008 0 0.019 0 0.029 0 51.483 0 95.866 30.394 116.186 74.217l0.329 0.791 76.16 167.552c5.166 11.143 16.257 18.733 29.12 18.733s23.954-7.59 29.038-18.535l0.082-0.197 76.16-167.552c20.649-44.614 65.033-75.008 116.515-75.008 0.010 0 0.020 0 0.030 0h226.174c35.346 0 64 28.654 64 64v0 512c0 35.346-28.654 64-64 64v0zM256 320c-70.692 0-128 57.308-128 128s57.308 128 128 128c70.692 0 128-57.308 128-128v0c0-70.692-57.308-128-128-128v0zM768 320c-70.692 0-128 57.308-128 128s57.308 128 128 128c70.692 0 128-57.308 128-128v0c0-70.692-57.308-128-128-128v0z" />
<glyph unicode="&#xe90f;" glyph-name="chart" d="M544 480h478.4c-16.544 257.285-221.115 461.856-476.897 478.323l-1.503 0.077zM512 416c-17.673 0-32 14.327-32 32v0 510.4c-268.948-17.009-480.639-239.302-480.639-511.039 0-282.77 229.23-512 512-512 271.736 0 494.030 211.691 510.963 479.155l0.075 1.484z" />
<glyph unicode="&#xe910;" glyph-name="chat-bubble" d="M947.2 830.080l-626.368 126.528c-9.289 2.164-19.956 3.405-30.912 3.405-0.675 0-1.349-0.005-2.022-0.014l0.102 0.001c-72.548-0.292-133.717-48.668-153.312-114.896l-0.288-1.136-128-448c-4.007-13.154-6.342-28.277-6.4-43.937v-0.031c0-88.366 71.634-160 160-160v0c0.736-0.024 1.602-0.037 2.472-0.037 3.891 0 7.718 0.269 11.466 0.79l-0.433-0.049 462.656 38.4 69.504-209.088c4.358-12.838 16.304-21.911 30.368-21.911s26.010 9.073 30.301 21.686l0.067 0.225 75.264 226.368 94.528 7.616c49.376 4.355 87.809 45.514 87.809 95.65 0 0.123 0 0.246-0.001 0.369v-0.019 384c0 0.006 0 0.013 0 0.020 0 46.223-32.668 84.816-76.175 93.951l-0.625 0.11z" />
<glyph unicode="&#xe911;" glyph-name="chat" d="M935.040 134.4c54.308 56.425 88.047 132.986 88.958 217.422l0.002 0.178c-2.063 103.111-51.442 194.28-127.247 252.944l-0.753 0.56c-1.728-227.904-216.256-413.504-480-413.504h-178.048c78.093-116.504 209.249-192.167 358.076-192.167 4.21 0 8.405 0.061 12.586 0.181l-0.614-0.014h384c0.017 0 0.037 0 0.057 0 17.673 0 32 14.327 32 32 0 8.851-3.593 16.862-9.401 22.655l-0.001 0.001zM832 608c0 194.112-186.624 352-416 352s-416-157.888-416-352c0.892-84.617 34.636-161.184 89.056-217.7l-0.096 0.1-79.616-79.744c-5.808-5.794-9.401-13.805-9.401-22.656 0-17.673 14.327-32 32-32 0.020 0 0.040 0 0.060 0h383.997c229.376 0 416 157.888 416 352zM224 704h384c17.673 0 32-14.327 32-32s-14.327-32-32-32v0h-384c-17.673 0-32 14.327-32 32s14.327 32 32 32v0zM192 544c0 17.673 14.327 32 32 32v0h256c17.673 0 32-14.327 32-32s-14.327-32-32-32v0h-256c-17.673 0-32 14.327-32 32v0z" />
<glyph unicode="&#xe912;" glyph-name="christmas-tree" d="M892.16 175.36l-50.56 92.8-87.296 159.232c19.904 7.232 39.744 14.72 59.136 23.808 11.048 5.089 18.578 16.067 18.578 28.803 0 6.427-1.918 12.406-5.212 17.396l0.073-0.118-58.24 90.88-72.32 112-157.44 245.12c-6.032 8.473-15.818 13.933-26.88 13.933s-20.848-5.46-26.812-13.832l-0.068-0.101-157.44-245.12-72.32-112-58.24-90.88c-3.221-4.872-5.138-10.851-5.138-17.277 0-12.736 7.531-23.713 18.382-28.722l0.196-0.081c19.2-9.088 39.232-16.576 59.136-23.808l-25.216-45.952-62.080-113.28-50.56-92.8c-2.342-4.388-3.718-9.598-3.718-15.129 0-14.319 9.221-26.485 22.048-30.883l0.23-0.068c76.31-26.29 166.136-47.165 258.83-58.825l6.77-0.695v-101.76c0-17.673 14.327-32 32-32v0h128c17.673 0 32 14.327 32 32v0 101.76c99.467 12.355 189.293 33.231 275.304 62.375l-9.704-2.855c13.057 4.467 22.278 16.632 22.278 30.951 0 5.531-1.376 10.74-3.803 15.305l0.086-0.176zM353.28 256c-17.673 0-32 14.327-32 32v0c0 17.673 14.327 32 32 32v0h0.64c17.673 0 32-14.327 32-32s-14.327-32-32-32v0zM481.28 192c-17.673 0-32 14.327-32 32v0c0 17.673 14.327 32 32 32v0h0.64c17.673 0 32-14.327 32-32s-14.327-32-32-32v0zM481.28 512c-17.673 0-32 14.327-32 32v0c0 17.673 14.327 32 32 32v0h0.64c17.673 0 32-14.327 32-32s-14.327-32-32-32v0zM481.28 640c-17.673 0-32 14.327-32 32v0c0 17.673 14.327 32 32 32v0h0.64c17.673 0 32-14.327 32-32s-14.327-32-32-32v0zM609.28 256c-17.673 0-32 14.327-32 32v0c0 17.673 14.327 32 32 32v0h0.64c17.673 0 32-14.327 32-32s-14.327-32-32-32v0zM609.28 576c-17.673 0-32 14.327-32 32v0c0 17.673 14.327 32 32 32v0h0.64c17.673 0 32-14.327 32-32s-14.327-32-32-32v0zM737.28 192c-17.673 0-32 14.327-32 32v0c0 17.673 14.327 32 32 32v0h0.64c17.673 0 32-14.327 32-32s-14.327-32-32-32v0z" />
<glyph unicode="&#xe913;" glyph-name="cloudy" d="M825.6 512c-30.719 147.228-159.421 256.245-313.585 256.245-130.525 0-242.798-78.147-292.583-190.206l-0.809-2.039c-122.559-1.518-221.328-101.224-221.328-224 0-123.721 100.295-224.016 224.016-224.016 0.945 0 1.889 0.006 2.831 0.018l-0.143-0.001h608c104.668 1.8 188.827 87.072 188.827 192 0 106.053-85.973 192.027-192.027 192.027-1.125 0-2.248-0.010-3.368-0.029l0.168 0.002zM875.712 571.904c41.538-7.788 78.235-24.441 109.463-47.967l-0.663 0.479c24.483 31.814 39.238 72.22 39.238 116.071 0 105.65-85.646 191.296-191.296 191.296-50.465 0-96.365-19.541-130.548-51.469l0.11 0.102c80.766-46.321 142.036-118.871 172.866-205.826l0.83-2.686z" />
<glyph unicode="&#xe914;" glyph-name="coffee-cup" d="M864 832h-96v64c0 35.346-28.654 64-64 64v0h-384c-35.346 0-64-28.654-64-64v0-64h-96c-17.673 0-32-14.327-32-32v0-64c0-17.673 14.327-32 32-32v0h34.56l61.44-738.688c1.431-16.478 15.16-29.312 31.887-29.312 0.040 0 0.080 0 0.119 0h447.994c0.034 0 0.073 0 0.113 0 16.727 0 30.456 12.834 31.878 29.192l0.008 0.12 61.44 738.688h34.56c17.673 0 32 14.327 32 32v0 64c0 17.673-14.327 32-32 32v0zM317.44 0l-10.688 128h410.432l-10.688-128zM448 288c0 35.346 28.654 64 64 64s64-28.654 64-64c0-35.346-28.654-64-64-64v0c-35.346 0-64 28.654-64 64v0zM743.872 448h-463.744l-21.312 256h506.432z" />
<glyph unicode="&#xe915;" glyph-name="coffee-latte" d="M864 512h-96v32c0 17.673-14.327 32-32 32v0h-32c0 70.692-57.308 128-128 128v0c0 70.692-57.308 128-128 128v0h-7.36c-21.137 22.415-44.823 42.054-70.699 58.565l-1.493 0.891c-4.714 2.888-10.42 4.598-16.526 4.598-17.673 0-32-14.327-32-32 0-4.309 0.852-8.419 2.396-12.171l-0.078 0.213c3.447-8.932 6.421-19.549 8.409-30.509l0.167-1.107c-44.51-20.689-74.816-65.019-74.816-116.428 0-0.018 0-0.037 0-0.055v0.003c-70.692 0-128-57.308-128-128v0h-32c-17.673 0-32-14.327-32-32v0-256c0-159.058 128.942-288 288-288v0h128c124.212 0.391 229.852 79.476 269.705 189.996l0.631 2.004h113.664c88.162 0.505 159.495 71.838 160 159.952v0.048c0 88.366-71.634 160-160 160v0zM192 576c0 35.346 28.654 64 64 64v0h32c17.673 0 32 14.327 32 32v0 32c0 0.094-0.001 0.205-0.001 0.316 0 30.728 21.808 56.363 50.792 62.271l0.409 0.070c11.072 2.128 19.985 9.726 23.925 19.814l0.075 0.218c2.176-2.368 4.288-4.8 6.4-7.232 5.91-7.024 14.705-11.456 24.535-11.456 0.037 0 0.074 0 0.111 0h21.754c35.346 0 64-28.654 64-64v0-32c0-17.673 14.327-32 32-32v0h32c35.346 0 64-28.654 64-64v0zM931.328 284.032c-16.923-17.305-40.507-28.035-66.598-28.035-0.257 0-0.513 0.001-0.769 0.003h-99.225c1.56 9.176 2.727 20.194 3.241 31.382l0.023 0.618v160h96c53.019 0 96-42.981 96-96v0c0.001-0.143 0.001-0.311 0.001-0.48 0-26.488-10.984-50.411-28.646-67.462l-0.027-0.026z" />
<glyph unicode="&#xe916;" glyph-name="coffee-plunger" d="M800 576h-352v64h256c0 70.692-57.308 128-128 128v0h-320c-70.692 0-128-57.308-128-128v0h256v-64h-352c-17.673 0-32-14.327-32-32 0-10.433 4.993-19.7 12.72-25.542l0.080-0.058 115.2-86.4v-432c0-35.346 28.654-64 64-64v0h448c35.346 0 64 28.654 64 64v0 128h96c88.366 0 160 71.634 160 160v0 128c0 88.366-71.634 160-160 160v0zM640-32v160h-448v320c0 10.433-4.993 19.7-12.72 25.542l-0.080 0.058-51.2 38.4h256v-320h-96c-17.673 0-32-14.327-32-32s14.327-32 32-32v0h256c17.673 0 32 14.327 32 32s-14.327 32-32 32v0h-96v320h192v-512zM896 288c0-53.019-42.981-96-96-96v0h-96v320h96c53.019 0 96-42.981 96-96v0zM512 864c0-53.019-42.981-96-96-96s-96 42.981-96 96c0 53.019 42.981 96 96 96s96-42.981 96-96z" />
<glyph unicode="&#xe917;" glyph-name="compact-disk" d="M576 896h-512c-35.346 0-64-28.654-64-64v0-768c0-35.346 28.654-64 64-64v0h512c35.346 0 64 28.654 64 64v0 768c0 35.346-28.654 64-64 64v0zM480 515.968c-17.673 0-32 14.327-32 32v0c-3.357 37.706-28.896 68.668-63.346 79.943l-0.654 0.185v-340.096c0-53.824-56.192-96-128-96s-128 42.176-128 96 56.192 96 128 96c0.236 0.001 0.515 0.002 0.794 0.002 22.826 0 44.552-4.708 64.26-13.206l-1.054 0.405v300.8c0 9.888 4.486 18.729 11.532 24.598l0.052 0.042c5.493 4.571 12.623 7.345 20.4 7.345 2.111 0 4.174-0.204 6.17-0.594l-0.202 0.033c53.248-9.984 154.048-55.36 154.048-155.456 0-17.673-14.327-32-32-32v0zM704 826.24v-288c37.532-13.436 63.9-48.695 63.9-90.112s-26.369-76.676-63.234-89.903l-0.666-0.209v-288c182.35 31.891 319.182 189.022 319.182 378.112s-136.833 346.221-316.882 377.778l-2.3 0.334z" />
<glyph unicode="&#xe918;" glyph-name="croissant" d="M1011.584 442.048l-56.128 98.88-278.144-333.76 41.6-34.752c12.406-9.852 27.636-16.683 44.289-19.138l0.511-0.062 259.136 240.192c0.042 1.056 0.066 2.296 0.066 3.541 0 16.515-4.196 32.051-11.579 45.599l0.249-0.5zM68.608 540.864l-56.256-98.88c-7.097-12.994-11.271-28.464-11.271-44.908 0-1.29 0.026-2.574 0.077-3.851l-0.006 0.183 259.072-240.128c17.163 2.523 32.392 9.353 44.995 19.349l-0.195-0.149 41.472 34.56zM42.176 268.096c-6.169-23.323-9.712-50.099-9.712-77.703 0-37.426 6.512-73.331 18.465-106.644l-0.69 2.203c4.338-12.874 16.301-21.98 30.391-21.98 4.075 0 7.971 0.762 11.556 2.15l-0.218-0.074c37.435 16.131 69.125 39.081 94.83 67.54l0.21 0.236zM836.992 133.888c25.912-28.7 57.602-51.651 93.296-67.104l1.744-0.672c3.361-1.311 7.25-2.083 11.316-2.112h0.012c0.005 0 0.012 0 0.018 0 14.079 0 26.035 9.093 30.315 21.726l0.066 0.226c11.269 31.117 17.785 67.032 17.785 104.468 0 27.617-3.546 54.406-10.208 79.936l0.487-2.196zM948.608 632.704c-106.535 122.395-262.588 199.318-436.608 199.318s-330.073-76.923-436.013-198.62l-0.595-0.698 361.28-433.472c20.866 15.245 47.029 24.392 75.328 24.392s54.462-9.147 75.693-24.646l-0.365 0.254z" />
<glyph unicode="&#xe919;" glyph-name="devil" d="M963.392 688.512c18.279 37.828 28.961 82.265 28.961 129.197 0 45.433-10.011 88.529-27.948 127.2l0.778-1.87c-5.464 10.612-16.342 17.744-28.886 17.744-2.51 0-4.954-0.286-7.3-0.826l0.218 0.042c-13.951-3.236-24.19-15.558-24.192-30.272v0c0-0.384-4.288-34.24-65.92-88.704-87.779 74.062-202.169 119.074-327.072 119.074s-239.293-45.012-327.834-119.7l0.762 0.626c-60.672 53.504-65.792 86.976-65.92 86.976v0c0 0.024 0 0.052 0 0.081 0 17.673-14.327 32-32 32-12.2 0-22.806-6.827-28.204-16.87l-0.084-0.171c-17.143-36.783-27.145-79.855-27.145-125.262 0-46.959 10.697-91.42 29.787-131.079l-0.787 1.813c-38.164-69.923-60.607-153.159-60.607-241.636 0-282.77 229.23-512 512-512s512 229.23 512 512c0 0.395 0 0.79-0.001 1.185v-0.061c-0.066 88.098-22.504 170.941-61.938 243.173l1.33-2.661zM613.504 562.752l135.744 135.744c5.791 5.789 13.789 9.369 22.624 9.369s16.833-3.58 22.624-9.369v0c22.231-22.995 35.931-54.359 35.931-88.923 0-70.692-57.308-128-128-128-34.564 0-65.928 13.7-88.959 35.966l0.036-0.035c-5.789 5.791-9.369 13.789-9.369 22.624s3.58 16.833 9.369 22.624v0zM229.504 698.496c5.791 5.789 13.789 9.369 22.624 9.369s16.833-3.58 22.624-9.369l135.744-135.744c5.789-5.791 9.369-13.789 9.369-22.624s-3.58-16.833-9.369-22.624v0c-23.308-24.109-55.941-39.077-92.069-39.077-70.692 0-128 57.308-128 128 0 36.128 14.968 68.761 39.041 92.034l0.036 0.035zM881.408 343.296c-47.229-162.378-194.679-279.036-369.376-279.036s-322.147 116.658-368.698 276.322l-0.678 2.714c-0.766 2.608-1.206 5.605-1.206 8.704 0 17.67 14.321 31.995 31.99 32h677.121c17.669-0.005 31.99-14.33 31.99-32 0-3.099-0.441-6.096-1.263-8.93l0.056 0.226z" />
<glyph unicode="&#xe91a;" glyph-name="diagram" d="M1024 448c0 0.155 0 0.339 0 0.523 0 282.77-229.23 512-512 512s-512-229.23-512-512c0-270.090 209.134-491.335 474.301-510.633l1.667-0.097c10.699-1.141 23.113-1.792 35.678-1.792 0.124 0 0.249 0 0.373 0h-0.019c-123.712 0-224 100.288-224 224s100.288 224 224 224c123.712 0 224-100.288 224-224v0c0-123.712-100.288-224-224-224v0c0.105 0 0.23 0 0.354 0 12.565 0 24.979 0.651 37.208 1.921l-1.53-0.129c266.739 19.195 475.878 240.263 475.968 510.198v0.010zM548.032-62.208c178.292 18.869 316 168.43 316 350.154 0 194.404-157.596 352-352 352s-352-157.596-352-352c0-181.725 137.709-331.286 314.465-350.022l1.535-0.132c-196.015 19.004-348 182.908-348 382.309 0 212.077 171.923 384 384 384s384-171.923 384-384c0-199.401-151.985-363.305-346.43-382.186l-1.57-0.123zM704 128c0-106.039-85.961-192-192-192s-192 85.961-192 192c0 106.039 85.961 192 192 192s192-85.961 192-192z" />
<glyph unicode="&#xe91b;" glyph-name="discount" d="M352 480c0-17.673-14.327-32-32-32s-32 14.327-32 32c0 17.673 14.327 32 32 32s32-14.327 32-32zM480 160c0-17.673-14.327-32-32-32s-32 14.327-32 32c0 17.673 14.327 32 32 32s32-14.327 32-32zM384 704c-212.077 0-384-171.923-384-384s171.923-384 384-384c212.077 0 384 171.923 384 384v0c0 212.077-171.923 384-384 384v0zM320 576c53.019 0 96-42.981 96-96s-42.981-96-96-96c-53.019 0-96 42.981-96 96v0c0 53.019 42.981 96 96 96v0zM256 128c-17.654 0.026-31.954 14.343-31.954 32 0 7.582 2.637 14.547 7.043 20.030l-0.048-0.062 256 320c5.915 7.348 14.909 12.009 24.992 12.009 17.678 0 32.009-14.331 32.009-32.009 0-7.596-2.646-14.573-7.065-20.062l0.048 0.062-256-320c-5.914-7.323-14.892-11.968-24.954-11.968-0.024 0-0.049 0-0.073 0h0.004zM448 64c-53.019 0-96 42.981-96 96s42.981 96 96 96c53.019 0 96-42.981 96-96v0c0-53.019-42.981-96-96-96v0zM960 960h-576c-35.346 0-64-28.654-64-64v0-133.12c19.106 3.078 41.258 4.933 63.808 5.119l0.192 0.001c22.742-0.187 44.894-2.042 66.53-5.448l-2.53 0.328v37.12c0 17.673 14.327 32 32 32v0h384c17.673 0 32-14.327 32-32v0-128c0-17.673-14.327-32-32-32v0h-167.104c83.38-81.198 135.104-194.547 135.104-319.977 0-0.008 0-0.016 0-0.025v0.001h64v-64h-64v64c0-0.037 0-0.080 0-0.124 0-95.845-30.293-184.614-81.826-257.257l0.93 1.381h208.896c35.346 0 64 28.654 64 64v0 768c0 35.346-28.654 64-64 64v0zM896 448h-64v64h64z" />
<glyph unicode="&#xe91c;" glyph-name="document" d="M640 960v-256h256l-256 256zM576 704v256h-384c-35.346 0-64-28.654-64-64v0-896c0-35.346 28.654-64 64-64v0h640c35.346 0 64 28.654 64 64v0 640h-256c-35.346 0-64 28.654-64 64v0zM448 576l-96 109.248-96-109.248v288c0 17.673 14.327 32 32 32v0h160z" />
<glyph unicode="&#xe91d;" glyph-name="dress" d="M893.248-19.2l-237.952 535.616c9.991 5.412 16.662 15.816 16.662 27.779 0 13.372-8.336 24.798-20.095 29.364l-0.215 0.073 114.752 344.256c1.040 3.018 1.64 6.495 1.64 10.112 0 17.673-14.327 32-32 32-0.014 0-0.028 0-0.042 0h-511.998c-17.663-0.014-31.976-14.335-31.976-32 0-3.617 0.6-7.094 1.706-10.337l-0.067 0.225 114.752-344.256c-12.011-4.621-20.38-16.065-20.38-29.464 0-11.991 6.702-22.416 16.565-27.734l0.167-0.082-238.016-535.552c-1.688-3.77-2.672-8.17-2.672-12.8 0-17.645 14.281-31.954 31.915-32h768.004c17.638 0.046 31.92 14.355 31.92 32 0 4.63-0.983 9.030-2.752 13.004l0.081-0.204zM608 896c0-70.692-57.308-128-128-128s-128 57.308-128 128v0z" />
<glyph unicode="&#xe91e;" glyph-name="drone" d="M992 960h-256c-17.673 0-32-14.327-32-32s14.327-32 32-32v0h96v-64h-32c-17.673 0-32-14.327-32-32v0-64c0.115-11.519 2.265-22.501 6.105-32.653l-0.217 0.653h-523.776c3.623 9.499 5.773 20.481 5.888 31.951v64.049c0 17.673-14.327 32-32 32v0h-32v64h96c17.673 0 32 14.327 32 32s-14.327 32-32 32v0h-256c-17.673 0-32-14.327-32-32s14.327-32 32-32v0h96v-64h-32c-17.673 0-32-14.327-32-32v0-64c0-53.019 42.981-96 96-96v0h103.040l32.512-129.92c-98.483-9.923-177.549-82.348-197.375-176.588l-0.257-1.46-33.28-165.632c-0.401-1.9-0.63-4.082-0.63-6.319 0-15.45 10.949-28.343 25.511-31.342l0.207-0.036c1.897-0.407 4.076-0.64 6.31-0.64 0.032 0 0.063 0 0.094 0h-0.005c0.002 0 0.004 0 0.007 0 15.408 0 28.272 10.889 31.317 25.392l0.037 0.208 33.28 165.824c15.063 72.067 77.046 125.776 151.957 127.994l0.235 0.006c13.35-37.090 48.101-63.19 88.988-63.488h46.052v-75.776c-75.21-27.154-128-97.922-128-181.019 0-106.039 85.961-192 192-192s192 85.961 192 192c0 83.098-52.79 153.865-126.663 180.597l-1.337 0.423v75.776h46.016c40.992 0.302 75.797 26.456 88.943 62.952l0.209 0.664c75.146-2.224 137.129-55.933 152.010-126.959l0.182-1.041 33.28-165.76c3.078-14.692 15.912-25.571 31.293-25.6h0.003c0.025 0 0.054 0 0.083 0 2.236 0 4.418 0.233 6.522 0.676l-0.205-0.036c14.769 3.035 25.718 15.927 25.718 31.377 0 2.236-0.229 4.419-0.666 6.526l0.036-0.207-33.28 165.696c-20.181 95.592-99.216 167.9-196.691 177.715l-0.941 0.077 32.512 129.92h102.976c53.019 0 96 42.981 96 96v0 64c0 17.673-14.327 32-32 32v0h-32v64h96c17.673 0 32 14.327 32 32s-14.327 32-32 32v0zM544 256c0-17.673-14.327-32-32-32s-32 14.327-32 32c0 17.673 14.327 32 32 32v0c17.673 0 32-14.327 32-32v0zM608 96c0-53.019-42.981-96-96-96s-96 42.981-96 96c0 53.019 42.981 96 96 96v0c53.019 0 96-42.981 96-96v0z" />
<glyph unicode="&#xe91f;" glyph-name="egg" d="M256 512c-35.346 0-64-28.654-64-64v0c0-17.673 14.327-32 32-32s32 14.327 32 32v0c17.673 0 32 14.327 32 32s-14.327 32-32 32v0zM837.504 843.264c-88.138 72.711-202.232 116.807-326.626 116.807-35.843 0-70.83-3.661-104.609-10.63l3.331 0.574c-201.811-41.453-358.163-197.805-399.049-396.323l-0.567-3.293c-6.514-30.65-10.244-65.865-10.244-101.952 0-282.951 229.324-512.341 512.25-512.448h0.010c0.238-0.001 0.521-0.002 0.803-0.002 89.576 0 163.233 68.158 171.939 155.441l0.058 0.721 7.744 77.504c5.491 51.756 46.228 92.493 97.504 97.943l0.48 0.041 77.312 7.552c88.004 8.764 156.162 82.421 156.162 171.997 0 0.282-0.001 0.564-0.002 0.846v-0.043c0 0.195 0 0.427 0 0.658 0 158.558-72.255 300.239-185.634 393.914l-0.862 0.692zM288 256c-88.366 0-160 71.634-160 160s71.634 160 160 160c88.366 0 160-71.634 160-160v0c0-88.366-71.634-160-160-160v0zM672 448c-88.366 0-160 71.634-160 160s71.634 160 160 160c88.366 0 160-71.634 160-160v0c0-88.366-71.634-160-160-160v0zM640 704c-35.346 0-64-28.654-64-64v0c0-17.673 14.327-32 32-32s32 14.327 32 32v0c17.673 0 32 14.327 32 32s-14.327 32-32 32v0z" />
<glyph unicode="&#xe920;" glyph-name="email-document" d="M1024 64.512v445.696l-345.216-227.456 345.216-218.24zM0 510.208v-445.696l345.216 218.24-345.216 227.456zM529.6 184.448c-4.956-3.305-11.048-5.275-17.6-5.275s-12.644 1.969-17.717 5.348l0.117-0.073-90.56 59.712-401.856-254.144c4.6-30.565 30.561-53.766 61.99-54.016h896.026c31.428 0.282 57.355 23.472 61.909 53.667l0.043 0.349-401.792 254.080zM896 721.28v174.72c0 35.346-28.654 64-64 64v0h-640c-35.346 0-64-28.654-64-64v0-174.72l-128-81.28v-53.12l192-126.72v435.84h640v-435.84l192 126.72v53.12zM288 768h448c17.673 0 32 14.327 32 32s-14.327 32-32 32v0h-448c-17.673 0-32-14.327-32-32s14.327-32 32-32v0zM288 640h448c17.673 0 32 14.327 32 32s-14.327 32-32 32v0h-448c-17.673 0-32-14.327-32-32s14.327-32 32-32v0z" />
<glyph unicode="&#xe921;" glyph-name="email-stack" d="M832 129.664v314.88l-245.184-162.048 245.184-152.832zM0 444.544v-314.88l245.184 152.832-245.184 162.048zM433.6 181.312c-4.962-3.318-11.066-5.296-17.632-5.296s-12.67 1.977-17.749 5.369l0.117-0.073-94.464 62.4-302.144-188.352c4.028-31.212 30.321-55.116 62.247-55.36h704.025c31.951 0.244 58.244 24.148 62.239 55.043l0.033 0.317-302.208 188.352zM830.336 520.128c-3.792 31.453-30.203 55.627-62.311 55.872h-704.025c-32.133-0.245-58.544-24.419-62.306-55.57l-0.030-0.302 414.336-273.728zM192 764.544v-124.544h188.48l-188.48 124.544zM719.424 640l302.912 200.128c-3.792 31.453-30.203 55.627-62.311 55.872h-704.025c-32.133-0.245-58.544-24.419-62.306-55.57l-0.030-0.302 302.912-200.128zM896 320h64c31.951 0.244 58.244 24.148 62.239 55.043l0.033 0.317-126.272 78.72zM828.352 635.264c39.364-12.444 67.439-48.548 67.648-91.24v-14.616l128-79.808v314.944z" />
<glyph unicode="&#xe922;" glyph-name="email" d="M1024 638.208v-445.696l-345.216 218.24 345.216 227.456zM345.216 410.752l-345.216-218.24v445.696l345.216-227.456zM1022.080 713.536c-4.402 30.778-30.466 54.213-62.054 54.464h-896.026c-31.614-0.251-57.678-23.686-62.040-54.126l-0.040-0.338 510.080-335.936zM529.6 312.448c-4.956-3.305-11.048-5.275-17.6-5.275s-12.644 1.969-17.717 5.348l0.117-0.073-90.56 59.712-401.856-254.144c4.6-30.565 30.561-53.766 61.99-54.016h896.026c31.428 0.282 57.355 23.472 61.909 53.667l0.043 0.349-401.792 254.080z" />
<glyph unicode="&#xe923;" glyph-name="facebook" d="M896 960h-768c-70.692 0-128-57.308-128-128v0-768c0-70.692 57.308-128 128-128v0h384v352h-128v160h128v128c0 106.039 85.961 192 192 192v0h128v-160h-64c-35.328 0-64 3.328-64-32v-128h160l-64-160h-96v-352h192c70.692 0 128 57.308 128 128v0 768c0 70.692-57.308 128-128 128v0z" />
<glyph unicode="&#xe924;" glyph-name="fast-food" d="M768 192c0 35.346-28.654 64-64 64v0h-640c-35.346 0-64-28.654-64-64s28.654-64 64-64v0h640c35.346 0 64 28.654 64 64v0zM992 704h-186.24l21.376 128h164.864c17.673 0 32 14.327 32 32s-14.327 32-32 32v0h-192c-15.813-0.008-28.944-11.484-31.525-26.562l-0.027-0.19-27.584-165.248h-196.864c-0.039 0-0.084 0-0.13 0-17.673 0-32-14.327-32-32 0-1.014 0.047-2.017 0.139-3.007l-0.010 0.127 14.4-157.12h17.6c118.396-0.001 215.338-91.858 223.449-208.192l0.039-0.704c38.808-22.477 64.496-63.807 64.496-111.136s-25.688-88.659-63.882-110.807l-0.614-0.329c-4.085-57.127-29.101-107.731-67.333-144.775l-0.059-0.057h227.904c0.039 0 0.084 0 0.13 0 16.659 0 30.345 12.73 31.861 28.993l0.010 0.127 64 704c0.083 0.863 0.13 1.866 0.13 2.88 0 17.673-14.327 32-32 32-0.046 0-0.091 0-0.137 0h0.007zM544 448h-320c-77.025-0.016-141.33-54.456-156.553-126.958l-0.183-1.042h633.6c-15.408 73.554-79.729 128-156.767 128-0.034 0-0.068 0-0.102 0h0.005zM67.264 64c15.406-73.544 79.711-127.984 156.734-128h320.002c77.025 0.016 141.33 54.456 156.553 126.958l0.183 1.042z" />
<glyph unicode="&#xe925;" glyph-name="fidget-spinner" d="M912.704 406.592c-13.107 7.7-28.253 14.245-44.221 18.852l-1.411 0.348c-1.189 0.343-2.661 0.656-4.164 0.874l-0.188 0.022c-101.796 23.396-176.565 113.224-176.565 220.514 0 25.395 4.189 49.812 11.914 72.598l-0.469-1.592c0 1.344 0.576 2.624 0.768 3.904 3.578 13.591 5.633 29.193 5.633 45.276 0 0.215 0 0.431-0.001 0.646v-0.033c0 106.039-85.961 192-192 192s-192-85.961-192-192v0c-0.006-0.519-0.010-1.132-0.010-1.746 0-14.498 1.989-28.531 5.71-41.841l-0.26 1.091c0.093-2.611 0.485-5.089 1.141-7.457l-0.053 0.225c7.275-21.222 11.474-45.673 11.474-71.105 0-107.267-74.715-197.084-174.943-220.247l-1.523-0.296c-1.772-0.244-3.331-0.58-4.846-1.019l0.238 0.059c-17.4-4.939-32.569-11.485-46.638-19.709l0.942 0.509c-57.642-34.165-95.682-96.054-95.682-166.829 0-35.149 9.382-68.106 25.779-96.504l-0.497 0.933c33.241-58.38 95.049-97.109 165.904-97.109 52.305 0 99.68 21.105 134.075 55.264l-0.011-0.011c0.844 0.659 1.596 1.33 2.301 2.045l0.003 0.003c41.647 46.619 101.94 75.827 169.056 75.827s127.409-29.208 168.863-75.607l0.193-0.22c0.709-0.717 1.46-1.388 2.252-2.009l0.052-0.039c34.503-33.403 81.589-53.991 133.482-53.991 106.039 0 192 85.961 192 192 0 70.762-38.28 132.582-95.261 165.884l-0.909 0.491zM255.168 156.992c-13.671-8.047-30.116-12.8-47.671-12.8-0.071 0-0.142 0-0.212 0h0.011c-8.909 0.026-17.525 1.239-25.711 3.489l0.687-0.161c-41.314 11.329-71.169 48.545-71.169 92.733 0 35.347 19.103 66.231 47.548 82.894l0.453 0.245c13.77 8.081 30.328 12.853 48 12.853 53.049 0 96.053-43.005 96.053-96.053 0-35.377-19.125-66.287-47.6-82.955l-0.454-0.245zM512 864c53.019 0 96-42.981 96-96s-42.981-96-96-96c-53.019 0-96 42.981-96 96v0c0 53.019 42.981 96 96 96v0zM512 288c-70.692 0-128 57.308-128 128s57.308 128 128 128c70.692 0 128-57.308 128-128v0c0-70.692-57.308-128-128-128v0zM899.968 192c-16.908-28.898-47.792-48-83.138-48-0.022 0-0.043 0-0.065 0h0.003c-0.061 0-0.134 0-0.206 0-17.532 0-33.954 4.754-48.047 13.042l0.445-0.242c-28.869 16.914-47.949 47.784-47.949 83.109 0 17.684 4.782 34.251 13.122 48.479l-0.245-0.453c16.912 28.88 47.787 47.969 83.121 47.969 17.653 0 34.194-4.765 48.405-13.079l-0.454 0.245c28.826-16.924 47.873-47.77 47.873-83.065 0-17.676-4.777-34.236-13.111-48.46l0.245 0.453zM941.952 571.328c3.858-13.669 16.219-23.52 30.88-23.52 17.691 0 32.032 14.341 32.032 32.032 0 3.029-0.42 5.96-1.206 8.738l0.055-0.226c-23.895 84.245-66.816 156.596-123.985 214.931l0.081-0.083c-5.817 5.938-13.919 9.62-22.88 9.62-17.684 0-32.020-14.336-32.020-32.020 0-8.723 3.488-16.631 9.145-22.405l-0.005 0.005c49.738-50.705 87.12-113.709 107.16-184.021l0.744-3.051zM42.688 548.992c2.552-0.732 5.483-1.153 8.513-1.153 14.644 0 26.991 9.837 30.793 23.264l0.055 0.226c20.782 73.375 58.141 136.395 107.913 187.21l-0.073-0.074c5.652 5.769 9.14 13.677 9.14 22.4 0 17.684-14.336 32.020-32.020 32.020-8.961 0-17.063-3.681-22.875-9.614l-0.005-0.005c-57.069-58.265-99.954-130.644-122.924-211.408l-0.852-3.504c-0.732-2.552-1.153-5.483-1.153-8.513 0-14.644 9.837-26.991 23.264-30.793l0.226-0.055zM620.8 13.76c-32.557-8.696-69.935-13.691-108.48-13.691s-75.923 4.995-111.522 14.372l3.042-0.681c-2.41 0.65-5.178 1.023-8.032 1.023-17.69 0-32.031-14.341-32.031-32.031 0-14.836 10.086-27.316 23.776-30.957l0.224-0.051c37.367-10.006 80.269-15.752 124.512-15.752s87.145 5.747 127.998 16.535l-3.486-0.782c13.925 3.68 24.023 16.165 24.023 31.008 0 17.686-14.337 32.023-32.023 32.023-2.843 0-5.599-0.37-8.223-1.066l0.223 0.050zM819.2 536.192c3.834-13.679 16.188-23.544 30.847-23.552h0.001c3.009 0.006 5.917 0.426 8.674 1.207l-0.226-0.055c13.704 3.822 23.592 16.194 23.592 30.876 0 2.996-0.412 5.896-1.182 8.646l0.054-0.225c-17.998 63.367-50.248 117.799-93.189 161.735l0.069-0.071c-5.839 5.993-13.99 9.711-23.008 9.711-17.735 0-32.111-14.377-32.111-32.111 0-8.716 3.473-16.621 9.11-22.407l-0.007 0.007c35.587-36.276 62.377-81.31 76.835-131.565l0.541-2.195zM165.696 513.728c2.53-0.731 5.435-1.152 8.439-1.152 0.003 0 0.006 0 0.009 0v0c14.598 0.107 26.863 9.972 30.602 23.391l0.054 0.225c14.975 52.543 41.769 97.665 77.428 134.069l-0.052-0.053c5.636 5.777 9.112 13.682 9.112 22.4 0 17.722-14.366 32.088-32.088 32.088-9.004 0-17.142-3.709-22.97-9.682l-0.006-0.007c-42.887-43.946-75.107-98.496-92.352-159.341l-0.64-2.643c-0.716-2.525-1.128-5.425-1.128-8.42 0-14.682 9.887-27.054 23.367-30.822l0.225-0.054zM418.944 75.904c27.924-7.541 59.984-11.872 93.056-11.872s65.132 4.332 95.644 12.459l-2.588-0.586c13.948 3.657 24.071 16.15 24.071 31.008 0 17.677-14.33 32.007-32.007 32.007-2.82 0-5.554-0.365-8.159-1.049l0.223 0.050c-23.158-6.31-49.748-9.936-77.184-9.936s-54.026 3.625-79.316 10.423l2.132-0.488c-2.382 0.635-5.116 0.999-7.936 0.999-17.677 0-32.007-14.33-32.007-32.007 0-14.858 10.123-27.351 23.848-30.958l0.223-0.050z" />
<glyph unicode="&#xe926;" glyph-name="gift-box" d="M64 0c0-35.346 28.654-64 64-64v0h320v448h-384zM960 640h-202.496c13.367 8.911 25.037 18.325 35.791 28.683l-0.079-0.075c23.93 24.168 38.715 57.429 38.715 94.144s-14.785 69.976-38.726 94.155l0.011-0.011c-24.284 23.435-57.384 37.873-93.856 37.873s-69.572-14.439-93.896-37.912l0.040 0.038c-27.776-27.84-101.376-141.184-91.2-216.896h-4.608c10.112 75.712-63.488 189.056-91.2 216.896-24.296 23.406-57.392 37.823-93.856 37.823s-69.56-14.418-93.898-37.864l0.042 0.040c-23.9-24.182-38.663-57.439-38.663-94.144s14.763-69.962 38.675-94.157l-0.013 0.013c10.676-10.279 22.346-19.693 34.796-28.031l0.916-0.577h-202.496c-35.346 0-64-28.654-64-64v0-96c0-17.673 14.327-32 32-32v0h416v128h128v-128h416c17.673 0 32 14.327 32 32v0 96c0 35.346-28.654 64-64 64v0zM276.16 713.728c-12.444 12.593-20.13 29.911-20.13 49.024s7.687 36.431 20.137 49.031l-0.007-0.007c12.369 12.489 29.522 20.222 48.48 20.222s36.111-7.733 48.475-20.216l0.005-0.005c43.136-43.392 86.016-154.24 71.104-169.664-2.752-1.417-6.005-2.248-9.452-2.248-0.841 0-1.671 0.050-2.487 0.146l0.099-0.009c-60.551 10.2-113.721 36.387-156.578 74.033l0.354-0.305zM650.88 811.776c12.449 12.315 29.576 19.923 48.48 19.923 38.078 0 68.947-30.869 68.947-68.947 0-19.174-7.827-36.521-20.461-49.018l-0.006-0.006c-42.513-37.362-95.71-63.554-154.438-73.47l-1.85-0.258c-0.727-0.090-1.569-0.142-2.423-0.142-3.436 0-6.677 0.833-9.533 2.308l0.116-0.055c-14.848 15.424 28.288 126.272 71.168 169.664zM576-64h320c35.346 0 64 28.654 64 64v0 384h-384z" />
<glyph unicode="&#xe927;" glyph-name="gift-card" d="M470.656 233.344c-5.749-5.558-13.59-8.983-22.231-8.983-17.673 0-32 14.327-32 32 0 8.641 3.425 16.482 8.991 22.24l105.335 105.399h-530.752v-256c0-35.346 28.654-64 64-64v0h512v274.752zM352 192h-192c-17.673 0-32 14.327-32 32s14.327 32 32 32v0h192c17.673 0 32-14.327 32-32s-14.327-32-32-32v0zM960 768h-320v-263.168c35.904 43.072 77.696 92.608 92.096 107.008 17.246 16.673 40.769 26.948 66.692 26.948 53.019 0 96-42.981 96-96 0-25.923-10.275-49.446-26.974-66.719l0.026 0.027c-15.229-11.606-32.855-21.136-51.864-27.7l-1.32-0.396h209.344v256c0 35.346-28.654 64-64 64v0zM416 576c-17.67-0.004-31.993-14.329-31.993-32 0-8.819 3.567-16.805 9.338-22.593l-0.001 0.001c34.867-17.227 75.92-32.782 118.588-44.422l4.932-1.146c-33.408 40-67.2 79.808-78.272 90.816-5.786 5.772-13.772 9.342-22.592 9.344v0zM348.096 476.096c-17.378 17.378-28.127 41.386-28.127 67.904 0 53.036 42.994 96.031 96.031 96.031 26.518 0 50.526-10.749 67.904-28.127v0c14.4-14.4 56.192-64 92.096-107.008v263.104h-512c-35.346 0-64-28.654-64-64v0-256h401.344c-20.353 6.95-38.002 16.481-53.709 28.432l0.461-0.336zM790.656 278.656c6.027-5.827 9.769-13.985 9.769-23.017 0-17.673-14.327-32-32-32-9.032 0-17.19 3.742-23.009 9.76l-105.417 105.353v-274.752h320c35.346 0 64 28.654 64 64v0 256h-338.752zM960 128v0 0zM822.656 566.656c-5.791 5.789-13.789 9.369-22.624 9.369s-16.833-3.58-22.624-9.369v0c-11.008-11.008-44.8-50.816-78.208-90.752 47.729 12.788 88.995 28.564 128.129 47.99l-3.969-1.782c5.374 5.711 8.676 13.424 8.676 21.909 0 8.84-3.585 16.843-9.38 22.635v0z" />
<glyph unicode="&#xe928;" glyph-name="groceries" d="M32 640h960c17.673 0 32-14.327 32-32v-128c0-17.673-14.327-32-32-32h-960c-17.673 0-32 14.327-32 32v128c0 17.673 14.327 32 32 32zM192.96-39.744c3.588-14.038 16.121-24.252 31.040-24.256h576c14.919 0.004 27.452 10.218 30.992 24.034l0.048 0.222 105.984 423.744h-849.984zM640 288c0 17.673 14.327 32 32 32s32-14.327 32-32v0-192c0-17.673-14.327-32-32-32s-32 14.327-32 32v0zM480 288c0 17.673 14.327 32 32 32s32-14.327 32-32v0-192c0-17.673-14.327-32-32-32s-32 14.327-32 32v0zM320 288c0 17.673 14.327 32 32 32s32-14.327 32-32v0-192c0-17.673-14.327-32-32-32s-32 14.327-32 32v0zM384 800c0 17.673-14.327 32-32 32v0h-128c-17.673 0-32-14.327-32-32v0-96h192zM640 928c0 17.673-14.327 32-32 32v0h-128c-17.673 0-32-14.327-32-32v0-224h192zM896 864c0 17.673-14.327 32-32 32v0h-128c-17.673 0-32-14.327-32-32v0-160h192z" />
<glyph unicode="&#xe929;" glyph-name="group" d="M576 576c0-106.039-85.961-192-192-192s-192 85.961-192 192c0 106.039 85.961 192 192 192s192-85.961 192-192zM756.8 184.256c-100.005 84.565-230.415 135.971-372.832 135.971s-272.827-51.407-373.687-136.676l0.855 0.705c-6.831-5.801-11.137-14.397-11.137-23.998 0-0.091 0-0.181 0.001-0.272v0.014-88.384c-0.151-1.675-0.237-3.624-0.237-5.593 0-35.841 28.547-65.014 64.144-66.021l0.093-0.002h640c35.346 0 64 28.654 64 64v0 86.848c0.26 1.692 0.408 3.644 0.408 5.63 0 10.867-4.44 20.696-11.604 27.774l-0.004 0.004zM640 576c-0.005-22.448-2.923-44.212-8.397-64.938l0.397 1.77c2.688 0 5.248-0.832 8-0.832 0.075 0 0.164 0 0.253 0 106.039 0 192 85.961 192 192s-85.961 192-192 192c-65.533 0-123.397-32.832-158.043-82.944l-0.419-0.64c93.604-39.43 158.135-130.378 158.208-236.407v-0.009zM1012.8 312.256c-99.84 84.348-229.998 135.617-372.131 135.617-12.845 0-25.592-0.419-38.228-1.243l1.719 0.090c-19.038-31.966-43.624-58.614-72.688-79.403l-0.784-0.533c104.157-24.715 194.903-71.836 270.543-136.18l-0.911 0.756c19.471-17.175 31.689-42.181 31.689-70.041 0-0.464-0.003-0.927-0.010-1.389l0.001 0.070v-32h128c35.346 0 64 28.654 64 64v0 96c-0.019 9.689-4.342 18.365-11.157 24.22l-0.043 0.036z" />
<glyph unicode="&#xe92a;" glyph-name="hamburger" d="M352 65.984l-78.72 62.016h-264.32l12.8-38.784c30.557-89.78 114.132-153.216 212.522-153.216 0.030 0 0.060 0 0.091 0h555.259c98.374 0.019 181.927 63.449 212.013 151.639l0.467 1.577 12.8 38.784h-584.192zM1024 448c-0.005 6.608-2.013 12.746-5.448 17.842l0.072-0.114-30.848 46.272h4.224c0.006 0 0.014 0 0.021 0 17.673 0 32 14.327 32 32 0 4.434-0.902 8.658-2.532 12.498l0.079-0.21c-85.457 201.114-281.326 339.584-509.536 339.584s-424.079-138.47-508.171-335.975l-1.365-3.609c-1.551-3.63-2.453-7.854-2.453-12.288 0-17.658 14.303-31.976 31.955-32h4.226l-30.848-46.272c-3.363-4.982-5.371-11.12-5.376-17.727v-0.001c0.156-23.645 6.774-45.713 18.174-64.566l-0.318 0.566c-11.113-18.277-17.737-40.353-17.856-63.967v-0.033c0-70.692 57.308-128 128-128v0h768c70.692 0 128 57.308 128 128v0c-0.119 23.647-6.743 45.723-18.171 64.559l0.315-0.559c11.082 18.287 17.7 40.354 17.856 63.956v0.044zM910.848 512l48.512-72.768c-4.51-31.322-31.166-55.124-63.382-55.124-19.106 0-36.256 8.372-47.983 21.647l-0.060 0.069c-11.784 13.316-28.917 21.668-48 21.668s-36.216-8.352-47.941-21.6l-0.059-0.068c-11.784-13.316-28.917-21.668-48-21.668s-36.216 8.352-47.941 21.6l-0.059 0.068c-11.784 13.316-28.917 21.668-48 21.668s-36.216-8.352-47.941-21.6l-0.059-0.068c-11.784-13.316-28.917-21.668-48-21.668s-36.216 8.352-47.941 21.6l-0.059 0.068c-11.784 13.316-28.917 21.668-48 21.668s-36.216-8.352-47.941-21.6l-0.059-0.068c-11.784-13.316-28.917-21.668-48-21.668s-36.216 8.352-47.941 21.6l-0.059 0.068c-11.784 13.316-28.917 21.668-48 21.668s-36.216-8.352-47.941-21.6l-0.059-0.068c-11.783-13.302-28.907-21.645-47.979-21.645-32.213 0-58.867 23.799-63.34 54.773l-0.041 0.344 48.576 72.704z" />
<glyph unicode="&#xe92b;" glyph-name="hand-truck" d="M864 64h-485.888c-9.902 27.172-30.941 48.21-57.445 57.899l-0.667 0.213v677.888c0 0.017 0 0.037 0 0.057 0 8.822-3.57 16.811-9.345 22.599l-127.999 127.999c-5.749 5.558-13.59 8.983-22.231 8.983-17.673 0-32-14.327-32-32 0-8.641 3.425-16.482 8.991-22.24l-0.009 0.009 118.592-118.72v-664.576c-37.926-13.403-64.612-48.947-64.612-90.724 0-53.019 42.981-96 96-96 41.777 0 77.32 26.685 90.516 63.94l0.207 0.672h485.888c17.673 0 32 14.327 32 32s-14.327 32-32 32v0zM288 0c-17.673 0-32 14.327-32 32s14.327 32 32 32c17.673 0 32-14.327 32-32v0c0-17.673-14.327-32-32-32v0zM800 128c17.673 0 32 14.327 32 32v0 256c0 17.673-14.327 32-32 32v0h-384c-17.673 0-32-14.327-32-32v0-256.448c12.036-9.124 22.428-19.517 31.264-31.156l0.288-0.396zM544 448h128v-128h-128zM704 672c0 17.673-14.327 32-32 32v0h-96v-64h-64v64h-96c-17.673 0-32-14.327-32-32v0-160h320z" />
<glyph unicode="&#xe92c;" glyph-name="health-report" d="M352 704h320c17.673 0 32 14.327 32 32v0 128c0 17.673-14.327 32-32 32v0h-69.504c-13.562 37.632-48.96 64.052-90.528 64.052s-76.966-26.42-90.317-63.383l-0.211-0.669h-69.44c-17.673 0-32-14.327-32-32v0-128c0-17.673 14.327-32 32-32v0zM669.952 84.736c-4.689-12.219-16.326-20.736-29.952-20.736v0h-1.344c-13.99 0.598-25.61 10.092-29.383 22.942l-0.057 0.226-102.4 358.016-93.12-233.088c-4.855-11.875-16.319-20.090-29.701-20.090-10.43 0-19.695 4.99-25.537 12.713l-0.058 0.080-86.4 115.2h-144v-320c-0.002-0.191-0.003-0.417-0.003-0.643 0-34.993 28.367-63.36 63.36-63.36 0.226 0 0.452 0.001 0.678 0.004h639.966c0.191-0.002 0.417-0.003 0.643-0.003 34.993 0 63.36 28.367 63.36 63.36 0 0.226-0.001 0.452-0.004 0.678v-0.034 320h-137.792zM832 832h-64v-96c0-53.019-42.981-96-96-96v0h-320c-53.019 0-96 42.981-96 96v0 96h-64c-35.346 0-64-28.654-64-64v0-384h160c10.433 0 19.7-4.993 25.542-12.72l0.058-0.080 61.824-82.432 106.88 267.136c4.846 11.894 16.319 20.124 29.715 20.124 14.537 0 26.811-9.694 30.708-22.97l0.057-0.226 101.312-354.432 61.952 165.12c4.756 12.083 16.325 20.48 29.855 20.48 0.034 0 0.069 0 0.103 0h159.995v384c0.002 0.191 0.003 0.417 0.003 0.643 0 34.993-28.367 63.36-63.36 63.36-0.226 0-0.452-0.001-0.678-0.004h0.034z" />
<glyph unicode="&#xe92d;" glyph-name="hyperloop" d="M983.040 413.824l-266.24 247.872c-28.542 26.228-66.774 42.304-108.761 42.304-0.014 0-0.028 0-0.041 0h-415.998c-17.673 0-32-14.327-32-32s14.327-32 32-32v0h32c17.673 0 32-14.327 32-32s-14.327-32-32-32v0h-32c-17.673 0-32-14.327-32-32v0-64c0-17.673 14.327-32 32-32v0h32c17.673 0 32-14.327 32-32s-14.327-32-32-32v0h-32c-17.673 0-32-14.327-32-32s14.327-32 32-32v0h128c17.673 0 32-14.327 32-32s-14.327-32-32-32v0h-128c-17.673 0-32-14.327-32-32s14.327-32 32-32v0h704c70.692 0 128 57.308 128 128v0c0.001 0.225 0.002 0.49 0.002 0.756 0 36.797-15.747 69.915-40.87 92.985l-0.092 0.083zM768 448c-19.2 0-37.824 0.64-55.424 1.728-3.328 0-6.4 0.512-9.728 0.768-14.976 1.088-29.568 2.432-43.136 4.288l-4.16 0.576c-189.056 26.496-247.616 119.744-265.152 184.64h217.6c0.003 0 0.006 0 0.010 0 25.096 0 47.96-9.553 65.155-25.221l-0.077 0.069 179.328-166.848zM224 64c-75.712 0-160 157.696-160 384s84.288 384 160 384c28.864 0 58.944-23.040 85.184-64h72.896c-40.256 79.488-96 128-158.080 128-125.568 0-224-196.8-224-448s98.432-448 224-448c62.336 0 117.888 48.512 158.080 128h-72.896c-26.24-40.96-56.32-64-85.184-64z" />
<glyph unicode="&#xe92e;" glyph-name="id-card" d="M960 768h-256v-32c0-53.019-42.981-96-96-96v0h-192c-53.019 0-96 42.981-96 96v0 32h-256c-35.346 0-64-28.654-64-64v0-576c-0.002-0.191-0.003-0.417-0.003-0.643 0-34.993 28.367-63.36 63.36-63.36 0.226 0 0.452 0.001 0.678 0.004h895.966c0.191-0.002 0.417-0.003 0.643-0.003 34.993 0 63.36 28.367 63.36 63.36 0 0.226-0.001 0.452-0.004 0.678v-0.034 576c0.002 0.191 0.003 0.417 0.003 0.643 0 34.993-28.367 63.36-63.36 63.36-0.226 0-0.452-0.001-0.678-0.004h0.034zM288 576c53.019 0 96-42.981 96-96s-42.981-96-96-96c-53.019 0-96 42.981-96 96v0c0 53.019 42.981 96 96 96v0zM448 224c0-17.673-14.327-32-32-32v0h-256c-17.673 0-32 14.327-32 32v0 64c0.008 12.16 6.798 22.732 16.791 28.14l0.169 0.084c41.411 22.553 90.693 35.814 143.072 35.814s101.661-13.261 144.672-36.609l-1.6 0.794c10.133-5.506 16.896-16.069 16.896-28.211 0-0.005 0-0.009 0-0.014v0.001zM800 256h-256c-17.673 0-32 14.327-32 32s14.327 32 32 32v0h256c17.673 0 32-14.327 32-32s-14.327-32-32-32v0zM800 384h-256c-17.673 0-32 14.327-32 32s14.327 32 32 32v0h256c17.673 0 32-14.327 32-32s-14.327-32-32-32v0zM416 704h192c17.673 0 32 14.327 32 32v0 32c0 70.692-57.308 128-128 128s-128-57.308-128-128v0-32c0-17.673 14.327-32 32-32v0z" />
<glyph unicode="&#xe92f;" glyph-name="inbox" d="M1019.648 432.128l-224 384c-5.653 9.561-15.908 15.872-27.639 15.872-0.003 0-0.007 0-0.010 0h-511.999c-0.003 0-0.006 0-0.009 0-11.73 0-21.986-6.311-27.557-15.724l-0.081-0.148-224-384c-2.735-4.616-4.352-10.175-4.352-16.112 0-0.006 0-0.011 0-0.017v0.001-352c0-35.346 28.654-64 64-64v0h896c35.346 0 64 28.654 64 64v0 352c0 0.005 0 0.011 0 0.016 0 5.936-1.617 11.495-4.433 16.261l0.081-0.149zM800 448c-12.446 0-23.233-7.106-28.524-17.483l-0.084-0.181-55.168-110.336h-408.384l-55.168 110.336c-5.375 10.558-16.162 17.664-28.609 17.664-0.022 0-0.044 0-0.066 0h-136.253l186.624 320h475.264l186.688-320zM352 640h320c17.673 0 32 14.327 32 32s-14.327 32-32 32v0h-320c-17.673 0-32-14.327-32-32s14.327-32 32-32v0zM288 576c-17.673 0-32-14.327-32-32s14.327-32 32-32v0h448c17.673 0 32 14.327 32 32s-14.327 32-32 32v0z" />
<glyph unicode="&#xe930;" glyph-name="isometric-graph" d="M958.784 416c0.1 0.934 0.157 2.017 0.157 3.113 0 3.252-0.502 6.386-1.433 9.33l0.060-0.219c-4.931 11.705-16.307 19.774-29.568 19.776h-224v224h-1.216c0.1 0.934 0.157 2.017 0.157 3.113 0 3.252-0.502 6.386-1.433 9.33l0.060-0.219c-4.931 11.705-16.307 19.774-29.568 19.776h-224v224h-1.216c0.101 0.936 0.158 2.021 0.158 3.12 0 3.249-0.502 6.382-1.434 9.323l0.060-0.218c-4.931 11.705-16.307 19.774-29.568 19.776h-256c-0.017 0-0.037 0-0.057 0-8.822 0-16.811-3.57-22.599-9.345l-127.999-127.999c-5.068-5.48-8.177-12.837-8.177-20.919 0-0.611 0.018-1.218 0.053-1.82l-0.004 0.083h-1.216v-832c0-17.673 14.327-32 32-32v0h768c0.017 0 0.037 0 0.057 0 8.822 0 16.811 3.57 22.599 9.345l127.999 127.999c5.774 5.788 9.344 13.776 9.344 22.599 0 0.020 0 0.040 0 0.060v-0.003 320zM320 512h192v-512h-192zM576 256h192v-256h-192zM786.752 320h-165.504l64 64h165.504zM530.752 576h-165.504l64 64h165.504zM173.248 896h165.504l-64-64h-165.504zM64 768h192v-768h-192z" />
<glyph unicode="&#xe931;" glyph-name="map-pin" d="M512 960c-211.975-0.255-383.745-172.025-384-383.975v-0.025c0-266.176 346.624-615.872 361.344-630.656 5.791-5.789 13.789-9.369 22.624-9.369s16.833 3.58 22.624 9.369v0c14.784 14.784 361.408 364.48 361.408 630.656-0.255 211.975-172.025 383.745-383.975 384h-0.025zM512 384c-106.039 0-192 85.961-192 192s85.961 192 192 192c106.039 0 192-85.961 192-192v0c0-106.039-85.961-192-192-192v0z" />
<glyph unicode="&#xe932;" glyph-name="map-search" d="M851.2 199.232c28.073 43.854 44.748 97.35 44.748 154.74 0 160.118-129.802 289.92-289.92 289.92s-289.92-129.802-289.92-289.92c0-160.118 129.802-289.92 289.92-289.92 57.39 0 110.885 16.675 155.905 45.445l-1.165-0.696 153.984-153.984c11.497-11.116 27.179-17.966 44.462-17.966 35.346 0 64 28.654 64 64 0 17.282-6.85 32.964-17.983 44.48l0.017-0.018zM1009.92 954.432c-5.026 3.44-11.237 5.493-17.928 5.493-4.286 0-8.374-0.842-12.11-2.371l0.214 0.077-276.096-110.4v-156.864c148.791-43.307 255.729-178.312 256-338.336v-0.032c-0.168-17.373-1.604-34.27-4.222-50.775l0.254 1.943 47.808 19.2c11.883 4.825 20.118 16.262 20.16 29.627v576.005c-0.028 10.955-5.557 20.613-13.97 26.361l-0.11 0.071zM320 553.728v406.272l-299.904-119.936c-11.879-4.853-20.096-16.319-20.096-29.703 0-0.020 0-0.040 0-0.060v0.003-576c0-17.673 14.327-32 32-32v0c4.311 0.048 8.395 0.961 12.106 2.574l-0.202-0.078 217.6 87.040c-3.511 18.496-5.519 39.771-5.519 61.515 0 75.15 23.986 144.697 64.72 201.405l-0.705-1.032zM640 702.4v155.2l-256 102.4v-336.704c60.207 50.217 138.396 80.704 223.706 80.704 0.103 0 0.207 0 0.31 0h-0.016c10.816 0 21.44-0.64 32-1.6z" />
<glyph unicode="&#xe933;" glyph-name="map" d="M800 384c9.441 0.002 17.926 4.091 23.782 10.595l0.026 0.029c20.48 22.848 200.192 226.176 200.192 341.376 0 123.712-100.288 224-224 224s-224-100.288-224-224v0c0-115.2 179.712-318.528 200.192-341.376 5.882-6.533 14.367-10.622 23.808-10.624v0zM704 736c0 53.019 42.981 96 96 96s96-42.981 96-96c0-53.019-42.981-96-96-96v0c-53.019 0-96 42.981-96 96v0zM0 554.304v-586.304c0-17.673 14.327-32 32-32v0c0.039 0 0.084 0 0.13 0 4.245 0 8.291 0.847 11.981 2.38l-0.207-0.076 276.096 110.464v655.232l-299.904-119.936c-11.879-4.853-20.096-16.319-20.096-29.703 0-0.020 0-0.040 0-0.060v0.003zM800 320c-28.341 0.040-53.797 12.354-71.345 31.91l-0.079 0.090c-6.4 7.232-14.912 16.768-24.576 28.096v-444.096l299.904 119.936c11.876 4.853 20.093 16.314 20.096 29.696v0 470.464c-47.526-76.893-97.854-143.609-153.643-205.294l1.067 1.198c-17.626-19.646-43.083-31.96-71.417-32h-0.007zM384 704v-655.232l256-102.4v513.984c-41.515 53.291-77.653 113.994-105.76 178.981l-2.080 5.403z" />
<glyph unicode="&#xe934;" glyph-name="megaphone" d="M160 704c-17.673 0-32-14.327-32-32v0-32h-96c-17.673 0-32-14.327-32-32v0-192c0-17.673 14.327-32 32-32v0h96v-32c0-17.673 14.327-32 32-32v0h19.2l128.64-342.912c9.6-24.249 32.844-41.088 60.022-41.088 0.026 0 0.052 0 0.078 0h-0.004c17.605 0.051 33.484 7.399 44.779 19.178l0.021 0.022 76.8 76.224c11.532 11.573 18.661 27.539 18.661 45.171 0 10.534-2.545 20.473-7.053 29.237l0.168-0.359-107.136 214.528h84.992c11.072-0.512 21.888-2.24 32.832-3.264v390.4c-11.072-1.088-22.016-2.752-33.152-3.264zM1018.752 944.512c-0.67 1.021-1.322 1.897-2.021 2.734l0.037-0.046c-3.423 4.512-7.942 8.023-13.167 10.164l-0.209 0.076-0.576 0.704c-0.64 0-1.216 0-1.856 0-2.64 1.001-5.694 1.666-8.876 1.852l-0.084 0.004c-2.366-0.219-4.539-0.671-6.616-1.34l0.216 0.060c-1.397-0.19-2.611-0.436-3.797-0.752l0.213 0.048c-5.59-1.795-10.325-4.939-13.988-9.056l-0.028-0.032s-0.64 0-0.896-0.576c-97.642-117.251-232.779-200.326-386.825-230.845l-4.279-0.707v-409.6c158.422-31.269 293.63-114.436 390.413-230.717l0.883-1.091c0-0.32 0.704-0.448 1.024-0.832 2.255-2.514 4.872-4.643 7.783-6.319l0.153-0.081c0.773-0.603 1.65-1.215 2.558-1.781l0.13-0.075c3.755-1.755 8.146-2.809 12.775-2.88h0.025c3.877 0.001 7.595 0.681 11.042 1.928l-0.226-0.072 0.512 0.384c5.434 2.217 9.953 5.728 13.319 10.162l0.057 0.078c0.685 0.872 1.361 1.854 1.975 2.877l0.073 0.131c3.338 4.78 5.38 10.684 5.504 17.057v832.031c-0.162 6.175-2.1 11.867-5.318 16.622l0.070-0.11z" />
<glyph unicode="&#xe935;" glyph-name="message" d="M896 960h-768c-70.692 0-128-57.308-128-128v0-576c0-70.692 57.308-128 128-128v0h209.024l150.4-180.48c5.908-7.058 14.721-11.516 24.575-11.52h0.001c0.012 0 0.026 0 0.040 0 9.623 0 18.254 4.248 24.12 10.97l0.032 0.038 156.864 180.992h202.944c70.692 0 128 57.308 128 128v0 576c0 70.692-57.308 128-128 128v0zM544 448h-256c-17.673 0-32 14.327-32 32s14.327 32 32 32v0h256c17.673 0 32-14.327 32-32s-14.327-32-32-32v0zM736 640h-448c-17.673 0-32 14.327-32 32s14.327 32 32 32v0h448c17.673 0 32-14.327 32-32s-14.327-32-32-32v0z" />
<glyph unicode="&#xe936;" glyph-name="messages" d="M832 544c0 229.75-186.25 416-416 416s-416-186.25-416-416v0c-0.001-0.397-0.002-0.866-0.002-1.336 0-81.135 23.513-156.778 64.096-220.487l-0.99 1.663-60.8-151.936c-1.431-3.499-2.261-7.56-2.261-11.815 0-17.673 14.327-32 32-32 4.272 0 8.349 0.837 12.075 2.357l-0.214-0.077 151.872 60.8c62.057-39.633 137.724-63.17 218.888-63.17 0.469 0 0.939 0.001 1.408 0.002h-0.072c229.633 0.291 415.709 186.367 416 415.972v0.028zM966.4 117.888c36.131 57.373 57.568 127.154 57.568 201.942 0 115.792-51.388 219.582-132.603 289.808l-0.486 0.411c3.067-19.703 4.921-42.572 5.119-65.836l0.001-0.212c0.003-0.623 0.005-1.36 0.005-2.098 0-263.93-213.958-477.888-477.888-477.888-23.958 0-47.503 1.763-70.515 5.166l2.606-0.317c70.628-81.541 174.319-132.818 289.985-132.818 74.778 0 144.551 21.432 203.511 58.488l-1.592-0.934 137.984-55.232c3.518-1.491 7.608-2.361 11.901-2.368h0.003c17.67 0.004 31.993 14.329 31.993 32 0 4.288-0.844 8.38-2.374 12.117l0.077-0.213z" />
<glyph unicode="&#xe937;" glyph-name="mobile-apps" d="M832 960h-576c-35.346 0-64-28.654-64-64v0-896c0-35.346 28.654-64 64-64v0h576c35.346 0 64 28.654 64 64v0 896c0 35.346-28.654 64-64 64v0zM832 128h-576v704h576zM352 704h128c17.673 0 32-14.327 32-32v-128c0-17.673-14.327-32-32-32h-128c-17.673 0-32 14.327-32 32v128c0 17.673 14.327 32 32 32zM352 448h128c17.673 0 32-14.327 32-32v-128c0-17.673-14.327-32-32-32h-128c-17.673 0-32 14.327-32 32v128c0 17.673 14.327 32 32 32zM608 704h128c17.673 0 32-14.327 32-32v-128c0-17.673-14.327-32-32-32h-128c-17.673 0-32 14.327-32 32v128c0 17.673 14.327 32 32 32z" />
<glyph unicode="&#xe938;" glyph-name="money-bag" d="M384 768c-17.673 0-32-14.327-32-32s14.327-32 32-32v0h256c17.673 0 32 14.327 32 32s-14.327 32-32 32v0zM860.48 295.424l-193.792 344.576h-309.376l-193.856-344.576c-22.272-38.981-35.419-85.663-35.456-135.413v-0.011c0-123.712 100.288-224 224-224v0h320c123.712 0 224 100.288 224 224v0c-0.027 49.769-13.2 96.454-36.234 136.781l0.714-1.357zM512 320c52.55-0.614 94.913-43.357 94.913-95.994 0-41.143-25.882-76.24-62.252-89.9l-0.662-0.218v-37.888c0-17.673-14.327-32-32-32s-32 14.327-32 32v0 32h-32c-17.673 0-32 14.327-32 32s14.327 32 32 32v0h64c17.673 0 32 14.327 32 32s-14.327 32-32 32v0c-52.55 0.614-94.913 43.357-94.913 95.994 0 41.143 25.882 76.24 62.252 89.9l0.662 0.218v37.888c0 17.673 14.327 32 32 32s32-14.327 32-32v0-32h32c17.673 0 32-14.327 32-32s-14.327-32-32-32v0h-64c-17.673 0-32-14.327-32-32s14.327-32 32-32v0zM345.6 832h332.8l52.224 78.272c3.358 4.983 5.359 11.122 5.359 17.728 0 17.667-14.317 31.991-31.983 32h-384.001c-17.666-0.009-31.983-14.333-31.983-32 0-6.606 2.002-12.745 5.432-17.842l-0.073 0.114z" />
<glyph unicode="&#xe939;" glyph-name="money-dollar" d="M960 768h-896c-35.346 0-64-28.654-64-64v0-576c0-35.346 28.654-64 64-64v0h896c35.346 0 64 28.654 64 64v0 576c0 35.346-28.654 64-64 64v0zM960 316.736c-97.791-14.614-174.122-90.945-188.585-187.51l-0.151-1.226h-518.4c-14.628 97.827-91.019 174.174-187.641 188.586l-1.223 0.15v198.4c97.827 14.628 174.174 91.019 188.586 187.641l0.15 1.223h518.4c14.628-97.827 91.019-174.174 187.641-188.586l1.223-0.15zM512 512h64c17.673 0 32 14.327 32 32s-14.327 32-32 32v0h-32v32c0 17.673-14.327 32-32 32s-32-14.327-32-32v0-37.888c-37.032-13.878-62.913-48.975-62.913-90.118 0-52.637 42.363-95.38 94.855-95.993l0.058-0.001c17.673 0 32-14.327 32-32s-14.327-32-32-32v0h-64c-17.673 0-32-14.327-32-32s14.327-32 32-32v0h32v-32c0-17.673 14.327-32 32-32s32 14.327 32 32v0 37.888c37.032 13.878 62.913 48.975 62.913 90.118 0 52.637-42.363 95.38-94.855 95.993l-0.058 0.001c-17.673 0-32 14.327-32 32s14.327 32 32 32v0z" />
<glyph unicode="&#xe93a;" glyph-name="money-stack" d="M896 896h-768c-35.346 0-64-28.654-64-64v0h896c0 35.346-28.654 64-64 64v0zM960 768h-896c-35.346 0-64-28.654-64-64v0-576c0-35.346 28.654-64 64-64v0h896c35.346 0 64 28.654 64 64v0 576c0 35.346-28.654 64-64 64v0zM960 316.736c-97.791-14.614-174.122-90.945-188.585-187.51l-0.151-1.226h-518.4c-14.628 97.827-91.019 174.174-187.641 188.586l-1.223 0.15v198.4c97.827 14.628 174.174 91.019 188.586 187.641l0.15 1.223h518.4c14.628-97.827 91.019-174.174 187.641-188.586l1.223-0.15zM640 416c0-70.692-57.308-128-128-128s-128 57.308-128 128c0 70.692 57.308 128 128 128s128-57.308 128-128z" />
<glyph unicode="&#xe93b;" glyph-name="money" d="M960 768h-896c-35.346 0-64-28.654-64-64v0-576c0-35.346 28.654-64 64-64v0h896c35.346 0 64 28.654 64 64v0 576c0 35.346-28.654 64-64 64v0zM960 316.736c-97.791-14.614-174.122-90.945-188.585-187.51l-0.151-1.226h-518.4c-14.628 97.827-91.019 174.174-187.641 188.586l-1.223 0.15v198.4c97.827 14.628 174.174 91.019 188.586 187.641l0.15 1.223h518.4c14.628-97.827 91.019-174.174 187.641-188.586l1.223-0.15zM640 416c0-70.692-57.308-128-128-128s-128 57.308-128 128c0 70.692 57.308 128 128 128s128-57.308 128-128z" />
<glyph unicode="&#xe93c;" glyph-name="monster" d="M640 576c0-70.692-57.308-128-128-128s-128 57.308-128 128c0 70.692 57.308 128 128 128s128-57.308 128-128zM512 960c-282.77 0-512-229.23-512-512s229.23-512 512-512c282.77 0 512 229.23 512 512v0c-0.327 282.638-229.362 511.672-511.968 512h-0.032zM608 128h-192c-17.673 0-32 14.327-32 32s14.327 32 32 32v0h192c17.673 0 32-14.327 32-32s-14.327-32-32-32v0zM512 320c-141.385 0-256 114.615-256 256s114.615 256 256 256c141.385 0 256-114.615 256-256v0c0-141.385-114.615-256-256-256v0z" />
<glyph unicode="&#xe93d;" glyph-name="music-album" d="M992 704h-960c-17.673 0-32-14.327-32-32v0-704c0-17.673 14.327-32 32-32v0h960c17.673 0 32 14.327 32 32v0 704c0 17.673-14.327 32-32 32v0zM672 387.968c-17.673 0-32 14.327-32 32v0c-3.357 37.706-28.896 68.668-63.346 79.943l-0.654 0.185v-340.096c0-53.824-56.192-96-128-96s-128 42.176-128 96 56.192 96 128 96c0.236 0.001 0.515 0.002 0.794 0.002 22.826 0 44.552-4.708 64.26-13.206l-1.054 0.405v300.8c0.017 17.66 14.337 31.97 32 31.97 2.082 0 4.118-0.199 6.089-0.579l-0.201 0.032c53.376-9.984 154.112-55.36 154.112-155.456 0-17.673-14.327-32-32-32v0zM896 800c0 17.673-14.327 32-32 32v0h-704c-17.673 0-32-14.327-32-32v0-32h768zM768 928c0 17.673-14.327 32-32 32v0h-448c-17.673 0-32-14.327-32-32v0-32h512z" />
<glyph unicode="&#xe93e;" glyph-name="office" d="M416 512h-384c-17.673 0-32-14.327-32-32v0-512c0-17.673 14.327-32 32-32v0h384c17.673 0 32 14.327 32 32v0 512c0 17.673-14.327 32-32 32v0zM192 192h-64v64h64zM192 320h-64v64h64zM320 192h-64v64h64zM320 320h-64v64h64zM512 448l64 64v160c0 17.673 14.327 32 32 32v0h160v224c0 17.673-14.327 32-32 32v0h-512c-17.673 0-32-14.327-32-32v0-352h278.848c0.309 0.009 0.672 0.013 1.037 0.013 21.807 0 39.551-17.394 40.114-39.065l0.001-0.052zM576 832h64v-64h-64zM448 832h64v-64h-64zM384 640h-64v64h64zM384 768h-64v64h64zM448 640v64h64v-64zM992 640h-320c-17.673 0-32-14.327-32-32v0-110.848l-113.728-118.528c-8.65-5.816-14.266-15.563-14.272-26.623v-384.001c0-17.673 14.327-32 32-32v0h448c17.673 0 32 14.327 32 32v0 640c0 17.673-14.327 32-32 32v0zM896 128h-128v128h128zM896 384h-128v128h128z" />
<glyph unicode="&#xe93f;" glyph-name="phone-message" d="M864 192c-0.787-0.004-1.719-0.006-2.651-0.006-94.769 0-184.356 22.189-263.848 61.656l3.459-1.554c-4.082 2.065-8.899 3.275-13.998 3.275-3.769 0-7.383-0.661-10.733-1.873l0.22 0.069c-8.133-2.864-14.616-8.681-18.284-16.132l-0.084-0.188-50.304-104.128c-131.004 74.077-236.515 179.587-308.507 306.594l-2.085 3.998 104.128 50.368c10.769 5.304 18.049 16.201 18.049 28.799 0 5.126-1.206 9.971-3.348 14.267l0.084-0.185c-37.913 76.010-60.102 165.571-60.102 260.316 0 0.958 0.002 1.915 0.007 2.872l-0.001-0.148c0 17.673-14.327 32-32 32v0h-192c-17.673 0-32-14.327-32-32v0c0.546-476.955 387.046-863.454 863.948-864h0.052c17.673 0 32 14.327 32 32v0 192c0 17.673-14.327 32-32 32v0zM960 896h-448c-35.346 0-64-28.654-64-64v0-256c0-35.346 28.654-64 64-64v0h64v-96c0.011-14.046 9.070-25.973 21.663-30.269l0.225-0.067c3.016-1.055 6.492-1.664 10.111-1.664 0 0 0.001 0 0.001 0v0c10.433 0 19.7 4.993 25.542 12.72l0.058 0.080 86.4 115.2h240c0.191-0.002 0.417-0.003 0.643-0.003 34.993 0 63.36 28.367 63.36 63.36 0 0.226-0.001 0.452-0.004 0.678v-0.034 256c0.002 0.191 0.003 0.417 0.003 0.643 0 34.993-28.367 63.36-63.36 63.36-0.226 0-0.452-0.001-0.678-0.004h0.034z" />
<glyph unicode="&#xe940;" glyph-name="phone" d="M960 960h-512c-35.346 0-64-28.654-64-64v0-704c0-35.346 28.654-64 64-64v0h128v-32c0-53.019-42.981-96-96-96v0h-192c-53.019 0-96 42.981-96 96v0 32h32c53.019 0 96 42.981 96 96v0 80.896c-0.013 15.651-3.747 30.427-10.365 43.495l0.253-0.551-18.496 36.992c-2.129 4.157-3.381 9.067-3.392 14.268v289.796c0 5.227 1.254 10.16 3.476 14.517l-0.084-0.181 18.496 36.992c6.36 12.497 10.093 27.25 10.112 42.874v80.902c0 53.019-42.981 96-96 96v0h-128c-53.019 0-96-42.981-96-96v0-80.896c0.019-15.63 3.752-30.383 10.365-43.43l-0.253 0.55 18.496-36.992c2.138-4.176 3.392-9.109 3.392-14.336v0-289.792c-0.011-5.205-1.263-10.115-3.476-14.453l0.084 0.181-18.496-36.992c-6.365-12.517-10.099-27.293-10.112-42.94v-80.9c0-53.019 42.981-96 96-96v0h32v-32c0-88.366 71.634-160 160-160v0h192c88.366 0 160 71.634 160 160v0 32h320c35.346 0 64 28.654 64 64v0 704c0 35.346-28.654 64-64 64v0zM512 576h64v-64h-64zM512 448h64v-64h-64zM512 320h64v-64h-64zM736 256h-64v64h64zM736 384h-64v64h64zM736 512h-64v64h64zM896 256h-64v64h64zM896 384h-64v64h64zM896 512h-64v64h64zM896 672c0-17.673-14.327-32-32-32v0h-320c-17.673 0-32 14.327-32 32v0 128c0 17.673 14.327 32 32 32v0h320c17.673 0 32-14.327 32-32v0z" />
<glyph unicode="&#xe941;" glyph-name="picture" d="M960 640h-54.272l-300.8 200.32c1.927 7.099 3.046 15.253 3.072 23.665v0.015c0 53.019-42.981 96-96 96s-96-42.981-96-96v0c0.117-8.47 1.324-16.609 3.487-24.348l-0.159 0.668-301.056-200.32h-54.272c-0.191 0.002-0.417 0.003-0.643 0.003-34.993 0-63.36-28.367-63.36-63.36 0-0.226 0.001-0.452 0.004-0.678v0.034-576c-0.002-0.191-0.003-0.417-0.003-0.643 0-34.993 28.367-63.36 63.36-63.36 0.226 0 0.452 0.001 0.678 0.004h895.966c0.191-0.002 0.417-0.003 0.643-0.003 34.993 0 63.36 28.367 63.36 63.36 0 0.226-0.001 0.452-0.004 0.678v-0.034 576c0.002 0.191 0.003 0.417 0.003 0.643 0 34.993-28.367 63.36-63.36 63.36-0.226 0-0.452-0.001-0.678-0.004h0.034zM512 896c17.673 0 32-14.327 32-32s-14.327-32-32-32c-17.673 0-32 14.327-32 32v0c0 17.673 14.327 32 32 32v0zM455.040 787.2c15.634-11.954 35.456-19.154 56.96-19.154s41.326 7.2 57.188 19.321l-0.228-0.167 221.12-147.2h-556.16zM128 576v0h768c0.384 0 0.704 0 1.088 0h62.912v-259.392l-202.304 186.944c-5.684 5.255-13.314 8.478-21.696 8.478s-16.012-3.223-21.717-8.498l0.021 0.019-262.016-241.664-139.264 174.080c-6.11 6.984-15.039 11.37-24.992 11.37s-18.882-4.386-24.959-11.332l-0.033-0.038-199.040-248.704v388.736z" />
<glyph unicode="&#xe942;" glyph-name="pie-chart" d="M544 480h478.4c-16.544 257.285-221.115 461.856-476.897 478.323l-1.503 0.077zM525.248 416l-351.552-351.616c89.704-79.724 208.527-128.425 338.726-128.425 271.308 0 493.224 211.473 509.905 478.577l0.073 1.464zM480 461.248v497.152c-268.568-16.754-480.041-238.67-480.041-509.978 0-130.198 48.701-249.021 128.88-339.247l-0.455 0.521z" />
<glyph unicode="&#xe943;" glyph-name="polo-shirt" d="M1007.872 763.776l-224 128c-4.558 2.653-10.032 4.221-15.871 4.224h-32.961l-31.040 64h-384l-31.040-64h-32.96c-5.84-0.003-11.314-1.571-16.025-4.306l0.153 0.082-224-128c-9.707-5.618-16.133-15.953-16.133-27.789 0-3.118 0.446-6.132 1.277-8.981l-0.057 0.226 64-224c3.943-13.521 16.225-23.232 30.775-23.232 0.003 0 0.006 0 0.009 0v0c2.73 0.004 5.376 0.354 7.899 1.008l-0.219-0.048 88.32 22.016v-534.976c0-17.673 14.327-32 32-32v0h576c17.673 0 32 14.327 32 32v0 534.976l88.256-22.016c2.302-0.61 4.944-0.96 7.668-0.96 0.027 0 0.053 0 0.080 0h-0.004c14.528 0.026 26.782 9.729 30.663 23.006l0.057 0.226 64 224c0.781 2.632 1.23 5.657 1.23 8.786 0 11.814-6.402 22.132-15.925 27.676l-0.153 0.082zM640 704l-96 48v-208.384c0-17.673-14.327-32-32-32s-32 14.327-32 32v0 208.384l-96-48-64.64 128 40.768 64h23.872l128-128 128 128h23.936l40.768-64z" />
<glyph unicode="&#xe944;" glyph-name="presentation" d="M992 896h-960c-17.673 0-32-14.327-32-32v0-64c0-17.673 14.327-32 32-32v0h32v-512c0-35.346 28.654-64 64-64v0h352v-78.848l-81.728-54.528c-8.638-5.822-14.244-15.568-14.244-26.624 0-17.675 14.329-32.004 32.004-32.004 6.62 0 12.77 2.010 17.874 5.452l-0.114-0.072 78.208 52.224 78.272-52.16c4.99-3.37 11.14-5.38 17.76-5.38 17.675 0 32.004 14.329 32.004 32.004 0 11.056-5.606 20.802-14.13 26.552l-0.114 0.072-81.792 54.464v78.848h352c35.346 0 64 28.654 64 64v0 512h32c17.673 0 32 14.327 32 32v0 64c0 17.673-14.327 32-32 32v0zM320 320h-128v128h128zM576 320h-128v256h128zM832 320h-128v320h128z" />
<glyph unicode="&#xe945;" glyph-name="prism" d="M544 915.968v-960l480 300.032-480 659.968zM480 915.968l-480-659.968 480-300.032v960z" />
<glyph unicode="&#xe946;" glyph-name="rain" d="M832 640h-6.4c-30.719 147.228-159.421 256.245-313.585 256.245-130.525 0-242.798-78.147-292.583-190.206l-0.809-2.039c-122.559-1.518-221.328-101.224-221.328-224 0-123.721 100.295-224.016 224.016-224.016 0.945 0 1.889 0.006 2.831 0.018l-0.143-0.001h608c106.039 0 192 85.961 192 192s-85.961 192-192 192v0zM773.696 178.176c-32.237-41.091-56.407-90.138-69.179-143.611l-0.517-2.565c0-53.019 42.981-96 96-96s96 42.981 96 96v0c-13.289 56.038-37.459 105.085-70.316 146.997l0.62-0.821c-6.133 7.899-15.631 12.933-26.304 12.933s-20.171-5.034-26.248-12.858l-0.056-0.075zM485.696 178.176c-32.248-41.087-56.42-90.137-69.18-143.615l-0.516-2.561c0-53.019 42.981-96 96-96s96 42.981 96 96v0c-13.276 56.039-37.448 105.089-70.314 146.994l0.618-0.818c-6.133 7.899-15.631 12.933-26.304 12.933s-20.171-5.034-26.248-12.858l-0.056-0.075zM197.696 178.176c-32.248-41.087-56.42-90.137-69.18-143.615l-0.516-2.561c0-53.019 42.981-96 96-96s96 42.981 96 96v0c-13.276 56.039-37.448 105.089-70.314 146.994l0.618-0.818c-6.133 7.899-15.631 12.933-26.304 12.933s-20.171-5.034-26.248-12.858l-0.056-0.075z" />
<glyph unicode="&#xe947;" glyph-name="renew-arrow" d="M1017.6 691.2l-192 256c-6.125 7.405-15.316 12.088-25.6 12.088s-19.475-4.683-25.555-12.032l-0.045-0.056-192-256c-3.996-5.281-6.4-11.96-6.4-19.2 0-17.673 14.327-32 32-32v0h96v-372.352c-12.717-89.811-53.164-168.448-112.258-228.74l0.066 0.068-40.768-51.2c-4.266-5.387-6.843-12.281-6.843-19.777 0-17.604 14.215-31.888 31.792-31.999h0.011c0.046 0 0.1 0 0.154 0 2.212 0 4.369 0.233 6.448 0.676l-0.202-0.036c190.464 37.76 313.6 203.584 313.6 421.76v281.6h96c17.673 0 32 14.327 32 32 0 7.24-2.404 13.919-6.458 19.28l0.058-0.080zM512 959.296c-0.046 0-0.1 0-0.154 0-2.212 0-4.369-0.233-6.448-0.676l0.202 0.036c-190.464-38.080-313.6-203.456-313.6-421.696v-281.6h-96c-17.673 0-32-14.327-32-32 0-7.24 2.404-13.919 6.458-19.28l-0.058 0.080 192-256c6.125-7.405 15.316-12.088 25.6-12.088s19.475 4.683 25.555 12.032l0.045 0.056 192 256c3.996 5.281 6.4 11.96 6.4 19.2 0 17.673-14.327 32-32 32h-96v372.288c12.717 89.811 53.164 168.448 112.258 228.74l-0.066-0.068 40.768 51.2c4.266 5.387 6.843 12.281 6.843 19.777 0 17.604-14.215 31.888-31.792 31.999h-0.011z" />
<glyph unicode="&#xe948;" glyph-name="retro-camera" d="M960 832h-512c-35.346 0-64-28.654-64-64v0h-64v32c0 17.673-14.327 32-32 32v0h-128c-17.673 0-32-14.327-32-32v0-32h-64c-35.346 0-64-28.654-64-64v0-576c0-35.346 28.654-64 64-64v0h384v138.432c-61.070 18.724-109.992 61.133-136.952 116.245l-0.584 1.323h-246.464v192h246.464c36.401 76.333 112.95 128.141 201.6 128.141s165.199-51.808 201.022-126.798l0.578-1.343h246.336v-192h-246.464c-27.544-56.435-76.466-98.844-135.949-117.148l-1.587-0.42v-138.432h384c35.346 0 64 28.654 64 64v0 640c0 35.346-28.654 64-64 64v0zM672 416c0-88.366-71.634-160-160-160s-160 71.634-160 160c0 88.366 71.634 160 160 160s160-71.634 160-160z" />
<glyph unicode="&#xe949;" glyph-name="road-sign" d="M864 576c0.017 0 0.037 0 0.057 0 8.822 0 16.811 3.57 22.599 9.345l127.999 127.999c5.789 5.791 9.369 13.789 9.369 22.624s-3.58 16.833-9.369 22.624l-128 128c-5.793 5.81-13.804 9.406-22.656 9.408h-352v32c0 17.673-14.327 32-32 32s-32-14.327-32-32v0-224h-288c-0.017 0-0.037 0-0.057 0-8.822 0-16.811-3.57-22.599-9.345l-127.999-127.999c-5.789-5.791-9.369-13.789-9.369-22.624s3.58-16.833 9.369-22.624l128-128c5.793-5.81 13.804-9.406 22.656-9.408h288v-416c0-17.673 14.327-32 32-32s32 14.327 32 32v0 288h224c7.24 0 13.919 2.404 19.28 6.458l-0.080-0.058 128 96c7.807 5.9 12.8 15.167 12.8 25.6s-4.993 19.7-12.72 25.542l-0.080 0.058-128 96c-5.281 3.996-11.96 6.4-19.2 6.4h-224v64z" />
<glyph unicode="&#xe94a;" glyph-name="sale-sign" d="M408.96 448h14.080l-7.040 28.032-7.040-28.032zM960 832h-896c-35.346 0-64-28.654-64-64v0-576c0-35.346 28.654-64 64-64v0h896c35.346 0 64 28.654 64 64v0 576c0 35.346-28.654 64-64 64v0zM256 448v-64c0-35.346-28.654-64-64-64v0h-32c-17.673 0-32 14.327-32 32s14.327 32 32 32v0h32v64c-35.346 0-64 28.654-64 64v0 64c0 35.346 28.654 64 64 64v0h32c17.673 0 32-14.327 32-32s-14.327-32-32-32v0h-32v-64c35.346 0 64-28.654 64-64v0zM487.744 320.96c-2.32-0.594-4.987-0.943-7.733-0.96h-0.011c-14.893 0.035-27.394 10.239-30.928 24.034l-0.048 0.222-9.984 39.744h-46.080l-9.92-39.744c-3.323-14.401-16.037-24.975-31.219-24.975-17.673 0-32 14.327-32 32 0 3.011 0.416 5.925 1.194 8.688l-0.054-0.225 64 256c4.902 12.613 16.946 21.391 31.040 21.391s26.138-8.778 30.962-21.165l0.078-0.226 64-256c0.603-2.323 0.95-4.99 0.95-7.738 0-14.919-10.21-27.454-24.024-30.998l-0.222-0.048zM672 320h-64c-17.673 0-32 14.327-32 32v0 256c0 17.673 14.327 32 32 32s32-14.327 32-32v0-224h32c17.673 0 32-14.327 32-32s-14.327-32-32-32v0zM864 512c17.673 0 32-14.327 32-32s-14.327-32-32-32v0h-32v-64h32c17.673 0 32-14.327 32-32s-14.327-32-32-32v0h-64c-17.673 0-32 14.327-32 32v0 256c0 17.673 14.327 32 32 32v0h64c17.673 0 32-14.327 32-32s-14.327-32-32-32v0h-32v-64z" />
<glyph unicode="&#xe94b;" glyph-name="segway" d="M32 320h128c17.673 0 32-14.327 32-32v-319.936c0-17.673-14.327-32-32-32h-128c-17.673 0-32 14.327-32 32v319.936c0 17.673 14.327 32 32 32zM800 320h128c17.673 0 32-14.327 32-32v-319.936c0-17.673-14.327-32-32-32h-128c-17.673 0-32 14.327-32 32v319.936c0 17.673 14.327 32 32 32zM736 896h-160v32c0 17.673-14.327 32-32 32v0h-128c-17.673 0-32-14.327-32-32v0-32h-160c-17.673 0-32-14.327-32-32s14.327-32 32-32v0h160v-32c0-17.673 14.327-32 32-32v0h32v-448c-10.433 0-19.7-4.993-25.542-12.72l-0.058-0.080-86.4-115.2h-80v-192h448v192h-80l-86.4 115.2c-5.9 7.807-15.167 12.8-25.6 12.8v0 0 448h32c17.673 0 32 14.327 32 32v0 32h160c17.673 0 32 14.327 32 32s-14.327 32-32 32v0z" />
<glyph unicode="&#xe94c;" glyph-name="selfie" d="M919.68 75.456l-214.784 237.184c-5.539 6.074-13.345 9.999-22.069 10.429l-0.075 0.003c-0.81 0.081-1.75 0.127-2.702 0.127-7.935 0-15.122-3.202-20.34-8.384l0.002 0.002-0.64-0.576-69.824 69.76h18.752c17.673 0 32 14.327 32 32v0 32h192c35.346 0 64 28.654 64 64v0 320c0 35.346-28.654 64-64 64v0h-320v32c0 17.673-14.327 32-32 32s-32-14.327-32-32v0-32h-320c-35.346 0-64-28.654-64-64v0-320c0-35.346 28.654-64 64-64v0h192v-32c0-17.673 14.327-32 32-32v0h146.752l112.832-112.832-46.72-42.304c-6.468-5.877-10.513-14.323-10.513-23.713 0-8.275 3.141-15.817 8.296-21.498l-0.024 0.027 214.848-237.184c5.539-6.074 13.345-9.999 22.069-10.429l0.075-0.003h1.536c8.293 0.005 15.848 3.164 21.529 8.343l-0.025-0.023 94.848 85.952c6.429 5.874 10.446 14.294 10.446 23.652 0 8.274-3.14 15.814-8.294 21.495l0.024-0.027zM128 512v320h640v-320zM558.336 700.608l-128 64c-4.176 2.138-9.11 3.391-14.336 3.391-17.673 0-31.999-14.326-32-31.999v0-128c0.001-17.673 14.327-31.999 32-31.999 5.226 0 10.16 1.253 14.517 3.475l-0.181-0.084 128 64c10.592 5.364 17.726 16.169 17.726 28.64s-7.134 23.276-17.544 28.556l-0.182 0.084z" />
<glyph unicode="&#xe94d;" glyph-name="shirt" d="M1007.872 763.776l-224 128c-4.558 2.653-10.032 4.221-15.871 4.224h-512.001c-5.84-0.003-11.314-1.571-16.025-4.306l0.153 0.082-224-128c-9.707-5.618-16.133-15.953-16.133-27.789 0-3.118 0.446-6.132 1.277-8.981l-0.057 0.226 64-224c3.955-13.502 16.228-23.196 30.765-23.196 2.711 0 5.342 0.337 7.856 0.971l-0.221-0.047 88.384 22.016v-534.976c0-17.673 14.327-32 32-32v0h576c17.673 0 32 14.327 32 32v0 534.976l88.256-22.016c2.293-0.587 4.924-0.924 7.635-0.924 14.537 0 26.81 9.694 30.708 22.97l0.057 0.226 64 224c0.786 2.642 1.239 5.677 1.239 8.818 0 11.791-6.378 22.093-15.871 27.644l-0.151 0.082zM512 704c-70.692 0-128 57.308-128 128v0h256c0-70.692-57.308-128-128-128v0z" />
<glyph unicode="&#xe94e;" glyph-name="shopping-cart" d="M1016.576 756.48c-5.908 7.058-14.721 11.516-24.575 11.52h-752.129l-27.84 104.256c-3.769 13.78-16.177 23.742-30.912 23.744h-149.12c-17.673 0-32-14.327-32-32s14.327-32 32-32v0h124.544l27.52-103.104c0-0.384 0-0.768 0-1.216l102.4-382.72 34.496-129.088c3.725-13.847 16.167-23.872 30.951-23.872 0.031 0 0.063 0 0.094 0h511.995c17.673 0 32 14.327 32 32s-14.327 32-32 32v0h-487.424l-18.176 67.328 571.2 28.672c14.958 0.765 27.155 11.692 29.857 25.977l0.031 0.199 64 352c0.336 1.741 0.528 3.743 0.528 5.79 0 7.829-2.812 15.002-7.481 20.563l0.040-0.049zM448 480c0-17.673-14.327-32-32-32s-32 14.327-32 32v0 128c0 17.673 14.327 32 32 32s32-14.327 32-32v0zM640 480c0-17.673-14.327-32-32-32s-32 14.327-32 32v0 128c0 17.673 14.327 32 32 32s32-14.327 32-32v0zM832 480c0-17.673-14.327-32-32-32s-32 14.327-32 32v0 128c0 17.673 14.327 32 32 32s32-14.327 32-32v0zM512 32c0-53.019-42.981-96-96-96s-96 42.981-96 96c0 53.019 42.981 96 96 96s96-42.981 96-96zM896 32c0-53.019-42.981-96-96-96s-96 42.981-96 96c0 53.019 42.981 96 96 96s96-42.981 96-96z" />
<glyph unicode="&#xe94f;" glyph-name="skull" d="M950.976 602.624c-43.699 205.253-223.459 356.985-438.657 356.985-247.424 0-448-200.576-448-448 0-121.944 48.722-232.509 127.76-313.29l-0.079 0.081v-134.4c0-70.692 57.308-128 128-128v0h32v96c0 17.673 14.327 32 32 32s32-14.327 32-32v0-96h64v96c0 17.673 14.327 32 32 32s32-14.327 32-32v0-96h64v96c0 17.673 14.327 32 32 32s32-14.327 32-32v0-96h32c70.692 0 128 57.308 128 128v0 134.4c79.213 80.945 128.091 191.853 128.091 314.176 0 31.876-3.319 62.977-9.631 92.977l0.516-2.929zM320 416c-0.026 0-0.057 0-0.088 0-70.692 0-128 57.308-128 128 0 47.397 25.762 88.778 64.047 110.903l0.617 0.329c12.708 6.936 27.836 11.015 43.916 11.015 26.459 0 50.339-11.043 67.282-28.771l0.033-0.035 45.568-45.568c17.78-16.989 28.834-40.888 28.834-67.369 0-16.058-4.065-31.167-11.221-44.354l0.244 0.491c-22.517-38.838-63.861-64.56-111.221-64.64h-0.011zM576 160c-35.346 0-64 28.654-64 64v0c0 2.56 0 5.952 0 9.088 0-3.072 0-6.4 0-9.088 0-35.346-28.654-64-64-64s-64 28.654-64 64v0c0 35.328 60.672 128 96 128 29.568 0 32-64.512 32-106.432 0 41.92 2.496 106.432 32 106.432 35.328 0 96-92.672 96-128 0-35.346-28.654-64-64-64v0zM698.304 416c-47.344 0.044-88.665 25.784-110.775 64.023l-0.329 0.617c-6.936 12.708-11.015 27.836-11.015 43.916 0 26.459 11.043 50.339 28.771 67.282l0.035 0.033 45.568 45.568c16.963 17.732 40.813 28.754 67.238 28.754 16.036 0 31.123-4.059 44.292-11.205l-0.49 0.243c38.902-22.454 64.664-63.835 64.664-111.232 0-70.656-57.248-127.941-127.89-128h-0.006z" />
<glyph unicode="&#xe950;" glyph-name="smartphone" d="M768 960h-512c-35.346 0-64-28.654-64-64v0-896c0-35.346 28.654-64 64-64v0h512c35.346 0 64 28.654 64 64v0 896c0 35.346-28.654 64-64 64v0zM512 0c-35.346 0-64 28.654-64 64s28.654 64 64 64c35.346 0 64-28.654 64-64v0c0-35.346-28.654-64-64-64v0zM768 192h-512v640h512z" />
<glyph unicode="&#xe951;" glyph-name="smartwatch-app" d="M800 640h-32c-0.115 42.914-21.331 80.849-53.816 103.991l-0.392 0.265c-26.294 53.741-41.705 116.932-41.792 183.714v0.030c0 17.673-14.327 32-32 32v0h-320c-17.673 0-32-14.327-32-32v0c-0.087-66.812-15.498-130.003-42.905-186.277l1.113 2.533c-32.877-23.407-54.093-61.341-54.208-104.238v-384.018c0.115-42.914 21.331-80.849 53.816-103.991l0.392-0.265c26.304-53.739 41.716-116.933 41.792-183.718v-0.026c0-17.673 14.327-32 32-32v0h320c17.673 0 32 14.327 32 32v0c0.065 66.833 15.479 130.050 42.905 186.338l-1.113-2.53c32.86 23.394 54.071 61.302 54.208 104.17v256.022h32c17.673 0 32 14.327 32 32v0 64c0 17.673-14.327 32-32 32v0zM640 192h-320c-35.346 0-64 28.654-64 64v0c84.032 0 107.968 77.568 127.232 139.904 8.164 32.031 20.058 60.161 35.492 85.928l-0.804-1.448c21.856 0.864 40.754 12.763 51.363 30.249l0.157 0.279c3.038 0.526 6.674 0.916 10.368 1.081l0.192 0.007c57.6 0 74.496-44.096 96.768-116.096 19.2-62.336 43.2-139.904 127.232-139.904 0-35.346-28.654-64-64-64v0zM704 320c-33.344 0-45.76 28.864-66.112 94.72-20.992 68.096-49.856 161.28-157.888 161.28-3.328 0-5.952-0.832-9.088-1.024-10.824 19.648-31.307 32.792-54.88 33.024h-0.032c-35.346 0-64-28.654-64-64v0c0.322-12.27 4.149-23.585 10.509-33.055l-0.141 0.223c-16.508-27.742-30.262-59.797-39.605-93.681l-0.651-2.767c-20.352-65.856-32.768-94.72-66.112-94.72v320c0 35.346 28.654 64 64 64v0h320c35.346 0 64-28.654 64-64v0z" />
<glyph unicode="&#xe952;" glyph-name="smartwatch" d="M593.792 400.96c-0.213-0.001-0.466-0.002-0.719-0.002-25.056 0-48.743 5.86-69.766 16.285l0.917-0.411c-1.875 0.975-4.094 1.546-6.446 1.546-5.567 0-10.386-3.202-12.717-7.864l-0.037-0.082-10.24-21.184c-30.823 17.929-55.774 42.861-73.216 72.715l-0.512 0.949 21.184 10.24c4.745 2.368 7.946 7.187 7.946 12.754 0 2.352-0.572 4.571-1.584 6.525l0.037-0.079c-10.013 20.083-15.874 43.745-15.874 68.776 0 0.278 0.001 0.557 0.002 0.835v-0.043c-0.071 7.725-6.296 13.973-14.006 14.080h-52.49c-7.847 0-14.208-6.361-14.208-14.208v0c0.145-133.457 108.276-241.61 241.71-241.792h0.018c7.847 0 14.208 6.361 14.208 14.208v0 52.48c0 0.019 0 0.041 0 0.064 0 7.847-6.361 14.208-14.208 14.208 0 0 0 0 0 0v0zM800 640h-32c-0.115 42.914-21.331 80.849-53.816 103.991l-0.392 0.265c-26.294 53.741-41.705 116.932-41.792 183.714v0.030c0 17.673-14.327 32-32 32v0h-320c-17.673 0-32-14.327-32-32v0c-0.087-66.812-15.498-130.003-42.905-186.277l1.113 2.533c-32.877-23.407-54.093-61.341-54.208-104.238v-384.018c0.115-42.914 21.331-80.849 53.816-103.991l0.392-0.265c26.304-53.739 41.716-116.933 41.792-183.718v-0.026c0-17.673 14.327-32 32-32v0h320c17.673 0 32 14.327 32 32v0c0.065 66.833 15.479 130.050 42.905 186.338l-1.113-2.53c32.86 23.394 54.071 61.302 54.208 104.17v256.022h32c17.673 0 32 14.327 32 32v0 64c0 17.673-14.327 32-32 32v0zM704 256c0-35.346-28.654-64-64-64v0h-320c-35.346 0-64 28.654-64 64v0 384c0 35.346 28.654 64 64 64v0h320c35.346 0 64-28.654 64-64v0z" />
<glyph unicode="&#xe953;" glyph-name="soccer" d="M512 960c-282.77 0-512-229.23-512-512s229.23-512 512-512c282.77 0 512 229.23 512 512v0c-0.327 282.638-229.362 511.672-511.968 512h-0.032zM897.344 220.672l-159.168-31.424-61.888 73.152 75.456 211.2 98.368 48.192 107.712-117.312c-6.946-68.671-28.536-131.088-61.595-185.797l1.115 1.989zM284.928 187.008l-142.208 7.936c-41.246 59-68.823 130.411-76.646 207.659l-0.154 1.877 108.608 117.696 98.816-48.576 74.432-211.2zM860.928 728.064l-31.36-144.768-100.416-49.216-184.768 134.4v125.12l131.648 70.784c74.387-29.901 136.667-76.511 184.363-135.413l0.661-0.843zM348.928 864.768l131.584-71.168v-124.864l-184.64-134.4-100.864 49.088-31.36 145.664c48.469 59.577 110.833 106.022 182.253 134.672l3.027 1.072zM375.104 21.504l-40.256 125.696 64 76.8h226.304l63.040-74.624-62.144-134.4c-34.407-9.672-73.918-15.232-114.729-15.232-48.694 0-95.539 7.916-139.319 22.531l3.104-0.898z" />
<glyph unicode="&#xe954;" glyph-name="speech-bubble" d="M1017.6 882.816c-5.525 7.344-14.013 12.205-23.654 12.796l-0.090 0.004-960 64c-0.462 0.023-1.003 0.035-1.548 0.035-8.511 0-16.288-3.141-22.237-8.326l0.040 0.035c-6.231-5.853-10.112-14.145-10.112-23.343 0-0.006 0-0.012 0-0.017v0.001-448c0.006-15.951 11.683-29.173 26.954-31.592l0.182-0.024 413.312-63.616-116.416-209.216c-0.96-1.728-0.512-3.776-1.152-5.632-1.163-2.022-2.146-4.361-2.829-6.825l-0.051-0.215c0-1.152 0.576-2.112 0.64-3.264 0.163-2.798 0.689-5.417 1.534-7.888l-0.062 0.208c0.875-3.595 2.286-6.757 4.165-9.582l-0.069 0.11c0.704-1.024 0.576-2.368 1.408-3.328 1.619-1.542 3.422-2.917 5.365-4.083l0.139-0.077c0.896-0.704 1.28-1.856 2.24-2.432l320-192c4.684-2.841 10.346-4.522 16.4-4.522 17.673 0 32 14.327 32 32 0 4.769-1.043 9.295-2.914 13.361l0.082-0.199-106.752 235.52 280.064 105.024h0.768c1.35 0.664 2.482 1.324 3.564 2.052l-0.108-0.068c2.010 0.941 3.731 1.965 5.34 3.136l-0.092-0.064c1.32 1.209 2.516 2.506 3.595 3.897l0.053 0.071c2.758 2.409 4.782 5.595 5.731 9.216l0.029 0.128c0.563 1.053 1.124 2.321 1.598 3.63l0.066 0.21 128 512c0.639 2.39 1.006 5.133 1.006 7.963 0 7.116-2.323 13.69-6.252 19.005l0.062-0.087z" />
<glyph unicode="&#xe955;" glyph-name="storm" d="M837.696 178.176c-32.237-41.091-56.407-90.138-69.179-143.611l-0.517-2.565c0-53.019 42.981-96 96-96s96 42.981 96 96v0c-13.289 56.038-37.459 105.085-70.316 146.997l0.62-0.821c-6.133 7.899-15.631 12.933-26.304 12.933s-20.171-5.034-26.248-12.858l-0.056-0.075zM581.696 178.176c-32.248-41.087-56.42-90.137-69.18-143.615l-0.516-2.561c0-53.019 42.981-96 96-96s96 42.981 96 96v0c-13.289 56.038-37.459 105.085-70.316 146.997l0.62-0.821c-6.133 7.899-15.631 12.933-26.304 12.933s-20.171-5.034-26.248-12.858l-0.056-0.075zM320 256h-64v160c0 17.673-14.327 32-32 32-13.626 0-25.263-8.517-29.878-20.517l-0.074-0.219-96-256c-1.297-3.345-2.048-7.217-2.048-11.264 0-17.673 14.327-32 32-32v0h64v-160c0-15.659 11.249-28.691 26.106-31.457l0.198-0.031c1.7-0.305 3.668-0.491 5.676-0.512h0.020c13.626 0 25.263 8.517 29.878 20.517l0.074 0.219 96 256c1.297 3.345 2.048 7.217 2.048 11.264 0 17.673-14.327 32-32 32v0zM832 640h-6.4c-30.719 147.228-159.421 256.245-313.585 256.245-130.525 0-242.798-78.147-292.583-190.206l-0.809-2.039c-121.313-2.375-218.745-101.277-218.745-222.936 0-69.215 31.537-131.064 81.025-171.962l0.376-0.302 52.8 140.8c14.022 36.749 48.978 62.379 89.92 62.379 53.012 0 95.988-42.969 96-95.978v-96.001c0.004 0 0.009 0 0.015 0 32.52 0 61.264-16.17 78.629-40.909l0.204-0.307c4.538-6.56 8.412-14.091 11.249-22.112l0.207-0.672h421.696c106.039 0 192 85.961 192 192s-85.961 192-192 192v0z" />
<glyph unicode="&#xe956;" glyph-name="suffle" d="M1012.48 216.576l-192 160c-5.506 4.611-12.666 7.412-20.48 7.412-17.669 0-31.993-14.32-32-31.987v-96.001h-53.568c-0.192-0.001-0.419-0.002-0.646-0.002-45.44 0-85.32 23.809-107.844 59.633l-0.31 0.529-206.976 331.52c-45.654 72.703-125.401 120.321-216.271 120.321-0.287 0-0.574 0-0.861-0.001h-181.524v-128h181.568c0.192 0.001 0.419 0.002 0.646 0.002 45.44 0 85.32-23.809 107.844-59.633l0.31-0.529 207.232-331.52c45.683-72.705 125.452-120.32 216.341-120.32 0.173 0 0.345 0 0.517 0.001h53.541v-96c0-17.673 14.327-32 32-32v0c7.815 0.004 14.975 2.808 20.53 7.465l-0.050-0.041 192 160c7.053 5.911 11.506 14.723 11.506 24.576s-4.453 18.665-11.456 24.535l-0.050 0.041zM1012.48 728.576l-192 160c-5.506 4.611-12.666 7.412-20.48 7.412-17.669 0-31.993-14.32-32-31.987v-96.001h-53.568c-0.243 0.001-0.53 0.001-0.817 0.001-90.869 0-170.617-47.618-215.65-119.263l-0.621-1.058-207.168-331.52c-22.849-36.354-62.739-60.161-108.189-60.161-0.215 0-0.429 0.001-0.644 0.002h-181.343v-128h181.568c0.211-0.001 0.461-0.001 0.711-0.001 90.9 0 170.68 47.615 215.757 119.264l0.621 1.057 207.232 331.52c22.849 36.354 62.739 60.161 108.189 60.161 0.215 0 0.429-0.001 0.644-0.002h53.279v-96c0.007-17.668 14.331-31.988 32-31.988 7.814 0 14.974 2.801 20.53 7.453l-0.050-0.041 192 160c7.075 5.911 11.544 14.738 11.544 24.608s-4.469 18.697-11.493 24.567l-0.051 0.041z" />
<glyph unicode="&#xe957;" glyph-name="support" d="M576 896c-0.024 0-0.052 0-0.081 0-36.839 0-72.588-4.669-106.687-13.446l2.959 0.646c-14.136-3.52-24.446-16.104-24.446-31.096 0-17.673 14.327-32 32-32 2.842 0 5.598 0.371 8.221 1.066l-0.223-0.050c26.491 6.897 56.907 10.865 88.246 10.88h0.010c212.077 0 384-171.923 384-384s-171.923-384-384-384v0c-0.361-0.001-0.789-0.002-1.216-0.002-30.88 0-60.86 3.852-89.487 11.101l2.511-0.539c-2.334 0.609-5.014 0.958-7.776 0.958-17.69 0-32.030-14.34-32.030-32.030 0-14.928 10.212-27.471 24.032-31.024l0.222-0.048c30.761-7.889 66.075-12.418 102.447-12.418 0.456 0 0.912 0.001 1.368 0.002h-0.071c247.424 0 448 200.576 448 448s-200.576 448-448 448v0zM576 352c0 17.673-14.327 32-32 32v0h-96v32c0 17.673 14.327 32 32 32v0c53.019 0 96 42.981 96 96s-42.981 96-96 96v0h-64c-17.673 0-32-14.327-32-32s14.327-32 32-32v0h64c17.673 0 32-14.327 32-32s-14.327-32-32-32v0c-53.019 0-96-42.981-96-96v0-64c0-17.673 14.327-32 32-32v0h128c17.673 0 32 14.327 32 32v0zM711.744 639.040c-2.323 0.603-4.99 0.95-7.738 0.95-14.919 0-27.454-10.21-30.998-24.024l-0.048-0.222-32-128c-0.604-2.325-0.951-4.994-0.951-7.744 0-17.67 14.322-31.995 31.991-32h96v-96c0-17.673 14.327-32 32-32s32 14.327 32 32v0 256c0 17.673-14.327 32-32 32s-32-14.327-32-32v0-96h-54.976l22.080 88.256c0.601 2.319 0.946 4.98 0.946 7.723 0 14.941-10.24 27.491-24.084 31.013l-0.221 0.048zM208.576 593.472c2.896-0.953 6.23-1.503 9.692-1.503 14.445 0 26.654 9.571 30.633 22.717l0.059 0.227c21.9 72.704 55.676 135.839 99.539 190.538l-0.851-1.098c4.322 5.408 6.936 12.346 6.936 19.895 0 9.753-4.363 18.487-11.244 24.356l-0.045 0.037-122.304 103.744c-5.541 4.721-12.783 7.593-20.696 7.593-10.053 0-19.022-4.635-24.889-11.885l-0.047-0.060c-109.259-135.707-175.372-310.165-175.372-500.064s66.113-364.357 176.577-501.612l-1.205 1.548c5.286-6.59 13.029-11.020 21.819-11.893l0.133-0.011h3.008c7.907 0.013 15.14 2.892 20.716 7.653l-0.044-0.037 122.24 103.68c6.907 5.906 11.258 14.629 11.258 24.367 0 7.532-2.602 14.455-6.956 19.922l0.050-0.065c-42.992 53.641-76.748 116.82-97.593 185.611l-1.031 3.957c-4.038 13.373-16.247 22.943-30.692 22.943-3.462 0-6.796-0.55-9.919-1.567l0.226 0.064-91.072-28.992c-13.664 52.376-21.508 112.504-21.508 174.464s7.845 122.089 22.595 179.446l-1.087-4.982z" />
<glyph unicode="&#xe958;" glyph-name="tags" d="M950.656 534.656l-416 416c-5.788 5.774-13.776 9.344-22.599 9.344-0.020 0-0.040 0-0.060 0h-351.997c-17.673 0-32-14.327-32-32v0-96h256c0.084 0 0.183 0 0.282 0 26.424 0 50.339-10.74 67.619-28.093l411.011-411.011 88.768 97.6c5.171 5.664 8.338 13.234 8.338 21.543 0 8.831-3.577 16.827-9.362 22.617v0zM406.656 758.592c-5.793 5.81-13.804 9.406-22.656 9.408h-352c-17.673 0-32-14.327-32-32v0-352c0.012-9.246 3.942-17.571 10.22-23.406l0.020-0.018 448-416c5.687-5.305 13.342-8.565 21.758-8.576h1.346c8.879 0.397 16.762 4.355 22.312 10.469l0.024 0.027 320 352c5.134 5.655 8.277 13.198 8.277 21.476 0 8.833-3.579 16.83-9.365 22.62v0zM224 448c-53.019 0-96 42.981-96 96s42.981 96 96 96c53.019 0 96-42.981 96-96v0c0-53.019-42.981-96-96-96v0z" />
<glyph unicode="&#xe959;" glyph-name="taxi" d="M950.848 508.928l-105.024 262.4c-14.305 35.823-48.708 60.672-88.915 60.672-0.083 0-0.167 0-0.25 0h-52.659v96c0 17.673-14.327 32-32 32v0h-320c-17.673 0-32-14.327-32-32v0-96h-52.672c-0.095 0-0.207 0.001-0.32 0.001-40.097 0-74.426-24.698-88.603-59.712l-0.229-0.641-105.088-262.4c-42.284-10.65-73.088-48.341-73.088-93.226 0-0.008 0-0.016 0-0.024v0.001-256c0-17.673 14.327-32 32-32v0h32v-96c0-17.673 14.327-32 32-32v0h128c17.673 0 32 14.327 32 32v0 96h512v-96c0-17.673 14.327-32 32-32v0h128c17.673 0 32 14.327 32 32v0 96h32c17.673 0 32 14.327 32 32v0 256c-0.151 44.78-30.938 82.327-72.49 92.787l-0.662 0.141zM192 256c-35.346 0-64 28.654-64 64s28.654 64 64 64c35.346 0 64-28.654 64-64v0c0-35.346-28.654-64-64-64v0zM692.032 326.976l-80-64c-5.417-4.347-12.374-6.976-19.945-6.976-0.031 0-0.061 0-0.092 0h-159.995c-0.007 0-0.015 0-0.023 0-7.571 0-14.528 2.629-20.008 7.025l0.063-0.049-80 64c-7.374 5.913-12.055 14.922-12.055 25.024 0 17.673 14.327 32 32 32 0.008 0 0.016 0 0.024 0h319.999c0.026 0 0.057 0 0.087 0 17.673 0 32-14.327 32-32 0-10.102-4.681-19.111-11.992-24.975l-0.063-0.049zM143.296 512l94.336 235.904c4.853 11.876 16.314 20.093 29.696 20.096h489.344c13.382-0.003 24.843-8.22 29.619-19.883l0.077-0.213 94.4-235.904zM832 256c-35.346 0-64 28.654-64 64s28.654 64 64 64c35.346 0 64-28.654 64-64v0c0-35.346-28.654-64-64-64v0z" />
<glyph unicode="&#xe95a;" glyph-name="team" d="M960 832c0-70.692-57.308-128-128-128s-128 57.308-128 128c0 70.692 57.308 128 128 128s128-57.308 128-128zM320 832c0-70.692-57.308-128-128-128s-128 57.308-128 128c0 70.692 57.308 128 128 128s128-57.308 128-128zM640 832c0-70.692-57.308-128-128-128s-128 57.308-128 128c0 70.692 57.308 128 128 128s128-57.308 128-128zM611.072 640h-35.072c-0.017 0-0.037 0-0.057 0-8.822 0-16.811-3.57-22.599-9.345l-41.343-41.343-41.344 41.344c-5.788 5.774-13.776 9.344-22.599 9.344-0.020 0-0.040 0-0.060 0h-35.005c-0.127 0.001-0.277 0.001-0.427 0.001-32.71 0-59.647-24.711-63.163-56.484l-0.026-0.286-29.376-227.2c-0.162-1.211-0.255-2.611-0.255-4.033 0-17.673 14.327-32 32-32 0.090 0 0.179 0 0.269 0.001h34.546l26.752-326.4c3.36-32.484 30.587-57.601 63.679-57.601 0.113 0 0.225 0 0.338 0.001h69.679c0.079 0 0.172-0.001 0.265-0.001 33.296 0 60.653 25.426 63.715 57.921l0.019 0.256 26.496 325.824h34.496c0.076-0.001 0.165-0.001 0.255-0.001 17.673 0 32 14.327 32 32 0 1.422-0.093 2.822-0.272 4.195l0.017-0.162-29.312 226.368c-3.359 32.462-30.55 57.566-63.613 57.6h-0.003zM256.768 363.904l29.12 227.456c1.879 17.458 7.18 33.336 15.226 47.446l-0.314-0.598c-2.77 0.783-6.076 1.415-9.463 1.77l-0.265 0.022h-35.072c-0.017 0-0.037 0-0.057 0-8.822 0-16.811-3.57-22.599-9.345l-41.343-41.343-41.344 41.344c-5.788 5.774-13.776 9.344-22.599 9.344-0.020 0-0.040 0-0.060 0h-35.005c-0.127 0.001-0.277 0.001-0.427 0.001-32.71 0-59.647-24.711-63.163-56.484l-0.026-0.286-29.376-227.2c-0.162-1.211-0.255-2.611-0.255-4.033 0-17.673 14.327-32 32-32 0.090 0 0.179 0 0.269 0.001h34.546l26.752-262.4c3.36-32.484 30.587-57.601 63.679-57.601 0.113 0 0.225 0 0.338 0.001h69.679c0.079 0 0.172-0.001 0.265-0.001 33.296 0 60.653 25.426 63.715 57.921l0.019 0.256 21.248 207.68c-12.564 5.564-23.215 13.304-31.935 22.84l-0.065 0.072c-15.020 16.78-24.203 39.059-24.203 63.484 0 4.107 0.26 8.154 0.763 12.124l-0.049-0.472zM1016 330.88c5.099 5.646 8.219 13.165 8.219 21.412 0 1.318-0.080 2.617-0.234 3.893l0.015-0.154-29.312 226.368c-3.359 32.462-30.55 57.566-63.613 57.6h-35.075c-0.017 0-0.037 0-0.057 0-8.822 0-16.811-3.57-22.599-9.345l-41.343-41.343-41.344 41.344c-5.788 5.774-13.776 9.344-22.599 9.344-0.020 0-0.040 0-0.060 0h-35.069c-3.834-0.393-7.312-1.070-10.673-2.025l0.433 0.105c7.942-13.944 13.437-30.305 15.433-47.73l0.055-0.59 28.992-225.536c0.494-3.658 0.776-7.886 0.776-12.18 0-24.501-9.178-46.857-24.284-63.82l0.084 0.096c-8.788-9.486-19.443-17.105-31.397-22.295l-0.603-0.233 21.248-208.192c3.36-32.484 30.587-57.601 63.679-57.601 0.113 0 0.225 0 0.338 0.001h70.063c0.079 0 0.172-0.001 0.265-0.001 33.296 0 60.653 25.426 63.715 57.921l0.019 0.256 26.432 261.824h34.496c9.548 0.012 18.115 4.205 23.97 10.845l0.030 0.035z" />
<glyph unicode="&#xe95b;" glyph-name="tobacco-pipe" d="M992 704c-165.952 0-278.912-132.48-378.688-249.6-75.264-88.064-146.816-171.968-229.312-188.928v150.528c0 17.673-14.327 32-32 32v0h-320c-17.673 0-32-14.327-32-32v0-224c0-106.039 85.961-192 192-192v0c5.184 0 10.368 0 13.696 0l4.672 0.384c265.536 0.512 419.776 202.816 544 365.376 84.032 110.976 156.992 206.656 239.040 210.24 17.057 0.775 30.592 14.791 30.592 31.969 0 0.011 0 0.022 0 0.033v-0.002 64c0 17.673-14.327 32-32 32v0zM190.656 515.776c4.088-2.26 8.941-3.643 14.104-3.775l0.040-0.001h1.792c17.611 0.082 31.856 14.377 31.856 32 0 4.63-0.983 9.031-2.753 13.004l0.081-0.204c-18.688 41.792-10.88 55.232-1.28 65.472 5.952 6.4 12.8 12.224 19.2 18.304 39.588 29.132 65.267 75.174 66.301 127.261l0.003 0.163c-0.908 84.352-52.278 156.485-125.31 187.712l-1.346 0.512c-3.832 2.108-8.35 3.47-13.156 3.771l-0.092 0.005c-0.466 0.023-1.012 0.036-1.561 0.036-9.232 0-17.592-3.73-23.657-9.766l0.001 0.001c-5.59-5.755-9.037-13.618-9.037-22.287 0-4.6 0.97-8.973 2.718-12.926l-0.081 0.205c6.353-12.603 10.475-27.345 11.44-42.942l0.016-0.322c0-13.184-8.704-22.336-30.080-41.536-39.443-28.788-65.005-74.554-65.854-126.331l-0.002-0.133c-0.027-1.182-0.042-2.575-0.042-3.971 0-51.99 21.129-99.045 55.268-133.047l0.006-0.006c20.463-20.114 43.998-37.194 69.819-50.451l1.605-0.749z" />
<glyph unicode="&#xe95c;" glyph-name="trophy" d="M992 832h-160v32c0 17.673-14.327 32-32 32v0h-576c-17.673 0-32-14.327-32-32v0-32h-160c-17.673 0-32-14.327-32-32v0-52.48c0-0.015 0-0.033 0-0.051 0-152.14 96.626-281.711 231.856-330.694l2.448-0.775 6.4-2.176c40.484-77.162 101.343-138.906 175.488-179.361l2.24-1.119c-1.565-3.627-2.481-7.849-2.496-12.282v-157.062h-64c-17.673 0-32-14.327-32-32v0-64c0-17.673 14.327-32 32-32v0h320c17.673 0 32 14.327 32 32v0 64c0 17.673-14.327 32-32 32v0h-64v156.8c-0.005 4.461-0.923 8.706-2.575 12.56l0.079-0.208c76.389 41.567 137.251 103.313 176.605 178.137l1.123 2.343 6.912 2.304c137.471 49.824 233.92 179.27 233.92 331.243 0 0.12 0 0.24 0 0.36v-0.019 52.48c0 17.673-14.327 32-32 32v0zM64 747.52v20.48h128v-157.696c0.238-39.791 5.877-78.167 16.22-114.564l-0.732 3.012c-86.306 50.732-143.355 143.072-143.488 248.749v0.019zM960 747.52c-0.085-105.745-57.146-198.143-142.139-248.162l-1.349-0.734c9.621 33.426 15.261 71.848 15.487 111.553l0.001 0.127v157.696h128z" />
<glyph unicode="&#xe95d;" glyph-name="twitter" d="M1024 733.504c-35.192-15.791-76.021-27.441-118.779-32.924l-2.181-0.228c43.494 26.164 76.175 66.523 91.932 114.553l0.42 1.479c-38.321-23.105-82.918-40.735-130.42-50.359l-2.7-0.457c-38.401 40.829-92.775 66.257-153.088 66.257-115.91 0-209.885-93.914-209.984-209.8v-0.009c-0.007-0.648-0.011-1.413-0.011-2.179 0-16.187 1.776-31.959 5.143-47.133l-0.268 1.44c-174.991 8.759-328.94 91.978-431.915 218.375l-0.853 1.081c-18.027-30.344-28.682-66.897-28.682-105.939 0-72.427 36.669-136.29 92.454-174.037l0.74-0.472c-34.924 0.878-67.474 10.259-95.899 26.139l1.051-0.539v-2.304c0.259-101.147 71.71-185.531 166.878-205.707l1.378-0.245c-15.942-4.436-34.248-6.985-53.15-6.985-0.687 0-1.374 0.003-2.059 0.010l0.105-0.001c-1.018-0.020-2.218-0.032-3.421-0.032-12.855 0-25.403 1.316-37.516 3.822l1.193-0.206c27.952-83.946 104.756-143.845 195.882-146.234l0.278-0.006c-70.87-55.862-161.448-89.6-259.906-89.6-0.134 0-0.268 0-0.402 0h0.021c-0.649-0.004-1.416-0.006-2.183-0.006-16.939 0-33.628 1.072-50.002 3.152l1.945-0.202c90.473-59.073 201.24-94.211 320.214-94.211 0.645 0 1.289 0.001 1.934 0.003h-0.1c1.221-0.009 2.664-0.014 4.109-0.014 327.73 0 593.408 265.678 593.408 593.408 0 1.4-0.005 2.799-0.015 4.197l0.001-0.215c0 9.28-0.32 18.24-0.768 27.136 41.551 29.995 76.488 66.134 104.263 107.485l0.953 1.507z" />
</font>
</defs>
</svg>
